ISO-10303-21;
HEADER;
FILE_DESCRIPTION (( 'STEP AP214' ),
    '1' );
FILE_NAME ('module sensor plate.STEP',
    '2026-03-17T15:35:51',
    ( '' ),
    ( '' ),
    'SwSTEP 2.0',
    'SolidWorks 2025',
    '' );
FILE_SCHEMA (( 'AUTOMOTIVE_DESIGN' ));
ENDSEC;

DATA;
#1 = DIRECTION ( 'NONE',  ( -3.594246919769842082E-16, -0.9867625124381891322, -0.1621719582624337741 ) ) ;
#2 = VERTEX_POINT ( 'NONE', #826 ) ;
#3 = CIRCLE ( 'NONE', #127, 0.1330000000000003957 ) ;
#4 = CARTESIAN_POINT ( 'NONE',  ( 2.499999999997792433, 21.19480732291192737, 40.95490369996441160 ) ) ;
#5 = ADVANCED_FACE ( 'NONE', ( #185 ), #470, .F. ) ;
#6 = VECTOR ( 'NONE', #263, 39.37007874015748143 ) ;
#7 = FACE_OUTER_BOUND ( 'NONE', #361, .T. ) ;
#8 = CARTESIAN_POINT ( 'NONE',  ( -2.499999999997790212, 19.59034551404702285, 49.94673423127520806 ) ) ;
#9 = ADVANCED_FACE ( 'NONE', ( #549 ), #126, .F. ) ;
#10 = ORIENTED_EDGE ( 'NONE', *, *, #216, .T. ) ;
#11 = CIRCLE ( 'NONE', #819, 0.1330000000000003957 ) ;
#12 = AXIS2_PLACEMENT_3D ( 'NONE', #750, #562, #339 ) ;
#13 = ORIENTED_EDGE ( 'NONE', *, *, #749, .T. ) ;
#14 = DIRECTION ( 'NONE',  ( -3.594246919769842082E-16, -0.9867625124381891322, -0.1621719582624337741 ) ) ;
#15 = VERTEX_POINT ( 'NONE', #341 ) ;
#16 = ORIENTED_EDGE ( 'NONE', *, *, #221, .F. ) ;
#17 = EDGE_LOOP ( 'NONE', ( #861, #660, #202, #232 ) ) ;
#18 = CIRCLE ( 'NONE', #729, 0.09674999999999779610 ) ;
#19 = FACE_OUTER_BOUND ( 'NONE', #17, .T. ) ;
#20 = DIRECTION ( 'NONE',  ( 0.000000000000000000, -0.1621719582624342459, 0.9867625124381892432 ) ) ;
#21 = ORIENTED_EDGE ( 'NONE', *, *, #420, .T. ) ;
#22 = EDGE_LOOP ( 'NONE', ( #368, #725 ) ) ;
#23 = VERTEX_POINT ( 'NONE', #52 ) ;
#24 = LINE ( 'NONE', #369, #518 ) ;
#25 = CYLINDRICAL_SURFACE ( 'NONE', #328, 0.1330000000000000626 ) ;
#26 = VERTEX_POINT ( 'NONE', #754 ) ;
#27 = ORIENTED_EDGE ( 'NONE', *, *, #60, .F. ) ;
#28 = VERTEX_POINT ( 'NONE', #338 ) ;
#29 = DIRECTION ( 'NONE',  ( 0.000000000000000000, -0.1621719582624190081, 0.9867625124381914636 ) ) ;
#30 = FACE_OUTER_BOUND ( 'NONE', #275, .T. ) ;
#31 = CLOSED_SHELL ( 'NONE', ( #88, #5, #457, #61, #587, #575, #604, #389, #322, #893, #96, #686, #609, #9, #571, #171, #476, #191, #73, #394, #841, #150, #668, #140, #266, #493 ) ) ;
#32 = EDGE_CURVE ( 'NONE', #645, #446, #554, .T. ) ;
#33 = EDGE_LOOP ( 'NONE', ( #371, #136, #27, #691 ) ) ;
#34 = FACE_BOUND ( 'NONE', #863, .T. ) ;
#35 = CARTESIAN_POINT ( 'NONE',  ( -1.500000000000000444, 19.91312179377470315, 48.75353452638934471 ) ) ;
#36 = CARTESIAN_POINT ( 'NONE',  ( 1.500000000000000444, 20.36825739463822416, 45.98418553523158181 ) ) ;
#37 = CIRCLE ( 'NONE', #260, 0.1330000000000000626 ) ;
#38 = ORIENTED_EDGE ( 'NONE', *, *, #82, .F. ) ;
#39 = DIRECTION ( 'NONE',  ( 0.000000000000000000, -0.1621719582624344125, 0.9867625124381891322 ) ) ;
#40 = CARTESIAN_POINT ( 'NONE',  ( -2.499999999997790212, 19.71369082810184281, 49.96700572605801938 ) ) ;
#41 = CARTESIAN_POINT ( 'NONE',  ( 1.499999999999999112, 19.78977647971989029, 48.73326303160653339 ) ) ;
#42 = LINE ( 'NONE', #838, #444 ) ;
#43 = PLANE ( 'NONE',  #411 ) ;
#44 =( LENGTH_UNIT ( ) NAMED_UNIT ( * ) SI_UNIT ( $, .METRE. ) );
#45 = CIRCLE ( 'NONE', #836, 0.5000000000022014612 ) ;
#46 = CARTESIAN_POINT ( 'NONE',  ( 2.499999999997792433, 21.09303087930601350, 40.80339279102731354 ) ) ;
#47 = AXIS2_PLACEMENT_3D ( 'NONE', #689, #129, #839 ) ;
#48 = CYLINDRICAL_SURFACE ( 'NONE', #215, 0.09674999999999779610 ) ;
#49 = CARTESIAN_POINT ( 'NONE',  ( 1.500000000000000444, 20.38394753160011419, 45.88871626215318855 ) ) ;
#50 = DIRECTION ( 'NONE',  ( 1.000000000000000000, -4.370956789866670298E-16, 0.000000000000000000 ) ) ;
#51 = CARTESIAN_POINT ( 'NONE',  ( -1.500000000000000444, 20.39963766856200422, 45.79324698907479529 ) ) ;
#52 = CARTESIAN_POINT ( 'NONE',  ( 2.499999999997791100, 19.75682856899964079, 49.70452689774946009 ) ) ;
#53 = DIRECTION ( 'NONE',  ( 3.594246919769843068E-16, 0.9867625124381893542, 0.1621719582624338019 ) ) ;
#54 = DIRECTION ( 'NONE',  ( -3.594246919769843068E-16, -0.9867625124381893542, -0.1621719582624338019 ) ) ;
#55 = ORIENTED_EDGE ( 'NONE', *, *, #154, .F. ) ;
#56 = LINE ( 'NONE', #766, #699 ) ;
#57 = LINE ( 'NONE', #767, #403 ) ;
#58 = EDGE_LOOP ( 'NONE', ( #440, #580 ) ) ;
#59 = VECTOR ( 'NONE', #74, 39.37007874015748143 ) ;
#60 = EDGE_CURVE ( 'NONE', #93, #495, #475, .T. ) ;
#61 = ADVANCED_FACE ( 'NONE', ( #622 ), #48, .F. ) ;
#62 = CARTESIAN_POINT ( 'NONE',  ( 2.499999999997792433, 21.21637619336082992, 40.82366428581013196 ) ) ;
#63 = VERTEX_POINT ( 'NONE', #840 ) ;
#64 = EDGE_CURVE ( 'NONE', #367, #66, #835, .T. ) ;
#65 = LINE ( 'NONE', #636, #59 ) ;
#66 = VERTEX_POINT ( 'NONE', #485 ) ;
#67 = CYLINDRICAL_SURFACE ( 'NONE', #401, 0.5000000000022101210 ) ;
#68 =( GEOMETRIC_REPRESENTATION_CONTEXT ( 3 ) GLOBAL_UNCERTAINTY_ASSIGNED_CONTEXT ( ( #569 ) ) GLOBAL_UNIT_ASSIGNED_CONTEXT ( ( #607, #325, #332 ) ) REPRESENTATION_CONTEXT ( 'NONE', 'WORKASPACE' ) );
#69 = CARTESIAN_POINT ( 'NONE',  ( 2.499999999997797318, 21.19480732291189540, 40.95490369996444002 ) ) ;
#70 = VECTOR ( 'NONE', #797, 39.37007874015748854 ) ;
#71 = PRODUCT_DEFINITION_CONTEXT ( 'detailed design', #756, 'design' ) ;
#72 = ORIENTED_EDGE ( 'NONE', *, *, #653, .F. ) ;
#73 = ADVANCED_FACE ( 'NONE', ( #817 ), #178, .F. ) ;
#74 = DIRECTION ( 'NONE',  ( -1.000000000000000000, -0.000000000000000000, -0.000000000000000000 ) ) ;
#75 = AXIS2_PLACEMENT_3D ( 'NONE', #825, #99, #115 ) ;
#76 = EDGE_CURVE ( 'NONE', #175, #162, #300, .T. ) ;
#77 = DIRECTION ( 'NONE',  ( 0.000000000000000000, -0.1621719582624190081, 0.9867625124381914636 ) ) ;
#78 = ORIENTED_EDGE ( 'NONE', *, *, #647, .T. ) ;
#79 = ORIENTED_EDGE ( 'NONE', *, *, #563, .F. ) ;
#80 = DIRECTION ( 'NONE',  ( 0.000000000000000000, -0.1621719582624190081, 0.9867625124381914636 ) ) ;
#81 = ORIENTED_EDGE ( 'NONE', *, *, #143, .F. ) ;
#82 = EDGE_CURVE ( 'NONE', #379, #663, #880, .T. ) ;
#83 = AXIS2_PLACEMENT_3D ( 'NONE', #301, #871, #228 ) ;
#84 = ORIENTED_EDGE ( 'NONE', *, *, #327, .F. ) ;
#85 = DIRECTION ( 'NONE',  ( -3.594246919769842575E-16, -0.9867625124381891322, -0.1621719582624337741 ) ) ;
#86 = CARTESIAN_POINT ( 'NONE',  ( 2.499999999997791100, 19.73525969855073825, 49.83576631190373973 ) ) ;
#87 = ORIENTED_EDGE ( 'NONE', *, *, #433, .T. ) ;
#88 = ADVANCED_FACE ( 'NONE', ( #19 ), #661, .F. ) ;
#89 = ORIENTED_EDGE ( 'NONE', *, *, #771, .F. ) ;
#90 = ORIENTED_EDGE ( 'NONE', *, *, #515, .T. ) ;
#91 = DIRECTION ( 'NONE',  ( -0.000000000000000000, 0.9867625124381893542, 0.1621719582624337741 ) ) ;
#92 = DIRECTION ( 'NONE',  ( -0.000000000000000000, 0.9867625124381893542, 0.1621719582624337741 ) ) ;
#93 = VERTEX_POINT ( 'NONE', #606 ) ;
#94 = ORIENTED_EDGE ( 'NONE', *, *, #106, .T. ) ;
#95 = ORIENTED_EDGE ( 'NONE', *, *, #849, .T. ) ;
#96 = ADVANCED_FACE ( 'NONE', ( #160 ), #736, .T. ) ;
#97 = CARTESIAN_POINT ( 'NONE',  ( -1.500000000000000444, 19.89743165681281312, 48.84900379946773796 ) ) ;
#98 = CARTESIAN_POINT ( 'NONE',  ( -2.499999999997788880, 21.09303087930601706, 40.80339279102729932 ) ) ;
#99 = DIRECTION ( 'NONE',  ( -3.594246919769843068E-16, -0.9867625124381893542, -0.1621719582624338019 ) ) ;
#100 = ORIENTED_EDGE ( 'NONE', *, *, #815, .F. ) ;
#101 = ORIENTED_EDGE ( 'NONE', *, *, #673, .F. ) ;
#102 = MECHANICAL_DESIGN_GEOMETRIC_PRESENTATION_REPRESENTATION (  '', ( #859 ), #68 ) ;
#103 = FACE_BOUND ( 'NONE', #238, .T. ) ;
#104 = CARTESIAN_POINT ( 'NONE',  ( 2.499999999997797318, 21.15254798798867952, 40.44125094896037353 ) ) ;
#105 = CARTESIAN_POINT ( 'NONE',  ( 2.499999999997791100, 19.73525969855073825, 49.83576631190373973 ) ) ;
#106 = EDGE_CURVE ( 'NONE', #697, #446, #271, .T. ) ;
#107 = ORIENTED_EDGE ( 'NONE', *, *, #679, .T. ) ;
#108 = CYLINDRICAL_SURFACE ( 'NONE', #577, 0.1330000000000000626 ) ;
#109 = CARTESIAN_POINT ( 'NONE',  ( 2.499999999997797318, 21.27589330204347107, 40.46152244374317775 ) ) ;
#110 = CARTESIAN_POINT ( 'NONE',  ( 1.500000000000000444, 20.36825739463822416, 45.98418553523158181 ) ) ;
#111 = AXIS2_PLACEMENT_3D ( 'NONE', #382, #321, #255 ) ;
#112 = DIRECTION ( 'NONE',  ( 0.000000000000000000, 0.1621719582624344125, -0.9867625124381891322 ) ) ;
#113 = DIRECTION ( 'NONE',  ( 2.428309327702759964E-16, 0.1621719582624338851, -0.9867625124381891322 ) ) ;
#114 = LINE ( 'NONE', #188, #525 ) ;
#115 = DIRECTION ( 'NONE',  ( 0.000000000000000000, 0.1621719582624344125, -0.9867625124381891322 ) ) ;
#116 = ORIENTED_EDGE ( 'NONE', *, *, #837, .F. ) ;
#117 = FACE_OUTER_BOUND ( 'NONE', #844, .T. ) ;
#118 = DIRECTION ( 'NONE',  ( 0.000000000000000000, 0.1621719582624190081, -0.9867625124381914636 ) ) ;
#119 = CIRCLE ( 'NONE', #490, 0.1330000000000000626 ) ;
#120 = CARTESIAN_POINT ( 'NONE',  ( 2.999999999999997335, 21.07146200885710385, 40.93463220518163581 ) ) ;
#121 = VECTOR ( 'NONE', #50, 39.37007874015748143 ) ;
#122 = ORIENTED_EDGE ( 'NONE', *, *, #713, .T. ) ;
#123 = CARTESIAN_POINT ( 'NONE',  ( 2.499999999997791100, 19.75682856899964079, 49.70452689774946009 ) ) ;
#124 = DIRECTION ( 'NONE',  ( 0.000000000000000000, 0.1621719582624344125, -0.9867625124381891322 ) ) ;
#125 = SHAPE_DEFINITION_REPRESENTATION ( #779, #856 ) ;
#126 = PLANE ( 'NONE',  #708 ) ;
#127 = AXIS2_PLACEMENT_3D ( 'NONE', #183, #469, #813 ) ;
#128 = FACE_BOUND ( 'NONE', #586, .T. ) ;
#129 = DIRECTION ( 'NONE',  ( 3.594246919769843068E-16, 0.9867625124381893542, 0.1621719582624338019 ) ) ;
#130 = EDGE_CURVE ( 'NONE', #794, #731, #870, .T. ) ;
#131 = ORIENTED_EDGE ( 'NONE', *, *, #642, .F. ) ;
#132 = FACE_OUTER_BOUND ( 'NONE', #158, .T. ) ;
#133 = ORIENTED_EDGE ( 'NONE', *, *, #917, .T. ) ;
#134 = AXIS2_PLACEMENT_3D ( 'NONE', #650, #862, #161 ) ;
#135 = CARTESIAN_POINT ( 'NONE',  ( -1.500000000000000444, 20.36825739463822416, 45.98418553523158181 ) ) ;
#136 = ORIENTED_EDGE ( 'NONE', *, *, #307, .F. ) ;
#137 = AXIS2_PLACEMENT_3D ( 'NONE', #174, #748, #618 ) ;
#138 = CARTESIAN_POINT ( 'NONE',  ( -2.499999999997788880, 21.21637619336083347, 40.82366428581011064 ) ) ;
#139 = DIRECTION ( 'NONE',  ( 0.000000000000000000, 0.1621719582624350509, -0.9867625124381890211 ) ) ;
#140 = ADVANCED_FACE ( 'NONE', ( #374 ), #601, .F. ) ;
#141 = ORIENTED_EDGE ( 'NONE', *, *, #921, .T. ) ;
#142 = AXIS2_PLACEMENT_3D ( 'NONE', #565, #784, #208 ) ;
#143 = EDGE_CURVE ( 'NONE', #316, #295, #24, .T. ) ;
#144 = FACE_BOUND ( 'NONE', #665, .T. ) ;
#145 = AXIS2_PLACEMENT_3D ( 'NONE', #447, #727, #822 ) ;
#146 = LINE ( 'NONE', #441, #628 ) ;
#147 = CIRCLE ( 'NONE', #391, 0.1330000000000000626 ) ;
#148 = EDGE_LOOP ( 'NONE', ( #694, #807, #633, #293 ) ) ;
#149 = FACE_OUTER_BOUND ( 'NONE', #716, .T. ) ;
#150 = ADVANCED_FACE ( 'NONE', ( #521 ), #108, .F. ) ;
#151 = VERTEX_POINT ( 'NONE', #594 ) ;
#152 = VERTEX_POINT ( 'NONE', #235 ) ;
#153 = DIRECTION ( 'NONE',  ( 0.000000000000000000, 0.1621719582624342459, -0.9867625124381892432 ) ) ;
#154 = EDGE_CURVE ( 'NONE', #261, #864, #537, .T. ) ;
#155 = ORIENTED_EDGE ( 'NONE', *, *, #278, .F. ) ;
#156 = CIRCLE ( 'NONE', #684, 0.1330000000000003957 ) ;
#157 = CIRCLE ( 'NONE', #294, 0.1330000000000000626 ) ;
#158 = EDGE_LOOP ( 'NONE', ( #84, #122, #429, #312 ) ) ;
#159 = EDGE_LOOP ( 'NONE', ( #385, #270, #726, #790 ) ) ;
#160 = FACE_OUTER_BOUND ( 'NONE', #491, .T. ) ;
#161 = DIRECTION ( 'NONE',  ( 0.000000000000000000, -0.1621719582624344125, 0.9867625124381891322 ) ) ;
#162 = VERTEX_POINT ( 'NONE', #804 ) ;
#163 = ORIENTED_EDGE ( 'NONE', *, *, #196, .T. ) ;
#164 = ORIENTED_EDGE ( 'NONE', *, *, #413, .F. ) ;
#165 = AXIS2_PLACEMENT_3D ( 'NONE', #205, #264, #337 ) ;
#166 = DIRECTION ( 'NONE',  ( -1.000000000000000000, 3.940471799815802244E-16, -1.813278551723268587E-16 ) ) ;
#167 = CARTESIAN_POINT ( 'NONE',  ( -2.499999999997803535, 21.15254798798867952, 40.44125094896037353 ) ) ;
#168 = CARTESIAN_POINT ( 'NONE',  ( 2.499999999997792433, 21.07146200885711096, 40.93463220518159318 ) ) ;
#169 = ORIENTED_EDGE ( 'NONE', *, *, #143, .T. ) ;
#170 = ORIENTED_EDGE ( 'NONE', *, *, #824, .F. ) ;
#171 = ADVANCED_FACE ( 'NONE', ( #467 ), #452, .F. ) ;
#172 = FACE_BOUND ( 'NONE', #881, .T. ) ;
#173 = LENGTH_MEASURE_WITH_UNIT ( LENGTH_MEASURE( 0.02539999999999999897 ), #44 );
#174 = CARTESIAN_POINT ( 'NONE',  ( 1.499999999999999112, 19.89743165681281312, 48.84900379946773796 ) ) ;
#175 = VERTEX_POINT ( 'NONE', #254 ) ;
#176 = EDGE_CURVE ( 'NONE', #645, #15, #289, .T. ) ;
#177 = AXIS2_PLACEMENT_3D ( 'NONE', #758, #396, #124 ) ;
#178 = CYLINDRICAL_SURFACE ( 'NONE', #553, 0.1330000000000000626 ) ;
#179 = CARTESIAN_POINT ( 'NONE',  ( 1.499999999999999112, 19.89743165681281312, 48.84900379946773796 ) ) ;
#180 = DIRECTION ( 'NONE',  ( -3.594246919769843068E-16, -0.9867625124381893542, -0.1621719582624338019 ) ) ;
#181 = CARTESIAN_POINT ( 'NONE',  ( 2.999999999999995115, 19.73525969855070628, 49.83576631190378237 ) ) ;
#182 = LINE ( 'NONE', #468, #423 ) ;
#183 = CARTESIAN_POINT ( 'NONE',  ( 2.499999999997791100, 19.61191438449592539, 49.81549481712092842 ) ) ;
#184 = PRODUCT_DEFINITION_FORMATION_WITH_SPECIFIED_SOURCE ( 'ANY', '', #923, .NOT_KNOWN. ) ;
#185 = FACE_OUTER_BOUND ( 'NONE', #265, .T. ) ;
#186 = DIRECTION ( 'NONE',  ( -3.594246919769842082E-16, -0.9867625124381891322, -0.1621719582624337741 ) ) ;
#187 = LINE ( 'NONE', #340, #6 ) ;
#188 = CARTESIAN_POINT ( 'NONE',  ( -1.500000000000000444, 19.91312179377470315, 48.75353452638934471 ) ) ;
#189 = PLANE ( 'NONE',  #541 ) ;
#190 = DIRECTION ( 'NONE',  ( 7.088466220931593973E-17, 0.1621719582624338019, -0.9867625124381892432 ) ) ;
#191 = ADVANCED_FACE ( 'NONE', ( #243, #811, #172, #742, #103, #34, #319, #890, #681 ), #43, .T. ) ;
#192 = LINE ( 'NONE', #847, #639 ) ;
#193 = DIRECTION ( 'NONE',  ( 0.000000000000000000, 0.1621719582624337741, -0.9867625124381891322 ) ) ;
#194 = CIRCLE ( 'NONE', #346, 0.09674999999999779610 ) ;
#195 = EDGE_LOOP ( 'NONE', ( #234, #882 ) ) ;
#196 = EDGE_CURVE ( 'NONE', #745, #26, #187, .T. ) ;
#197 = DIRECTION ( 'NONE',  ( -3.594246919769843068E-16, -0.9867625124381893542, -0.1621719582624338019 ) ) ;
#198 = DIRECTION ( 'NONE',  ( -0.000000000000000000, 0.9867625124381891322, 0.1621719582624338019 ) ) ;
#199 = DIRECTION ( 'NONE',  ( -0.000000000000000000, 0.9867625124381891322, 0.1621719582624337463 ) ) ;
#200 = CIRCLE ( 'NONE', #903, 0.09674999999999779610 ) ;
#201 = CARTESIAN_POINT ( 'NONE',  ( 1.500000000000000444, 20.38394753160011419, 45.88871626215318855 ) ) ;
#202 = ORIENTED_EDGE ( 'NONE', *, *, #718, .T. ) ;
#203 = FACE_BOUND ( 'NONE', #570, .T. ) ;
#204 = VERTEX_POINT ( 'NONE', #751 ) ;
#205 = CARTESIAN_POINT ( 'NONE',  ( 0.000000000000000000, 0.000000000000000000, 0.000000000000000000 ) ) ;
#206 = CIRCLE ( 'NONE', #761, 0.09674999999999779610 ) ;
#207 = AXIS2_PLACEMENT_3D ( 'NONE', #472, #909, #547 ) ;
#208 = DIRECTION ( 'NONE',  ( 0.000000000000000000, 0.1621719582624344125, -0.9867625124381891322 ) ) ;
#209 = VECTOR ( 'NONE', #674, 39.37007874015748854 ) ;
#210 = LINE ( 'NONE', #286, #576 ) ;
#211 = ORIENTED_EDGE ( 'NONE', *, *, #741, .F. ) ;
#212 = FACE_BOUND ( 'NONE', #721, .T. ) ;
#213 = CARTESIAN_POINT ( 'NONE',  ( 2.499999999997791100, 19.65417371941913416, 50.32914756812506596 ) ) ;
#214 = CIRCLE ( 'NONE', #597, 0.1330000000000000626 ) ;
#215 = AXIS2_PLACEMENT_3D ( 'NONE', #334, #765, #760 ) ;
#216 = EDGE_CURVE ( 'NONE', #852, #175, #735, .T. ) ;
#217 = EDGE_LOOP ( 'NONE', ( #803, #664 ) ) ;
#218 = CARTESIAN_POINT ( 'NONE',  ( -2.499999999997804867, 19.61191438449591473, 49.81549481712099947 ) ) ;
#219 = EDGE_LOOP ( 'NONE', ( #365, #164, #352, #78 ) ) ;
#220 = CIRCLE ( 'NONE', #75, 0.09674999999999779610 ) ;
#221 = EDGE_CURVE ( 'NONE', #66, #520, #231, .T. ) ;
#222 = ORIENTED_EDGE ( 'NONE', *, *, #640, .F. ) ;
#223 = FACE_OUTER_BOUND ( 'NONE', #659, .T. ) ;
#224 = ORIENTED_EDGE ( 'NONE', *, *, #342, .F. ) ;
#225 = ORIENTED_EDGE ( 'NONE', *, *, #755, .T. ) ;
#226 = ORIENTED_EDGE ( 'NONE', *, *, #176, .T. ) ;
#227 = CARTESIAN_POINT ( 'NONE',  ( 1.500000000000000444, 20.38394753160011419, 45.88871626215318855 ) ) ;
#228 = DIRECTION ( 'NONE',  ( 0.000000000000000000, 0.1621719582624342459, -0.9867625124381892432 ) ) ;
#229 = ORIENTED_EDGE ( 'NONE', *, *, #887, .F. ) ;
#230 = VECTOR ( 'NONE', #407, 39.37007874015748854 ) ;
#231 = CIRCLE ( 'NONE', #207, 0.1330000000000000626 ) ;
#232 = ORIENTED_EDGE ( 'NONE', *, *, #555, .F. ) ;
#233 = AXIS2_PLACEMENT_3D ( 'NONE', #463, #91, #610 ) ;
#234 = ORIENTED_EDGE ( 'NONE', *, *, #849, .F. ) ;
#235 = CARTESIAN_POINT ( 'NONE',  ( 3.000000000000003109, 19.61191438449591473, 49.81549481712097815 ) ) ;
#236 = CARTESIAN_POINT ( 'NONE',  ( 2.499999999997792433, 21.17323845246302483, 41.08614311411869124 ) ) ;
#237 = DIRECTION ( 'NONE',  ( -3.594246919769842575E-16, -0.9867625124381891322, -0.1621719582624337741 ) ) ;
#238 = EDGE_LOOP ( 'NONE', ( #715, #72 ) ) ;
#239 = EDGE_CURVE ( 'NONE', #152, #889, #57, .T. ) ;
#240 = ORIENTED_EDGE ( 'NONE', *, *, #409, .F. ) ;
#241 = EDGE_LOOP ( 'NONE', ( #719, #100 ) ) ;
#242 = CIRCLE ( 'NONE', #714, 0.1330000000000000626 ) ;
#243 = FACE_BOUND ( 'NONE', #724, .T. ) ;
#244 = CARTESIAN_POINT ( 'NONE',  ( -2.499999999997803535, 21.27589330204347107, 40.46152244374317775 ) ) ;
#245 = CARTESIAN_POINT ( 'NONE',  ( -1.500000000000000444, 20.26060221754530133, 45.86844476737037013 ) ) ;
#246 = EDGE_CURVE ( 'NONE', #151, #598, #479, .T. ) ;
#247 = EDGE_LOOP ( 'NONE', ( #224, #600, #873, #390, #101, #637, #155, #451 ) ) ;
#248 = DIRECTION ( 'NONE',  ( -0.000000000000000000, 0.9867625124381893542, 0.1621719582624338296 ) ) ;
#249 = DIRECTION ( 'NONE',  ( -0.000000000000000000, 0.9867625124381891322, 0.1621719582624337463 ) ) ;
#250 = DIRECTION ( 'NONE',  ( 0.000000000000000000, 0.1621719582624344125, -0.9867625124381891322 ) ) ;
#251 = CIRCLE ( 'NONE', #142, 0.09674999999999779610 ) ;
#252 = VECTOR ( 'NONE', #345, 39.37007874015748854 ) ;
#253 = EDGE_CURVE ( 'NONE', #794, #350, #762, .T. ) ;
#254 = CARTESIAN_POINT ( 'NONE',  ( 1.500000000000000444, 20.27629235450719136, 45.77297549429198398 ) ) ;
#255 = DIRECTION ( 'NONE',  ( 0.000000000000000000, -0.1621719582624344125, 0.9867625124381891322 ) ) ;
#256 = CARTESIAN_POINT ( 'NONE',  ( 2.499999999997797318, 21.07146200885710385, 40.93463220518163581 ) ) ;
#257 = CARTESIAN_POINT ( 'NONE',  ( 1.500000000000000444, 20.38394753160011419, 45.88871626215318855 ) ) ;
#258 = EDGE_CURVE ( 'NONE', #162, #868, #461, .T. ) ;
#259 = CYLINDRICAL_SURFACE ( 'NONE', #317, 0.1330000000000000626 ) ;
#260 = AXIS2_PLACEMENT_3D ( 'NONE', #820, #879, #612 ) ;
#261 = VERTEX_POINT ( 'NONE', #331 ) ;
#262 = CARTESIAN_POINT ( 'NONE',  ( 1.499999999999999112, 19.75839620579611022, 48.92420157776331280 ) ) ;
#263 = DIRECTION ( 'NONE',  ( -1.000000000000000000, -0.000000000000000000, -0.000000000000000000 ) ) ;
#264 = DIRECTION ( 'NONE',  ( 0.000000000000000000, 0.000000000000000000, 1.000000000000000000 ) ) ;
#265 = EDGE_LOOP ( 'NONE', ( #226, #225, #94, #439 ) ) ;
#266 = ADVANCED_FACE ( 'NONE', ( #693 ), #624, .F. ) ;
#267 = DIRECTION ( 'NONE',  ( -0.000000000000000000, 0.9867625124381893542, 0.1621719582624337741 ) ) ;
#268 = DIRECTION ( 'NONE',  ( 0.000000000000000000, -0.1621719582624344125, 0.9867625124381891322 ) ) ;
#269 = AXIS2_PLACEMENT_3D ( 'NONE', #583, #92, #792 ) ;
#270 = ORIENTED_EDGE ( 'NONE', *, *, #653, .T. ) ;
#271 = CIRCLE ( 'NONE', #386, 0.09674999999999779610 ) ;
#272 = EDGE_CURVE ( 'NONE', #367, #703, #157, .T. ) ;
#273 = DIRECTION ( 'NONE',  ( 0.000000000000000000, 0.1621719582624342459, -0.9867625124381892432 ) ) ;
#274 = CARTESIAN_POINT ( 'NONE',  ( 2.999999999999997335, 21.19480732291189540, 40.95490369996444002 ) ) ;
#275 = EDGE_LOOP ( 'NONE', ( #916, #802, #455, #526 ) ) ;
#276 =( CONVERSION_BASED_UNIT ( 'INCH', #773 ) LENGTH_UNIT ( ) NAMED_UNIT ( #377 ) );
#277 = ORIENTED_EDGE ( 'NONE', *, *, #888, .F. ) ;
#278 = EDGE_CURVE ( 'NONE', #671, #295, #536, .T. ) ;
#279 = DIRECTION ( 'NONE',  ( 0.000000000000000000, 0.1621719582624342459, -0.9867625124381892432 ) ) ;
#280 = ORIENTED_EDGE ( 'NONE', *, *, #354, .F. ) ;
#281 = APPLICATION_PROTOCOL_DEFINITION ( 'draft international standard', 'automotive_design', 1998, #732 ) ;
#282 = DIRECTION ( 'NONE',  ( -0.000000000000000000, 0.9867625124381891322, 0.1621719582624338019 ) ) ;
#283 = VECTOR ( 'NONE', #395, 39.37007874015748854 ) ;
#284 = DIRECTION ( 'NONE',  ( 0.000000000000000000, 0.1621719582624337741, -0.9867625124381891322 ) ) ;
#285 = ORIENTED_EDGE ( 'NONE', *, *, #627, .T. ) ;
#286 = CARTESIAN_POINT ( 'NONE',  ( 1.499999999999999112, 19.88174151985092308, 48.94447307254613122 ) ) ;
#287 = VERTEX_POINT ( 'NONE', #336 ) ;
#288 = DIRECTION ( 'NONE',  ( 3.842020880080679664E-16, 1.000000000000000000, 0.000000000000000000 ) ) ;
#289 = CIRCLE ( 'NONE', #810, 0.09674999999999779610 ) ;
#290 = EDGE_CURVE ( 'NONE', #788, #591, #630, .T. ) ;
#291 = CYLINDRICAL_SURFACE ( 'NONE', #134, 0.09674999999999779610 ) ;
#292 = CIRCLE ( 'NONE', #865, 0.1330000000000000626 ) ;
#293 = ORIENTED_EDGE ( 'NONE', *, *, #64, .F. ) ;
#294 = AXIS2_PLACEMENT_3D ( 'NONE', #558, #552, #118 ) ;
#295 = VERTEX_POINT ( 'NONE', #414 ) ;
#296 = DIRECTION ( 'NONE',  ( -3.594246919769843068E-16, -0.9867625124381893542, -0.1621719582624338019 ) ) ;
#297 = EDGE_LOOP ( 'NONE', ( #90, #309, #772, #915 ) ) ;
#298 = EDGE_LOOP ( 'NONE', ( #16, #299 ) ) ;
#299 = ORIENTED_EDGE ( 'NONE', *, *, #733, .F. ) ;
#300 = LINE ( 'NONE', #459, #70 ) ;
#301 = CARTESIAN_POINT ( 'NONE',  ( -2.499999999997803535, 21.19480732291189895, 40.95490369996444002 ) ) ;
#302 = ORIENTED_EDGE ( 'NONE', *, *, #424, .T. ) ;
#303 = EDGE_LOOP ( 'NONE', ( #302, #487, #519, #169 ) ) ;
#304 = EDGE_LOOP ( 'NONE', ( #507, #229, #701, #559 ) ) ;
#305 = CARTESIAN_POINT ( 'NONE',  ( -2.499999999997790212, 19.73525969855074180, 49.83576631190373973 ) ) ;
#306 = CARTESIAN_POINT ( 'NONE',  ( -2.499999999997788880, 21.07146200885711806, 40.93463220518157897 ) ) ;
#307 = EDGE_CURVE ( 'NONE', #495, #889, #696, .T. ) ;
#308 = DIMENSIONAL_EXPONENTS ( 1.000000000000000000, 0.000000000000000000, 0.000000000000000000, 0.000000000000000000, 0.000000000000000000, 0.000000000000000000, 0.000000000000000000 ) ;
#309 = ORIENTED_EDGE ( 'NONE', *, *, #354, .T. ) ;
#310 = ORIENTED_EDGE ( 'NONE', *, *, #342, .T. ) ;
#311 = VECTOR ( 'NONE', #683, 39.37007874015748854 ) ;
#312 = ORIENTED_EDGE ( 'NONE', *, *, #646, .T. ) ;
#313 = DIRECTION ( 'NONE',  ( 0.000000000000000000, -0.1621719582624344125, 0.9867625124381891322 ) ) ;
#314 = CARTESIAN_POINT ( 'NONE',  ( -2.499999999997788880, 21.19480732291193092, 40.95490369996439028 ) ) ;
#315 = CARTESIAN_POINT ( 'NONE',  ( 2.499999999997791100, 19.73525969855073825, 49.83576631190373973 ) ) ;
#316 = VERTEX_POINT ( 'NONE', #914 ) ;
#317 = AXIS2_PLACEMENT_3D ( 'NONE', #105, #678, #388 ) ;
#318 = AXIS2_PLACEMENT_3D ( 'NONE', #747, #823, #543 ) ;
#319 = FACE_BOUND ( 'NONE', #22, .T. ) ;
#320 = DIRECTION ( 'NONE',  ( -0.000000000000000000, 0.9867625124381893542, 0.1621719582624337741 ) ) ;
#321 = DIRECTION ( 'NONE',  ( -0.000000000000000000, 0.9867625124381893542, 0.1621719582624338296 ) ) ;
#322 = ADVANCED_FACE ( 'NONE', ( #905 ), #629, .T. ) ;
#323 = ORIENTED_EDGE ( 'NONE', *, *, #921, .F. ) ;
#324 = DIRECTION ( 'NONE',  ( -3.940471799815802244E-16, -1.000000000000000000, 0.000000000000000000 ) ) ;
#325 =( NAMED_UNIT ( * ) PLANE_ANGLE_UNIT ( ) SI_UNIT ( $, .RADIAN. ) );
#326 = DIRECTION ( 'NONE',  ( -0.000000000000000000, 0.9867625124381891322, 0.1621719582624338019 ) ) ;
#327 = EDGE_CURVE ( 'NONE', #846, #379, #692, .T. ) ;
#328 = AXIS2_PLACEMENT_3D ( 'NONE', #722, #789, #728 ) ;
#329 = DIRECTION ( 'NONE',  ( -3.594246919769842575E-16, -0.9867625124381891322, -0.1621719582624337741 ) ) ;
#330 = CIRCLE ( 'NONE', #12, 0.5000000000022101210 ) ;
#331 = CARTESIAN_POINT ( 'NONE',  ( 2.499999999997791100, 19.59034551404701929, 49.94673423127520806 ) ) ;
#332 =( NAMED_UNIT ( * ) SI_UNIT ( $, .STERADIAN. ) SOLID_ANGLE_UNIT ( ) );
#333 = CARTESIAN_POINT ( 'NONE',  ( 2.499999999997797318, 21.27589330204347107, 40.46152244374317775 ) ) ;
#334 = CARTESIAN_POINT ( 'NONE',  ( -1.500000000000000444, 20.38394753160011419, 45.88871626215318855 ) ) ;
#335 = CARTESIAN_POINT ( 'NONE',  ( 2.499999999997792433, 21.19480732291192737, 40.95490369996441160 ) ) ;
#336 = CARTESIAN_POINT ( 'NONE',  ( 2.499999999997791100, 19.63348325494482793, 49.68425540296664877 ) ) ;
#337 = DIRECTION ( 'NONE',  ( 1.000000000000000000, 0.000000000000000000, 0.000000000000000000 ) ) ;
#338 = CARTESIAN_POINT ( 'NONE',  ( 1.499999999999999112, 19.88174151985092308, 48.94447307254613122 ) ) ;
#339 = DIRECTION ( 'NONE',  ( 0.000000000000000000, 0.1621719582624314426, -0.9867625124381896873 ) ) ;
#340 = CARTESIAN_POINT ( 'NONE',  ( -2.499999999997803535, 21.27589330204347107, 40.46152244374317775 ) ) ;
#341 = CARTESIAN_POINT ( 'NONE',  ( -1.500000000000000444, 19.78977647971989029, 48.73326303160653339 ) ) ;
#342 = EDGE_CURVE ( 'NONE', #889, #740, #492, .T. ) ;
#343 = DIRECTION ( 'NONE',  ( 0.000000000000000000, 0.1621719582624344125, -0.9867625124381891322 ) ) ;
#344 = AXIS2_PLACEMENT_3D ( 'NONE', #86, #595, #77 ) ;
#345 = DIRECTION ( 'NONE',  ( -3.594246919769842575E-16, -0.9867625124381891322, -0.1621719582624337741 ) ) ;
#346 = AXIS2_PLACEMENT_3D ( 'NONE', #179, #617, #611 ) ;
#347 = DIRECTION ( 'NONE',  ( 0.000000000000000000, 0.9867625124381891322, 0.1621719582624337741 ) ) ;
#348 = EDGE_CURVE ( 'NONE', #868, #162, #366, .T. ) ;
#349 = CYLINDRICAL_SURFACE ( 'NONE', #579, 0.1330000000000000626 ) ;
#350 = VERTEX_POINT ( 'NONE', #262 ) ;
#351 = LINE ( 'NONE', #489, #430 ) ;
#352 = ORIENTED_EDGE ( 'NONE', *, *, #246, .F. ) ;
#353 = DIRECTION ( 'NONE',  ( -0.000000000000000000, 0.9867625124381891322, 0.1621719582624338019 ) ) ;
#354 = EDGE_CURVE ( 'NONE', #669, #778, #56, .T. ) ;
#355 = VECTOR ( 'NONE', #506, 39.37007874015748854 ) ;
#356 = DIRECTION ( 'NONE',  ( -0.000000000000000000, 0.9867625124381891322, 0.1621719582624337463 ) ) ;
#357 = ORIENTED_EDGE ( 'NONE', *, *, #327, .T. ) ;
#358 = EDGE_CURVE ( 'NONE', #605, #152, #330, .T. ) ;
#359 = FACE_BOUND ( 'NONE', #298, .T. ) ;
#360 = CARTESIAN_POINT ( 'NONE',  ( -2.499999999997790212, 19.61191438449592539, 49.81549481712092842 ) ) ;
#361 = EDGE_LOOP ( 'NONE', ( #378, #592, #800, #55 ) ) ;
#362 = VERTEX_POINT ( 'NONE', #700 ) ;
#363 = DIRECTION ( 'NONE',  ( -0.000000000000000000, 0.9867625124381893542, 0.1621719582624337741 ) ) ;
#364 = AXIS2_PLACEMENT_3D ( 'NONE', #777, #775, #499 ) ;
#365 = ORIENTED_EDGE ( 'NONE', *, *, #911, .T. ) ;
#366 = CIRCLE ( 'NONE', #924, 0.09674999999999779610 ) ;
#367 = VERTEX_POINT ( 'NONE', #770 ) ;
#368 = ORIENTED_EDGE ( 'NONE', *, *, #917, .F. ) ;
#369 = CARTESIAN_POINT ( 'NONE',  ( -3.000000000000003997, 21.19480732291189895, 40.95490369996444002 ) ) ;
#370 = LINE ( 'NONE', #805, #355 ) ;
#371 = ORIENTED_EDGE ( 'NONE', *, *, #239, .T. ) ;
#372 = ORIENTED_EDGE ( 'NONE', *, *, #679, .F. ) ;
#373 = ORIENTED_EDGE ( 'NONE', *, *, #816, .F. ) ;
#374 = FACE_OUTER_BOUND ( 'NONE', #417, .T. ) ;
#375 = DIRECTION ( 'NONE',  ( -0.000000000000000000, 0.9867625124381893542, 0.1621719582624338296 ) ) ;
#376 = ORIENTED_EDGE ( 'NONE', *, *, #258, .T. ) ;
#377 = DIMENSIONAL_EXPONENTS ( 1.000000000000000000, 0.000000000000000000, 0.000000000000000000, 0.000000000000000000, 0.000000000000000000, 0.000000000000000000, 0.000000000000000000 ) ;
#378 = ORIENTED_EDGE ( 'NONE', *, *, #837, .T. ) ;
#379 = VERTEX_POINT ( 'NONE', #62 ) ;
#380 = CARTESIAN_POINT ( 'NONE',  ( 1.499999999999999112, 19.91312179377470315, 48.75353452638934471 ) ) ;
#381 = DIRECTION ( 'NONE',  ( -0.000000000000000000, 0.9867625124381893542, 0.1621719582624337741 ) ) ;
#382 = CARTESIAN_POINT ( 'NONE',  ( -1.500000000000000444, 19.89743165681281312, 48.84900379946773796 ) ) ;
#383 = EDGE_LOOP ( 'NONE', ( #505, #87, #783, #739 ) ) ;
#384 = AXIS2_PLACEMENT_3D ( 'NONE', #4, #363, #590 ) ;
#385 = ORIENTED_EDGE ( 'NONE', *, *, #290, .F. ) ;
#386 = AXIS2_PLACEMENT_3D ( 'NONE', #97, #248, #877 ) ;
#387 = DIRECTION ( 'NONE',  ( 0.000000000000000000, 0.1621719582624344125, -0.9867625124381891322 ) ) ;
#388 = DIRECTION ( 'NONE',  ( 0.000000000000000000, -0.1621719582624190081, 0.9867625124381914636 ) ) ;
#389 = ADVANCED_FACE ( 'NONE', ( #412 ), #828, .F. ) ;
#390 = ORIENTED_EDGE ( 'NONE', *, *, #911, .F. ) ;
#391 = AXIS2_PLACEMENT_3D ( 'NONE', #168, #180, #454 ) ;
#392 = CARTESIAN_POINT ( 'NONE',  ( 2.499999999997791100, 19.71369082810183571, 49.96700572605801938 ) ) ;
#393 = DIRECTION ( 'NONE',  ( -0.000000000000000000, 0.9867625124381893542, 0.1621719582624337741 ) ) ;
#394 = ADVANCED_FACE ( 'NONE', ( #132 ), #349, .F. ) ;
#395 = DIRECTION ( 'NONE',  ( -0.000000000000000000, 0.9867625124381891322, 0.1621719582624337463 ) ) ;
#396 = DIRECTION ( 'NONE',  ( -3.594246919769843068E-16, -0.9867625124381893542, -0.1621719582624338019 ) ) ;
#397 = DIRECTION ( 'NONE',  ( 0.000000000000000000, -0.1621719582624344125, 0.9867625124381891322 ) ) ;
#398 = CARTESIAN_POINT ( 'NONE',  ( 2.999999999999995115, 19.73525969855070628, 49.83576631190378237 ) ) ;
#399 = AXIS2_PLACEMENT_3D ( 'NONE', #227, #532, #39 ) ;
#400 = VECTOR ( 'NONE', #676, 39.37007874015748854 ) ;
#401 = AXIS2_PLACEMENT_3D ( 'NONE', #638, #1, #925 ) ;
#402 = CARTESIAN_POINT ( 'NONE',  ( 1.499999999999999112, 19.77408634275800026, 48.82873230468492665 ) ) ;
#403 = VECTOR ( 'NONE', #113, 39.37007874015748854 ) ;
#404 = DIRECTION ( 'NONE',  ( -0.000000000000000000, 0.9867625124381893542, 0.1621719582624338296 ) ) ;
#405 = CARTESIAN_POINT ( 'NONE',  ( -2.499999999997803535, 21.27589330204347107, 40.46152244374317775 ) ) ;
#406 = ORIENTED_EDGE ( 'NONE', *, *, #888, .T. ) ;
#407 = DIRECTION ( 'NONE',  ( -0.000000000000000000, 0.9867625124381891322, 0.1621719582624337463 ) ) ;
#408 = CARTESIAN_POINT ( 'NONE',  ( 2.499999999997797318, 21.07146200885710385, 40.93463220518163581 ) ) ;
#409 = EDGE_CURVE ( 'NONE', #495, #745, #517, .T. ) ;
#410 = ORIENTED_EDGE ( 'NONE', *, *, #647, .F. ) ;
#411 = AXIS2_PLACEMENT_3D ( 'NONE', #408, #834, #193 ) ;
#412 = FACE_OUTER_BOUND ( 'NONE', #148, .T. ) ;
#413 = EDGE_CURVE ( 'NONE', #598, #605, #42, .T. ) ;
#414 = CARTESIAN_POINT ( 'NONE',  ( -3.000000000000003997, 21.07146200885710741, 40.93463220518163581 ) ) ;
#415 = CARTESIAN_POINT ( 'NONE',  ( -1.500000000000000444, 19.89743165681281312, 48.84900379946773796 ) ) ;
#416 = DIRECTION ( 'NONE',  ( 0.000000000000000000, -0.1621719582624344125, 0.9867625124381891322 ) ) ;
#417 = EDGE_LOOP ( 'NONE', ( #527, #141, #406, #524 ) ) ;
#418 = AXIS2_PLACEMENT_3D ( 'NONE', #898, #186, #273 ) ;
#419 =( LENGTH_UNIT ( ) NAMED_UNIT ( * ) SI_UNIT ( $, .METRE. ) );
#420 = EDGE_CURVE ( 'NONE', #598, #93, #567, .T. ) ;
#421 = FACE_BOUND ( 'NONE', #793, .T. ) ;
#422 = ORIENTED_EDGE ( 'NONE', *, *, #436, .F. ) ;
#423 = VECTOR ( 'NONE', #752, 39.37007874015748854 ) ;
#424 = EDGE_CURVE ( 'NONE', #295, #362, #192, .T. ) ;
#425 = LINE ( 'NONE', #704, #795 ) ;
#426 = ORIENTED_EDGE ( 'NONE', *, *, #216, .F. ) ;
#427 = DIRECTION ( 'NONE',  ( -3.594246919769843068E-16, -0.9867625124381893542, -0.1621719582624338019 ) ) ;
#428 = PRODUCT_DEFINITION ( 'UNKNOWN', '', #184, #71 ) ;
#429 = ORIENTED_EDGE ( 'NONE', *, *, #563, .T. ) ;
#430 = VECTOR ( 'NONE', #568, 39.37007874015748854 ) ;
#431 = AXIS2_PLACEMENT_3D ( 'NONE', #415, #910, #545 ) ;
#432 = CARTESIAN_POINT ( 'NONE',  ( 2.499999999997791100, 19.73525969855073825, 49.83576631190373973 ) ) ;
#433 = EDGE_CURVE ( 'NONE', #15, #645, #648, .T. ) ;
#434 = DIRECTION ( 'NONE',  ( -1.821231995777065906E-16, -0.1621719582624340239, 0.9867625124381890211 ) ) ;
#435 = VECTOR ( 'NONE', #326, 39.37007874015748854 ) ;
#436 = EDGE_CURVE ( 'NONE', #350, #794, #206, .T. ) ;
#437 = ORIENTED_EDGE ( 'NONE', *, *, #60, .T. ) ;
#438 = CARTESIAN_POINT ( 'NONE',  ( -1.500000000000000444, 20.27629235450719136, 45.77297549429198398 ) ) ;
#439 = ORIENTED_EDGE ( 'NONE', *, *, #32, .F. ) ;
#440 = ORIENTED_EDGE ( 'NONE', *, *, #176, .F. ) ;
#441 = CARTESIAN_POINT ( 'NONE',  ( -3.000000000000005329, 19.73525969855070628, 49.83576631190380368 ) ) ;
#442 = AXIS2_PLACEMENT_3D ( 'NONE', #49, #904, #546 ) ;
#443 = ORIENTED_EDGE ( 'NONE', *, *, #348, .F. ) ;
#444 = VECTOR ( 'NONE', #329, 39.37007874015748854 ) ;
#445 = VERTEX_POINT ( 'NONE', #483 ) ;
#446 = VERTEX_POINT ( 'NONE', #757 ) ;
#447 = CARTESIAN_POINT ( 'NONE',  ( -2.499999999997803535, 21.19480732291189895, 40.95490369996444002 ) ) ;
#448 = CARTESIAN_POINT ( 'NONE',  ( -3.000000000000005329, 19.73525969855070628, 49.83576631190380368 ) ) ;
#449 = ORIENTED_EDGE ( 'NONE', *, *, #64, .T. ) ;
#450 = ORIENTED_EDGE ( 'NONE', *, *, #278, .T. ) ;
#451 = ORIENTED_EDGE ( 'NONE', *, *, #500, .F. ) ;
#452 = PLANE ( 'NONE',  #876 ) ;
#453 = DIRECTION ( 'NONE',  ( 1.000000000000000000, -3.842020880080679664E-16, 1.214237398427998674E-16 ) ) ;
#454 = DIRECTION ( 'NONE',  ( 0.000000000000000000, 0.1621719582624190081, -0.9867625124381914636 ) ) ;
#455 = ORIENTED_EDGE ( 'NONE', *, *, #154, .T. ) ;
#456 = ORIENTED_EDGE ( 'NONE', *, *, #253, .T. ) ;
#457 = ADVANCED_FACE ( 'NONE', ( #117 ), #688, .F. ) ;
#458 = EDGE_CURVE ( 'NONE', #287, #23, #833, .T. ) ;
#459 = CARTESIAN_POINT ( 'NONE',  ( 1.500000000000000444, 20.39963766856200422, 45.79324698907479529 ) ) ;
#460 = CARTESIAN_POINT ( 'NONE',  ( -2.499999999997790212, 19.73525969855074180, 49.83576631190373973 ) ) ;
#461 = CIRCLE ( 'NONE', #723, 0.09674999999999779610 ) ;
#462 = EDGE_LOOP ( 'NONE', ( #848, #285, #449, #516 ) ) ;
#463 = CARTESIAN_POINT ( 'NONE',  ( 2.499999999997792433, 21.19480732291192737, 40.95490369996441160 ) ) ;
#464 = DIRECTION ( 'NONE',  ( 0.000000000000000000, -0.1621719582624190081, 0.9867625124381914636 ) ) ;
#465 = CARTESIAN_POINT ( 'NONE',  ( -1.500000000000000444, 19.77408634275800026, 48.82873230468492665 ) ) ;
#466 = CIRCLE ( 'NONE', #318, 0.5000000000022014612 ) ;
#467 = FACE_OUTER_BOUND ( 'NONE', #33, .T. ) ;
#468 = CARTESIAN_POINT ( 'NONE',  ( -3.000000000000005329, 19.73525969855070628, 49.83576631190380368 ) ) ;
#469 = DIRECTION ( 'NONE',  ( -3.594246919769843068E-16, -0.9867625124381893542, -0.1621719582624338019 ) ) ;
#470 = CYLINDRICAL_SURFACE ( 'NONE', #431, 0.09674999999999779610 ) ;
#471 = DIRECTION ( 'NONE',  ( -1.821231995777065906E-16, -0.1621719582624340239, 0.9867625124381890211 ) ) ;
#472 = CARTESIAN_POINT ( 'NONE',  ( -2.499999999997788880, 21.19480732291193092, 40.95490369996439028 ) ) ;
#473 = SURFACE_SIDE_STYLE ('',( #812 ) ) ;
#474 = DIRECTION ( 'NONE',  ( -0.000000000000000000, 0.9867625124381893542, 0.1621719582624338296 ) ) ;
#475 = LINE ( 'NONE', #398, #311 ) ;
#476 = ADVANCED_FACE ( 'NONE', ( #913, #623, #128, #203, #421, #212, #144, #359, #851 ), #497, .F. ) ;
#477 = CIRCLE ( 'NONE', #912, 0.1330000000000003957 ) ;
#478 = DIRECTION ( 'NONE',  ( -0.000000000000000000, 0.9867625124381891322, 0.1621719582624338019 ) ) ;
#479 = LINE ( 'NONE', #764, #121 ) ;
#480 = VECTOR ( 'NONE', #199, 39.37007874015748854 ) ;
#481 = CARTESIAN_POINT ( 'NONE',  ( -1.500000000000000444, 19.88174151985092308, 48.94447307254613122 ) ) ;
#482 = EDGE_CURVE ( 'NONE', #703, #520, #351, .T. ) ;
#483 = CARTESIAN_POINT ( 'NONE',  ( -3.000000000000005329, 19.73525969855070628, 49.83576631190380368 ) ) ;
#484 = DIRECTION ( 'NONE',  ( -0.000000000000000000, 0.9867625124381891322, 0.1621719582624337463 ) ) ;
#485 = CARTESIAN_POINT ( 'NONE',  ( -2.499999999997788880, 21.17323845246302838, 41.08614311411866993 ) ) ;
#486 = DIRECTION ( 'NONE',  ( -0.000000000000000000, 0.9867625124381893542, 0.1621719582624338296 ) ) ;
#487 = ORIENTED_EDGE ( 'NONE', *, *, #749, .F. ) ;
#488 = EDGE_CURVE ( 'NONE', #287, #261, #156, .T. ) ;
#489 = CARTESIAN_POINT ( 'NONE',  ( -2.499999999997788880, 21.21637619336083347, 40.82366428581011064 ) ) ;
#490 = AXIS2_PLACEMENT_3D ( 'NONE', #306, #296, #878 ) ;
#491 = EDGE_LOOP ( 'NONE', ( #450, #81, #372, #809 ) ) ;
#492 = CIRCLE ( 'NONE', #799, 0.5000000000022014612 ) ;
#493 = ADVANCED_FACE ( 'NONE', ( #780 ), #702, .F. ) ;
#494 = DIRECTION ( 'NONE',  ( -3.594246919769843068E-16, -0.9867625124381892432, -0.1621719582624338019 ) ) ;
#495 = VERTEX_POINT ( 'NONE', #641 ) ;
#496 = CIRCLE ( 'NONE', #137, 0.09674999999999779610 ) ;
#497 = PLANE ( 'NONE',  #774 ) ;
#498 = ORIENTED_EDGE ( 'NONE', *, *, #504, .T. ) ;
#499 = DIRECTION ( 'NONE',  ( 0.000000000000000000, -0.1621719582624344125, 0.9867625124381891322 ) ) ;
#500 = EDGE_CURVE ( 'NONE', #740, #671, #65, .T. ) ;
#501 = DIRECTION ( 'NONE',  ( 0.000000000000000000, -0.1621719582624344125, 0.9867625124381891322 ) ) ;
#502 = AXIS2_PLACEMENT_3D ( 'NONE', #448, #453, #288 ) ;
#503 = VECTOR ( 'NONE', #619, 39.37007874015748854 ) ;
#504 = EDGE_CURVE ( 'NONE', #2, #204, #920, .T. ) ;
#505 = ORIENTED_EDGE ( 'NONE', *, *, #755, .F. ) ;
#506 = DIRECTION ( 'NONE',  ( -3.594246919769842575E-16, -0.9867625124381891322, -0.1621719582624337741 ) ) ;
#507 = ORIENTED_EDGE ( 'NONE', *, *, #358, .T. ) ;
#508 = ORIENTED_EDGE ( 'NONE', *, *, #488, .F. ) ;
#509 = CARTESIAN_POINT ( 'NONE',  ( -2.499999999997790212, 19.75682856899964435, 49.70452689774946009 ) ) ;
#510 = ORIENTED_EDGE ( 'NONE', *, *, #253, .F. ) ;
#511 = ORIENTED_EDGE ( 'NONE', *, *, #307, .T. ) ;
#512 = EDGE_LOOP ( 'NONE', ( #531, #875, #902, #593 ) ) ;
#513 = CARTESIAN_POINT ( 'NONE',  ( 1.499999999999999112, 19.89743165681281312, 48.84900379946773796 ) ) ;
#514 = CYLINDRICAL_SURFACE ( 'NONE', #874, 0.5000000000022014612 ) ;
#515 = EDGE_CURVE ( 'NONE', #2, #669, #251, .T. ) ;
#516 = ORIENTED_EDGE ( 'NONE', *, *, #221, .T. ) ;
#517 = CIRCLE ( 'NONE', #850, 0.5000000000022014612 ) ;
#518 = VECTOR ( 'NONE', #85, 39.37007874015748854 ) ;
#519 = ORIENTED_EDGE ( 'NONE', *, *, #581, .F. ) ;
#520 = VERTEX_POINT ( 'NONE', #138 ) ;
#521 = FACE_OUTER_BOUND ( 'NONE', #159, .T. ) ;
#522 = PLANE ( 'NONE',  #502 ) ;
#523 = LINE ( 'NONE', #896, #855 ) ;
#524 = ORIENTED_EDGE ( 'NONE', *, *, #348, .T. ) ;
#525 = VECTOR ( 'NONE', #602, 39.37007874015748854 ) ;
#526 = ORIENTED_EDGE ( 'NONE', *, *, #853, .T. ) ;
#527 = ORIENTED_EDGE ( 'NONE', *, *, #76, .F. ) ;
#528 = DIRECTION ( 'NONE',  ( 0.000000000000000000, -0.1621719582624190081, 0.9867625124381914636 ) ) ;
#529 = FILL_AREA_STYLE_COLOUR ( '', #613 ) ;
#530 = CARTESIAN_POINT ( 'NONE',  ( -2.499999999997804867, 19.53082840536434261, 50.30887607334226175 ) ) ;
#531 = ORIENTED_EDGE ( 'NONE', *, *, #500, .T. ) ;
#532 = DIRECTION ( 'NONE',  ( -0.000000000000000000, 0.9867625124381891322, 0.1621719582624338019 ) ) ;
#533 = DIRECTION ( 'NONE',  ( -3.594246919769843068E-16, -0.9867625124381893542, -0.1621719582624338019 ) ) ;
#534 = DIRECTION ( 'NONE',  ( 0.000000000000000000, -0.1621719582624190081, 0.9867625124381914636 ) ) ;
#535 = AXIS2_PLACEMENT_3D ( 'NONE', #662, #375, #501 ) ;
#536 = CIRCLE ( 'NONE', #47, 0.5000000000022014612 ) ;
#537 = LINE ( 'NONE', #392, #400 ) ;
#538 = PRESENTATION_STYLE_ASSIGNMENT (( #677 ) ) ;
#539 = DIRECTION ( 'NONE',  ( -3.594246919769843068E-16, -0.9867625124381893542, -0.1621719582624338019 ) ) ;
#540 = DIRECTION ( 'NONE',  ( 3.594246919769843068E-16, 0.9867625124381893542, 0.1621719582624338019 ) ) ;
#541 = AXIS2_PLACEMENT_3D ( 'NONE', #405, #603, #690 ) ;
#542 = CARTESIAN_POINT ( 'NONE',  ( -1.500000000000000444, 19.89743165681281312, 48.84900379946773796 ) ) ;
#543 = DIRECTION ( 'NONE',  ( 0.000000000000000000, -0.1621719582624342459, 0.9867625124381892432 ) ) ;
#544 = CARTESIAN_POINT ( 'NONE',  ( -1.500000000000000444, 20.38394753160011419, 45.88871626215318855 ) ) ;
#545 = DIRECTION ( 'NONE',  ( 0.000000000000000000, -0.1621719582624344125, 0.9867625124381891322 ) ) ;
#546 = DIRECTION ( 'NONE',  ( 0.000000000000000000, -0.1621719582624344125, 0.9867625124381891322 ) ) ;
#547 = DIRECTION ( 'NONE',  ( 0.000000000000000000, -0.1621719582624190081, 0.9867625124381914636 ) ) ;
#548 =( NAMED_UNIT ( * ) SI_UNIT ( $, .STERADIAN. ) SOLID_ANGLE_UNIT ( ) );
#549 = FACE_OUTER_BOUND ( 'NONE', #219, .T. ) ;
#550 = AXIS2_PLACEMENT_3D ( 'NONE', #465, #197, #112 ) ;
#551 = DIRECTION ( 'NONE',  ( 3.594246919769843068E-16, 0.9867625124381893542, 0.1621719582624338019 ) ) ;
#552 = DIRECTION ( 'NONE',  ( -3.594246919769843068E-16, -0.9867625124381893542, -0.1621719582624338019 ) ) ;
#553 = AXIS2_PLACEMENT_3D ( 'NONE', #656, #666, #29 ) ;
#554 = LINE ( 'NONE', #481, #503 ) ;
#555 = EDGE_CURVE ( 'NONE', #350, #28, #210, .T. ) ;
#556 = EDGE_CURVE ( 'NONE', #658, #788, #11, .T. ) ;
#557 = DIRECTION ( 'NONE',  ( -0.000000000000000000, 0.9867625124381893542, 0.1621719582624337741 ) ) ;
#558 = CARTESIAN_POINT ( 'NONE',  ( -2.499999999997788880, 21.07146200885711806, 40.93463220518157897 ) ) ;
#559 = ORIENTED_EDGE ( 'NONE', *, *, #413, .T. ) ;
#560 = AXIS2_PLACEMENT_3D ( 'NONE', #315, #596, #534 ) ;
#561 = CARTESIAN_POINT ( 'NONE',  ( -2.499999999997804867, 19.65417371941913771, 50.32914756812506596 ) ) ;
#562 = DIRECTION ( 'NONE',  ( 3.594246919769843068E-16, 0.9867625124381893542, 0.1621719582624338019 ) ) ;
#563 = EDGE_CURVE ( 'NONE', #588, #663, #425, .T. ) ;
#564 = ORIENTED_EDGE ( 'NONE', *, *, #130, .F. ) ;
#565 = CARTESIAN_POINT ( 'NONE',  ( -1.500000000000000444, 20.26060221754530133, 45.86844476737037013 ) ) ;
#566 = CIRCLE ( 'NONE', #384, 0.1330000000000000626 ) ;
#567 = CIRCLE ( 'NONE', #685, 0.5000000000022101210 ) ;
#568 = DIRECTION ( 'NONE',  ( -0.000000000000000000, 0.9867625124381891322, 0.1621719582624337463 ) ) ;
#569 = UNCERTAINTY_MEASURE_WITH_UNIT (LENGTH_MEASURE( 1.000000000000000082E-05 ), #607, 'distance_accuracy_value', 'NONE');
#570 = EDGE_LOOP ( 'NONE', ( #170, #222 ) ) ;
#571 = ADVANCED_FACE ( 'NONE', ( #709 ), #67, .T. ) ;
#572 = CARTESIAN_POINT ( 'NONE',  ( -2.499999999997790212, 19.61191438449592539, 49.81549481712092842 ) ) ;
#573 = ORIENTED_EDGE ( 'NONE', *, *, #741, .T. ) ;
#574 = CYLINDRICAL_SURFACE ( 'NONE', #269, 0.1330000000000000626 ) ;
#575 = ADVANCED_FACE ( 'NONE', ( #7 ), #857, .F. ) ;
#576 = VECTOR ( 'NONE', #353, 39.37007874015748854 ) ;
#577 = AXIS2_PLACEMENT_3D ( 'NONE', #305, #894, #528 ) ;
#578 = FACE_OUTER_BOUND ( 'NONE', #808, .T. ) ;
#579 = AXIS2_PLACEMENT_3D ( 'NONE', #335, #267, #620 ) ;
#580 = ORIENTED_EDGE ( 'NONE', *, *, #433, .F. ) ;
#581 = EDGE_CURVE ( 'NONE', #316, #445, #146, .T. ) ;
#582 = ORIENTED_EDGE ( 'NONE', *, *, #258, .F. ) ;
#583 = CARTESIAN_POINT ( 'NONE',  ( -2.499999999997790212, 19.73525969855074180, 49.83576631190373973 ) ) ;
#584 = VECTOR ( 'NONE', #886, 39.37007874015748854 ) ;
#585 = ORIENTED_EDGE ( 'NONE', *, *, #581, .T. ) ;
#586 = EDGE_LOOP ( 'NONE', ( #443, #582 ) ) ;
#587 = ADVANCED_FACE ( 'NONE', ( #223 ), #574, .F. ) ;
#588 = VERTEX_POINT ( 'NONE', #866 ) ;
#589 = DIRECTION ( 'NONE',  ( -0.000000000000000000, 0.9867625124381891322, 0.1621719582624338019 ) ) ;
#590 = DIRECTION ( 'NONE',  ( 0.000000000000000000, -0.1621719582624190081, 0.9867625124381914636 ) ) ;
#591 = VERTEX_POINT ( 'NONE', #509 ) ;
#592 = ORIENTED_EDGE ( 'NONE', *, *, #458, .T. ) ;
#593 = ORIENTED_EDGE ( 'NONE', *, *, #816, .T. ) ;
#594 = CARTESIAN_POINT ( 'NONE',  ( -2.499999999997804867, 19.65417371941913771, 50.32914756812506596 ) ) ;
#595 = DIRECTION ( 'NONE',  ( -0.000000000000000000, 0.9867625124381893542, 0.1621719582624337741 ) ) ;
#596 = DIRECTION ( 'NONE',  ( -0.000000000000000000, 0.9867625124381893542, 0.1621719582624337741 ) ) ;
#597 = AXIS2_PLACEMENT_3D ( 'NONE', #891, #533, #818 ) ;
#598 = VERTEX_POINT ( 'NONE', #213 ) ;
#599 = ORIENTED_EDGE ( 'NONE', *, *, #853, .F. ) ;
#600 = ORIENTED_EDGE ( 'NONE', *, *, #239, .F. ) ;
#601 = CYLINDRICAL_SURFACE ( 'NONE', #399, 0.09674999999999779610 ) ;
#602 = DIRECTION ( 'NONE',  ( -0.000000000000000000, 0.9867625124381891322, 0.1621719582624338019 ) ) ;
#603 = DIRECTION ( 'NONE',  ( 0.000000000000000000, -0.1621719582624338019, 0.9867625124381892432 ) ) ;
#604 = ADVANCED_FACE ( 'NONE', ( #858 ), #25, .F. ) ;
#605 = VERTEX_POINT ( 'NONE', #737 ) ;
#606 = CARTESIAN_POINT ( 'NONE',  ( 3.000000000000003109, 19.73525969855070628, 49.83576631190378237 ) ) ;
#607 =( CONVERSION_BASED_UNIT ( 'INCH', #173 ) LENGTH_UNIT ( ) NAMED_UNIT ( #308 ) );
#608 = CARTESIAN_POINT ( 'NONE',  ( 3.000000000000003109, 19.73525969855070628, 49.83576631190378237 ) ) ;
#609 = ADVANCED_FACE ( 'NONE', ( #578 ), #514, .T. ) ;
#610 = DIRECTION ( 'NONE',  ( 0.000000000000000000, -0.1621719582624190081, 0.9867625124381914636 ) ) ;
#611 = DIRECTION ( 'NONE',  ( 0.000000000000000000, -0.1621719582624344125, 0.9867625124381891322 ) ) ;
#612 = DIRECTION ( 'NONE',  ( 0.000000000000000000, -0.1621719582624190081, 0.9867625124381914636 ) ) ;
#613 = COLOUR_RGB ( '',0.7921568627450980005, 0.8196078431372548767, 0.9333333333333333481 ) ;
#614 = AXIS2_PLACEMENT_3D ( 'NONE', #542, #198, #829 ) ;
#615 = DIRECTION ( 'NONE',  ( 0.000000000000000000, 0.1621719582624314426, -0.9867625124381896873 ) ) ;
#616 = CARTESIAN_POINT ( 'NONE',  ( 1.500000000000000444, 20.26060221754530133, 45.86844476737037013 ) ) ;
#617 = DIRECTION ( 'NONE',  ( -0.000000000000000000, 0.9867625124381893542, 0.1621719582624338296 ) ) ;
#618 = DIRECTION ( 'NONE',  ( 0.000000000000000000, -0.1621719582624344125, 0.9867625124381891322 ) ) ;
#619 = DIRECTION ( 'NONE',  ( -0.000000000000000000, 0.9867625124381891322, 0.1621719582624338019 ) ) ;
#620 = DIRECTION ( 'NONE',  ( 0.000000000000000000, -0.1621719582624190081, 0.9867625124381914636 ) ) ;
#621 = CARTESIAN_POINT ( 'NONE',  ( -2.499999999997790212, 19.75682856899964435, 49.70452689774946009 ) ) ;
#622 = FACE_OUTER_BOUND ( 'NONE', #297, .T. ) ;
#623 = FACE_BOUND ( 'NONE', #217, .T. ) ;
#624 = CYLINDRICAL_SURFACE ( 'NONE', #614, 0.09674999999999779610 ) ;
#625 = PRODUCT_CONTEXT ( 'NONE', #732, 'mechanical' ) ;
#626 = EDGE_LOOP ( 'NONE', ( #782, #776 ) ) ;
#627 = EDGE_CURVE ( 'NONE', #703, #367, #119, .T. ) ;
#628 = VECTOR ( 'NONE', #434, 39.37007874015748854 ) ;
#629 = CYLINDRICAL_SURFACE ( 'NONE', #418, 0.5000000000022014612 ) ;
#630 = LINE ( 'NONE', #621, #821 ) ;
#631 = ORIENTED_EDGE ( 'NONE', *, *, #82, .T. ) ;
#632 = APPLICATION_PROTOCOL_DEFINITION ( 'draft international standard', 'automotive_design', 1998, #756 ) ;
#633 = ORIENTED_EDGE ( 'NONE', *, *, #733, .T. ) ;
#634 = CARTESIAN_POINT ( 'NONE',  ( 2.499999999997797318, 21.19480732291189540, 40.95490369996444002 ) ) ;
#635 = CIRCLE ( 'NONE', #111, 0.09674999999999779610 ) ;
#636 = CARTESIAN_POINT ( 'NONE',  ( -2.499999999997803535, 21.15254798798867952, 40.44125094896037353 ) ) ;
#637 = ORIENTED_EDGE ( 'NONE', *, *, #424, .F. ) ;
#638 = CARTESIAN_POINT ( 'NONE',  ( 2.499999999997791100, 19.73525969855070628, 49.83576631190378237 ) ) ;
#639 = VECTOR ( 'NONE', #471, 39.37007874015748854 ) ;
#640 = EDGE_CURVE ( 'NONE', #778, #204, #860, .T. ) ;
#641 = CARTESIAN_POINT ( 'NONE',  ( 2.999999999999997335, 21.19480732291189540, 40.95490369996444002 ) ) ;
#642 = EDGE_CURVE ( 'NONE', #23, #864, #706, .T. ) ;
#643 = DIRECTION ( 'NONE',  ( -3.594246919769843068E-16, -0.9867625124381893542, -0.1621719582624338019 ) ) ;
#644 = DIRECTION ( 'NONE',  ( 0.000000000000000000, 0.1621719582624350509, -0.9867625124381890211 ) ) ;
#645 = VERTEX_POINT ( 'NONE', #787 ) ;
#646 = EDGE_CURVE ( 'NONE', #663, #379, #566, .T. ) ;
#647 = EDGE_CURVE ( 'NONE', #151, #832, #370, .T. ) ;
#648 = CIRCLE ( 'NONE', #550, 0.09674999999999779610 ) ;
#649 = ORIENTED_EDGE ( 'NONE', *, *, #771, .T. ) ;
#650 = CARTESIAN_POINT ( 'NONE',  ( -1.500000000000000444, 20.38394753160011419, 45.88871626215318855 ) ) ;
#651 = AXIS2_PLACEMENT_3D ( 'NONE', #843, #557, #763 ) ;
#652 = EDGE_LOOP ( 'NONE', ( #883, #163, #107, #585, #573, #872, #21, #437 ) ) ;
#653 = EDGE_CURVE ( 'NONE', #788, #658, #477, .T. ) ;
#654 = ORIENTED_EDGE ( 'NONE', *, *, #76, .T. ) ;
#655 = ORIENTED_EDGE ( 'NONE', *, *, #290, .T. ) ;
#656 = CARTESIAN_POINT ( 'NONE',  ( -2.499999999997788880, 21.19480732291193092, 40.95490369996439028 ) ) ;
#657 = DIRECTION ( 'NONE',  ( -3.594246919769843068E-16, -0.9867625124381893542, -0.1621719582624338019 ) ) ;
#658 = VERTEX_POINT ( 'NONE', #8 ) ;
#659 = EDGE_LOOP ( 'NONE', ( #796, #655, #649, #769 ) ) ;
#660 = ORIENTED_EDGE ( 'NONE', *, *, #130, .T. ) ;
#661 = CYLINDRICAL_SURFACE ( 'NONE', #670, 0.09674999999999779610 ) ;
#662 = CARTESIAN_POINT ( 'NONE',  ( -1.500000000000000444, 20.38394753160011419, 45.88871626215318855 ) ) ;
#663 = VERTEX_POINT ( 'NONE', #236 ) ;
#664 = ORIENTED_EDGE ( 'NONE', *, *, #106, .F. ) ;
#665 = EDGE_LOOP ( 'NONE', ( #707, #38 ) ) ;
#666 = DIRECTION ( 'NONE',  ( -0.000000000000000000, 0.9867625124381893542, 0.1621719582624337741 ) ) ;
#667 = FILL_AREA_STYLE ('',( #529 ) ) ;
#668 = ADVANCED_FACE ( 'NONE', ( #149 ), #291, .F. ) ;
#669 = VERTEX_POINT ( 'NONE', #438 ) ;
#670 = AXIS2_PLACEMENT_3D ( 'NONE', #513, #589, #313 ) ;
#671 = VERTEX_POINT ( 'NONE', #167 ) ;
#672 = CARTESIAN_POINT ( 'NONE',  ( -1.500000000000000444, 19.77408634275800026, 48.82873230468492665 ) ) ;
#673 = EDGE_CURVE ( 'NONE', #362, #832, #45, .T. ) ;
#674 = DIRECTION ( 'NONE',  ( -3.594246919769842575E-16, -0.9867625124381891322, -0.1621719582624337741 ) ) ;
#675 = ORIENTED_EDGE ( 'NONE', *, *, #555, .T. ) ;
#676 = DIRECTION ( 'NONE',  ( -0.000000000000000000, 0.9867625124381891322, 0.1621719582624337463 ) ) ;
#677 = SURFACE_STYLE_USAGE ( .BOTH. , #473 ) ;
#678 = DIRECTION ( 'NONE',  ( -0.000000000000000000, 0.9867625124381893542, 0.1621719582624337741 ) ) ;
#679 = EDGE_CURVE ( 'NONE', #26, #316, #895, .T. ) ;
#680 = CARTESIAN_POINT ( 'NONE',  ( 2.499999999997792433, 21.21637619336082992, 40.82366428581013196 ) ) ;
#681 = FACE_OUTER_BOUND ( 'NONE', #247, .T. ) ;
#682 = CARTESIAN_POINT ( 'NONE',  ( -2.499999999997790212, 19.63348325494483149, 49.68425540296664877 ) ) ;
#683 = DIRECTION ( 'NONE',  ( 2.428309327702759964E-16, 0.1621719582624338851, -0.9867625124381891322 ) ) ;
#684 = AXIS2_PLACEMENT_3D ( 'NONE', #854, #643, #139 ) ;
#685 = AXIS2_PLACEMENT_3D ( 'NONE', #918, #53, #615 ) ;
#686 = ADVANCED_FACE ( 'NONE', ( #798 ), #522, .F. ) ;
#687 = MANIFOLD_SOLID_BREP ( '#10 (0.1935) Diameter Hole1', #31 ) ;
#688 = CYLINDRICAL_SURFACE ( 'NONE', #442, 0.09674999999999779610 ) ;
#689 = CARTESIAN_POINT ( 'NONE',  ( -2.499999999997803535, 21.07146200885710741, 40.93463220518163581 ) ) ;
#690 = DIRECTION ( 'NONE',  ( 0.000000000000000000, -0.9867625124381891322, -0.1621719582624337741 ) ) ;
#691 = ORIENTED_EDGE ( 'NONE', *, *, #887, .T. ) ;
#692 = LINE ( 'NONE', #680, #283 ) ;
#693 = FACE_OUTER_BOUND ( 'NONE', #383, .T. ) ;
#694 = ORIENTED_EDGE ( 'NONE', *, *, #272, .T. ) ;
#695 = DIRECTION ( 'NONE',  ( -3.594246919769843068E-16, -0.9867625124381893542, -0.1621719582624338019 ) ) ;
#696 = LINE ( 'NONE', #274, #252 ) ;
#697 = VERTEX_POINT ( 'NONE', #35 ) ;
#698 = PRESENTATION_LAYER_ASSIGNMENT (  '', '', ( #859 ) ) ;
#699 = VECTOR ( 'NONE', #478, 39.37007874015748854 ) ;
#700 = CARTESIAN_POINT ( 'NONE',  ( -3.000000000000005329, 19.61191438449591473, 49.81549481712099947 ) ) ;
#701 = ORIENTED_EDGE ( 'NONE', *, *, #420, .F. ) ;
#702 = CYLINDRICAL_SURFACE ( 'NONE', #364, 0.09674999999999779610 ) ;
#703 = VERTEX_POINT ( 'NONE', #98 ) ;
#704 = CARTESIAN_POINT ( 'NONE',  ( 2.499999999997792433, 21.17323845246302483, 41.08614311411869124 ) ) ;
#705 = DIRECTION ( 'NONE',  ( 0.000000000000000000, 0.1621719582624350509, -0.9867625124381890211 ) ) ;
#706 = CIRCLE ( 'NONE', #344, 0.1330000000000000626 ) ;
#707 = ORIENTED_EDGE ( 'NONE', *, *, #646, .F. ) ;
#708 = AXIS2_PLACEMENT_3D ( 'NONE', #561, #190, #347 ) ;
#709 = FACE_OUTER_BOUND ( 'NONE', #304, .T. ) ;
#710 = VECTOR ( 'NONE', #237, 39.37007874015748854 ) ;
#711 = CARTESIAN_POINT ( 'NONE',  ( -2.499999999997804867, 19.73525969855070628, 49.83576631190380368 ) ) ;
#712 = EDGE_CURVE ( 'NONE', #658, #63, #830, .T. ) ;
#713 = EDGE_CURVE ( 'NONE', #846, #588, #214, .T. ) ;
#714 = AXIS2_PLACEMENT_3D ( 'NONE', #460, #393, #743 ) ;
#715 = ORIENTED_EDGE ( 'NONE', *, *, #556, .F. ) ;
#716 = EDGE_LOOP ( 'NONE', ( #280, #791, #498, #867 ) ) ;
#717 = DIRECTION ( 'NONE',  ( 3.594246919769843068E-16, 0.9867625124381893542, 0.1621719582624338019 ) ) ;
#718 = EDGE_CURVE ( 'NONE', #731, #28, #194, .T. ) ;
#719 = ORIENTED_EDGE ( 'NONE', *, *, #515, .F. ) ;
#720 = AXIS2_PLACEMENT_3D ( 'NONE', #432, #381, #80 ) ;
#721 = EDGE_LOOP ( 'NONE', ( #599, #131 ) ) ;
#722 = CARTESIAN_POINT ( 'NONE',  ( 2.499999999997792433, 21.19480732291192737, 40.95490369996441160 ) ) ;
#723 = AXIS2_PLACEMENT_3D ( 'NONE', #257, #404, #268 ) ;
#724 = EDGE_LOOP ( 'NONE', ( #422, #510 ) ) ;
#725 = ORIENTED_EDGE ( 'NONE', *, *, #713, .F. ) ;
#726 = ORIENTED_EDGE ( 'NONE', *, *, #712, .T. ) ;
#727 = DIRECTION ( 'NONE',  ( -3.594246919769842082E-16, -0.9867625124381891322, -0.1621719582624337741 ) ) ;
#728 = DIRECTION ( 'NONE',  ( 0.000000000000000000, -0.1621719582624190081, 0.9867625124381914636 ) ) ;
#729 = AXIS2_PLACEMENT_3D ( 'NONE', #544, #474, #397 ) ;
#730 = EDGE_LOOP ( 'NONE', ( #310, #373, #240, #511 ) ) ;
#731 = VERTEX_POINT ( 'NONE', #900 ) ;
#732 = APPLICATION_CONTEXT ( 'automotive_design' ) ;
#733 = EDGE_CURVE ( 'NONE', #520, #66, #292, .T. ) ;
#734 = EDGE_LOOP ( 'NONE', ( #564, #456, #675, #95 ) ) ;
#735 = CIRCLE ( 'NONE', #897, 0.09674999999999779610 ) ;
#736 = CYLINDRICAL_SURFACE ( 'NONE', #145, 0.5000000000022014612 ) ;
#737 = CARTESIAN_POINT ( 'NONE',  ( 2.499999999997791100, 19.53082840536433906, 50.30887607334226175 ) ) ;
#738 = FACE_OUTER_BOUND ( 'NONE', #512, .T. ) ;
#739 = ORIENTED_EDGE ( 'NONE', *, *, #801, .T. ) ;
#740 = VERTEX_POINT ( 'NONE', #104 ) ;
#741 = EDGE_CURVE ( 'NONE', #445, #151, #466, .T. ) ;
#742 = FACE_BOUND ( 'NONE', #241, .T. ) ;
#743 = DIRECTION ( 'NONE',  ( 0.000000000000000000, -0.1621719582624190081, 0.9867625124381914636 ) ) ;
#744 = VECTOR ( 'NONE', #282, 39.37007874015748854 ) ;
#745 = VERTEX_POINT ( 'NONE', #109 ) ;
#746 = DIRECTION ( 'NONE',  ( -0.000000000000000000, 0.9867625124381891322, 0.1621719582624338019 ) ) ;
#747 = CARTESIAN_POINT ( 'NONE',  ( -2.499999999997804867, 19.73525969855070628, 49.83576631190380368 ) ) ;
#748 = DIRECTION ( 'NONE',  ( -0.000000000000000000, 0.9867625124381893542, 0.1621719582624338296 ) ) ;
#749 = EDGE_CURVE ( 'NONE', #445, #362, #182, .T. ) ;
#750 = CARTESIAN_POINT ( 'NONE',  ( 2.499999999997791100, 19.61191438449591473, 49.81549481712097815 ) ) ;
#751 = CARTESIAN_POINT ( 'NONE',  ( -1.500000000000000444, 20.36825739463822416, 45.98418553523158181 ) ) ;
#752 = DIRECTION ( 'NONE',  ( -3.594246919769842575E-16, -0.9867625124381891322, -0.1621719582624337741 ) ) ;
#753 = LINE ( 'NONE', #110, #435 ) ;
#754 = CARTESIAN_POINT ( 'NONE',  ( -2.499999999997803535, 21.27589330204347107, 40.46152244374317775 ) ) ;
#755 = EDGE_CURVE ( 'NONE', #15, #697, #114, .T. ) ;
#756 = APPLICATION_CONTEXT ( 'automotive_design' ) ;
#757 = CARTESIAN_POINT ( 'NONE',  ( -1.500000000000000444, 19.88174151985092308, 48.94447307254613122 ) ) ;
#758 = CARTESIAN_POINT ( 'NONE',  ( 1.499999999999999112, 19.77408634275800026, 48.82873230468492665 ) ) ;
#759 = CARTESIAN_POINT ( 'NONE',  ( 1.500000000000000444, 20.24491208058341130, 45.96391404044876339 ) ) ;
#760 = DIRECTION ( 'NONE',  ( 0.000000000000000000, -0.1621719582624344125, 0.9867625124381891322 ) ) ;
#761 = AXIS2_PLACEMENT_3D ( 'NONE', #402, #695, #343 ) ;
#762 = CIRCLE ( 'NONE', #177, 0.09674999999999779610 ) ;
#763 = DIRECTION ( 'NONE',  ( 0.000000000000000000, -0.1621719582624190081, 0.9867625124381914636 ) ) ;
#764 = CARTESIAN_POINT ( 'NONE',  ( -2.499999999997804867, 19.65417371941913771, 50.32914756812506596 ) ) ;
#765 = DIRECTION ( 'NONE',  ( -0.000000000000000000, 0.9867625124381891322, 0.1621719582624338019 ) ) ;
#766 = CARTESIAN_POINT ( 'NONE',  ( -1.500000000000000444, 20.39963766856200422, 45.79324698907479529 ) ) ;
#767 = CARTESIAN_POINT ( 'NONE',  ( 2.999999999999995115, 19.61191438449591473, 49.81549481712097815 ) ) ;
#768 = EDGE_CURVE ( 'NONE', #26, #671, #885, .T. ) ;
#769 = ORIENTED_EDGE ( 'NONE', *, *, #712, .F. ) ;
#770 = CARTESIAN_POINT ( 'NONE',  ( -2.499999999997788880, 21.04989313840821197, 41.06587161933585861 ) ) ;
#771 = EDGE_CURVE ( 'NONE', #591, #63, #242, .T. ) ;
#772 = ORIENTED_EDGE ( 'NONE', *, *, #640, .T. ) ;
#773 = LENGTH_MEASURE_WITH_UNIT ( LENGTH_MEASURE( 0.02539999999999999897 ), #419 );
#774 = AXIS2_PLACEMENT_3D ( 'NONE', #69, #494, #284 ) ;
#775 = DIRECTION ( 'NONE',  ( -0.000000000000000000, 0.9867625124381891322, 0.1621719582624338019 ) ) ;
#776 = ORIENTED_EDGE ( 'NONE', *, *, #627, .F. ) ;
#777 = CARTESIAN_POINT ( 'NONE',  ( 1.499999999999999112, 19.89743165681281312, 48.84900379946773796 ) ) ;
#778 = VERTEX_POINT ( 'NONE', #51 ) ;
#779 = PRODUCT_DEFINITION_SHAPE ( 'NONE', 'NONE',  #428 ) ;
#780 = FACE_OUTER_BOUND ( 'NONE', #734, .T. ) ;
#781 = UNCERTAINTY_MEASURE_WITH_UNIT (LENGTH_MEASURE( 1.000000000000000082E-05 ), #276, 'distance_accuracy_value', 'NONE');
#782 = ORIENTED_EDGE ( 'NONE', *, *, #272, .F. ) ;
#783 = ORIENTED_EDGE ( 'NONE', *, *, #32, .T. ) ;
#784 = DIRECTION ( 'NONE',  ( -3.594246919769843068E-16, -0.9867625124381893542, -0.1621719582624338019 ) ) ;
#785 = PRODUCT_RELATED_PRODUCT_CATEGORY ( 'part', '', ( #923 ) ) ;
#786 = VECTOR ( 'NONE', #746, 39.37007874015748854 ) ;
#787 = CARTESIAN_POINT ( 'NONE',  ( -1.500000000000000444, 19.75839620579611022, 48.92420157776331280 ) ) ;
#788 = VERTEX_POINT ( 'NONE', #682 ) ;
#789 = DIRECTION ( 'NONE',  ( -0.000000000000000000, 0.9867625124381893542, 0.1621719582624337741 ) ) ;
#790 = ORIENTED_EDGE ( 'NONE', *, *, #907, .T. ) ;
#791 = ORIENTED_EDGE ( 'NONE', *, *, #815, .T. ) ;
#792 = DIRECTION ( 'NONE',  ( 0.000000000000000000, -0.1621719582624190081, 0.9867625124381914636 ) ) ;
#793 = EDGE_LOOP ( 'NONE', ( #919, #89 ) ) ;
#794 = VERTEX_POINT ( 'NONE', #41 ) ;
#795 = VECTOR ( 'NONE', #356, 39.37007874015748854 ) ;
#796 = ORIENTED_EDGE ( 'NONE', *, *, #556, .T. ) ;
#797 = DIRECTION ( 'NONE',  ( -0.000000000000000000, 0.9867625124381891322, 0.1621719582624338019 ) ) ;
#798 = FACE_OUTER_BOUND ( 'NONE', #303, .T. ) ;
#799 = AXIS2_PLACEMENT_3D ( 'NONE', #256, #540, #279 ) ;
#800 = ORIENTED_EDGE ( 'NONE', *, *, #642, .T. ) ;
#801 = EDGE_CURVE ( 'NONE', #446, #697, #635, .T. ) ;
#802 = ORIENTED_EDGE ( 'NONE', *, *, #488, .T. ) ;
#803 = ORIENTED_EDGE ( 'NONE', *, *, #801, .F. ) ;
#804 = CARTESIAN_POINT ( 'NONE',  ( 1.500000000000000444, 20.39963766856200422, 45.79324698907479529 ) ) ;
#805 = CARTESIAN_POINT ( 'NONE',  ( -2.499999999997804867, 19.65417371941913771, 50.32914756812506596 ) ) ;
#806 = DIRECTION ( 'NONE',  ( 1.000000000000000000, -4.370956789866670298E-16, 0.000000000000000000 ) ) ;
#807 = ORIENTED_EDGE ( 'NONE', *, *, #482, .T. ) ;
#808 = EDGE_LOOP ( 'NONE', ( #869, #410, #211, #13 ) ) ;
#809 = ORIENTED_EDGE ( 'NONE', *, *, #768, .T. ) ;
#810 = AXIS2_PLACEMENT_3D ( 'NONE', #672, #884, #387 ) ;
#811 = FACE_BOUND ( 'NONE', #58, .T. ) ;
#812 = SURFACE_STYLE_FILL_AREA ( #667 ) ;
#813 = DIRECTION ( 'NONE',  ( 0.000000000000000000, 0.1621719582624350509, -0.9867625124381890211 ) ) ;
#814 = EDGE_LOOP ( 'NONE', ( #133, #357, #631, #79 ) ) ;
#815 = EDGE_CURVE ( 'NONE', #669, #2, #200, .T. ) ;
#816 = EDGE_CURVE ( 'NONE', #745, #740, #892, .T. ) ;
#817 = FACE_OUTER_BOUND ( 'NONE', #462, .T. ) ;
#818 = DIRECTION ( 'NONE',  ( 0.000000000000000000, 0.1621719582624190081, -0.9867625124381914636 ) ) ;
#819 = AXIS2_PLACEMENT_3D ( 'NONE', #572, #427, #705 ) ;
#820 = CARTESIAN_POINT ( 'NONE',  ( -2.499999999997790212, 19.73525969855074180, 49.83576631190373973 ) ) ;
#821 = VECTOR ( 'NONE', #484, 39.37007874015748854 ) ;
#822 = DIRECTION ( 'NONE',  ( 0.000000000000000000, 0.1621719582624342459, -0.9867625124381892432 ) ) ;
#823 = DIRECTION ( 'NONE',  ( 3.594246919769843068E-16, 0.9867625124381893542, 0.1621719582624338019 ) ) ;
#824 = EDGE_CURVE ( 'NONE', #204, #778, #18, .T. ) ;
#825 = CARTESIAN_POINT ( 'NONE',  ( 1.500000000000000444, 20.26060221754530133, 45.86844476737037013 ) ) ;
#826 = CARTESIAN_POINT ( 'NONE',  ( -1.500000000000000444, 20.24491208058341130, 45.96391404044876339 ) ) ;
#827 =( GEOMETRIC_REPRESENTATION_CONTEXT ( 3 ) GLOBAL_UNCERTAINTY_ASSIGNED_CONTEXT ( ( #781 ) ) GLOBAL_UNIT_ASSIGNED_CONTEXT ( ( #276, #845, #548 ) ) REPRESENTATION_CONTEXT ( 'NONE', 'WORKASPACE' ) );
#828 = CYLINDRICAL_SURFACE ( 'NONE', #651, 0.1330000000000000626 ) ;
#829 = DIRECTION ( 'NONE',  ( 0.000000000000000000, -0.1621719582624344125, 0.9867625124381891322 ) ) ;
#830 = LINE ( 'NONE', #40, #922 ) ;
#831 = LINE ( 'NONE', #608, #584 ) ;
#832 = VERTEX_POINT ( 'NONE', #530 ) ;
#833 = LINE ( 'NONE', #123, #230 ) ;
#834 = DIRECTION ( 'NONE',  ( -3.594246919769843068E-16, -0.9867625124381892432, -0.1621719582624338019 ) ) ;
#835 = LINE ( 'NONE', #906, #480 ) ;
#836 = AXIS2_PLACEMENT_3D ( 'NONE', #218, #717, #20 ) ;
#837 = EDGE_CURVE ( 'NONE', #261, #287, #3, .T. ) ;
#838 = CARTESIAN_POINT ( 'NONE',  ( 2.499999999997791100, 19.65417371941913416, 50.32914756812506596 ) ) ;
#839 = DIRECTION ( 'NONE',  ( 0.000000000000000000, 0.1621719582624342459, -0.9867625124381892432 ) ) ;
#840 = CARTESIAN_POINT ( 'NONE',  ( -2.499999999997790212, 19.71369082810184281, 49.96700572605801938 ) ) ;
#841 = ADVANCED_FACE ( 'NONE', ( #30 ), #259, .F. ) ;
#842 = CIRCLE ( 'NONE', #560, 0.1330000000000000626 ) ;
#843 = CARTESIAN_POINT ( 'NONE',  ( -2.499999999997788880, 21.19480732291193092, 40.95490369996439028 ) ) ;
#844 = EDGE_LOOP ( 'NONE', ( #10, #654, #376, #277 ) ) ;
#845 =( NAMED_UNIT ( * ) PLANE_ANGLE_UNIT ( ) SI_UNIT ( $, .RADIAN. ) );
#846 = VERTEX_POINT ( 'NONE', #46 ) ;
#847 = CARTESIAN_POINT ( 'NONE',  ( -3.000000000000005329, 19.61191438449591473, 49.81549481712099947 ) ) ;
#848 = ORIENTED_EDGE ( 'NONE', *, *, #482, .F. ) ;
#849 = EDGE_CURVE ( 'NONE', #28, #731, #496, .T. ) ;
#850 = AXIS2_PLACEMENT_3D ( 'NONE', #634, #551, #908 ) ;
#851 = FACE_OUTER_BOUND ( 'NONE', #652, .T. ) ;
#852 = VERTEX_POINT ( 'NONE', #759 ) ;
#853 = EDGE_CURVE ( 'NONE', #864, #23, #842, .T. ) ;
#854 = CARTESIAN_POINT ( 'NONE',  ( 2.499999999997791100, 19.61191438449592539, 49.81549481712092842 ) ) ;
#855 = VECTOR ( 'NONE', #806, 39.37007874015748143 ) ;
#856 = ADVANCED_BREP_SHAPE_REPRESENTATION ( 'module sensor plate', ( #687, #165 ), #827 ) ;
#857 = CYLINDRICAL_SURFACE ( 'NONE', #720, 0.1330000000000000626 ) ;
#858 = FACE_OUTER_BOUND ( 'NONE', #814, .T. ) ;
#859 = STYLED_ITEM ( 'NONE', ( #538 ), #687 ) ;
#860 = CIRCLE ( 'NONE', #535, 0.09674999999999779610 ) ;
#861 = ORIENTED_EDGE ( 'NONE', *, *, #436, .T. ) ;
#862 = DIRECTION ( 'NONE',  ( -0.000000000000000000, 0.9867625124381891322, 0.1621719582624338019 ) ) ;
#863 = EDGE_LOOP ( 'NONE', ( #116, #508 ) ) ;
#864 = VERTEX_POINT ( 'NONE', #901 ) ;
#865 = AXIS2_PLACEMENT_3D ( 'NONE', #314, #320, #464 ) ;
#866 = CARTESIAN_POINT ( 'NONE',  ( 2.499999999997792433, 21.04989313840820486, 41.06587161933587282 ) ) ;
#867 = ORIENTED_EDGE ( 'NONE', *, *, #824, .T. ) ;
#868 = VERTEX_POINT ( 'NONE', #36 ) ;
#869 = ORIENTED_EDGE ( 'NONE', *, *, #673, .T. ) ;
#870 = LINE ( 'NONE', #380, #786 ) ;
#871 = DIRECTION ( 'NONE',  ( 3.594246919769843068E-16, 0.9867625124381893542, 0.1621719582624338019 ) ) ;
#872 = ORIENTED_EDGE ( 'NONE', *, *, #246, .T. ) ;
#873 = ORIENTED_EDGE ( 'NONE', *, *, #358, .F. ) ;
#874 = AXIS2_PLACEMENT_3D ( 'NONE', #711, #14, #153 ) ;
#875 = ORIENTED_EDGE ( 'NONE', *, *, #768, .F. ) ;
#876 = AXIS2_PLACEMENT_3D ( 'NONE', #181, #166, #324 ) ;
#877 = DIRECTION ( 'NONE',  ( 0.000000000000000000, -0.1621719582624344125, 0.9867625124381891322 ) ) ;
#878 = DIRECTION ( 'NONE',  ( 0.000000000000000000, 0.1621719582624190081, -0.9867625124381914636 ) ) ;
#879 = DIRECTION ( 'NONE',  ( -0.000000000000000000, 0.9867625124381893542, 0.1621719582624337741 ) ) ;
#880 = CIRCLE ( 'NONE', #233, 0.1330000000000000626 ) ;
#881 = EDGE_LOOP ( 'NONE', ( #426, #323 ) ) ;
#882 = ORIENTED_EDGE ( 'NONE', *, *, #718, .F. ) ;
#883 = ORIENTED_EDGE ( 'NONE', *, *, #409, .T. ) ;
#884 = DIRECTION ( 'NONE',  ( -3.594246919769843068E-16, -0.9867625124381893542, -0.1621719582624338019 ) ) ;
#885 = LINE ( 'NONE', #244, #710 ) ;
#886 = DIRECTION ( 'NONE',  ( -3.594246919769842575E-16, -0.9867625124381891322, -0.1621719582624337741 ) ) ;
#887 = EDGE_CURVE ( 'NONE', #93, #152, #831, .T. ) ;
#888 = EDGE_CURVE ( 'NONE', #852, #868, #753, .T. ) ;
#889 = VERTEX_POINT ( 'NONE', #120 ) ;
#890 = FACE_BOUND ( 'NONE', #626, .T. ) ;
#891 = CARTESIAN_POINT ( 'NONE',  ( 2.499999999997792433, 21.07146200885711096, 40.93463220518159318 ) ) ;
#892 = LINE ( 'NONE', #333, #209 ) ;
#893 = ADVANCED_FACE ( 'NONE', ( #738 ), #189, .F. ) ;
#894 = DIRECTION ( 'NONE',  ( -0.000000000000000000, 0.9867625124381893542, 0.1621719582624337741 ) ) ;
#895 = CIRCLE ( 'NONE', #83, 0.5000000000022014612 ) ;
#896 = CARTESIAN_POINT ( 'NONE',  ( -2.499999999997804867, 19.53082840536434261, 50.30887607334226175 ) ) ;
#897 = AXIS2_PLACEMENT_3D ( 'NONE', #616, #54, #899 ) ;
#898 = CARTESIAN_POINT ( 'NONE',  ( 2.499999999997797318, 21.19480732291189540, 40.95490369996444002 ) ) ;
#899 = DIRECTION ( 'NONE',  ( 0.000000000000000000, 0.1621719582624344125, -0.9867625124381891322 ) ) ;
#900 = CARTESIAN_POINT ( 'NONE',  ( 1.499999999999999112, 19.91312179377470315, 48.75353452638934471 ) ) ;
#901 = CARTESIAN_POINT ( 'NONE',  ( 2.499999999997791100, 19.71369082810183571, 49.96700572605801938 ) ) ;
#902 = ORIENTED_EDGE ( 'NONE', *, *, #196, .F. ) ;
#903 = AXIS2_PLACEMENT_3D ( 'NONE', #245, #539, #250 ) ;
#904 = DIRECTION ( 'NONE',  ( -0.000000000000000000, 0.9867625124381891322, 0.1621719582624338019 ) ) ;
#905 = FACE_OUTER_BOUND ( 'NONE', #730, .T. ) ;
#906 = CARTESIAN_POINT ( 'NONE',  ( -2.499999999997788880, 21.17323845246302838, 41.08614311411866993 ) ) ;
#907 = EDGE_CURVE ( 'NONE', #63, #591, #37, .T. ) ;
#908 = DIRECTION ( 'NONE',  ( 0.000000000000000000, 0.1621719582624342459, -0.9867625124381892432 ) ) ;
#909 = DIRECTION ( 'NONE',  ( -0.000000000000000000, 0.9867625124381893542, 0.1621719582624337741 ) ) ;
#910 = DIRECTION ( 'NONE',  ( -0.000000000000000000, 0.9867625124381891322, 0.1621719582624338019 ) ) ;
#911 = EDGE_CURVE ( 'NONE', #832, #605, #523, .T. ) ;
#912 = AXIS2_PLACEMENT_3D ( 'NONE', #360, #657, #644 ) ;
#913 = FACE_BOUND ( 'NONE', #195, .T. ) ;
#914 = CARTESIAN_POINT ( 'NONE',  ( -3.000000000000003997, 21.19480732291189895, 40.95490369996444002 ) ) ;
#915 = ORIENTED_EDGE ( 'NONE', *, *, #504, .F. ) ;
#916 = ORIENTED_EDGE ( 'NONE', *, *, #458, .F. ) ;
#917 = EDGE_CURVE ( 'NONE', #588, #846, #147, .T. ) ;
#918 = CARTESIAN_POINT ( 'NONE',  ( 2.499999999997791100, 19.73525969855070628, 49.83576631190378237 ) ) ;
#919 = ORIENTED_EDGE ( 'NONE', *, *, #907, .F. ) ;
#920 = LINE ( 'NONE', #135, #744 ) ;
#921 = EDGE_CURVE ( 'NONE', #175, #852, #220, .T. ) ;
#922 = VECTOR ( 'NONE', #249, 39.37007874015748854 ) ;
#923 = PRODUCT ( 'module sensor plate', 'module sensor plate', '', ( #625 ) ) ;
#924 = AXIS2_PLACEMENT_3D ( 'NONE', #201, #486, #416 ) ;
#925 = DIRECTION ( 'NONE',  ( 0.000000000000000000, 0.1621719582624314426, -0.9867625124381896873 ) ) ;
ENDSEC;
END-ISO-10303-21;
