ISO-10303-21;
HEADER;
FILE_DESCRIPTION (( 'STEP AP214' ),
    '1' );
FILE_NAME ('module base bracket 4.STEP',
    '2026-03-17T21:39:53',
    ( '' ),
    ( '' ),
    'SwSTEP 2.0',
    'SolidWorks 2025',
    '' );
FILE_SCHEMA (( 'AUTOMOTIVE_DESIGN' ));
ENDSEC;

DATA;
#1 = LINE ( 'NONE', #562, #227 ) ;
#2 = DIMENSIONAL_EXPONENTS ( 1.000000000000000000, 0.000000000000000000, 0.000000000000000000, 0.000000000000000000, 0.000000000000000000, 0.000000000000000000, 0.000000000000000000 ) ;
#3 = EDGE_CURVE ( 'NONE', #81, #479, #680, .T. ) ;
#4 = CARTESIAN_POINT ( 'NONE',  ( -4.526252459999997591, 4.949904510000008528, 44.66917851000000894 ) ) ;
#5 = CARTESIAN_POINT ( 'NONE',  ( -3.901252459999994926, 4.949904510000008528, 43.42717851000000451 ) ) ;
#6 = CARTESIAN_POINT ( 'NONE',  ( -4.151252459999994926, 5.199904510000008528, 44.17717851000000451 ) ) ;
#7 = CARTESIAN_POINT ( 'NONE',  ( -4.901252459999999367, 4.949904510000008528, 44.80217851000001161 ) ) ;
#8 = AXIS2_PLACEMENT_3D ( 'NONE', #505, #762, #325 ) ;
#9 = VECTOR ( 'NONE', #439, 39.37007874015748143 ) ;
#10 = ORIENTED_EDGE ( 'NONE', *, *, #288, .T. ) ;
#11 = DIRECTION ( 'NONE',  ( -0.000000000000000000, 1.000000000000000000, 0.000000000000000000 ) ) ;
#12 = DIRECTION ( 'NONE',  ( 0.000000000000000000, -1.000000000000000000, 0.000000000000000000 ) ) ;
#13 = LINE ( 'NONE', #703, #9 ) ;
#14 = DIRECTION ( 'NONE',  ( 0.000000000000000000, -1.000000000000000000, -0.000000000000000000 ) ) ;
#15 = CARTESIAN_POINT ( 'NONE',  ( -4.526252459999997591, 4.949904510000008528, 43.92706342905212580 ) ) ;
#16 = ORIENTED_EDGE ( 'NONE', *, *, #343, .T. ) ;
#17 = LINE ( 'NONE', #24, #346 ) ;
#18 = ADVANCED_FACE ( 'NONE', ( #686 ), #760, .F. ) ;
#19 = VECTOR ( 'NONE', #774, 39.37007874015748143 ) ;
#20 = DIRECTION ( 'NONE',  ( 0.000000000000000000, 0.000000000000000000, -1.000000000000000000 ) ) ;
#21 = CIRCLE ( 'NONE', #61, 0.1329999999999999238 ) ;
#22 = ORIENTED_EDGE ( 'NONE', *, *, #765, .F. ) ;
#23 = VECTOR ( 'NONE', #59, 39.37007874015748143 ) ;
#24 = CARTESIAN_POINT ( 'NONE',  ( -3.526252459999998035, 4.949904510000008528, 43.93517851000000718 ) ) ;
#25 = DIRECTION ( 'NONE',  ( 0.000000000000000000, 0.000000000000000000, -1.000000000000000000 ) ) ;
#26 = EDGE_CURVE ( 'NONE', #342, #355, #72, .T. ) ;
#27 = VERTEX_POINT ( 'NONE', #4 ) ;
#28 = DIRECTION ( 'NONE',  ( 0.000000000000000000, 0.000000000000000000, -1.000000000000000000 ) ) ;
#29 = CARTESIAN_POINT ( 'NONE',  ( -4.151252459999994926, 4.949904510000008528, 44.80217851000001161 ) ) ;
#30 = ORIENTED_EDGE ( 'NONE', *, *, #196, .T. ) ;
#31 = FACE_OUTER_BOUND ( 'NONE', #701, .T. ) ;
#32 = CARTESIAN_POINT ( 'NONE',  ( -2.526252459999997591, 5.199904510000008528, 43.80217851000000451 ) ) ;
#33 = EDGE_LOOP ( 'NONE', ( #30, #234 ) ) ;
#34 = CIRCLE ( 'NONE', #445, 0.1329999999999999238 ) ;
#35 = CIRCLE ( 'NONE', #179, 0.3750000000000002220 ) ;
#36 = EDGE_CURVE ( 'NONE', #378, #395, #738, .T. ) ;
#37 = FACE_OUTER_BOUND ( 'NONE', #806, .T. ) ;
#38 = CARTESIAN_POINT ( 'NONE',  ( -4.151252459999994926, 4.949904510000008528, 43.42717851000000451 ) ) ;
#39 = VERTEX_POINT ( 'NONE', #67 ) ;
#40 = CARTESIAN_POINT ( 'NONE',  ( -3.526252459999998035, 4.949904510000008528, 43.66917851000000894 ) ) ;
#41 = FACE_BOUND ( 'NONE', #694, .T. ) ;
#42 = VERTEX_POINT ( 'NONE', #317 ) ;
#43 = CARTESIAN_POINT ( 'NONE',  ( -4.526252459999997591, 4.949904510000008528, 43.66106342905212756 ) ) ;
#44 = DIRECTION ( 'NONE',  ( -0.000000000000000000, 0.000000000000000000, -1.000000000000000000 ) ) ;
#45 = EDGE_CURVE ( 'NONE', #563, #81, #178, .T. ) ;
#46 = EDGE_LOOP ( 'NONE', ( #87, #208, #529, #404 ) ) ;
#47 = AXIS2_PLACEMENT_3D ( 'NONE', #328, #698, #25 ) ;
#48 = COLOUR_RGB ( '',0.7921568627450980005, 0.8196078431372548767, 0.9333333333333333481 ) ;
#49 = PLANE ( 'NONE',  #780 ) ;
#50 = FACE_BOUND ( 'NONE', #695, .T. ) ;
#51 = ORIENTED_EDGE ( 'NONE', *, *, #776, .T. ) ;
#52 = ADVANCED_FACE ( 'NONE', ( #194 ), #436, .F. ) ;
#53 = PRODUCT_DEFINITION_SHAPE ( 'NONE', 'NONE',  #600 ) ;
#54 = CARTESIAN_POINT ( 'NONE',  ( -4.151252459999994926, 4.949904510000008528, 42.80217851000000451 ) ) ;
#55 = ORIENTED_EDGE ( 'NONE', *, *, #688, .F. ) ;
#56 = DIRECTION ( 'NONE',  ( -0.000000000000000000, 1.000000000000000000, 0.000000000000000000 ) ) ;
#57 = CARTESIAN_POINT ( 'NONE',  ( -2.526252459999997591, 5.199904510000008528, 43.80217851000000451 ) ) ;
#58 = EDGE_LOOP ( 'NONE', ( #731, #280, #112, #502 ) ) ;
#59 = DIRECTION ( 'NONE',  ( 0.000000000000000000, -1.000000000000000000, -0.000000000000000000 ) ) ;
#60 = ADVANCED_FACE ( 'NONE', ( #637 ), #399, .F. ) ;
#61 = AXIS2_PLACEMENT_3D ( 'NONE', #334, #267, #20 ) ;
#62 = VECTOR ( 'NONE', #511, 39.37007874015748143 ) ;
#63 = DIRECTION ( 'NONE',  ( 0.000000000000000000, -1.000000000000000000, 0.000000000000000000 ) ) ;
#64 = ORIENTED_EDGE ( 'NONE', *, *, #547, .T. ) ;
#65 = VERTEX_POINT ( 'NONE', #507 ) ;
#66 = DIRECTION ( 'NONE',  ( 0.000000000000000000, 0.000000000000000000, -1.000000000000000000 ) ) ;
#67 = CARTESIAN_POINT ( 'NONE',  ( -3.526252459999998035, 5.199904510000008528, 43.93517851000000718 ) ) ;
#68 = ORIENTED_EDGE ( 'NONE', *, *, #110, .F. ) ;
#69 = DIRECTION ( 'NONE',  ( 0.000000000000000000, 0.000000000000000000, -1.000000000000000000 ) ) ;
#70 = ORIENTED_EDGE ( 'NONE', *, *, #467, .F. ) ;
#71 = VERTEX_POINT ( 'NONE', #516 ) ;
#72 = CIRCLE ( 'NONE', #431, 0.3750000000000002220 ) ;
#73 = PRESENTATION_STYLE_ASSIGNMENT (( #336 ) ) ;
#74 = VECTOR ( 'NONE', #418, 39.37007874015748143 ) ;
#75 = AXIS2_PLACEMENT_3D ( 'NONE', #405, #353, #344 ) ;
#76 = ORIENTED_EDGE ( 'NONE', *, *, #765, .T. ) ;
#77 = DIRECTION ( 'NONE',  ( 0.000000000000000000, 0.000000000000000000, -1.000000000000000000 ) ) ;
#78 = LINE ( 'NONE', #705, #19 ) ;
#79 = EDGE_LOOP ( 'NONE', ( #520, #326 ) ) ;
#80 = CARTESIAN_POINT ( 'NONE',  ( -4.526252459999997591, 4.949904510000008528, 44.66917851000000894 ) ) ;
#81 = VERTEX_POINT ( 'NONE', #455 ) ;
#82 = ADVANCED_FACE ( 'NONE', ( #203 ), #770, .F. ) ;
#83 = CARTESIAN_POINT ( 'NONE',  ( -4.151252459999994926, 4.949904510000008528, 44.80217851000001161 ) ) ;
#84 = CIRCLE ( 'NONE', #535, 0.1329999999999999238 ) ;
#85 = DIRECTION ( 'NONE',  ( 0.000000000000000000, 0.000000000000000000, 1.000000000000000000 ) ) ;
#86 = VECTOR ( 'NONE', #592, 39.37007874015748143 ) ;
#87 = ORIENTED_EDGE ( 'NONE', *, *, #384, .T. ) ;
#88 =( GEOMETRIC_REPRESENTATION_CONTEXT ( 3 ) GLOBAL_UNCERTAINTY_ASSIGNED_CONTEXT ( ( #523 ) ) GLOBAL_UNIT_ASSIGNED_CONTEXT ( ( #186, #383, #122 ) ) REPRESENTATION_CONTEXT ( 'NONE', 'WORKASPACE' ) );
#89 = SURFACE_SIDE_STYLE ('',( #398 ) ) ;
#90 = CYLINDRICAL_SURFACE ( 'NONE', #127, 0.3750000000000002220 ) ;
#91 = VERTEX_POINT ( 'NONE', #512 ) ;
#92 = FACE_OUTER_BOUND ( 'NONE', #432, .T. ) ;
#93 = DIRECTION ( 'NONE',  ( 0.000000000000000000, 0.000000000000000000, -1.000000000000000000 ) ) ;
#94 = ORIENTED_EDGE ( 'NONE', *, *, #45, .T. ) ;
#95 = DIRECTION ( 'NONE',  ( 0.000000000000000000, 0.000000000000000000, 1.000000000000000000 ) ) ;
#96 = PLANE ( 'NONE',  #740 ) ;
#97 = ORIENTED_EDGE ( 'NONE', *, *, #190, .F. ) ;
#98 = AXIS2_PLACEMENT_3D ( 'NONE', #57, #316, #801 ) ;
#99 = EDGE_CURVE ( 'NONE', #706, #650, #78, .T. ) ;
#100 = STYLED_ITEM ( 'NONE', ( #73 ), #586 ) ;
#101 = AXIS2_PLACEMENT_3D ( 'NONE', #115, #571, #239 ) ;
#102 = DIRECTION ( 'NONE',  ( 0.000000000000000000, 1.000000000000000000, 0.000000000000000000 ) ) ;
#103 = FACE_OUTER_BOUND ( 'NONE', #305, .T. ) ;
#104 = ORIENTED_EDGE ( 'NONE', *, *, #716, .F. ) ;
#105 = CARTESIAN_POINT ( 'NONE',  ( -2.526252459999997591, 4.949904510000008528, 43.66917851000000894 ) ) ;
#106 = ADVANCED_FACE ( 'NONE', ( #144 ), #451, .T. ) ;
#107 = LINE ( 'NONE', #128, #632 ) ;
#108 = EDGE_LOOP ( 'NONE', ( #136, #473 ) ) ;
#109 = DIRECTION ( 'NONE',  ( 0.000000000000000000, -1.000000000000000000, -0.000000000000000000 ) ) ;
#110 = EDGE_CURVE ( 'NONE', #71, #224, #778, .T. ) ;
#111 = CARTESIAN_POINT ( 'NONE',  ( -2.526252459999997591, 4.949904510000008528, 43.42717851000000451 ) ) ;
#112 = ORIENTED_EDGE ( 'NONE', *, *, #190, .T. ) ;
#113 = CIRCLE ( 'NONE', #727, 0.2500000000000030531 ) ;
#114 = CIRCLE ( 'NONE', #299, 0.1329999999999999238 ) ;
#115 = CARTESIAN_POINT ( 'NONE',  ( 0.000000000000000000, 0.000000000000000000, 0.000000000000000000 ) ) ;
#116 = CARTESIAN_POINT ( 'NONE',  ( -4.901252459999999367, 4.949904510000008528, 42.80217851000000451 ) ) ;
#117 = ORIENTED_EDGE ( 'NONE', *, *, #171, .F. ) ;
#118 = PRODUCT_CONTEXT ( 'NONE', #440, 'mechanical' ) ;
#119 = DIRECTION ( 'NONE',  ( 0.000000000000000000, 0.000000000000000000, -1.000000000000000000 ) ) ;
#120 = CARTESIAN_POINT ( 'NONE',  ( -3.901252459999994926, 4.949904510000008528, 43.17717851000000451 ) ) ;
#121 = EDGE_CURVE ( 'NONE', #224, #662, #21, .T. ) ;
#122 =( NAMED_UNIT ( * ) SI_UNIT ( $, .STERADIAN. ) SOLID_ANGLE_UNIT ( ) );
#123 = CARTESIAN_POINT ( 'NONE',  ( -3.901252459999995370, 4.949904510000008528, 44.17717851000000451 ) ) ;
#124 = ORIENTED_EDGE ( 'NONE', *, *, #408, .T. ) ;
#125 = ORIENTED_EDGE ( 'NONE', *, *, #409, .F. ) ;
#126 = VECTOR ( 'NONE', #576, 39.37007874015748143 ) ;
#127 = AXIS2_PLACEMENT_3D ( 'NONE', #279, #519, #215 ) ;
#128 = CARTESIAN_POINT ( 'NONE',  ( -3.901252459999995370, 4.949904510000008528, 44.17717851000000451 ) ) ;
#129 = DIRECTION ( 'NONE',  ( -0.000000000000000000, 1.000000000000000000, -0.000000000000000000 ) ) ;
#130 = ADVANCED_FACE ( 'NONE', ( #207 ), #652, .F. ) ;
#131 = CARTESIAN_POINT ( 'NONE',  ( -4.151252459999994926, 5.199904510000008528, 43.17717851000000451 ) ) ;
#132 = ORIENTED_EDGE ( 'NONE', *, *, #388, .T. ) ;
#133 = ORIENTED_EDGE ( 'NONE', *, *, #561, .F. ) ;
#134 = CARTESIAN_POINT ( 'NONE',  ( -3.901252459999995370, 4.949904510000008528, 44.42717851000001161 ) ) ;
#135 = DIRECTION ( 'NONE',  ( 1.000000000000000000, 0.000000000000000000, 0.000000000000000000 ) ) ;
#136 = ORIENTED_EDGE ( 'NONE', *, *, #800, .T. ) ;
#137 = CYLINDRICAL_SURFACE ( 'NONE', #243, 0.3750000000000002220 ) ;
#138 = AXIS2_PLACEMENT_3D ( 'NONE', #425, #259, #495 ) ;
#139 = VECTOR ( 'NONE', #180, 39.37007874015748143 ) ;
#140 = DIRECTION ( 'NONE',  ( 0.000000000000000000, 0.000000000000000000, -1.000000000000000000 ) ) ;
#141 = ORIENTED_EDGE ( 'NONE', *, *, #409, .T. ) ;
#142 = CARTESIAN_POINT ( 'NONE',  ( -4.151252459999994926, 4.949904510000008528, 44.17717851000000451 ) ) ;
#143 = CARTESIAN_POINT ( 'NONE',  ( -4.526252459999997591, 5.199904510000008528, 43.79406342905212313 ) ) ;
#144 = FACE_OUTER_BOUND ( 'NONE', #339, .T. ) ;
#145 = ORIENTED_EDGE ( 'NONE', *, *, #503, .F. ) ;
#146 = ADVANCED_FACE ( 'NONE', ( #582 ), #584, .F. ) ;
#147 = LINE ( 'NONE', #643, #687 ) ;
#148 = DIRECTION ( 'NONE',  ( 0.000000000000000000, -1.000000000000000000, -0.000000000000000000 ) ) ;
#149 = ORIENTED_EDGE ( 'NONE', *, *, #513, .F. ) ;
#150 = DIRECTION ( 'NONE',  ( -0.000000000000000000, 1.000000000000000000, 0.000000000000000000 ) ) ;
#151 = DIRECTION ( 'NONE',  ( -0.000000000000000000, 1.000000000000000000, -0.000000000000000000 ) ) ;
#152 = CIRCLE ( 'NONE', #360, 0.1329999999999999238 ) ;
#153 = EDGE_LOOP ( 'NONE', ( #195, #22, #141, #449 ) ) ;
#154 = DIRECTION ( 'NONE',  ( 0.000000000000000000, 0.000000000000000000, -1.000000000000000000 ) ) ;
#155 = EDGE_CURVE ( 'NONE', #188, #251, #230, .T. ) ;
#156 = DIRECTION ( 'NONE',  ( 0.000000000000000000, 0.000000000000000000, -1.000000000000000000 ) ) ;
#157 = EDGE_LOOP ( 'NONE', ( #428, #434, #185, #320 ) ) ;
#158 = CARTESIAN_POINT ( 'NONE',  ( -3.901252459999994926, 5.199904510000008528, 43.42717851000000451 ) ) ;
#159 = DIRECTION ( 'NONE',  ( -1.000000000000000000, 0.000000000000000000, 0.000000000000000000 ) ) ;
#160 = EDGE_CURVE ( 'NONE', #595, #251, #210, .T. ) ;
#161 = ORIENTED_EDGE ( 'NONE', *, *, #160, .T. ) ;
#162 = DIRECTION ( 'NONE',  ( 0.000000000000000000, -1.000000000000000000, -0.000000000000000000 ) ) ;
#163 = FACE_OUTER_BOUND ( 'NONE', #58, .T. ) ;
#164 = ORIENTED_EDGE ( 'NONE', *, *, #338, .T. ) ;
#165 = AXIS2_PLACEMENT_3D ( 'NONE', #38, #606, #531 ) ;
#166 = ADVANCED_FACE ( 'NONE', ( #649 ), #90, .T. ) ;
#167 = APPLICATION_CONTEXT ( 'automotive_design' ) ;
#168 = LINE ( 'NONE', #414, #86 ) ;
#169 = DIRECTION ( 'NONE',  ( 0.000000000000000000, 0.000000000000000000, -1.000000000000000000 ) ) ;
#170 = ORIENTED_EDGE ( 'NONE', *, *, #420, .F. ) ;
#171 = EDGE_CURVE ( 'NONE', #456, #583, #604, .T. ) ;
#172 = DIRECTION ( 'NONE',  ( 0.000000000000000000, 1.000000000000000000, -0.000000000000000000 ) ) ;
#173 = CARTESIAN_POINT ( 'NONE',  ( -4.526252459999997591, 4.949904510000008528, 43.92706342905212580 ) ) ;
#174 = EDGE_LOOP ( 'NONE', ( #790, #713, #277, #585 ) ) ;
#175 = CARTESIAN_POINT ( 'NONE',  ( -2.526252459999997591, 4.949904510000008528, 43.93517851000000718 ) ) ;
#176 = CARTESIAN_POINT ( 'NONE',  ( -4.151252459999994926, 4.949904510000008528, 44.17717851000000451 ) ) ;
#177 = EDGE_LOOP ( 'NONE', ( #68, #286, #124, #508 ) ) ;
#178 = CIRCLE ( 'NONE', #483, 0.2500000000000030531 ) ;
#179 = AXIS2_PLACEMENT_3D ( 'NONE', #219, #462, #788 ) ;
#180 = DIRECTION ( 'NONE',  ( 0.000000000000000000, -1.000000000000000000, -0.000000000000000000 ) ) ;
#181 = CARTESIAN_POINT ( 'NONE',  ( -2.526252459999997591, 5.199904510000008528, 43.80217851000000451 ) ) ;
#182 = DIRECTION ( 'NONE',  ( 0.000000000000000000, -1.000000000000000000, -0.000000000000000000 ) ) ;
#183 = DIRECTION ( 'NONE',  ( 0.000000000000000000, 1.000000000000000000, 0.000000000000000000 ) ) ;
#184 = DIRECTION ( 'NONE',  ( 0.000000000000000000, -0.000000000000000000, -1.000000000000000000 ) ) ;
#185 = ORIENTED_EDGE ( 'NONE', *, *, #699, .T. ) ;
#186 =( CONVERSION_BASED_UNIT ( 'INCH', #543 ) LENGTH_UNIT ( ) NAMED_UNIT ( #2 ) );
#187 = FACE_OUTER_BOUND ( 'NONE', #153, .T. ) ;
#188 = VERTEX_POINT ( 'NONE', #442 ) ;
#189 = VERTEX_POINT ( 'NONE', #570 ) ;
#190 = EDGE_CURVE ( 'NONE', #583, #27, #641, .T. ) ;
#191 = VECTOR ( 'NONE', #263, 39.37007874015748143 ) ;
#192 = MECHANICAL_DESIGN_GEOMETRIC_PRESENTATION_REPRESENTATION (  '', ( #100 ), #685 ) ;
#193 = DIRECTION ( 'NONE',  ( -1.000000000000000000, 0.000000000000000000, 0.000000000000000000 ) ) ;
#194 = FACE_OUTER_BOUND ( 'NONE', #783, .T. ) ;
#195 = ORIENTED_EDGE ( 'NONE', *, *, #627, .F. ) ;
#196 = EDGE_CURVE ( 'NONE', #662, #224, #270, .T. ) ;
#197 = DIRECTION ( 'NONE',  ( 0.000000000000000000, -1.000000000000000000, -0.000000000000000000 ) ) ;
#198 = ORIENTED_EDGE ( 'NONE', *, *, #751, .F. ) ;
#199 = CARTESIAN_POINT ( 'NONE',  ( -2.526252459999997591, 4.949904510000008528, 43.42717851000000451 ) ) ;
#200 = DIRECTION ( 'NONE',  ( 0.000000000000000000, 0.000000000000000000, -1.000000000000000000 ) ) ;
#201 = DIRECTION ( 'NONE',  ( 0.000000000000000000, 0.000000000000000000, -1.000000000000000000 ) ) ;
#202 = CIRCLE ( 'NONE', #578, 0.3750000000000002220 ) ;
#203 = FACE_OUTER_BOUND ( 'NONE', #46, .T. ) ;
#204 = ADVANCED_FACE ( 'NONE', ( #572 ), #601, .F. ) ;
#205 = ORIENTED_EDGE ( 'NONE', *, *, #218, .F. ) ;
#206 = CARTESIAN_POINT ( 'NONE',  ( -4.526252459999997591, 4.949904510000008528, 42.80034807218418536 ) ) ;
#207 = FACE_OUTER_BOUND ( 'NONE', #669, .T. ) ;
#208 = ORIENTED_EDGE ( 'NONE', *, *, #615, .T. ) ;
#209 =( CONVERSION_BASED_UNIT ( 'INCH', #761 ) LENGTH_UNIT ( ) NAMED_UNIT ( #755 ) );
#210 = LINE ( 'NONE', #29, #579 ) ;
#211 = ORIENTED_EDGE ( 'NONE', *, *, #45, .F. ) ;
#212 = ADVANCED_FACE ( 'NONE', ( #354 ), #421, .F. ) ;
#213 = DIRECTION ( 'NONE',  ( 0.000000000000000000, 0.000000000000000000, -1.000000000000000000 ) ) ;
#214 = CIRCLE ( 'NONE', #98, 0.1329999999999999238 ) ;
#215 = DIRECTION ( 'NONE',  ( 0.000000000000000000, 0.000000000000000000, 1.000000000000000000 ) ) ;
#216 = AXIS2_PLACEMENT_3D ( 'NONE', #206, #278, #201 ) ;
#217 = ORIENTED_EDGE ( 'NONE', *, *, #590, .T. ) ;
#218 = EDGE_CURVE ( 'NONE', #318, #389, #422, .T. ) ;
#219 = CARTESIAN_POINT ( 'NONE',  ( -2.526252459999997591, 4.949904510000008528, 43.80217851000000451 ) ) ;
#220 = DIRECTION ( 'NONE',  ( 0.000000000000000000, 0.000000000000000000, -1.000000000000000000 ) ) ;
#221 = VERTEX_POINT ( 'NONE', #111 ) ;
#222 = LINE ( 'NONE', #410, #499 ) ;
#223 = CARTESIAN_POINT ( 'NONE',  ( -4.526252459999997591, 5.199904510000008528, 42.80217851000000451 ) ) ;
#224 = VERTEX_POINT ( 'NONE', #173 ) ;
#225 = CARTESIAN_POINT ( 'NONE',  ( -3.526252459999998035, 5.199904510000008528, 43.66917851000000894 ) ) ;
#226 = CARTESIAN_POINT ( 'NONE',  ( -4.526252459999997591, 5.199904510000008528, 43.79406342905212313 ) ) ;
#227 = VECTOR ( 'NONE', #193, 39.37007874015748143 ) ;
#228 = ORIENTED_EDGE ( 'NONE', *, *, #796, .F. ) ;
#229 = EDGE_CURVE ( 'NONE', #359, #537, #588, .T. ) ;
#230 = CIRCLE ( 'NONE', #358, 0.3750000000000002220 ) ;
#231 = ADVANCED_FACE ( 'NONE', ( #41, #50, #351, #475, #237, #103 ), #301, .F. ) ;
#232 = CYLINDRICAL_SURFACE ( 'NONE', #756, 0.3750000000000002220 ) ;
#233 = DIRECTION ( 'NONE',  ( 0.000000000000000000, -1.000000000000000000, -0.000000000000000000 ) ) ;
#234 = ORIENTED_EDGE ( 'NONE', *, *, #121, .T. ) ;
#235 = PRODUCT ( 'module base bracket 4', 'module base bracket 4', '', ( #118 ) ) ;
#236 = CARTESIAN_POINT ( 'NONE',  ( -3.526252459999998035, 4.949904510000008528, 43.80217851000000451 ) ) ;
#237 = FACE_BOUND ( 'NONE', #625, .T. ) ;
#238 = ORIENTED_EDGE ( 'NONE', *, *, #99, .T. ) ;
#239 = DIRECTION ( 'NONE',  ( 1.000000000000000000, 0.000000000000000000, 0.000000000000000000 ) ) ;
#240 = PLANE ( 'NONE',  #138 ) ;
#241 = ORIENTED_EDGE ( 'NONE', *, *, #489, .T. ) ;
#242 = AXIS2_PLACEMENT_3D ( 'NONE', #313, #375, #66 ) ;
#243 = AXIS2_PLACEMENT_3D ( 'NONE', #248, #763, #327 ) ;
#244 = EDGE_CURVE ( 'NONE', #378, #342, #536, .T. ) ;
#245 = CARTESIAN_POINT ( 'NONE',  ( -4.526252459999997591, 4.949904510000008528, 42.80034807218418536 ) ) ;
#246 = ORIENTED_EDGE ( 'NONE', *, *, #481, .F. ) ;
#247 = ORIENTED_EDGE ( 'NONE', *, *, #539, .T. ) ;
#248 = CARTESIAN_POINT ( 'NONE',  ( -4.526252459999997591, 4.949904510000008528, 44.80217851000001161 ) ) ;
#249 = CARTESIAN_POINT ( 'NONE',  ( -4.526252459999997591, 5.199904510000008528, 42.93334807218418803 ) ) ;
#250 = EDGE_LOOP ( 'NONE', ( #490, #423, #70, #476 ) ) ;
#251 = VERTEX_POINT ( 'NONE', #541 ) ;
#252 = LINE ( 'NONE', #548, #484 ) ;
#253 = CARTESIAN_POINT ( 'NONE',  ( -3.901252459999995370, 5.199904510000008528, 44.42717851000001161 ) ) ;
#254 = EDGE_CURVE ( 'NONE', #91, #188, #478, .T. ) ;
#255 = ORIENTED_EDGE ( 'NONE', *, *, #292, .F. ) ;
#257 = EDGE_CURVE ( 'NONE', #342, #744, #736, .T. ) ;
#256 = VECTOR ( 'NONE', #597, 39.37007874015748143 ) ;
#258 = AXIS2_PLACEMENT_3D ( 'NONE', #723, #109, #356 ) ;
#259 = DIRECTION ( 'NONE',  ( 1.000000000000000000, 0.000000000000000000, -0.000000000000000000 ) ) ;
#260 = VERTEX_POINT ( 'NONE', #661 ) ;
#261 = ADVANCED_FACE ( 'NONE', ( #163 ), #415, .F. ) ;
#262 = DIRECTION ( 'NONE',  ( -0.000000000000000000, 1.000000000000000000, 0.000000000000000000 ) ) ;
#263 = DIRECTION ( 'NONE',  ( 0.000000000000000000, -1.000000000000000000, -0.000000000000000000 ) ) ;
#264 = CARTESIAN_POINT ( 'NONE',  ( -4.151252459999994926, 5.199904510000008528, 44.42717851000001161 ) ) ;
#265 = ADVANCED_FACE ( 'NONE', ( #524 ), #96, .F. ) ;
#266 = CARTESIAN_POINT ( 'NONE',  ( -2.526252459999998479, 4.949904510000008528, 44.17717851000000451 ) ) ;
#267 = DIRECTION ( 'NONE',  ( -0.000000000000000000, 1.000000000000000000, 0.000000000000000000 ) ) ;
#268 = EDGE_LOOP ( 'NONE', ( #104, #64, #614, #787 ) ) ;
#269 = DIRECTION ( 'NONE',  ( 0.000000000000000000, -1.000000000000000000, 0.000000000000000000 ) ) ;
#270 = CIRCLE ( 'NONE', #8, 0.1329999999999999238 ) ;
#271 = AXIS2_PLACEMENT_3D ( 'NONE', #134, #764, #454 ) ;
#272 = CARTESIAN_POINT ( 'NONE',  ( -4.526252459999997591, 4.949904510000008528, 43.79406342905212313 ) ) ;
#273 = PRODUCT_DEFINITION_FORMATION_WITH_SPECIFIED_SOURCE ( 'ANY', '', #235, .NOT_KNOWN. ) ;
#274 = ORIENTED_EDGE ( 'NONE', *, *, #481, .T. ) ;
#275 = DIRECTION ( 'NONE',  ( 0.000000000000000000, 0.000000000000000000, -1.000000000000000000 ) ) ;
#276 = CARTESIAN_POINT ( 'NONE',  ( -4.526252459999997591, 5.199904510000008528, 44.80217851000001161 ) ) ;
#277 = ORIENTED_EDGE ( 'NONE', *, *, #397, .F. ) ;
#278 = DIRECTION ( 'NONE',  ( 0.000000000000000000, -1.000000000000000000, -0.000000000000000000 ) ) ;
#279 = CARTESIAN_POINT ( 'NONE',  ( -2.526252459999997591, 4.949904510000008528, 43.80217851000000451 ) ) ;
#280 = ORIENTED_EDGE ( 'NONE', *, *, #171, .T. ) ;
#281 = ADVANCED_FACE ( 'NONE', ( #463 ), #406, .F. ) ;
#282 = LINE ( 'NONE', #402, #605 ) ;
#283 = AXIS2_PLACEMENT_3D ( 'NONE', #272, #708, #93 ) ;
#284 = AXIS2_PLACEMENT_3D ( 'NONE', #296, #786, #721 ) ;
#285 = CARTESIAN_POINT ( 'NONE',  ( -4.151252459999994926, 4.949904510000008528, 42.80217851000000451 ) ) ;
#286 = ORIENTED_EDGE ( 'NONE', *, *, #532, .T. ) ;
#287 = DIRECTION ( 'NONE',  ( 0.000000000000000000, -1.000000000000000000, -0.000000000000000000 ) ) ;
#288 = EDGE_CURVE ( 'NONE', #260, #638, #594, .T. ) ;
#289 = CARTESIAN_POINT ( 'NONE',  ( -4.151252459999994926, 4.949904510000008528, 43.42717851000000451 ) ) ;
#290 = ORIENTED_EDGE ( 'NONE', *, *, #257, .F. ) ;
#291 = CARTESIAN_POINT ( 'NONE',  ( -2.526252459999997591, 5.199904510000008528, 43.93517851000000718 ) ) ;
#292 = EDGE_CURVE ( 'NONE', #744, #189, #202, .T. ) ;
#293 = CARTESIAN_POINT ( 'NONE',  ( -4.151252459999994926, 4.949904510000008528, 44.17717851000000451 ) ) ;
#294 = ORIENTED_EDGE ( 'NONE', *, *, #503, .T. ) ;
#295 = DIRECTION ( 'NONE',  ( -0.000000000000000000, 1.000000000000000000, 0.000000000000000000 ) ) ;
#296 = CARTESIAN_POINT ( 'NONE',  ( -4.526252459999997591, 4.949904510000008528, 44.80217851000001161 ) ) ;
#297 = VECTOR ( 'NONE', #197, 39.37007874015748143 ) ;
#298 = ORIENTED_EDGE ( 'NONE', *, *, #3, .T. ) ;
#299 = AXIS2_PLACEMENT_3D ( 'NONE', #391, #707, #28 ) ;
#300 = LINE ( 'NONE', #655, #660 ) ;
#301 = PLANE ( 'NONE',  #700 ) ;
#302 = ORIENTED_EDGE ( 'NONE', *, *, #397, .T. ) ;
#303 = DIRECTION ( 'NONE',  ( 0.000000000000000000, 0.000000000000000000, -1.000000000000000000 ) ) ;
#304 = DIRECTION ( 'NONE',  ( 0.000000000000000000, 0.000000000000000000, -1.000000000000000000 ) ) ;
#305 = EDGE_LOOP ( 'NONE', ( #556, #94, #298, #501, #464, #771, #132, #452, #485, #302, #566 ) ) ;
#306 = EDGE_CURVE ( 'NONE', #725, #71, #34, .T. ) ;
#307 =( LENGTH_UNIT ( ) NAMED_UNIT ( * ) SI_UNIT ( $, .METRE. ) );
#308 = CARTESIAN_POINT ( 'NONE',  ( -4.151252459999994926, 5.199904510000008528, 43.42717851000000451 ) ) ;
#309 = ORIENTED_EDGE ( 'NONE', *, *, #306, .F. ) ;
#310 = AXIS2_PLACEMENT_3D ( 'NONE', #381, #182, #314 ) ;
#311 = AXIS2_PLACEMENT_3D ( 'NONE', #766, #12, #140 ) ;
#312 = CIRCLE ( 'NONE', #580, 0.1329999999999999238 ) ;
#313 = CARTESIAN_POINT ( 'NONE',  ( -4.526252459999997591, 4.949904510000008528, 44.80217851000001161 ) ) ;
#314 = DIRECTION ( 'NONE',  ( 0.000000000000000000, 0.000000000000000000, -1.000000000000000000 ) ) ;
#315 = ORIENTED_EDGE ( 'NONE', *, *, #539, .F. ) ;
#316 = DIRECTION ( 'NONE',  ( -0.000000000000000000, 1.000000000000000000, 0.000000000000000000 ) ) ;
#317 = CARTESIAN_POINT ( 'NONE',  ( -4.526252459999997591, 4.949904510000008528, 44.93517851000000718 ) ) ;
#318 = VERTEX_POINT ( 'NONE', #665 ) ;
#319 = LINE ( 'NONE', #308, #670 ) ;
#320 = ORIENTED_EDGE ( 'NONE', *, *, #741, .T. ) ;
#321 = ORIENTED_EDGE ( 'NONE', *, *, #561, .T. ) ;
#322 = ORIENTED_EDGE ( 'NONE', *, *, #306, .T. ) ;
#323 = LINE ( 'NONE', #142, #459 ) ;
#324 =( NAMED_UNIT ( * ) SI_UNIT ( $, .STERADIAN. ) SOLID_ANGLE_UNIT ( ) );
#325 = DIRECTION ( 'NONE',  ( 0.000000000000000000, 0.000000000000000000, -1.000000000000000000 ) ) ;
#326 = ORIENTED_EDGE ( 'NONE', *, *, #550, .T. ) ;
#327 = DIRECTION ( 'NONE',  ( 0.000000000000000000, 0.000000000000000000, 1.000000000000000000 ) ) ;
#328 = CARTESIAN_POINT ( 'NONE',  ( -4.526252459999997591, 4.949904510000008528, 43.79406342905212313 ) ) ;
#329 = ORIENTED_EDGE ( 'NONE', *, *, #229, .F. ) ;
#330 = VECTOR ( 'NONE', #558, 39.37007874015748143 ) ;
#331 = CARTESIAN_POINT ( 'NONE',  ( -4.526252459999997591, 5.199904510000008528, 42.80034807218418536 ) ) ;
#332 = AXIS2_PLACEMENT_3D ( 'NONE', #640, #150, #515 ) ;
#333 = CIRCLE ( 'NONE', #412, 0.1329999999999999238 ) ;
#334 = CARTESIAN_POINT ( 'NONE',  ( -4.526252459999997591, 4.949904510000008528, 43.79406342905212313 ) ) ;
#335 = ORIENTED_EDGE ( 'NONE', *, *, #155, .F. ) ;
#336 = SURFACE_STYLE_USAGE ( .BOTH. , #89 ) ;
#337 = DIRECTION ( 'NONE',  ( 0.000000000000000000, 1.000000000000000000, 0.000000000000000000 ) ) ;
#338 = EDGE_CURVE ( 'NONE', #81, #359, #107, .T. ) ;
#339 = EDGE_LOOP ( 'NONE', ( #255, #290, #557, #76 ) ) ;
#340 = CYLINDRICAL_SURFACE ( 'NONE', #715, 0.1329999999999999238 ) ;
#341 = DIRECTION ( 'NONE',  ( 1.000000000000000000, 0.000000000000000000, 0.000000000000000000 ) ) ;
#342 = VERTEX_POINT ( 'NONE', #54 ) ;
#343 = EDGE_CURVE ( 'NONE', #654, #260, #214, .T. ) ;
#344 = DIRECTION ( 'NONE',  ( 0.000000000000000000, 0.000000000000000000, -1.000000000000000000 ) ) ;
#345 = AXIS2_PLACEMENT_3D ( 'NONE', #120, #129, #376 ) ;
#346 = VECTOR ( 'NONE', #704, 39.37007874015748143 ) ;
#347 = DIRECTION ( 'NONE',  ( 0.000000000000000000, -1.000000000000000000, -0.000000000000000000 ) ) ;
#348 = ORIENTED_EDGE ( 'NONE', *, *, #547, .F. ) ;
#349 = EDGE_CURVE ( 'NONE', #633, #734, #714, .T. ) ;
#350 = DIRECTION ( 'NONE',  ( -0.000000000000000000, 1.000000000000000000, 0.000000000000000000 ) ) ;
#351 = FACE_BOUND ( 'NONE', #573, .T. ) ;
#352 = ORIENTED_EDGE ( 'NONE', *, *, #408, .F. ) ;
#353 = DIRECTION ( 'NONE',  ( -0.000000000000000000, 1.000000000000000000, -0.000000000000000000 ) ) ;
#354 = FACE_OUTER_BOUND ( 'NONE', #691, .T. ) ;
#355 = VERTEX_POINT ( 'NONE', #116 ) ;
#356 = DIRECTION ( 'NONE',  ( 0.000000000000000000, 0.000000000000000000, -1.000000000000000000 ) ) ;
#357 = DIRECTION ( 'NONE',  ( 0.000000000000000000, 0.000000000000000000, -1.000000000000000000 ) ) ;
#358 = AXIS2_PLACEMENT_3D ( 'NONE', #276, #151, #392 ) ;
#359 = VERTEX_POINT ( 'NONE', #123 ) ;
#360 = AXIS2_PLACEMENT_3D ( 'NONE', #745, #739, #487 ) ;
#361 = LINE ( 'NONE', #696, #634 ) ;
#362 = CARTESIAN_POINT ( 'NONE',  ( -4.901252459999999367, 4.949904510000008528, 44.80217851000001161 ) ) ;
#363 = ORIENTED_EDGE ( 'NONE', *, *, #218, .T. ) ;
#364 = EDGE_CURVE ( 'NONE', #456, #42, #683, .T. ) ;
#365 = FACE_OUTER_BOUND ( 'NONE', #174, .T. ) ;
#366 = CARTESIAN_POINT ( 'NONE',  ( -2.526252459999998479, 5.199904510000008528, 44.17717851000000451 ) ) ;
#367 = VERTEX_POINT ( 'NONE', #362 ) ;
#368 = SHAPE_DEFINITION_REPRESENTATION ( #53, #401 ) ;
#369 = DIRECTION ( 'NONE',  ( 0.000000000000000000, 0.000000000000000000, -1.000000000000000000 ) ) ;
#370 = ORIENTED_EDGE ( 'NONE', *, *, #196, .F. ) ;
#371 = AXIS2_PLACEMENT_3D ( 'NONE', #394, #148, #387 ) ;
#372 = VECTOR ( 'NONE', #184, 39.37007874015748143 ) ;
#373 = CIRCLE ( 'NONE', #271, 0.2500000000000030531 ) ;
#374 = EDGE_CURVE ( 'NONE', #706, #39, #551, .T. ) ;
#375 = DIRECTION ( 'NONE',  ( -0.000000000000000000, 1.000000000000000000, -0.000000000000000000 ) ) ;
#376 = DIRECTION ( 'NONE',  ( 0.000000000000000000, 0.000000000000000000, -1.000000000000000000 ) ) ;
#377 = CARTESIAN_POINT ( 'NONE',  ( -3.901252459999994926, 5.199904510000008528, 43.17717851000000451 ) ) ;
#378 = VERTEX_POINT ( 'NONE', #746 ) ;
#379 = ORIENTED_EDGE ( 'NONE', *, *, #615, .F. ) ;
#380 = CARTESIAN_POINT ( 'NONE',  ( -4.526252459999997591, 5.199904510000008528, 44.66917851000000894 ) ) ;
#381 = CARTESIAN_POINT ( 'NONE',  ( -4.526252459999997591, 4.949904510000008528, 42.80034807218418536 ) ) ;
#382 = ORIENTED_EDGE ( 'NONE', *, *, #776, .F. ) ;
#383 =( NAMED_UNIT ( * ) PLANE_ANGLE_UNIT ( ) SI_UNIT ( $, .RADIAN. ) );
#384 = EDGE_CURVE ( 'NONE', #221, #395, #1, .T. ) ;
#385 = AXIS2_PLACEMENT_3D ( 'NONE', #245, #435, #304 ) ;
#386 = AXIS2_PLACEMENT_3D ( 'NONE', #527, #162, #603 ) ;
#387 = DIRECTION ( 'NONE',  ( 0.000000000000000000, 0.000000000000000000, -1.000000000000000000 ) ) ;
#388 = EDGE_CURVE ( 'NONE', #419, #744, #319, .T. ) ;
#389 = VERTEX_POINT ( 'NONE', #249 ) ;
#390 = CARTESIAN_POINT ( 'NONE',  ( -4.526252459999997591, 4.949904510000008528, 44.80217851000001161 ) ) ;
#391 = CARTESIAN_POINT ( 'NONE',  ( -3.526252459999998035, 4.949904510000008528, 43.80217851000000451 ) ) ;
#392 = DIRECTION ( 'NONE',  ( 0.000000000000000000, 0.000000000000000000, -1.000000000000000000 ) ) ;
#393 = ORIENTED_EDGE ( 'NONE', *, *, #36, .T. ) ;
#394 = CARTESIAN_POINT ( 'NONE',  ( -2.526252459999997591, 4.949904510000008528, 43.80217851000000451 ) ) ;
#395 = VERTEX_POINT ( 'NONE', #5 ) ;
#396 = AXIS2_PLACEMENT_3D ( 'NONE', #427, #679, #369 ) ;
#397 = EDGE_CURVE ( 'NONE', #468, #188, #684, .T. ) ;
#398 = SURFACE_STYLE_FILL_AREA ( #773 ) ;
#399 = CYLINDRICAL_SURFACE ( 'NONE', #371, 0.1329999999999999238 ) ;
#400 = EDGE_LOOP ( 'NONE', ( #622, #55, #170, #379 ) ) ;
#401 = ADVANCED_BREP_SHAPE_REPRESENTATION ( 'module base bracket 4', ( #586, #101 ), #88 ) ;
#402 = CARTESIAN_POINT ( 'NONE',  ( -4.151252459999994926, 4.949904510000008528, 43.17717851000000451 ) ) ;
#403 = DIRECTION ( 'NONE',  ( 0.000000000000000000, 1.000000000000000000, 0.000000000000000000 ) ) ;
#404 = ORIENTED_EDGE ( 'NONE', *, *, #741, .F. ) ;
#405 = CARTESIAN_POINT ( 'NONE',  ( -4.526252459999997591, 4.949904510000008528, 44.80217851000001161 ) ) ;
#406 = CYLINDRICAL_SURFACE ( 'NONE', #564, 0.1329999999999999238 ) ;
#407 = ORIENTED_EDGE ( 'NONE', *, *, #374, .T. ) ;
#408 = EDGE_CURVE ( 'NONE', #725, #662, #252, .T. ) ;
#409 = EDGE_CURVE ( 'NONE', #355, #367, #689, .T. ) ;
#410 = CARTESIAN_POINT ( 'NONE',  ( -4.901252459999999367, 4.949904510000008528, 44.80217851000001161 ) ) ;
#411 = DIRECTION ( 'NONE',  ( 0.000000000000000000, 0.000000000000000000, -1.000000000000000000 ) ) ;
#412 = AXIS2_PLACEMENT_3D ( 'NONE', #777, #636, #275 ) ;
#413 = ORIENTED_EDGE ( 'NONE', *, *, #364, .T. ) ;
#414 = CARTESIAN_POINT ( 'NONE',  ( -2.526252459999997591, 5.199904510000008528, 43.42717851000000451 ) ) ;
#415 = CYLINDRICAL_SURFACE ( 'NONE', #284, 0.1329999999999999238 ) ;
#416 = ORIENTED_EDGE ( 'NONE', *, *, #26, .F. ) ;
#417 = FACE_BOUND ( 'NONE', #33, .T. ) ;
#418 = DIRECTION ( 'NONE',  ( 0.000000000000000000, 1.000000000000000000, 0.000000000000000000 ) ) ;
#419 = VERTEX_POINT ( 'NONE', #131 ) ;
#420 = EDGE_CURVE ( 'NONE', #577, #419, #113, .T. ) ;
#421 = PLANE ( 'NONE',  #165 ) ;
#422 = CIRCLE ( 'NONE', #591, 0.1329999999999999238 ) ;
#423 = ORIENTED_EDGE ( 'NONE', *, *, #772, .T. ) ;
#424 = VECTOR ( 'NONE', #172, 39.37007874015748143 ) ;
#425 = CARTESIAN_POINT ( 'NONE',  ( -4.901252459999999367, 4.949904510000008528, 44.80217851000001161 ) ) ;
#426 = ORIENTED_EDGE ( 'NONE', *, *, #349, .F. ) ;
#427 = CARTESIAN_POINT ( 'NONE',  ( -2.526252459999997591, 4.949904510000008528, 43.80217851000000451 ) ) ;
#428 = ORIENTED_EDGE ( 'NONE', *, *, #477, .F. ) ;
#429 = ADVANCED_FACE ( 'NONE', ( #187 ), #240, .F. ) ;
#430 = CARTESIAN_POINT ( 'NONE',  ( -4.526252459999997591, 5.199904510000008528, 44.93517851000000718 ) ) ;
#431 = AXIS2_PLACEMENT_3D ( 'NONE', #631, #676, #620 ) ;
#432 = EDGE_LOOP ( 'NONE', ( #247, #51, #514, #681 ) ) ;
#433 = AXIS2_PLACEMENT_3D ( 'NONE', #181, #675, #119 ) ;
#434 = ORIENTED_EDGE ( 'NONE', *, *, #590, .F. ) ;
#435 = DIRECTION ( 'NONE',  ( -0.000000000000000000, 1.000000000000000000, 0.000000000000000000 ) ) ;
#436 = CYLINDRICAL_SURFACE ( 'NONE', #283, 0.1329999999999999238 ) ;
#437 = DIRECTION ( 'NONE',  ( 0.000000000000000000, -1.000000000000000000, -0.000000000000000000 ) ) ;
#438 = ORIENTED_EDGE ( 'NONE', *, *, #796, .T. ) ;
#439 = DIRECTION ( 'NONE',  ( 0.000000000000000000, 1.000000000000000000, 0.000000000000000000 ) ) ;
#440 = APPLICATION_CONTEXT ( 'automotive_design' ) ;
#441 =( NAMED_UNIT ( * ) PLANE_ANGLE_UNIT ( ) SI_UNIT ( $, .RADIAN. ) );
#442 = CARTESIAN_POINT ( 'NONE',  ( -4.526252459999997591, 5.199904510000008528, 45.17717851000001161 ) ) ;
#443 = ORIENTED_EDGE ( 'NONE', *, *, #800, .F. ) ;
#444 = CARTESIAN_POINT ( 'NONE',  ( -4.526252459999997591, 5.199904510000008528, 43.66106342905212756 ) ) ;
#445 = AXIS2_PLACEMENT_3D ( 'NONE', #226, #730, #169 ) ;
#446 = AXIS2_PLACEMENT_3D ( 'NONE', #236, #748, #303 ) ;
#447 = CARTESIAN_POINT ( 'NONE',  ( -2.526252459999998479, 4.949904510000008528, 44.17717851000000451 ) ) ;
#448 = CARTESIAN_POINT ( 'NONE',  ( -4.526252459999997591, 4.949904510000008528, 42.80217851000000451 ) ) ;
#449 = ORIENTED_EDGE ( 'NONE', *, *, #710, .T. ) ;
#450 = CARTESIAN_POINT ( 'NONE',  ( -3.901252459999994926, 5.199904510000008528, 43.42717851000000451 ) ) ;
#451 = CYLINDRICAL_SURFACE ( 'NONE', #469, 0.3750000000000002220 ) ;
#452 = ORIENTED_EDGE ( 'NONE', *, *, #292, .T. ) ;
#453 = PRODUCT_RELATED_PRODUCT_CATEGORY ( 'part', '', ( #235 ) ) ;
#454 = DIRECTION ( 'NONE',  ( 0.000000000000000000, 0.000000000000000000, -1.000000000000000000 ) ) ;
#455 = CARTESIAN_POINT ( 'NONE',  ( -3.901252459999995370, 5.199904510000008528, 44.17717851000000451 ) ) ;
#456 = VERTEX_POINT ( 'NONE', #430 ) ;
#457 = AXIS2_PLACEMENT_3D ( 'NONE', #609, #544, #613 ) ;
#458 = FACE_OUTER_BOUND ( 'NONE', #517, .T. ) ;
#459 = VECTOR ( 'NONE', #546, 39.37007874015748143 ) ;
#460 = CARTESIAN_POINT ( 'NONE',  ( -4.526252459999997591, 5.199904510000008528, 44.80217851000001161 ) ) ;
#461 = ORIENTED_EDGE ( 'NONE', *, *, #244, .F. ) ;
#462 = DIRECTION ( 'NONE',  ( -0.000000000000000000, 1.000000000000000000, -0.000000000000000000 ) ) ;
#463 = FACE_OUTER_BOUND ( 'NONE', #629, .T. ) ;
#464 = ORIENTED_EDGE ( 'NONE', *, *, #639, .T. ) ;
#465 = CARTESIAN_POINT ( 'NONE',  ( -3.526252459999998035, 4.949904510000008528, 43.93517851000000718 ) ) ;
#466 = DIRECTION ( 'NONE',  ( -0.000000000000000000, 1.000000000000000000, -0.000000000000000000 ) ) ;
#467 = EDGE_CURVE ( 'NONE', #251, #563, #500, .T. ) ;
#468 = VERTEX_POINT ( 'NONE', #743 ) ;
#469 = AXIS2_PLACEMENT_3D ( 'NONE', #448, #337, #85 ) ;
#470 = FACE_BOUND ( 'NONE', #722, .T. ) ;
#471 = CARTESIAN_POINT ( 'NONE',  ( -4.526252459999997591, 5.199904510000008528, 42.80034807218418536 ) ) ;
#472 = CIRCLE ( 'NONE', #446, 0.1329999999999999238 ) ;
#473 = ORIENTED_EDGE ( 'NONE', *, *, #565, .T. ) ;
#474 = DIRECTION ( 'NONE',  ( 0.000000000000000000, 0.000000000000000000, -1.000000000000000000 ) ) ;
#475 = FACE_BOUND ( 'NONE', #709, .T. ) ;
#476 = ORIENTED_EDGE ( 'NONE', *, *, #160, .F. ) ;
#477 = EDGE_CURVE ( 'NONE', #479, #494, #791, .T. ) ;
#478 = LINE ( 'NONE', #733, #74 ) ;
#479 = VERTEX_POINT ( 'NONE', #366 ) ;
#480 = APPLICATION_PROTOCOL_DEFINITION ( 'draft international standard', 'automotive_design', 1998, #440 ) ;
#481 = EDGE_CURVE ( 'NONE', #39, #706, #84, .T. ) ;
#482 = DIRECTION ( 'NONE',  ( 0.000000000000000000, 0.000000000000000000, -1.000000000000000000 ) ) ;
#483 = AXIS2_PLACEMENT_3D ( 'NONE', #253, #496, #757 ) ;
#484 = VECTOR ( 'NONE', #626, 39.37007874015748143 ) ;
#485 = ORIENTED_EDGE ( 'NONE', *, *, #627, .T. ) ;
#486 = VECTOR ( 'NONE', #183, 39.37007874015748143 ) ;
#487 = DIRECTION ( 'NONE',  ( 0.000000000000000000, 0.000000000000000000, -1.000000000000000000 ) ) ;
#488 = CARTESIAN_POINT ( 'NONE',  ( -3.526252459999998035, 5.199904510000008528, 43.80217851000000451 ) ) ;
#489 = EDGE_CURVE ( 'NONE', #638, #65, #754, .T. ) ;
#490 = ORIENTED_EDGE ( 'NONE', *, *, #751, .T. ) ;
#491 = LINE ( 'NONE', #264, #486 ) ;
#492 = DIRECTION ( 'NONE',  ( 0.000000000000000000, 0.000000000000000000, -1.000000000000000000 ) ) ;
#493 = ORIENTED_EDGE ( 'NONE', *, *, #229, .T. ) ;
#494 = VERTEX_POINT ( 'NONE', #749 ) ;
#495 = DIRECTION ( 'NONE',  ( 0.000000000000000000, 0.000000000000000000, 1.000000000000000000 ) ) ;
#496 = DIRECTION ( 'NONE',  ( 0.000000000000000000, -1.000000000000000000, 0.000000000000000000 ) ) ;
#497 = CIRCLE ( 'NONE', #242, 0.3750000000000002220 ) ;
#498 = ORIENTED_EDGE ( 'NONE', *, *, #532, .F. ) ;
#499 = VECTOR ( 'NONE', #102, 39.37007874015748143 ) ;
#500 = LINE ( 'NONE', #759, #372 ) ;
#501 = ORIENTED_EDGE ( 'NONE', *, *, #477, .T. ) ;
#502 = ORIENTED_EDGE ( 'NONE', *, *, #611, .F. ) ;
#503 = EDGE_CURVE ( 'NONE', #91, #595, #497, .T. ) ;
#504 = CYLINDRICAL_SURFACE ( 'NONE', #553, 0.2500000000000030531 ) ;
#505 = CARTESIAN_POINT ( 'NONE',  ( -4.526252459999997591, 4.949904510000008528, 43.79406342905212313 ) ) ;
#506 = LINE ( 'NONE', #612, #23 ) ;
#507 = CARTESIAN_POINT ( 'NONE',  ( -2.526252459999997591, 4.949904510000008528, 43.93517851000000718 ) ) ;
#508 = ORIENTED_EDGE ( 'NONE', *, *, #121, .F. ) ;
#509 = VECTOR ( 'NONE', #724, 39.37007874015748143 ) ;
#510 = CIRCLE ( 'NONE', #332, 0.1329999999999999238 ) ;
#511 = DIRECTION ( 'NONE',  ( 0.000000000000000000, 1.000000000000000000, 0.000000000000000000 ) ) ;
#512 = CARTESIAN_POINT ( 'NONE',  ( -4.526252459999997591, 4.949904510000008528, 45.17717851000001161 ) ) ;
#513 = EDGE_CURVE ( 'NONE', #39, #598, #17, .T. ) ;
#514 = ORIENTED_EDGE ( 'NONE', *, *, #489, .F. ) ;
#515 = DIRECTION ( 'NONE',  ( 0.000000000000000000, 0.000000000000000000, -1.000000000000000000 ) ) ;
#516 = CARTESIAN_POINT ( 'NONE',  ( -4.526252459999997591, 5.199904510000008528, 43.92706342905212580 ) ) ;
#517 = EDGE_LOOP ( 'NONE', ( #666, #294, #161, #335 ) ) ;
#518 = DIRECTION ( 'NONE',  ( 0.000000000000000000, 0.000000000000000000, -1.000000000000000000 ) ) ;
#519 = DIRECTION ( 'NONE',  ( 0.000000000000000000, 1.000000000000000000, 0.000000000000000000 ) ) ;
#520 = ORIENTED_EDGE ( 'NONE', *, *, #349, .T. ) ;
#521 = AXIS2_PLACEMENT_3D ( 'NONE', #176, #668, #341 ) ;
#522 = DIRECTION ( 'NONE',  ( 0.000000000000000000, 0.000000000000000000, -1.000000000000000000 ) ) ;
#523 = UNCERTAINTY_MEASURE_WITH_UNIT (LENGTH_MEASURE( 1.000000000000000082E-05 ), #186, 'distance_accuracy_value', 'NONE');
#524 = FACE_OUTER_BOUND ( 'NONE', #250, .T. ) ;
#525 = EDGE_LOOP ( 'NONE', ( #363, #607, #426, #779 ) ) ;
#526 = EDGE_CURVE ( 'NONE', #318, #633, #147, .T. ) ;
#527 = CARTESIAN_POINT ( 'NONE',  ( -3.526252459999998035, 4.949904510000008528, 43.80217851000000451 ) ) ;
#528 = CARTESIAN_POINT ( 'NONE',  ( -2.526252459999997591, 4.949904510000008528, 43.66917851000000894 ) ) ;
#529 = ORIENTED_EDGE ( 'NONE', *, *, #639, .F. ) ;
#530 = CYLINDRICAL_SURFACE ( 'NONE', #386, 0.1329999999999999238 ) ;
#531 = DIRECTION ( 'NONE',  ( 0.000000000000000000, 0.000000000000000000, -1.000000000000000000 ) ) ;
#532 = EDGE_CURVE ( 'NONE', #71, #725, #312, .T. ) ;
#533 = ORIENTED_EDGE ( 'NONE', *, *, #343, .F. ) ;
#534 = CYLINDRICAL_SURFACE ( 'NONE', #258, 0.1329999999999999238 ) ;
#535 = AXIS2_PLACEMENT_3D ( 'NONE', #624, #805, #492 ) ;
#536 = LINE ( 'NONE', #289, #803 ) ;
#537 = VERTEX_POINT ( 'NONE', #266 ) ;
#538 = ADVANCED_FACE ( 'NONE', ( #711 ), #769, .F. ) ;
#539 = EDGE_CURVE ( 'NONE', #260, #654, #333, .T. ) ;
#540 = FACE_OUTER_BOUND ( 'NONE', #545, .T. ) ;
#541 = CARTESIAN_POINT ( 'NONE',  ( -4.151252459999994926, 5.199904510000008528, 44.80217851000001161 ) ) ;
#542 = ORIENTED_EDGE ( 'NONE', *, *, #682, .F. ) ;
#543 = LENGTH_MEASURE_WITH_UNIT ( LENGTH_MEASURE( 0.02539999999999999897 ), #307 );
#544 = DIRECTION ( 'NONE',  ( -0.000000000000000000, 1.000000000000000000, -0.000000000000000000 ) ) ;
#545 = EDGE_LOOP ( 'NONE', ( #149, #274, #238, #719 ) ) ;
#546 = DIRECTION ( 'NONE',  ( 0.000000000000000000, -0.000000000000000000, -1.000000000000000000 ) ) ;
#547 = EDGE_CURVE ( 'NONE', #389, #318, #742, .T. ) ;
#548 = CARTESIAN_POINT ( 'NONE',  ( -4.526252459999997591, 4.949904510000008528, 43.66106342905212756 ) ) ;
#550 = EDGE_CURVE ( 'NONE', #734, #633, #510, .T. ) ;
#549 = CLOSED_SHELL ( 'NONE', ( #281, #52, #538, #690, #677, #785, #204, #166, #82, #212, #106, #429, #635, #265, #623, #231, #663, #60, #18, #146, #261, #575, #130 ) ) ;
#551 = CIRCLE ( 'NONE', #619, 0.1329999999999999238 ) ;
#552 = ORIENTED_EDGE ( 'NONE', *, *, #99, .F. ) ;
#553 = AXIS2_PLACEMENT_3D ( 'NONE', #692, #269, #77 ) ;
#554 = ORIENTED_EDGE ( 'NONE', *, *, #726, .F. ) ;
#555 = CARTESIAN_POINT ( 'NONE',  ( -4.526252459999997591, 4.949904510000008528, 44.93517851000000718 ) ) ;
#556 = ORIENTED_EDGE ( 'NONE', *, *, #467, .T. ) ;
#557 = ORIENTED_EDGE ( 'NONE', *, *, #26, .T. ) ;
#558 = DIRECTION ( 'NONE',  ( 0.000000000000000000, 0.000000000000000000, 1.000000000000000000 ) ) ;
#559 = EDGE_LOOP ( 'NONE', ( #628, #164, #493, #217 ) ) ;
#560 = ORIENTED_EDGE ( 'NONE', *, *, #611, .T. ) ;
#561 = EDGE_CURVE ( 'NONE', #359, #737, #373, .T. ) ;
#562 = CARTESIAN_POINT ( 'NONE',  ( -2.526252459999997591, 4.949904510000008528, 43.42717851000000451 ) ) ;
#563 = VERTEX_POINT ( 'NONE', #581 ) ;
#564 = AXIS2_PLACEMENT_3D ( 'NONE', #656, #347, #789 ) ;
#565 = EDGE_CURVE ( 'NONE', #598, #650, #114, .T. ) ;
#566 = ORIENTED_EDGE ( 'NONE', *, *, #155, .T. ) ;
#567 = CIRCLE ( 'NONE', #729, 0.1329999999999999238 ) ;
#568 =( LENGTH_UNIT ( ) NAMED_UNIT ( * ) SI_UNIT ( $, .METRE. ) );
#569 = UNCERTAINTY_MEASURE_WITH_UNIT (LENGTH_MEASURE( 1.000000000000000082E-05 ), #209, 'distance_accuracy_value', 'NONE');
#570 = CARTESIAN_POINT ( 'NONE',  ( -4.901252459999999367, 5.199904510000008528, 42.80217851000000451 ) ) ;
#571 = DIRECTION ( 'NONE',  ( 0.000000000000000000, 0.000000000000000000, 1.000000000000000000 ) ) ;
#572 = FACE_OUTER_BOUND ( 'NONE', #559, .T. ) ;
#573 = EDGE_LOOP ( 'NONE', ( #205, #348 ) ) ;
#574 = CARTESIAN_POINT ( 'NONE',  ( -4.151252459999994926, 4.949904510000008528, 44.42717851000001161 ) ) ;
#575 = ADVANCED_FACE ( 'NONE', ( #697 ), #504, .F. ) ;
#576 = DIRECTION ( 'NONE',  ( 0.000000000000000000, -1.000000000000000000, -0.000000000000000000 ) ) ;
#577 = VERTEX_POINT ( 'NONE', #450 ) ;
#578 = AXIS2_PLACEMENT_3D ( 'NONE', #223, #466, #411 ) ;
#579 = VECTOR ( 'NONE', #403, 39.37007874015748143 ) ;
#580 = AXIS2_PLACEMENT_3D ( 'NONE', #143, #11, #518 ) ;
#581 = CARTESIAN_POINT ( 'NONE',  ( -4.151252459999994926, 5.199904510000008528, 44.42717851000001161 ) ) ;
#582 = FACE_OUTER_BOUND ( 'NONE', #177, .T. ) ;
#583 = VERTEX_POINT ( 'NONE', #380 ) ;
#584 = CYLINDRICAL_SURFACE ( 'NONE', #47, 0.1329999999999999238 ) ;
#585 = ORIENTED_EDGE ( 'NONE', *, *, #710, .F. ) ;
#586 = MANIFOLD_SOLID_BREP ( 'Fillet1', #549 ) ;
#587 = CARTESIAN_POINT ( 'NONE',  ( -2.526252459999997591, 4.949904510000008528, 43.80217851000000451 ) ) ;
#588 = LINE ( 'NONE', #293, #509 ) ;
#589 = ORIENTED_EDGE ( 'NONE', *, *, #682, .T. ) ;
#590 = EDGE_CURVE ( 'NONE', #537, #479, #630, .T. ) ;
#591 = AXIS2_PLACEMENT_3D ( 'NONE', #471, #672, #357 ) ;
#592 = DIRECTION ( 'NONE',  ( -1.000000000000000000, 0.000000000000000000, 0.000000000000000000 ) ) ;
#593 = CIRCLE ( 'NONE', #804, 0.1329999999999999238 ) ;
#594 = LINE ( 'NONE', #528, #256 ) ;
#595 = VERTEX_POINT ( 'NONE', #83 ) ;
#596 = DIRECTION ( 'NONE',  ( -0.000000000000000000, 0.000000000000000000, -1.000000000000000000 ) ) ;
#597 = DIRECTION ( 'NONE',  ( 0.000000000000000000, -1.000000000000000000, -0.000000000000000000 ) ) ;
#598 = VERTEX_POINT ( 'NONE', #465 ) ;
#599 = LINE ( 'NONE', #158, #424 ) ;
#600 = PRODUCT_DEFINITION ( 'UNKNOWN', '', #273, #693 ) ;
#601 = PLANE ( 'NONE',  #521 ) ;
#602 = ORIENTED_EDGE ( 'NONE', *, *, #513, .T. ) ;
#603 = DIRECTION ( 'NONE',  ( 0.000000000000000000, 0.000000000000000000, -1.000000000000000000 ) ) ;
#604 = CIRCLE ( 'NONE', #646, 0.1329999999999999238 ) ;
#605 = VECTOR ( 'NONE', #651, 39.37007874015748143 ) ;
#606 = DIRECTION ( 'NONE',  ( -1.000000000000000000, 0.000000000000000000, 0.000000000000000000 ) ) ;
#607 = ORIENTED_EDGE ( 'NONE', *, *, #716, .T. ) ;
#608 = LINE ( 'NONE', #175, #139 ) ;
#609 = CARTESIAN_POINT ( 'NONE',  ( -4.526252459999997591, 5.199904510000008528, 44.80217851000001161 ) ) ;
#610 = ORIENTED_EDGE ( 'NONE', *, *, #338, .F. ) ;
#611 = EDGE_CURVE ( 'NONE', #42, #27, #621, .T. ) ;
#612 = CARTESIAN_POINT ( 'NONE',  ( -4.526252459999997591, 4.949904510000008528, 42.93334807218418803 ) ) ;
#613 = DIRECTION ( 'NONE',  ( 0.000000000000000000, 0.000000000000000000, -1.000000000000000000 ) ) ;
#614 = ORIENTED_EDGE ( 'NONE', *, *, #526, .T. ) ;
#615 = EDGE_CURVE ( 'NONE', #395, #577, #599, .T. ) ;
#616 = DIRECTION ( 'NONE',  ( 0.000000000000000000, 1.000000000000000000, 0.000000000000000000 ) ) ;
#617 = DIRECTION ( 'NONE',  ( -0.000000000000000000, 1.000000000000000000, 0.000000000000000000 ) ) ;
#618 = AXIS2_PLACEMENT_3D ( 'NONE', #199, #712, #644 ) ;
#619 = AXIS2_PLACEMENT_3D ( 'NONE', #488, #617, #753 ) ;
#620 = DIRECTION ( 'NONE',  ( 0.000000000000000000, 0.000000000000000000, -1.000000000000000000 ) ) ;
#621 = CIRCLE ( 'NONE', #792, 0.1329999999999999238 ) ;
#622 = ORIENTED_EDGE ( 'NONE', *, *, #36, .F. ) ;
#623 = ADVANCED_FACE ( 'NONE', ( #717, #417, #728, #470, #664, #37 ), #49, .T. ) ;
#624 = CARTESIAN_POINT ( 'NONE',  ( -3.526252459999998035, 5.199904510000008528, 43.80217851000000451 ) ) ;
#625 = EDGE_LOOP ( 'NONE', ( #775, #246 ) ) ;
#626 = DIRECTION ( 'NONE',  ( 0.000000000000000000, -1.000000000000000000, -0.000000000000000000 ) ) ;
#627 = EDGE_CURVE ( 'NONE', #189, #468, #300, .T. ) ;
#628 = ORIENTED_EDGE ( 'NONE', *, *, #3, .F. ) ;
#629 = EDGE_LOOP ( 'NONE', ( #589, #413, #228, #97 ) ) ;
#630 = LINE ( 'NONE', #447, #62 ) ;
#631 = CARTESIAN_POINT ( 'NONE',  ( -4.526252459999997591, 4.949904510000008528, 42.80217851000000451 ) ) ;
#632 = VECTOR ( 'NONE', #437, 39.37007874015748143 ) ;
#633 = VERTEX_POINT ( 'NONE', #793 ) ;
#635 = ADVANCED_FACE ( 'NONE', ( #458 ), #232, .T. ) ;
#634 = VECTOR ( 'NONE', #616, 39.37007874015748143 ) ;
#636 = DIRECTION ( 'NONE',  ( -0.000000000000000000, 1.000000000000000000, 0.000000000000000000 ) ) ;
#637 = FACE_OUTER_BOUND ( 'NONE', #747, .T. ) ;
#638 = VERTEX_POINT ( 'NONE', #105 ) ;
#639 = EDGE_CURVE ( 'NONE', #494, #577, #168, .T. ) ;
#640 = CARTESIAN_POINT ( 'NONE',  ( -4.526252459999997591, 4.949904510000008528, 42.80034807218418536 ) ) ;
#641 = LINE ( 'NONE', #80, #191 ) ;
#642 = EDGE_LOOP ( 'NONE', ( #438, #560 ) ) ;
#643 = CARTESIAN_POINT ( 'NONE',  ( -4.526252459999997591, 4.949904510000008528, 42.66734807218418268 ) ) ;
#644 = DIRECTION ( 'NONE',  ( -1.000000000000000000, 0.000000000000000000, 0.000000000000000000 ) ) ;
#645 = ORIENTED_EDGE ( 'NONE', *, *, #384, .F. ) ;
#646 = AXIS2_PLACEMENT_3D ( 'NONE', #460, #718, #156 ) ;
#647 = CIRCLE ( 'NONE', #75, 0.3750000000000002220 ) ;
#648 = FILL_AREA_STYLE_COLOUR ( '', #48 ) ;
#649 = FACE_OUTER_BOUND ( 'NONE', #157, .T. ) ;
#650 = VERTEX_POINT ( 'NONE', #40 ) ;
#651 = DIRECTION ( 'NONE',  ( -0.000000000000000000, -1.000000000000000000, -0.000000000000000000 ) ) ;
#652 = CYLINDRICAL_SURFACE ( 'NONE', #311, 0.2500000000000030531 ) ;
#653 = EDGE_CURVE ( 'NONE', #367, #91, #647, .T. ) ;
#654 = VERTEX_POINT ( 'NONE', #291 ) ;
#655 = CARTESIAN_POINT ( 'NONE',  ( -4.901252459999999367, 5.199904510000008528, 44.80217851000001161 ) ) ;
#656 = CARTESIAN_POINT ( 'NONE',  ( -4.526252459999997591, 4.949904510000008528, 44.80217851000001161 ) ) ;
#657 = ORIENTED_EDGE ( 'NONE', *, *, #653, .F. ) ;
#658 = VECTOR ( 'NONE', #135, 39.37007874015748143 ) ;
#659 = CARTESIAN_POINT ( 'NONE',  ( -4.526252459999997591, 4.949904510000008528, 44.80217851000001161 ) ) ;
#660 = VECTOR ( 'NONE', #95, 39.37007874015748143 ) ;
#661 = CARTESIAN_POINT ( 'NONE',  ( -2.526252459999997591, 5.199904510000008528, 43.66917851000000894 ) ) ;
#662 = VERTEX_POINT ( 'NONE', #43 ) ;
#663 = ADVANCED_FACE ( 'NONE', ( #540 ), #534, .F. ) ;
#664 = FACE_BOUND ( 'NONE', #108, .T. ) ;
#665 = CARTESIAN_POINT ( 'NONE',  ( -4.526252459999997591, 5.199904510000008528, 42.66734807218418268 ) ) ;
#666 = ORIENTED_EDGE ( 'NONE', *, *, #254, .F. ) ;
#667 = DIRECTION ( 'NONE',  ( 0.000000000000000000, 0.000000000000000000, 1.000000000000000000 ) ) ;
#668 = DIRECTION ( 'NONE',  ( 0.000000000000000000, 0.000000000000000000, -1.000000000000000000 ) ) ;
#669 = EDGE_LOOP ( 'NONE', ( #133, #610, #211, #802 ) ) ;
#670 = VECTOR ( 'NONE', #482, 39.37007874015748143 ) ;
#671 = PRESENTATION_LAYER_ASSIGNMENT (  '', '', ( #100 ) ) ;
#672 = DIRECTION ( 'NONE',  ( -0.000000000000000000, 1.000000000000000000, 0.000000000000000000 ) ) ;
#673 = ORIENTED_EDGE ( 'NONE', *, *, #388, .F. ) ;
#674 = CARTESIAN_POINT ( 'NONE',  ( -4.526252459999997591, 4.949904510000008528, 42.93334807218418803 ) ) ;
#675 = DIRECTION ( 'NONE',  ( -0.000000000000000000, 1.000000000000000000, -0.000000000000000000 ) ) ;
#676 = DIRECTION ( 'NONE',  ( -0.000000000000000000, 1.000000000000000000, -0.000000000000000000 ) ) ;
#677 = ADVANCED_FACE ( 'NONE', ( #31 ), #530, .F. ) ;
#678 = APPLICATION_PROTOCOL_DEFINITION ( 'draft international standard', 'automotive_design', 1998, #167 ) ;
#679 = DIRECTION ( 'NONE',  ( -0.000000000000000000, 1.000000000000000000, 0.000000000000000000 ) ) ;
#680 = LINE ( 'NONE', #6, #658 ) ;
#681 = ORIENTED_EDGE ( 'NONE', *, *, #288, .F. ) ;
#682 = EDGE_CURVE ( 'NONE', #583, #456, #567, .T. ) ;
#683 = LINE ( 'NONE', #555, #297 ) ;
#684 = CIRCLE ( 'NONE', #457, 0.3750000000000002220 ) ;
#685 =( GEOMETRIC_REPRESENTATION_CONTEXT ( 3 ) GLOBAL_UNCERTAINTY_ASSIGNED_CONTEXT ( ( #569 ) ) GLOBAL_UNIT_ASSIGNED_CONTEXT ( ( #209, #441, #324 ) ) REPRESENTATION_CONTEXT ( 'NONE', 'WORKASPACE' ) );
#686 = FACE_OUTER_BOUND ( 'NONE', #268, .T. ) ;
#687 = VECTOR ( 'NONE', #14, 39.37007874015748143 ) ;
#688 = EDGE_CURVE ( 'NONE', #419, #378, #282, .T. ) ;
#689 = LINE ( 'NONE', #7, #330 ) ;
#690 = ADVANCED_FACE ( 'NONE', ( #92 ), #340, .F. ) ;
#691 = EDGE_LOOP ( 'NONE', ( #673, #758, #768, #750 ) ) ;
#692 = CARTESIAN_POINT ( 'NONE',  ( -3.901252459999994926, 4.949904510000008528, 43.17717851000000451 ) ) ;
#693 = PRODUCT_DEFINITION_CONTEXT ( 'detailed design', #167, 'design' ) ;
#694 = EDGE_LOOP ( 'NONE', ( #542, #117 ) ) ;
#695 = EDGE_LOOP ( 'NONE', ( #309, #498 ) ) ;
#696 = CARTESIAN_POINT ( 'NONE',  ( -4.901252459999999367, 4.949904510000008528, 42.80217851000000451 ) ) ;
#697 = FACE_OUTER_BOUND ( 'NONE', #400, .T. ) ;
#698 = DIRECTION ( 'NONE',  ( 0.000000000000000000, -1.000000000000000000, -0.000000000000000000 ) ) ;
#699 = EDGE_CURVE ( 'NONE', #537, #221, #35, .T. ) ;
#700 = AXIS2_PLACEMENT_3D ( 'NONE', #32, #233, #44 ) ;
#701 = EDGE_LOOP ( 'NONE', ( #407, #602, #443, #552 ) ) ;
#702 = AXIS2_PLACEMENT_3D ( 'NONE', #331, #262, #213 ) ;
#703 = CARTESIAN_POINT ( 'NONE',  ( -2.526252459999997591, 4.949904510000008528, 43.42717851000000451 ) ) ;
#704 = DIRECTION ( 'NONE',  ( 0.000000000000000000, -1.000000000000000000, -0.000000000000000000 ) ) ;
#705 = CARTESIAN_POINT ( 'NONE',  ( -3.526252459999998035, 4.949904510000008528, 43.66917851000000894 ) ) ;
#706 = VERTEX_POINT ( 'NONE', #225 ) ;
#707 = DIRECTION ( 'NONE',  ( -0.000000000000000000, 1.000000000000000000, 0.000000000000000000 ) ) ;
#708 = DIRECTION ( 'NONE',  ( 0.000000000000000000, -1.000000000000000000, -0.000000000000000000 ) ) ;
#709 = EDGE_LOOP ( 'NONE', ( #315, #533 ) ) ;
#710 = EDGE_CURVE ( 'NONE', #367, #468, #222, .T. ) ;
#711 = FACE_OUTER_BOUND ( 'NONE', #525, .T. ) ;
#712 = DIRECTION ( 'NONE',  ( 0.000000000000000000, 0.000000000000000000, 1.000000000000000000 ) ) ;
#713 = ORIENTED_EDGE ( 'NONE', *, *, #254, .T. ) ;
#714 = CIRCLE ( 'NONE', #385, 0.1329999999999999238 ) ;
#715 = AXIS2_PLACEMENT_3D ( 'NONE', #587, #781, #522 ) ;
#716 = EDGE_CURVE ( 'NONE', #389, #734, #506, .T. ) ;
#717 = FACE_BOUND ( 'NONE', #642, .T. ) ;
#718 = DIRECTION ( 'NONE',  ( -0.000000000000000000, 1.000000000000000000, 0.000000000000000000 ) ) ;
#719 = ORIENTED_EDGE ( 'NONE', *, *, #565, .F. ) ;
#720 = DIRECTION ( 'NONE',  ( 0.000000000000000000, 1.000000000000000000, 0.000000000000000000 ) ) ;
#721 = DIRECTION ( 'NONE',  ( 0.000000000000000000, 0.000000000000000000, -1.000000000000000000 ) ) ;
#722 = EDGE_LOOP ( 'NONE', ( #241, #799 ) ) ;
#723 = CARTESIAN_POINT ( 'NONE',  ( -3.526252459999998035, 4.949904510000008528, 43.80217851000000451 ) ) ;
#724 = DIRECTION ( 'NONE',  ( 1.000000000000000000, 0.000000000000000000, 0.000000000000000000 ) ) ;
#725 = VERTEX_POINT ( 'NONE', #444 ) ;
#726 = EDGE_CURVE ( 'NONE', #65, #638, #152, .T. ) ;
#727 = AXIS2_PLACEMENT_3D ( 'NONE', #377, #63, #69 ) ;
#728 = FACE_BOUND ( 'NONE', #79, .T. ) ;
#729 = AXIS2_PLACEMENT_3D ( 'NONE', #797, #295, #154 ) ;
#730 = DIRECTION ( 'NONE',  ( -0.000000000000000000, 1.000000000000000000, 0.000000000000000000 ) ) ;
#731 = ORIENTED_EDGE ( 'NONE', *, *, #364, .F. ) ;
#732 = CARTESIAN_POINT ( 'NONE',  ( -4.526252459999997591, 4.949904510000008528, 44.80217851000001161 ) ) ;
#733 = CARTESIAN_POINT ( 'NONE',  ( -4.526252459999997591, 4.949904510000008528, 45.17717851000001161 ) ) ;
#734 = VERTEX_POINT ( 'NONE', #674 ) ;
#735 = CARTESIAN_POINT ( 'NONE',  ( -4.151252459999994926, 5.199904510000008528, 42.80217851000000451 ) ) ;
#736 = LINE ( 'NONE', #285, #767 ) ;
#737 = VERTEX_POINT ( 'NONE', #574 ) ;
#738 = CIRCLE ( 'NONE', #345, 0.2500000000000030531 ) ;
#739 = DIRECTION ( 'NONE',  ( -0.000000000000000000, 1.000000000000000000, 0.000000000000000000 ) ) ;
#740 = AXIS2_PLACEMENT_3D ( 'NONE', #782, #159, #220 ) ;
#741 = EDGE_CURVE ( 'NONE', #221, #494, #13, .T. ) ;
#742 = CIRCLE ( 'NONE', #702, 0.1329999999999999238 ) ;
#743 = CARTESIAN_POINT ( 'NONE',  ( -4.901252459999999367, 5.199904510000008528, 44.80217851000001161 ) ) ;
#744 = VERTEX_POINT ( 'NONE', #735 ) ;
#745 = CARTESIAN_POINT ( 'NONE',  ( -2.526252459999997591, 4.949904510000008528, 43.80217851000000451 ) ) ;
#746 = CARTESIAN_POINT ( 'NONE',  ( -4.151252459999994926, 4.949904510000008528, 43.17717851000000451 ) ) ;
#747 = EDGE_LOOP ( 'NONE', ( #382, #16, #10, #554 ) ) ;
#748 = DIRECTION ( 'NONE',  ( -0.000000000000000000, 1.000000000000000000, 0.000000000000000000 ) ) ;
#749 = CARTESIAN_POINT ( 'NONE',  ( -2.526252459999997591, 5.199904510000008528, 43.42717851000000451 ) ) ;
#750 = ORIENTED_EDGE ( 'NONE', *, *, #257, .T. ) ;
#751 = EDGE_CURVE ( 'NONE', #595, #737, #323, .T. ) ;
#752 = ORIENTED_EDGE ( 'NONE', *, *, #110, .T. ) ;
#753 = DIRECTION ( 'NONE',  ( 0.000000000000000000, 0.000000000000000000, -1.000000000000000000 ) ) ;
#754 = CIRCLE ( 'NONE', #396, 0.1329999999999999238 ) ;
#755 = DIMENSIONAL_EXPONENTS ( 1.000000000000000000, 0.000000000000000000, 0.000000000000000000, 0.000000000000000000, 0.000000000000000000, 0.000000000000000000, 0.000000000000000000 ) ;
#756 = AXIS2_PLACEMENT_3D ( 'NONE', #732, #720, #667 ) ;
#757 = DIRECTION ( 'NONE',  ( 0.000000000000000000, 0.000000000000000000, -1.000000000000000000 ) ) ;
#758 = ORIENTED_EDGE ( 'NONE', *, *, #688, .T. ) ;
#759 = CARTESIAN_POINT ( 'NONE',  ( -4.151252459999994926, 5.199904510000008528, 44.17717851000000451 ) ) ;
#760 = CYLINDRICAL_SURFACE ( 'NONE', #310, 0.1329999999999999238 ) ;
#761 = LENGTH_MEASURE_WITH_UNIT ( LENGTH_MEASURE( 0.02539999999999999897 ), #568 );
#762 = DIRECTION ( 'NONE',  ( -0.000000000000000000, 1.000000000000000000, 0.000000000000000000 ) ) ;
#763 = DIRECTION ( 'NONE',  ( 0.000000000000000000, 1.000000000000000000, 0.000000000000000000 ) ) ;
#764 = DIRECTION ( 'NONE',  ( -0.000000000000000000, 1.000000000000000000, -0.000000000000000000 ) ) ;
#765 = EDGE_CURVE ( 'NONE', #355, #189, #361, .T. ) ;
#766 = CARTESIAN_POINT ( 'NONE',  ( -3.901252459999995370, 4.949904510000008528, 44.42717851000001161 ) ) ;
#767 = VECTOR ( 'NONE', #798, 39.37007874015748143 ) ;
#768 = ORIENTED_EDGE ( 'NONE', *, *, #244, .T. ) ;
#769 = CYLINDRICAL_SURFACE ( 'NONE', #216, 0.1329999999999999238 ) ;
#770 = PLANE ( 'NONE',  #618 ) ;
#771 = ORIENTED_EDGE ( 'NONE', *, *, #420, .T. ) ;
#772 = EDGE_CURVE ( 'NONE', #737, #563, #491, .T. ) ;
#773 = FILL_AREA_STYLE ('',( #648 ) ) ;
#774 = DIRECTION ( 'NONE',  ( 0.000000000000000000, -1.000000000000000000, -0.000000000000000000 ) ) ;
#775 = ORIENTED_EDGE ( 'NONE', *, *, #374, .F. ) ;
#776 = EDGE_CURVE ( 'NONE', #654, #65, #608, .T. ) ;
#777 = CARTESIAN_POINT ( 'NONE',  ( -2.526252459999997591, 5.199904510000008528, 43.80217851000000451 ) ) ;
#778 = LINE ( 'NONE', #15, #126 ) ;
#779 = ORIENTED_EDGE ( 'NONE', *, *, #526, .F. ) ;
#780 = AXIS2_PLACEMENT_3D ( 'NONE', #784, #287, #596 ) ;
#781 = DIRECTION ( 'NONE',  ( 0.000000000000000000, -1.000000000000000000, -0.000000000000000000 ) ) ;
#782 = CARTESIAN_POINT ( 'NONE',  ( -4.151252459999994926, 4.949904510000008528, 44.17717851000000451 ) ) ;
#783 = EDGE_LOOP ( 'NONE', ( #322, #752, #370, #352 ) ) ;
#784 = CARTESIAN_POINT ( 'NONE',  ( -2.526252459999997591, 4.949904510000008528, 43.80217851000000451 ) ) ;
#785 = ADVANCED_FACE ( 'NONE', ( #365 ), #137, .T. ) ;
#786 = DIRECTION ( 'NONE',  ( 0.000000000000000000, -1.000000000000000000, -0.000000000000000000 ) ) ;
#787 = ORIENTED_EDGE ( 'NONE', *, *, #550, .F. ) ;
#788 = DIRECTION ( 'NONE',  ( 0.000000000000000000, 0.000000000000000000, -1.000000000000000000 ) ) ;
#789 = DIRECTION ( 'NONE',  ( 0.000000000000000000, 0.000000000000000000, -1.000000000000000000 ) ) ;
#790 = ORIENTED_EDGE ( 'NONE', *, *, #653, .T. ) ;
#791 = CIRCLE ( 'NONE', #433, 0.3750000000000002220 ) ;
#792 = AXIS2_PLACEMENT_3D ( 'NONE', #659, #350, #474 ) ;
#793 = CARTESIAN_POINT ( 'NONE',  ( -4.526252459999997591, 4.949904510000008528, 42.66734807218418268 ) ) ;
#794 = DIRECTION ( 'NONE',  ( 0.000000000000000000, 0.000000000000000000, -1.000000000000000000 ) ) ;
#795 = ORIENTED_EDGE ( 'NONE', *, *, #699, .F. ) ;
#796 = EDGE_CURVE ( 'NONE', #27, #42, #593, .T. ) ;
#797 = CARTESIAN_POINT ( 'NONE',  ( -4.526252459999997591, 5.199904510000008528, 44.80217851000001161 ) ) ;
#798 = DIRECTION ( 'NONE',  ( 0.000000000000000000, 1.000000000000000000, 0.000000000000000000 ) ) ;
#799 = ORIENTED_EDGE ( 'NONE', *, *, #726, .T. ) ;
#800 = EDGE_CURVE ( 'NONE', #650, #598, #472, .T. ) ;
#801 = DIRECTION ( 'NONE',  ( 0.000000000000000000, 0.000000000000000000, -1.000000000000000000 ) ) ;
#802 = ORIENTED_EDGE ( 'NONE', *, *, #772, .F. ) ;
#803 = VECTOR ( 'NONE', #794, 39.37007874015748143 ) ;
#804 = AXIS2_PLACEMENT_3D ( 'NONE', #390, #56, #200 ) ;
#805 = DIRECTION ( 'NONE',  ( -0.000000000000000000, 1.000000000000000000, 0.000000000000000000 ) ) ;
#806 = EDGE_LOOP ( 'NONE', ( #329, #321, #198, #145, #657, #125, #416, #461, #393, #645, #795 ) ) ;
ENDSEC;
END-ISO-10303-21;
