ISO-10303-21;
HEADER;
FILE_DESCRIPTION (( 'STEP AP214' ),
    '1' );
FILE_NAME ('module top plate block 1.STEP',
    '2026-03-17T02:48:46',
    ( '' ),
    ( '' ),
    'SwSTEP 2.0',
    'SolidWorks 2025',
    '' );
FILE_SCHEMA (( 'AUTOMOTIVE_DESIGN' ));
ENDSEC;

DATA;
#1 = CARTESIAN_POINT ( 'NONE',  ( 8.119367071070243469, 17.54802960104923315, 52.56914063289401184 ) ) ;
#2 = ORIENTED_EDGE ( 'NONE', *, *, #528, .T. ) ;
#3 = FACE_OUTER_BOUND ( 'NONE', #132, .T. ) ;
#4 = CARTESIAN_POINT ( 'NONE',  ( 6.597518165074812480, 17.56822000985194521, 52.44628870009491806 ) ) ;
#5 = EDGE_CURVE ( 'NONE', #86, #155, #389, .T. ) ;
#6 = VERTEX_POINT ( 'NONE', #191 ) ;
#7 = AXIS2_PLACEMENT_3D ( 'NONE', #900, #316, #827 ) ;
#8 = CYLINDRICAL_SURFACE ( 'NONE', #154, 0.1405999999999993921 ) ;
#9 = ORIENTED_EDGE ( 'NONE', *, *, #83, .T. ) ;
#10 = CARTESIAN_POINT ( 'NONE',  ( 8.193374259503142909, 18.16132348060733293, 51.14981134858440726 ) ) ;
#11 = ORIENTED_EDGE ( 'NONE', *, *, #142, .T. ) ;
#12 = CARTESIAN_POINT ( 'NONE',  ( -11480.28111349519168, 17.87752255349968422, 52.87664574534545636 ) ) ;
#13 = CARTESIAN_POINT ( 'NONE',  ( 8.434173008077454625, 17.26666267804774790, 51.19801784117200327 ) ) ;
#14 = DIRECTION ( 'NONE',  ( -0.000000000000000000, 0.9867625124381936841, 0.1621719582624069067 ) ) ;
#15 = ADVANCED_FACE ( 'NONE', ( #472 ), #514, .F. ) ;
#16 = DIRECTION ( 'NONE',  ( 3.234527991966054378E-14, 0.7313537016192248608, -0.6819983600624403008 ) ) ;
#17 = DIRECTION ( 'NONE',  ( -0.000000000000000000, 0.9867625124381936841, 0.1621719582624068789 ) ) ;
#18 = CARTESIAN_POINT ( 'NONE',  ( 6.597518165074812480, 17.54802960104827747, 52.56914063289347183 ) ) ;
#19 = CARTESIAN_POINT ( 'NONE',  ( -2.576007849222247792, 253.0101576064575966, 305.8106194270895344 ) ) ;
#20 = FACE_OUTER_BOUND ( 'NONE', #417, .T. ) ;
#21 = SHAPE_DEFINITION_REPRESENTATION ( #756, #785 ) ;
#22 = AXIS2_PLACEMENT_3D ( 'NONE', #56, #222, #151 ) ;
#23 = EDGE_LOOP ( 'NONE', ( #902, #744, #624, #532, #485, #721 ) ) ;
#24 = LINE ( 'NONE', #30, #170 ) ;
#25 = AXIS2_PLACEMENT_3D ( 'NONE', #671, #752, #156 ) ;
#26 = VECTOR ( 'NONE', #349, 39.37007874015748854 ) ;
#27 = DIRECTION ( 'NONE',  ( -0.000000000000000000, 0.9867625124381936841, 0.1621719582624069067 ) ) ;
#28 = ORIENTED_EDGE ( 'NONE', *, *, #573, .F. ) ;
#29 = ORIENTED_EDGE ( 'NONE', *, *, #742, .T. ) ;
#30 = CARTESIAN_POINT ( 'NONE',  ( -1.065342255897309601E-13, 17.46935327157996554, 50.92870064503140526 ) ) ;
#31 = ADVANCED_FACE ( 'NONE', ( #20 ), #933, .F. ) ;
#32 = CARTESIAN_POINT ( 'NONE',  ( 8.119367071070243469, 17.94076961737029308, 52.49180836550107188 ) ) ;
#33 =( NAMED_UNIT ( * ) SI_UNIT ( $, .STERADIAN. ) SOLID_ANGLE_UNIT ( ) );
#34 = EDGE_LOOP ( 'NONE', ( #311, #29, #606, #921, #361, #634, #775 ) ) ;
#35 = FACE_OUTER_BOUND ( 'NONE', #591, .T. ) ;
#36 = DIRECTION ( 'NONE',  ( -0.03486611143716845940, -0.8119253981476556303, 0.5827190593382216566 ) ) ;
#37 = EDGE_CURVE ( 'NONE', #467, #786, #927, .T. ) ;
#38 = ORIENTED_EDGE ( 'NONE', *, *, #429, .F. ) ;
#39 = VERTEX_POINT ( 'NONE', #257 ) ;
#40 = CARTESIAN_POINT ( 'NONE',  ( -4.094888830692754667, 253.2308349410083395, 305.7859254271588156 ) ) ;
#41 = VECTOR ( 'NONE', #198, 39.37007874015748854 ) ;
#42 = AXIS2_PLACEMENT_3D ( 'NONE', #431, #887, #506 ) ;
#43 = AXIS2_PLACEMENT_3D ( 'NONE', #304, #17, #524 ) ;
#44 = CIRCLE ( 'NONE', #914, 0.1244999999999976542 ) ;
#45 = CARTESIAN_POINT ( 'NONE',  ( 8.345744202833566661, 18.20186647016598513, 50.90312072047412073 ) ) ;
#46 = ORIENTED_EDGE ( 'NONE', *, *, #567, .T. ) ;
#47 = DIRECTION ( 'NONE',  ( 0.000000000000000000, -0.1621719582624161216, 0.9867625124381921298 ) ) ;
#48 = CARTESIAN_POINT ( 'NONE',  ( 8.193614762095819515, 18.20186647016597803, 50.90312072047392178 ) ) ;
#49 = EDGE_CURVE ( 'NONE', #6, #207, #561, .T. ) ;
#50 = ORIENTED_EDGE ( 'NONE', *, *, #153, .T. ) ;
#51 = CARTESIAN_POINT ( 'NONE',  ( 7.851960026994502684, 17.12076829664697186, 52.85021930437994087 ) ) ;
#52 = CARTESIAN_POINT ( 'NONE',  ( -11480.07014618054382, 18.20186647002294933, 50.90312072047891689 ) ) ;
#53 = ADVANCED_FACE ( 'NONE', ( #697 ), #452, .F. ) ;
#54 = ORIENTED_EDGE ( 'NONE', *, *, #453, .F. ) ;
#55 = CARTESIAN_POINT ( 'NONE',  ( 8.354851948728406086, 17.40374457909525319, 50.97578801988009900 ) ) ;
#56 = CARTESIAN_POINT ( 'NONE',  ( 6.634521759291253318, 17.42296794162757223, 51.78852575899771438 ) ) ;
#57 = AXIS2_PLACEMENT_3D ( 'NONE', #393, #226, #894 ) ;
#58 = DIRECTION ( 'NONE',  ( 0.000000000000000000, -0.1621719582624161216, 0.9867625124381921298 ) ) ;
#59 = AXIS2_PLACEMENT_3D ( 'NONE', #674, #755, #530 ) ;
#60 = CIRCLE ( 'NONE', #343, 0.1399999999999976263 ) ;
#61 = VERTEX_POINT ( 'NONE', #176 ) ;
#62 = DIRECTION ( 'NONE',  ( -0.9987850922730998615, 0.007991539655958260560, -0.04862586499942877366 ) ) ;
#63 = EDGE_CURVE ( 'NONE', #246, #608, #80, .T. ) ;
#64 = CARTESIAN_POINT ( 'NONE',  ( 6.671525353507695932, 18.16132348060632040, 51.14981134858420830 ) ) ;
#65 = ORIENTED_EDGE ( 'NONE', *, *, #194, .F. ) ;
#66 = CARTESIAN_POINT ( 'NONE',  ( 7.947268144973874904, 17.44536394709433580, 50.94591778915615521 ) ) ;
#67 = CARTESIAN_POINT ( 'NONE',  ( 6.897289924279027318, 17.37267632817869156, 52.85901612668193650 ) ) ;
#68 = CARTESIAN_POINT ( 'NONE',  ( 105.0428131574027617, 15682.96304227019209, 599.9134862478341574 ) ) ;
#69 = ORIENTED_EDGE ( 'NONE', *, *, #633, .T. ) ;
#70 = CARTESIAN_POINT ( 'NONE',  ( 8.321431281460958118, 17.01395277511565141, 52.73567368134856537 ) ) ;
#71 = FILL_AREA_STYLE_COLOUR ( '', #168 ) ;
#72 = ADVANCED_FACE ( 'NONE', ( #779 ), #696, .F. ) ;
#73 =( GEOMETRIC_REPRESENTATION_CONTEXT ( 3 ) GLOBAL_UNCERTAINTY_ASSIGNED_CONTEXT ( ( #260 ) ) GLOBAL_UNIT_ASSIGNED_CONTEXT ( ( #816, #209, #741 ) ) REPRESENTATION_CONTEXT ( 'NONE', 'WORKASPACE' ) );
#74 = LINE ( 'NONE', #961, #250 ) ;
#75 = VECTOR ( 'NONE', #678, 39.37007874015748143 ) ;
#76 = EDGE_CURVE ( 'NONE', #6, #916, #487, .T. ) ;
#77 = AXIS2_PLACEMENT_3D ( 'NONE', #84, #834, #380 ) ;
#78 = ORIENTED_EDGE ( 'NONE', *, *, #501, .T. ) ;
#79 = CARTESIAN_POINT ( 'NONE',  ( 7.243843480514257749, 17.98918849623875715, 52.88054520599163766 ) ) ;
#80 =( BOUNDED_CURVE ( )  B_SPLINE_CURVE ( 3, ( #480, #686, #318, #611 ),
 .UNSPECIFIED., .F., .F. ) 
 B_SPLINE_CURVE_WITH_KNOTS ( ( 4, 4 ),
 ( 1.914020771268254428, 4.409821507368672400 ),
 .UNSPECIFIED. ) 
 CURVE ( )  GEOMETRIC_REPRESENTATION_ITEM ( )  RATIONAL_B_SPLINE_CURVE ( ( 1.000000000000000000, 0.5448761228773865151, 0.5448761228773865151, 1.000000000000000000 ) ) 
 REPRESENTATION_ITEM ( '' )  );
#81 = VECTOR ( 'NONE', #348, 39.37007874015748854 ) ;
#82 = VERTEX_POINT ( 'NONE', #425 ) ;
#83 = EDGE_CURVE ( 'NONE', #82, #346, #338, .T. ) ;
#84 = CARTESIAN_POINT ( 'NONE',  ( -11480.07014618063295, 17.68928348479507306, 48.62651057432193369 ) ) ;
#85 = DIRECTION ( 'NONE',  ( -0.04927818435185517265, -0.1619749342972603701, 0.9855636870372115332 ) ) ;
#86 = VERTEX_POINT ( 'NONE', #788 ) ;
#87 =( LENGTH_UNIT ( ) NAMED_UNIT ( * ) SI_UNIT ( $, .METRE. ) );
#88 = EDGE_LOOP ( 'NONE', ( #418, #789, #46, #619 ) ) ;
#89 = FACE_BOUND ( 'NONE', #282, .T. ) ;
#90 = EDGE_CURVE ( 'NONE', #477, #594, #206, .T. ) ;
#91 = ORIENTED_EDGE ( 'NONE', *, *, #573, .T. ) ;
#92 = AXIS2_PLACEMENT_3D ( 'NONE', #10, #172, #243 ) ;
#93 = CARTESIAN_POINT ( 'NONE',  ( 6.634521759291253318, 18.01689313457775654, 52.02862204216184949 ) ) ;
#94 = EDGE_LOOP ( 'NONE', ( #558, #691, #11, #258 ) ) ;
#95 = FACE_OUTER_BOUND ( 'NONE', #23, .T. ) ;
#96 = DIRECTION ( 'NONE',  ( -0.000000000000000000, 0.9867625124381936841, 0.1621719582624069067 ) ) ;
#97 = EDGE_CURVE ( 'NONE', #935, #510, #408, .T. ) ;
#98 = VERTEX_POINT ( 'NONE', #139 ) ;
#99 = CARTESIAN_POINT ( 'NONE',  ( 6.980117626753125748, 17.66905630206165512, 50.95935699822776854 ) ) ;
#100 = PLANE ( 'NONE',  #7 ) ;
#101 = CARTESIAN_POINT ( 'NONE',  ( 6.671525353507695932, 18.16132348060632040, 51.14981134858420830 ) ) ;
#102 = ADVANCED_FACE ( 'NONE', ( #210 ), #957, .F. ) ;
#103 = VERTEX_POINT ( 'NONE', #717 ) ;
#104 = ORIENTED_EDGE ( 'NONE', *, *, #183, .F. ) ;
#105 = DIRECTION ( 'NONE',  ( -0.000000000000000000, 0.9867625124381936841, 0.1621719582624069067 ) ) ;
#106 = CARTESIAN_POINT ( 'NONE',  ( 7.940585189578557745, 17.28973829811371488, 51.05761035597595310 ) ) ;
#107 = CARTESIAN_POINT ( 'NONE',  ( -11480.07014618140238, 17.26586080714157134, 52.74447050363189504 ) ) ;
#108 = VECTOR ( 'NONE', #137, 39.37007874015748143 ) ;
#109 = EDGE_LOOP ( 'NONE', ( #38, #549, #645, #571 ) ) ;
#110 = DIRECTION ( 'NONE',  ( -0.000000000000000000, 0.9867625124381936841, 0.1621719582624068789 ) ) ;
#111 = AXIS2_PLACEMENT_3D ( 'NONE', #753, #233, #910 ) ;
#112 = DIRECTION ( 'NONE',  ( 0.000000000000000000, -0.1621719582624161216, 0.9867625124381921298 ) ) ;
#113 = VERTEX_POINT ( 'NONE', #437 ) ;
#114 = EDGE_CURVE ( 'NONE', #651, #39, #60, .T. ) ;
#115 = EDGE_LOOP ( 'NONE', ( #669, #824, #322, #78 ) ) ;
#116 = CARTESIAN_POINT ( 'NONE',  ( 6.671525353507695932, 17.79128753844199906, 51.08899686423580278 ) ) ;
#117 = ORIENTED_EDGE ( 'NONE', *, *, #164, .F. ) ;
#118 = VERTEX_POINT ( 'NONE', #285 ) ;
#119 = CARTESIAN_POINT ( 'NONE',  ( 7.407618204931801564, 17.63175713965855351, 52.86806342797935088 ) ) ;
#120 = PRODUCT_DEFINITION ( 'UNKNOWN', '', #500, #317 ) ;
#121 = CARTESIAN_POINT ( 'NONE',  ( 8.363609479389005230, 17.03472387848717062, 52.60928841494112618 ) ) ;
#122 = ORIENTED_EDGE ( 'NONE', *, *, #932, .T. ) ;
#123 = FACE_OUTER_BOUND ( 'NONE', #892, .T. ) ;
#124 = AXIS2_PLACEMENT_3D ( 'NONE', #439, #944, #136 ) ;
#125 = CIRCLE ( 'NONE', #43, 0.1405999999999993921 ) ;
#126 = EDGE_CURVE ( 'NONE', #61, #651, #363, .T. ) ;
#127 = CONICAL_SURFACE ( 'NONE', #584, 0.1399999999999976263, 0.04130981886462767316 ) ;
#128 = CARTESIAN_POINT ( 'NONE',  ( -11480.07014618063295, 17.01395277504462911, 52.73567368130991895 ) ) ;
#129 = EDGE_LOOP ( 'NONE', ( #492, #844, #268, #69 ) ) ;
#130 = DIRECTION ( 'NONE',  ( 4.184352624596624736E-14, 0.9867625124381877999, 0.1621719582624420175 ) ) ;
#131 = CARTESIAN_POINT ( 'NONE',  ( 6.597518165074812480, 17.54802960104827747, 52.56914063289347183 ) ) ;
#132 = EDGE_LOOP ( 'NONE', ( #364, #28, #140, #122 ) ) ;
#133 = FACE_BOUND ( 'NONE', #523, .T. ) ;
#134 = DIRECTION ( 'NONE',  ( 0.000000000000000000, -0.1621719582624140399, 0.9867625124381925739 ) ) ;
#135 = EDGE_LOOP ( 'NONE', ( #158, #690, #309, #806, #192, #262, #545 ) ) ;
#136 = DIRECTION ( 'NONE',  ( 1.000000000000000000, 6.789561797060625676E-15, -2.370967224651249480E-16 ) ) ;
#137 = DIRECTION ( 'NONE',  ( 0.000000000000000000, 0.9792232874999184933, 0.2027849925853784929 ) ) ;
#138 = VECTOR ( 'NONE', #150, 39.37007874015748854 ) ;
#139 = CARTESIAN_POINT ( 'NONE',  ( 8.186508374257041254, 17.46935327158002593, 50.92870064503139815 ) ) ;
#140 = ORIENTED_EDGE ( 'NONE', *, *, #471, .T. ) ;
#141 = PLANE ( 'NONE',  #124 ) ;
#142 = EDGE_CURVE ( 'NONE', #118, #314, #792, .T. ) ;
#143 = DIRECTION ( 'NONE',  ( -0.03486611143714613698, -0.8119253981476411974, 0.5827190593382430839 ) ) ;
#144 = CARTESIAN_POINT ( 'NONE',  ( 8.119367071070243469, 17.54802960104923315, 52.56914063289401184 ) ) ;
#145 = ORIENTED_EDGE ( 'NONE', *, *, #337, .F. ) ;
#146 = DIRECTION ( 'NONE',  ( -2.235598151540022757E-15, 0.7313537016192164231, -0.6819983600624494047 ) ) ;
#147 = EDGE_CURVE ( 'NONE', #346, #604, #564, .T. ) ;
#148 = LINE ( 'NONE', #68, #870 ) ;
#149 = VERTEX_POINT ( 'NONE', #48 ) ;
#150 = DIRECTION ( 'NONE',  ( -0.000000000000000000, 0.9867625124381934620, 0.1621719582624068512 ) ) ;
#151 = DIRECTION ( 'NONE',  ( 0.000000000000000000, -0.1621719582624442935, 0.9867625124381874668 ) ) ;
#152 = VECTOR ( 'NONE', #846, 39.37007874015748143 ) ;
#153 = EDGE_CURVE ( 'NONE', #149, #98, #937, .T. ) ;
#154 = AXIS2_PLACEMENT_3D ( 'NONE', #913, #236, #522 ) ;
#155 = VERTEX_POINT ( 'NONE', #360 ) ;
#156 = DIRECTION ( 'NONE',  ( 0.000000000000000000, -0.9867625124381875779, -0.1621719582624427947 ) ) ;
#157 = CARTESIAN_POINT ( 'NONE',  ( 8.562748371419807825, 17.68928348487218472, 48.62651057432462665 ) ) ;
#158 = ORIENTED_EDGE ( 'NONE', *, *, #457, .F. ) ;
#159 = CARTESIAN_POINT ( 'NONE',  ( 8.119367071070243469, 17.89536146905681946, 52.76810186898375576 ) ) ;
#160 = ORIENTED_EDGE ( 'NONE', *, *, #241, .T. ) ;
#161 = CARTESIAN_POINT ( 'NONE',  ( 6.671525353507695932, 17.79128753844199906, 51.08899686423580278 ) ) ;
#162 = ORIENTED_EDGE ( 'NONE', *, *, #462, .F. ) ;
#163 = CARTESIAN_POINT ( 'NONE',  ( 6.897289924279026430, 17.37267632817869156, 52.85901612668193650 ) ) ;
#164 = EDGE_CURVE ( 'NONE', #708, #149, #731, .T. ) ;
#165 = ORIENTED_EDGE ( 'NONE', *, *, #780, .F. ) ;
#166 = PLANE ( 'NONE',  #761 ) ;
#167 = DIRECTION ( 'NONE',  ( 0.000000000000000000, -0.1621719582624161216, 0.9867625124381921298 ) ) ;
#168 = COLOUR_RGB ( '',0.7921568627450980005, 0.8196078431372548767, 0.9333333333333333481 ) ;
#169 = ORIENTED_EDGE ( 'NONE', *, *, #366, .F. ) ;
#170 = VECTOR ( 'NONE', #864, 39.37007874015748143 ) ;
#171 = PLANE ( 'NONE',  #59 ) ;
#172 = DIRECTION ( 'NONE',  ( -0.000000000000000000, 0.9867625124381936841, 0.1621719582624069067 ) ) ;
#173 = CONICAL_SURFACE ( 'NONE', #694, 0.1399999999999976263, 0.04130981886462767316 ) ;
#174 = EDGE_CURVE ( 'NONE', #856, #103, #200, .T. ) ;
#175 = DIRECTION ( 'NONE',  ( 0.009695013075862592838, 0.9993438579051868720, -0.03489785650490009883 ) ) ;
#176 = CARTESIAN_POINT ( 'NONE',  ( 6.671525353507695932, 17.81147794724566680, 50.96614493143724900 ) ) ;
#177 = ORIENTED_EDGE ( 'NONE', *, *, #126, .F. ) ;
#178 = LINE ( 'NONE', #305, #75 ) ;
#179 = DIRECTION ( 'NONE',  ( -1.000000000000000000, 4.264963232341594753E-14, -1.489357979273765949E-15 ) ) ;
#180 = EDGE_LOOP ( 'NONE', ( #871, #383 ) ) ;
#181 = ORIENTED_EDGE ( 'NONE', *, *, #183, .T. ) ;
#182 = PLANE ( 'NONE',  #356 ) ;
#183 = EDGE_CURVE ( 'NONE', #224, #477, #868, .T. ) ;
#184 = EDGE_LOOP ( 'NONE', ( #145, #640, #826, #278, #814 ) ) ;
#185 = CARTESIAN_POINT ( 'NONE',  ( 6.597518165074812480, 17.91806554321259881, 52.62995511724187025 ) ) ;
#186 = CARTESIAN_POINT ( 'NONE',  ( 6.428921469052018445, 17.72416946509322244, 50.91980226747509164 ) ) ;
#187 = DIRECTION ( 'NONE',  ( -0.000000000000000000, 0.9867625124381936841, 0.1621719582624069067 ) ) ;
#188 = VERTEX_POINT ( 'NONE', #795 ) ;
#189 = CARTESIAN_POINT ( 'NONE',  ( 8.193374259503142909, 17.79128753844301158, 51.08899686423600883 ) ) ;
#190 = CARTESIAN_POINT ( 'NONE',  ( 8.156370665286692301, 17.15347593618568567, 51.88672157868102630 ) ) ;
#191 = CARTESIAN_POINT ( 'NONE',  ( 6.421208351941650960, 17.54455449162196246, 51.04871197842007291 ) ) ;
#192 = ORIENTED_EDGE ( 'NONE', *, *, #223, .F. ) ;
#193 = DIRECTION ( 'NONE',  ( 0.000000000000000000, -0.1621719582624140399, 0.9867625124381925739 ) ) ;
#194 = EDGE_CURVE ( 'NONE', #224, #604, #428, .T. ) ;
#195 = DIRECTION ( 'NONE',  ( 0.9987850922730998615, -0.007991539655961180100, 0.04862586499942828100 ) ) ;
#196 = ORIENTED_EDGE ( 'NONE', *, *, #211, .F. ) ;
#197 = CYLINDRICAL_SURFACE ( 'NONE', #918, 0.1405999999999993921 ) ;
#198 = DIRECTION ( 'NONE',  ( 5.057555004264205699E-18, 0.9926180654821482596, 0.1212822166621202596 ) ) ;
#199 = AXIS2_PLACEMENT_3D ( 'NONE', #427, #646, #872 ) ;
#200 = CIRCLE ( 'NONE', #464, 0.1405999999999993921 ) ;
#201 = CARTESIAN_POINT ( 'NONE',  ( -11480.07014618063295, 17.28973829803234352, 51.05761035597812736 ) ) ;
#202 = ORIENTED_EDGE ( 'NONE', *, *, #400, .F. ) ;
#203 = DIRECTION ( 'NONE',  ( 1.000000000000000000, -4.267781738565122225E-14, 1.660854723362543962E-15 ) ) ;
#204 = EDGE_CURVE ( 'NONE', #438, #379, #445, .T. ) ;
#205 = DIRECTION ( 'NONE',  ( 1.000000000000000000, 6.789561797060625676E-15, -2.370967224651249480E-16 ) ) ;
#206 =( BOUNDED_CURVE ( )  B_SPLINE_CURVE ( 3, ( #803, #654, #643, #509 ),
 .UNSPECIFIED., .F., .F. ) 
 B_SPLINE_CURVE_WITH_KNOTS ( ( 4, 4 ),
 ( 0.9875669662197146259, 1.570796326794987152 ),
 .UNSPECIFIED. ) 
 CURVE ( )  GEOMETRIC_REPRESENTATION_ITEM ( )  RATIONAL_B_SPLINE_CURVE ( ( 1.000000000000000000, 0.9718539367529526185, 0.9718539367529526185, 1.000000000000000000 ) ) 
 REPRESENTATION_ITEM ( '' )  );
#207 = VERTEX_POINT ( 'NONE', #353 ) ;
#208 = CARTESIAN_POINT ( 'NONE',  ( 8.193374259503142909, 17.79128753844301158, 51.08899686423600883 ) ) ;
#209 =( NAMED_UNIT ( * ) PLANE_ANGLE_UNIT ( ) SI_UNIT ( $, .RADIAN. ) );
#210 = FACE_OUTER_BOUND ( 'NONE', #614, .T. ) ;
#211 = EDGE_CURVE ( 'NONE', #414, #620, #906, .T. ) ;
#212 = ORIENTED_EDGE ( 'NONE', *, *, #280, .T. ) ;
#213 = FACE_OUTER_BOUND ( 'NONE', #88, .T. ) ;
#214 = CARTESIAN_POINT ( 'NONE',  ( 6.597518165074812480, 17.89536146905586023, 52.76810186898321575 ) ) ;
#215 = AXIS2_PLACEMENT_3D ( 'NONE', #144, #96, #446 ) ;
#216 = ORIENTED_EDGE ( 'NONE', *, *, #808, .F. ) ;
#217 = FACE_OUTER_BOUND ( 'NONE', #115, .T. ) ;
#218 = CARTESIAN_POINT ( 'NONE',  ( 8.399815242831062179, 17.28973829811055296, 51.05761035597543440 ) ) ;
#219 = FACE_OUTER_BOUND ( 'NONE', #350, .T. ) ;
#220 = EDGE_LOOP ( 'NONE', ( #216, #782 ) ) ;
#221 = CARTESIAN_POINT ( 'NONE',  ( 7.946752455281609784, 17.43335510695458979, 50.95453653669865446 ) ) ;
#222 = DIRECTION ( 'NONE',  ( 4.184352624596624105E-14, 0.9867625124381879109, 0.1621719582624420175 ) ) ;
#223 = EDGE_CURVE ( 'NONE', #880, #409, #148, .T. ) ;
#224 = VERTEX_POINT ( 'NONE', #106 ) ;
#225 = CARTESIAN_POINT ( 'NONE',  ( 7.014247550869948000, 17.72416946508635149, 50.91980226747519822 ) ) ;
#226 = DIRECTION ( 'NONE',  ( 1.221445008365705295E-14, -0.9867625124381882440, -0.1621719582624393807 ) ) ;
#227 = VECTOR ( 'NONE', #760, 39.37007874015748143 ) ;
#228 = VECTOR ( 'NONE', #85, 39.37007874015748854 ) ;
#229 = AXIS2_PLACEMENT_3D ( 'NONE', #732, #195, #954 ) ;
#230 = EDGE_LOOP ( 'NONE', ( #707, #339, #677, #575 ) ) ;
#231 = DIRECTION ( 'NONE',  ( 1.000000000000000000, 1.230767230742161863E-14, 4.297933876273955240E-16 ) ) ;
#232 =( BOUNDED_CURVE ( )  B_SPLINE_CURVE ( 3, ( #959, #283, #66, #221 ),
 .UNSPECIFIED., .F., .T. ) 
 B_SPLINE_CURVE_WITH_KNOTS ( ( 4, 4 ),
 ( 4.601677048154480865, 4.663150626061376869 ),
 .UNSPECIFIED. ) 
 CURVE ( )  GEOMETRIC_REPRESENTATION_ITEM ( )  RATIONAL_B_SPLINE_CURVE ( ( 1.000000000000000000, 0.9996851080606332651, 0.9996851080606332651, 1.000000000000000000 ) ) 
 REPRESENTATION_ITEM ( '' )  );
#233 = DIRECTION ( 'NONE',  ( -6.661234617442108583E-15, 0.9867625124381882440, 0.1621719582624396583 ) ) ;
#234 = EDGE_CURVE ( 'NONE', #295, #467, #777, .T. ) ;
#235 = ORIENTED_EDGE ( 'NONE', *, *, #204, .F. ) ;
#236 = DIRECTION ( 'NONE',  ( -0.000000000000000000, 0.9867625124381936841, 0.1621719582624068789 ) ) ;
#237 = VERTEX_POINT ( 'NONE', #542 ) ;
#238 = FACE_BOUND ( 'NONE', #498, .T. ) ;
#239 = DIRECTION ( 'NONE',  ( -0.000000000000000000, 0.9867625124381936841, 0.1621719582624069067 ) ) ;
#240 = ORIENTED_EDGE ( 'NONE', *, *, #909, .F. ) ;
#241 = EDGE_CURVE ( 'NONE', #623, #354, #367, .T. ) ;
#242 = CARTESIAN_POINT ( 'NONE',  ( 6.336420425680072022, 17.26586080665661527, 52.74447050365183287 ) ) ;
#243 = DIRECTION ( 'NONE',  ( 0.000000000000000000, -0.1621719582624161216, 0.9867625124381921298 ) ) ;
#244 = DIRECTION ( 'NONE',  ( 0.000000000000000000, -0.1621719582624161216, 0.9867625124381921298 ) ) ;
#245 = VECTOR ( 'NONE', #942, 39.37007874015748143 ) ;
#246 = VERTEX_POINT ( 'NONE', #251 ) ;
#247 = VECTOR ( 'NONE', #517, 39.37007874015748854 ) ;
#248 = ORIENTED_EDGE ( 'NONE', *, *, #174, .F. ) ;
#249 = LINE ( 'NONE', #157, #228 ) ;
#250 = VECTOR ( 'NONE', #610, 39.37007874015748854 ) ;
#251 = CARTESIAN_POINT ( 'NONE',  ( 7.014247550869948000, 17.72416946508635149, 50.91980226747519822 ) ) ;
#252 = ORIENTED_EDGE ( 'NONE', *, *, #296, .T. ) ;
#253 = ORIENTED_EDGE ( 'NONE', *, *, #97, .T. ) ;
#254 = DIRECTION ( 'NONE',  ( 3.149277322660366998E-15, 0.03489949670250167696, -0.9993908270190957621 ) ) ;
#255 = LINE ( 'NONE', #52, #245 ) ;
#256 = EDGE_CURVE ( 'NONE', #604, #793, #919, .T. ) ;
#257 = CARTESIAN_POINT ( 'NONE',  ( 6.671525353507695932, 18.13861940644958537, 51.28795810032555380 ) ) ;
#258 = ORIENTED_EDGE ( 'NONE', *, *, #325, .F. ) ;
#259 = DIRECTION ( 'NONE',  ( -0.000000000000000000, 0.9867625124381936841, 0.1621719582624069067 ) ) ;
#260 = UNCERTAINTY_MEASURE_WITH_UNIT (LENGTH_MEASURE( 1.000000000000000082E-05 ), #816, 'distance_accuracy_value', 'NONE');
#261 = ADVANCED_FACE ( 'NONE', ( #689 ), #173, .F. ) ;
#262 = ORIENTED_EDGE ( 'NONE', *, *, #855, .T. ) ;
#263 = CIRCLE ( 'NONE', #340, 0.1406000000000001138 ) ;
#264 = EDGE_LOOP ( 'NONE', ( #964, #889, #553, #703 ) ) ;
#265 = DIRECTION ( 'NONE',  ( 0.04862741781208865244, 0.000000000000000000, -0.9988169873590099224 ) ) ;
#266 = DIRECTION ( 'NONE',  ( -1.000000000000000000, 4.267781738565122225E-14, -1.660854723362543962E-15 ) ) ;
#267 = ADVANCED_FACE ( 'NONE', ( #743 ), #294, .F. ) ;
#268 = ORIENTED_EDGE ( 'NONE', *, *, #395, .T. ) ;
#269 = DIRECTION ( 'NONE',  ( 4.184352624596624105E-14, 0.9867625124381879109, 0.1621719582624420175 ) ) ;
#270 = ORIENTED_EDGE ( 'NONE', *, *, #680, .F. ) ;
#271 = CARTESIAN_POINT ( 'NONE',  ( 0.000000000000000000, 1.797580517965203573, 51.47597100888742006 ) ) ;
#272 = DIRECTION ( 'NONE',  ( 1.000000000000000000, 6.197137931038768821E-15, 3.367605771896179318E-15 ) ) ;
#273 = CARTESIAN_POINT ( 'NONE',  ( 8.361337934870229915, 17.02725742494386196, 52.65471930531304423 ) ) ;
#274 = ORIENTED_EDGE ( 'NONE', *, *, #512, .F. ) ;
#275 = FACE_OUTER_BOUND ( 'NONE', #505, .T. ) ;
#276 = AXIS2_PLACEMENT_3D ( 'NONE', #416, #861, #112 ) ;
#277 = CARTESIAN_POINT ( 'NONE',  ( 6.541878581031287609, 17.94119151641310594, 48.63530739662706281 ) ) ;
#278 = ORIENTED_EDGE ( 'NONE', *, *, #256, .T. ) ;
#279 = CARTESIAN_POINT ( 'NONE',  ( 106.5646017158032919, 15682.95346494266414, 599.9131518001872792 ) ) ;
#280 = EDGE_CURVE ( 'NONE', #739, #86, #74, .T. ) ;
#281 = CARTESIAN_POINT ( 'NONE',  ( 8.442825247323666460, 18.15851935532467465, 51.16687351972512232 ) ) ;
#282 = EDGE_LOOP ( 'NONE', ( #248, #907 ) ) ;
#283 = CARTESIAN_POINT ( 'NONE',  ( 7.947461985293556630, 17.45736711500363114, 50.93730311257484544 ) ) ;
#284 = FILL_AREA_STYLE ('',( #71 ) ) ;
#285 = CARTESIAN_POINT ( 'NONE',  ( 6.597518165074812480, 17.94076961736933384, 52.49180836550052476 ) ) ;
#286 = EDGE_CURVE ( 'NONE', #354, #620, #664, .T. ) ;
#287 = ORIENTED_EDGE ( 'NONE', *, *, #886, .F. ) ;
#288 = CARTESIAN_POINT ( 'NONE',  ( 6.671525353507695932, 17.77109712963832777, 51.21184879703435655 ) ) ;
#289 = LINE ( 'NONE', #953, #526 ) ;
#290 = PRESENTATION_LAYER_ASSIGNMENT (  '', '', ( #710 ) ) ;
#291 = CIRCLE ( 'NONE', #962, 0.1244999999999976542 ) ;
#292 = AXIS2_PLACEMENT_3D ( 'NONE', #107, #16, #266 ) ;
#293 = CARTESIAN_POINT ( 'NONE',  ( 8.193374259503142909, 18.16132348060733293, 51.14981134858440726 ) ) ;
#294 = CONICAL_SURFACE ( 'NONE', #920, 0.1399999999999976263, 0.04130981886462767316 ) ;
#295 = VERTEX_POINT ( 'NONE', #536 ) ;
#296 = EDGE_CURVE ( 'NONE', #467, #295, #44, .T. ) ;
#297 = DIRECTION ( 'NONE',  ( -1.000000000000000000, -6.197137931038768821E-15, -3.367605771896179318E-15 ) ) ;
#298 = SURFACE_SIDE_STYLE ('',( #370 ) ) ;
#299 = LINE ( 'NONE', #832, #321 ) ;
#300 = ORIENTED_EDGE ( 'NONE', *, *, #153, .F. ) ;
#301 = LINE ( 'NONE', #93, #138 ) ;
#302 = LINE ( 'NONE', #398, #851 ) ;
#303 = ORIENTED_EDGE ( 'NONE', *, *, #799, .F. ) ;
#304 = CARTESIAN_POINT ( 'NONE',  ( 8.156370665286692301, 18.03969451191044016, 51.88988323291340521 ) ) ;
#305 = CARTESIAN_POINT ( 'NONE',  ( 8.119367071070243469, 17.89536146905681591, 52.76810186898375576 ) ) ;
#306 =( BOUNDED_CURVE ( )  B_SPLINE_CURVE ( 3, ( #351, #55, #435, #794 ),
 .UNSPECIFIED., .F., .T. ) 
 B_SPLINE_CURVE_WITH_KNOTS ( ( 4, 4 ),
 ( 5.253739797393406796, 6.289642926124012767 ),
 .UNSPECIFIED. ) 
 CURVE ( )  GEOMETRIC_REPRESENTATION_ITEM ( )  RATIONAL_B_SPLINE_CURVE ( ( 1.000000000000000000, 0.9125567901492948053, 0.9125567901492948053, 1.000000000000000000 ) ) 
 REPRESENTATION_ITEM ( '' )  );
#307 = CIRCLE ( 'NONE', #556, 0.1244999999999976542 ) ;
#308 = VECTOR ( 'NONE', #853, 39.37007874015748143 ) ;
#309 = ORIENTED_EDGE ( 'NONE', *, *, #344, .T. ) ;
#310 = LENGTH_MEASURE_WITH_UNIT ( LENGTH_MEASURE( 0.02539999999999999897 ), #87 );
#311 = ORIENTED_EDGE ( 'NONE', *, *, #63, .T. ) ;
#312 = DIRECTION ( 'NONE',  ( 0.000000000000000000, -0.1621719582624442935, 0.9867625124381874668 ) ) ;
#313 = ADVANCED_FACE ( 'NONE', ( #693 ), #127, .F. ) ;
#314 = VERTEX_POINT ( 'NONE', #622 ) ;
#315 = FACE_OUTER_BOUND ( 'NONE', #673, .T. ) ;
#316 = DIRECTION ( 'NONE',  ( 0.000000000000000000, -0.9867625124381936841, -0.1621719582624069067 ) ) ;
#317 = PRODUCT_DEFINITION_CONTEXT ( 'detailed design', #966, 'design' ) ;
#318 = CARTESIAN_POINT ( 'NONE',  ( 7.916775963932046523, 18.07136113227498697, 50.90767806729584777 ) ) ;
#319 = CYLINDRICAL_SURFACE ( 'NONE', #25, 0.5099999999999987876 ) ;
#320 = CARTESIAN_POINT ( 'NONE',  ( 8.193374259503142909, 18.13861940645059789, 51.28795810032575275 ) ) ;
#321 = VECTOR ( 'NONE', #763, 39.37007874015748854 ) ;
#322 = ORIENTED_EDGE ( 'NONE', *, *, #805, .T. ) ;
#323 = VECTOR ( 'NONE', #555, 39.37007874015748854 ) ;
#324 = CLOSED_SHELL ( 'NONE', ( #72, #53, #15, #267, #773, #670, #698, #644, #945, #873, #518, #102, #812, #941, #627, #737, #879, #540, #261, #603, #313, #597, #705, #552, #762, #352, #557, #842, #963, #823, #31 ) ) ;
#325 = EDGE_CURVE ( 'NONE', #935, #314, #668, .T. ) ;
#326 = EDGE_LOOP ( 'NONE', ( #165, #202, #516, #800 ) ) ;
#327 = CARTESIAN_POINT ( 'NONE',  ( 8.442825247323666460, 18.15851935532467465, 51.16687351972512232 ) ) ;
#328 = VECTOR ( 'NONE', #36, 39.37007874015748854 ) ;
#329 = DIRECTION ( 'NONE',  ( 0.006297178994493900922, 0.9993710116692215983, 0.03489880473523223475 ) ) ;
#330 = DIRECTION ( 'NONE',  ( -0.000000000000000000, 0.9867625124381936841, 0.1621719582624069067 ) ) ;
#331 = ORIENTED_EDGE ( 'NONE', *, *, #877, .F. ) ;
#332 = CARTESIAN_POINT ( 'NONE',  ( 6.634521759291253318, 18.03969451190945250, 51.88988323291304283 ) ) ;
#333 = LINE ( 'NONE', #626, #81 ) ;
#334 = DIRECTION ( 'NONE',  ( 5.057555004264205699E-18, 0.9926180654821482596, 0.1212822166621202596 ) ) ;
#335 = ORIENTED_EDGE ( 'NONE', *, *, #582, .T. ) ;
#336 = DIRECTION ( 'NONE',  ( 0.000000000000000000, -0.1621719582624112088, 0.9867625124381927959 ) ) ;
#337 = EDGE_CURVE ( 'NONE', #188, #237, #590, .T. ) ;
#338 =( BOUNDED_CURVE ( )  B_SPLINE_CURVE ( 3, ( #121, #273, #878, #491 ),
 .UNSPECIFIED., .F., .T. ) 
 B_SPLINE_CURVE_WITH_KNOTS ( ( 4, 4 ),
 ( 4.712388980384267789, 5.254272989638438141 ),
 .UNSPECIFIED. ) 
 CURVE ( )  GEOMETRIC_REPRESENTATION_ITEM ( )  RATIONAL_B_SPLINE_CURVE ( ( 1.000000000000000000, 0.9756794710290220829, 0.9756794710290220829, 1.000000000000000000 ) ) 
 REPRESENTATION_ITEM ( '' )  );
#339 = ORIENTED_EDGE ( 'NONE', *, *, #886, .T. ) ;
#340 = AXIS2_PLACEMENT_3D ( 'NONE', #776, #269, #563 ) ;
#341 = EDGE_LOOP ( 'NONE', ( #177, #538, #583, #754 ) ) ;
#342 = CARTESIAN_POINT ( 'NONE',  ( 6.597518165074812480, 17.54802960104827747, 52.56914063289347183 ) ) ;
#343 = AXIS2_PLACEMENT_3D ( 'NONE', #64, #578, #58 ) ;
#344 = EDGE_CURVE ( 'NONE', #659, #113, #299, .T. ) ;
#345 = CARTESIAN_POINT ( 'NONE',  ( 6.671525353507695932, 18.18402755476305899, 51.01166459684286281 ) ) ;
#346 = VERTEX_POINT ( 'NONE', #394 ) ;
#347 = CARTESIAN_POINT ( 'NONE',  ( 8.369165058659952194, 17.91640198886614854, 52.64007729299957816 ) ) ;
#348 = DIRECTION ( 'NONE',  ( -0.04927818435185517265, -0.1619749342972603701, 0.9855636870372115332 ) ) ;
#349 = DIRECTION ( 'NONE',  ( -0.04927818435185517265, -0.1619749342972603701, 0.9855636870372115332 ) ) ;
#350 = EDGE_LOOP ( 'NONE', ( #922, #682, #300, #117, #489 ) ) ;
#351 = CARTESIAN_POINT ( 'NONE',  ( 8.399815242831062179, 17.28973829811055296, 51.05761035597543440 ) ) ;
#352 = ADVANCED_FACE ( 'NONE', ( #219 ), #520, .T. ) ;
#353 = CARTESIAN_POINT ( 'NONE',  ( 6.937391334298492751, 17.54455449161667957, 51.04871197841920605 ) ) ;
#354 = VERTEX_POINT ( 'NONE', #399 ) ;
#355 = CARTESIAN_POINT ( 'NONE',  ( 107.2761573713060557, 15683.64375354812546, 595.6936954915654496 ) ) ;
#356 = AXIS2_PLACEMENT_3D ( 'NONE', #566, #641, #265 ) ;
#357 = EDGE_CURVE ( 'NONE', #246, #402, #547, .T. ) ;
#358 = CARTESIAN_POINT ( 'NONE',  ( -7.542295778505394566, -307.6228697875961302, 284.4214529170723722 ) ) ;
#359 = CIRCLE ( 'NONE', #543, 0.1244999999999976542 ) ;
#360 = CARTESIAN_POINT ( 'NONE',  ( 8.156370665286692301, 18.01689313457874420, 52.02862204216221897 ) ) ;
#361 = ORIENTED_EDGE ( 'NONE', *, *, #204, .T. ) ;
#362 = DIRECTION ( 'NONE',  ( -0.04862741781209446029, 0.000000000000000000, 0.9988169873590094783 ) ) ;
#363 = LINE ( 'NONE', #345, #837 ) ;
#364 = ORIENTED_EDGE ( 'NONE', *, *, #280, .F. ) ;
#365 = LINE ( 'NONE', #660, #247 ) ;
#366 = EDGE_CURVE ( 'NONE', #149, #376, #255, .T. ) ;
#367 = LINE ( 'NONE', #593, #819 ) ;
#368 = ORIENTED_EDGE ( 'NONE', *, *, #76, .T. ) ;
#369 = CARTESIAN_POINT ( 'NONE',  ( -11480.07014618140238, 17.94119151689202241, 48.63530739664391689 ) ) ;
#370 = SURFACE_STYLE_FILL_AREA ( #284 ) ;
#371 = AXIS2_PLACEMENT_3D ( 'NONE', #293, #14, #772 ) ;
#372 = CIRCLE ( 'NONE', #695, 0.1405999999999993921 ) ;
#373 = DIRECTION ( 'NONE',  ( 0.000000000000000000, -0.1621719582624161216, 0.9867625124381921298 ) ) ;
#374 = VECTOR ( 'NONE', #809, 39.37007874015748143 ) ;
#375 = EDGE_CURVE ( 'NONE', #958, #786, #496, .T. ) ;
#376 = VERTEX_POINT ( 'NONE', #706 ) ;
#377 = CARTESIAN_POINT ( 'NONE',  ( 6.634521759291253318, 18.03969451190945250, 51.88988323291304283 ) ) ;
#378 = DIRECTION ( 'NONE',  ( 0.000000000000000000, 0.1621719582624068789, -0.9867625124381934620 ) ) ;
#379 = VERTEX_POINT ( 'NONE', #494 ) ;
#380 = DIRECTION ( 'NONE',  ( 0.000000000000000000, -0.1621719582624396305, 0.9867625124381881330 ) ) ;
#381 = EDGE_CURVE ( 'NONE', #376, #402, #424, .T. ) ;
#382 = FACE_OUTER_BOUND ( 'NONE', #833, .T. ) ;
#383 = ORIENTED_EDGE ( 'NONE', *, *, #286, .F. ) ;
#384 = DIRECTION ( 'NONE',  ( 0.000000000000000000, -0.1621719582624161216, 0.9867625124381921298 ) ) ;
#385 = ORIENTED_EDGE ( 'NONE', *, *, #512, .T. ) ;
#386 = DIRECTION ( 'NONE',  ( -0.006297178994490763675, -0.9993710116692215983, -0.03489880473523634952 ) ) ;
#387 = EDGE_CURVE ( 'NONE', #188, #224, #411, .T. ) ;
#388 = CIRCLE ( 'NONE', #948, 0.1399999999999976263 ) ;
#389 = CIRCLE ( 'NONE', #749, 0.1405999999999993921 ) ;
#390 = ORIENTED_EDGE ( 'NONE', *, *, #780, .T. ) ;
#391 =( NAMED_UNIT ( * ) PLANE_ANGLE_UNIT ( ) SI_UNIT ( $, .RADIAN. ) );
#392 = ORIENTED_EDGE ( 'NONE', *, *, #126, .T. ) ;
#393 = CARTESIAN_POINT ( 'NONE',  ( -11480.07014618054382, 18.57096159510571809, 48.65729945237800536 ) ) ;
#394 = CARTESIAN_POINT ( 'NONE',  ( 8.321431281460958118, 17.01395277511565141, 52.73567368134856537 ) ) ;
#395 = EDGE_CURVE ( 'NONE', #708, #598, #333, .T. ) ;
#396 = DIRECTION ( 'NONE',  ( -0.000000000000000000, 0.9867625124381936841, 0.1621719582624069067 ) ) ;
#397 = LINE ( 'NONE', #746, #896 ) ;
#398 = CARTESIAN_POINT ( 'NONE',  ( 160.0453135756219751, 15645.06014068687182, -494.5365558689999261 ) ) ;
#399 = CARTESIAN_POINT ( 'NONE',  ( 8.193374259503142909, 18.18402755476407151, 51.01166459684306176 ) ) ;
#400 = EDGE_CURVE ( 'NONE', #793, #659, #642, .T. ) ;
#401 = DIRECTION ( 'NONE',  ( -0.000000000000000000, 0.9867625124381936841, 0.1621719582624068789 ) ) ;
#402 = VERTEX_POINT ( 'NONE', #186 ) ;
#403 = DIRECTION ( 'NONE',  ( -0.000000000000000000, 0.9867625124381936841, 0.1621719582624069067 ) ) ;
#404 = DIRECTION ( 'NONE',  ( -0.000000000000000000, 0.9867625124381936841, 0.1621719582624069067 ) ) ;
#405 = VECTOR ( 'NONE', #748, 39.37007874015748143 ) ;
#406 = CARTESIAN_POINT ( 'NONE',  ( -11480.07014618140238, 17.54455449210659879, 51.04871197840210328 ) ) ;
#407 = VECTOR ( 'NONE', #231, 39.37007874015748143 ) ;
#408 = CIRCLE ( 'NONE', #950, 0.1244999999999976542 ) ;
#409 = VERTEX_POINT ( 'NONE', #631 ) ;
#410 = DIRECTION ( 'NONE',  ( 0.000000000000000000, -0.1621719582624140399, 0.9867625124381925739 ) ) ;
#411 = LINE ( 'NONE', #716, #328 ) ;
#412 =( BOUNDED_CURVE ( )  B_SPLINE_CURVE ( 3, ( #787, #923, #850, #347 ),
 .UNSPECIFIED., .F., .T. ) 
 B_SPLINE_CURVE_WITH_KNOTS ( ( 4, 4 ),
 ( 0.04889462375535903738, 1.570796326798141074 ),
 .UNSPECIFIED. ) 
 CURVE ( )  GEOMETRIC_REPRESENTATION_ITEM ( )  RATIONAL_B_SPLINE_CURVE ( ( 1.000000000000000000, 0.8161204141110474097, 0.8161204141110474097, 1.000000000000000000 ) ) 
 REPRESENTATION_ITEM ( '' )  );
#413 = ORIENTED_EDGE ( 'NONE', *, *, #653, .F. ) ;
#414 = VERTEX_POINT ( 'NONE', #858 ) ;
#415 = DIRECTION ( 'NONE',  ( 0.000000000000000000, 0.9993908270190957621, 0.03489949670250167696 ) ) ;
#416 = CARTESIAN_POINT ( 'NONE',  ( 8.119367071070243469, 17.91806554321355449, 52.62995511724241737 ) ) ;
#417 = EDGE_LOOP ( 'NONE', ( #235, #460, #554, #899 ) ) ;
#418 = ORIENTED_EDGE ( 'NONE', *, *, #37, .F. ) ;
#419 = DIRECTION ( 'NONE',  ( 0.000000000000000000, -0.1621719582624112088, 0.9867625124381927959 ) ) ;
#420 = CARTESIAN_POINT ( 'NONE',  ( 8.450470989039903458, 18.18365052702495532, 51.01395868539025713 ) ) ;
#421 = CIRCLE ( 'NONE', #602, 0.1244999999999976542 ) ;
#422 = VERTEX_POINT ( 'NONE', #190 ) ;
#423 = CARTESIAN_POINT ( 'NONE',  ( 107.0802703911386828, 15683.50527685042107, 599.6944953445391775 ) ) ;
#424 = LINE ( 'NONE', #551, #152 ) ;
#425 = CARTESIAN_POINT ( 'NONE',  ( 8.363609479389005230, 17.03472387848717062, 52.60928841494112618 ) ) ;
#426 = EDGE_LOOP ( 'NONE', ( #559, #863, #303, #104, #718 ) ) ;
#427 = CARTESIAN_POINT ( 'NONE',  ( 8.156370665286692301, 18.03969451191044016, 51.88988323291340521 ) ) ;
#428 = LINE ( 'NONE', #720, #745 ) ;
#429 = EDGE_CURVE ( 'NONE', #510, #118, #568, .T. ) ;
#430 = ORIENTED_EDGE ( 'NONE', *, *, #90, .T. ) ;
#431 = CARTESIAN_POINT ( 'NONE',  ( 8.119367071070243469, 17.91806554321355449, 52.62995511724241737 ) ) ;
#432 = MANIFOLD_SOLID_BREP ( 'Chamfer1', #324 ) ;
#433 = CARTESIAN_POINT ( 'NONE',  ( 6.861929473542255131, 17.30322813644402657, 52.78454205889783424 ) ) ;
#434 = ORIENTED_EDGE ( 'NONE', *, *, #357, .F. ) ;
#435 = CARTESIAN_POINT ( 'NONE',  ( 8.276936480570684651, 17.46935327158452367, 50.92870064503139815 ) ) ;
#436 = AXIS2_PLACEMENT_3D ( 'NONE', #560, #403, #47 ) ;
#437 = CARTESIAN_POINT ( 'NONE',  ( 8.119266188453895694, 17.87752255364108223, 52.87664574535040174 ) ) ;
#438 = VERTEX_POINT ( 'NONE', #67 ) ;
#439 = CARTESIAN_POINT ( 'NONE',  ( -11480.07014618063295, 17.28973829803234352, 51.05761035597812736 ) ) ;
#440 = CARTESIAN_POINT ( 'NONE',  ( 8.119367071070243469, 17.56822000985290089, 52.44628870009545807 ) ) ;
#441 = CARTESIAN_POINT ( 'NONE',  ( 6.597518165074812480, 17.91806554321259881, 52.62995511724187025 ) ) ;
#442 = ORIENTED_EDGE ( 'NONE', *, *, #711, .F. ) ;
#443 = CARTESIAN_POINT ( 'NONE',  ( 8.119367071070243469, 17.94076961737028952, 52.49180836550107188 ) ) ;
#444 = PRESENTATION_STYLE_ASSIGNMENT (( #882 ) ) ;
#445 =( BOUNDED_CURVE ( )  B_SPLINE_CURVE ( 3, ( #648, #949, #433, #725 ),
 .UNSPECIFIED., .F., .F. ) 
 B_SPLINE_CURVE_WITH_KNOTS ( ( 4, 4 ),
 ( 0.9970321021740613521, 1.259427563423928031 ),
 .UNSPECIFIED. ) 
 CURVE ( )  GEOMETRIC_REPRESENTATION_ITEM ( )  RATIONAL_B_SPLINE_CURVE ( ( 1.000000000000000000, 0.9942706104949985413, 0.9942706104949985413, 1.000000000000000000 ) ) 
 REPRESENTATION_ITEM ( '' )  );
#446 = DIRECTION ( 'NONE',  ( 0.000000000000000000, -0.1621719582624112088, 0.9867625124381927959 ) ) ;
#447 = ORIENTED_EDGE ( 'NONE', *, *, #147, .T. ) ;
#448 = CARTESIAN_POINT ( 'NONE',  ( 7.855855397777474103, 17.73896902484015925, 52.87180734950856476 ) ) ;
#449 = LINE ( 'NONE', #279, #405 ) ;
#450 = CIRCLE ( 'NONE', #22, 0.1406000000000001138 ) ;
#451 = AXIS2_PLACEMENT_3D ( 'NONE', #767, #458, #312 ) ;
#452 = CONICAL_SURFACE ( 'NONE', #652, 0.1399999999999976263, 0.04130981886462767316 ) ;
#453 = EDGE_CURVE ( 'NONE', #459, #473, #450, .T. ) ;
#454 = ORIENTED_EDGE ( 'NONE', *, *, #174, .T. ) ;
#455 = FACE_BOUND ( 'NONE', #529, .T. ) ;
#456 = ORIENTED_EDGE ( 'NONE', *, *, #723, .T. ) ;
#457 = EDGE_CURVE ( 'NONE', #793, #237, #449, .T. ) ;
#458 = DIRECTION ( 'NONE',  ( -6.661234617442108583E-15, 0.9867625124381882440, 0.1621719582624396583 ) ) ;
#459 = VERTEX_POINT ( 'NONE', #508 ) ;
#460 = ORIENTED_EDGE ( 'NONE', *, *, #855, .F. ) ;
#461 = CARTESIAN_POINT ( 'NONE',  ( 7.947333793124684576, 17.46935327158001883, 50.92870064503139815 ) ) ;
#462 = EDGE_CURVE ( 'NONE', #402, #6, #946, .T. ) ;
#463 = CARTESIAN_POINT ( 'NONE',  ( 6.597518165074812480, 17.91806554321259881, 52.62995511724187025 ) ) ;
#464 = AXIS2_PLACEMENT_3D ( 'NONE', #638, #495, #134 ) ;
#465 = AXIS2_PLACEMENT_3D ( 'NONE', #185, #499, #493 ) ;
#466 = VECTOR ( 'NONE', #658, 39.37007874015748143 ) ;
#467 = VERTEX_POINT ( 'NONE', #440 ) ;
#468 = DIRECTION ( 'NONE',  ( 0.000000000000000000, -0.9867625124381936841, -0.1621719582624069067 ) ) ;
#469 = APPLICATION_CONTEXT ( 'automotive_design' ) ;
#470 = DIRECTION ( 'NONE',  ( 0.000000000000000000, 0.03489949670545636901, 0.9993908270189925114 ) ) ;
#471 = EDGE_CURVE ( 'NONE', #422, #155, #289, .T. ) ;
#472 = FACE_OUTER_BOUND ( 'NONE', #562, .T. ) ;
#473 = VERTEX_POINT ( 'NONE', #587 ) ;
#474 = FACE_OUTER_BOUND ( 'NONE', #701, .T. ) ;
#475 = DIRECTION ( 'NONE',  ( 5.057555004264205699E-18, 0.9926180654821482596, 0.1212822166621202596 ) ) ;
#476 = CARTESIAN_POINT ( 'NONE',  ( 6.671525353507695932, 18.16132348060632040, 51.14981134858420830 ) ) ;
#477 = VERTEX_POINT ( 'NONE', #218 ) ;
#478 = CARTESIAN_POINT ( 'NONE',  ( 6.634521759291253318, 18.03969451190945250, 51.88988323291304283 ) ) ;
#479 = AXIS2_PLACEMENT_3D ( 'NONE', #271, #857, #692 ) ;
#480 = CARTESIAN_POINT ( 'NONE',  ( 7.014247550869948000, 17.72416946508635149, 50.91980226747519822 ) ) ;
#481 =( GEOMETRIC_REPRESENTATION_CONTEXT ( 3 ) GLOBAL_UNCERTAINTY_ASSIGNED_CONTEXT ( ( #684 ) ) GLOBAL_UNIT_ASSIGNED_CONTEXT ( ( #605, #391, #33 ) ) REPRESENTATION_CONTEXT ( 'NONE', 'WORKASPACE' ) );
#482 = DIRECTION ( 'NONE',  ( 0.000000000000000000, 0.000000000000000000, 1.000000000000000000 ) ) ;
#483 = AXIS2_PLACEMENT_3D ( 'NONE', #781, #482, #854 ) ;
#484 = AXIS2_PLACEMENT_3D ( 'NONE', #628, #187, #765 ) ;
#485 = ORIENTED_EDGE ( 'NONE', *, *, #901, .T. ) ;
#486 = FACE_OUTER_BOUND ( 'NONE', #184, .T. ) ;
#487 = LINE ( 'NONE', #277, #26 ) ;
#488 = EDGE_CURVE ( 'NONE', #770, #39, #577, .T. ) ;
#489 = ORIENTED_EDGE ( 'NONE', *, *, #612, .F. ) ;
#490 = CARTESIAN_POINT ( 'NONE',  ( 6.671525353507695932, 17.79128753844199906, 51.08899686423580278 ) ) ;
#491 = CARTESIAN_POINT ( 'NONE',  ( 8.321431281460958118, 17.01395277511565141, 52.73567368134856537 ) ) ;
#492 = ORIENTED_EDGE ( 'NONE', *, *, #582, .F. ) ;
#493 = DIRECTION ( 'NONE',  ( 0.000000000000000000, -0.1621719582624161216, 0.9867625124381921298 ) ) ;
#494 = CARTESIAN_POINT ( 'NONE',  ( 6.852603408036914701, 17.26586080665133593, 52.74447050365096601 ) ) ;
#495 = DIRECTION ( 'NONE',  ( -0.000000000000000000, 0.9867625124381936841, 0.1621719582624068789 ) ) ;
#496 = CIRCLE ( 'NONE', #276, 0.1399999999999976263 ) ;
#497 = AXIS2_PLACEMENT_3D ( 'NONE', #478, #110, #410 ) ;
#498 = EDGE_LOOP ( 'NONE', ( #270, #904 ) ) ;
#499 = DIRECTION ( 'NONE',  ( -0.000000000000000000, 0.9867625124381936841, 0.1621719582624069067 ) ) ;
#500 = PRODUCT_DEFINITION_FORMATION_WITH_SPECIFIED_SOURCE ( 'ANY', '', #589, .NOT_KNOWN. ) ;
#501 = EDGE_CURVE ( 'NONE', #379, #916, #519, .T. ) ;
#502 = ORIENTED_EDGE ( 'NONE', *, *, #462, .T. ) ;
#503 = PLANE ( 'NONE',  #867 ) ;
#504 = DIRECTION ( 'NONE',  ( 0.000000000000000000, -0.1621719582624112088, 0.9867625124381927959 ) ) ;
#505 = EDGE_LOOP ( 'NONE', ( #274, #212, #733, #810 ) ) ;
#506 = DIRECTION ( 'NONE',  ( 0.000000000000000000, -0.1621719582624161216, 0.9867625124381921298 ) ) ;
#507 =( BOUNDED_CURVE ( )  B_SPLINE_CURVE ( 3, ( #820, #448, #79, #163 ),
 .UNSPECIFIED., .F., .F. ) 
 B_SPLINE_CURVE_WITH_KNOTS ( ( 4, 4 ),
 ( 0.000000000000000000, 0.8809069568030232222 ),
 .UNSPECIFIED. ) 
 CURVE ( )  GEOMETRIC_REPRESENTATION_ITEM ( )  RATIONAL_B_SPLINE_CURVE ( ( 1.000000000000000000, 0.4852533743863820526, 0.4239506322666813931, 0.8160917736408981327 ) ) 
 REPRESENTATION_ITEM ( '' )  );
#508 = CARTESIAN_POINT ( 'NONE',  ( 6.634521759291253318, 17.40016656429587272, 51.92726456824652814 ) ) ;
#509 = CARTESIAN_POINT ( 'NONE',  ( 8.434173008077454625, 17.26666267804774790, 51.19801784117200327 ) ) ;
#510 = VERTEX_POINT ( 'NONE', #4 ) ;
#511 = LINE ( 'NONE', #665, #586 ) ;
#512 = EDGE_CURVE ( 'NONE', #739, #422, #527, .T. ) ;
#513 = CONICAL_SURFACE ( 'NONE', #436, 0.1399999999999976263, 0.04130981886462767316 ) ;
#514 = CONICAL_SURFACE ( 'NONE', #729, 0.1399999999999976263, 0.04130981886462767316 ) ;
#515 = DIRECTION ( 'NONE',  ( 0.000000000000000000, 0.9792232874999184933, 0.2027849925853784929 ) ) ;
#516 = ORIENTED_EDGE ( 'NONE', *, *, #256, .F. ) ;
#517 = DIRECTION ( 'NONE',  ( -0.04927818435185517265, -0.1619749342972603701, 0.9855636870372115332 ) ) ;
#518 = ADVANCED_FACE ( 'NONE', ( #596, #917, #757, #238, #455, #89, #95 ), #771, .F. ) ;
#519 = LINE ( 'NONE', #541, #227 ) ;
#520 = CYLINDRICAL_SURFACE ( 'NONE', #764, 0.2499999999994975686 ) ;
#521 = ORIENTED_EDGE ( 'NONE', *, *, #736, .T. ) ;
#522 = DIRECTION ( 'NONE',  ( 0.000000000000000000, -0.1621719582624140399, 0.9867625124381925739 ) ) ;
#523 = EDGE_LOOP ( 'NONE', ( #943, #521 ) ) ;
#524 = DIRECTION ( 'NONE',  ( 0.000000000000000000, -0.1621719582624140399, 0.9867625124381925739 ) ) ;
#525 = FACE_OUTER_BOUND ( 'NONE', #676, .T. ) ;
#526 = VECTOR ( 'NONE', #735, 39.37007874015748854 ) ;
#527 = CIRCLE ( 'NONE', #111, 0.1406000000000001138 ) ;
#528 = EDGE_CURVE ( 'NONE', #620, #354, #931, .T. ) ;
#529 = EDGE_LOOP ( 'NONE', ( #758, #924 ) ) ;
#530 = DIRECTION ( 'NONE',  ( 1.000000000000000000, -4.264963232341594122E-14, 1.489357979273765752E-15 ) ) ;
#531 = FACE_OUTER_BOUND ( 'NONE', #951, .T. ) ;
#532 = ORIENTED_EDGE ( 'NONE', *, *, #877, .T. ) ;
#533 = FACE_OUTER_BOUND ( 'NONE', #34, .T. ) ;
#534 = DIMENSIONAL_EXPONENTS ( 1.000000000000000000, 0.000000000000000000, 0.000000000000000000, 0.000000000000000000, 0.000000000000000000, 0.000000000000000000, 0.000000000000000000 ) ;
#535 = DIRECTION ( 'NONE',  ( 0.000000000000000000, 0.03489949670545636901, -0.9993908270189925114 ) ) ;
#536 = CARTESIAN_POINT ( 'NONE',  ( 8.119367071070243469, 17.52783919224556186, 52.69199256569256562 ) ) ;
#537 =( BOUNDED_CURVE ( )  B_SPLINE_CURVE ( 3, ( #952, #740, #956, #70 ),
 .UNSPECIFIED., .F., .T. ) 
 B_SPLINE_CURVE_WITH_KNOTS ( ( 4, 4 ),
 ( 3.135295557830405144, 4.115313251620813517 ),
 .UNSPECIFIED. ) 
 CURVE ( )  GEOMETRIC_REPRESENTATION_ITEM ( )  RATIONAL_B_SPLINE_CURVE ( ( 1.000000000000000000, 0.9215524633317864200, 0.9215524633317864200, 1.000000000000000000 ) ) 
 REPRESENTATION_ITEM ( '' )  );
#538 = ORIENTED_EDGE ( 'NONE', *, *, #639, .F. ) ;
#539 = FACE_BOUND ( 'NONE', #579, .T. ) ;
#540 = ADVANCED_FACE ( 'NONE', ( #525 ), #672, .F. ) ;
#541 = CARTESIAN_POINT ( 'NONE',  ( -11480.07014618140238, 17.26586080714157134, 52.74447050363189504 ) ) ;
#542 = CARTESIAN_POINT ( 'NONE',  ( 7.851966518194381628, 17.12179845903945719, 52.85025527844342719 ) ) ;
#543 = AXIS2_PLACEMENT_3D ( 'NONE', #208, #890, #801 ) ;
#544 = DIRECTION ( 'NONE',  ( 0.000000000000000000, -0.1621719582624140399, 0.9867625124381925739 ) ) ;
#545 = ORIENTED_EDGE ( 'NONE', *, *, #938, .F. ) ;
#546 = FACE_OUTER_BOUND ( 'NONE', #629, .T. ) ;
#547 = LINE ( 'NONE', #841, #960 ) ;
#548 = DIRECTION ( 'NONE',  ( 0.000000000000000000, -0.1621719582624161216, 0.9867625124381921298 ) ) ;
#549 = ORIENTED_EDGE ( 'NONE', *, *, #97, .F. ) ;
#550 = DIRECTION ( 'NONE',  ( 0.000000000000000000, -0.1621719582624112088, 0.9867625124381927959 ) ) ;
#551 = CARTESIAN_POINT ( 'NONE',  ( 158.0356568374090500, 15645.06356775664608, -494.7989146295589649 ) ) ;
#552 = ADVANCED_FACE ( 'NONE', ( #546 ), #166, .F. ) ;
#553 = ORIENTED_EDGE ( 'NONE', *, *, #969, .T. ) ;
#554 = ORIENTED_EDGE ( 'NONE', *, *, #723, .F. ) ;
#555 = DIRECTION ( 'NONE',  ( -0.006297178994490761940, -0.9993710116692213763, -0.03489880473523634258 ) ) ;
#556 = AXIS2_PLACEMENT_3D ( 'NONE', #342, #636, #550 ) ;
#557 = ADVANCED_FACE ( 'NONE', ( #683 ), #835, .T. ) ;
#558 = ORIENTED_EDGE ( 'NONE', *, *, #730, .F. ) ;
#559 = ORIENTED_EDGE ( 'NONE', *, *, #742, .F. ) ;
#560 = CARTESIAN_POINT ( 'NONE',  ( 8.193374259503142909, 18.16132348060733293, 51.14981134858440726 ) ) ;
#561 = LINE ( 'NONE', #406, #308 ) ;
#562 = EDGE_LOOP ( 'NONE', ( #413, #392, #928, #967 ) ) ;
#563 = DIRECTION ( 'NONE',  ( 0.000000000000000000, -0.1621719582624442935, 0.9867625124381874668 ) ) ;
#564 = LINE ( 'NONE', #128, #466 ) ;
#565 = EDGE_LOOP ( 'NONE', ( #714, #875 ) ) ;
#566 = CARTESIAN_POINT ( 'NONE',  ( 106.7755690304516349, 15683.64690398427047, 595.6938055072198495 ) ) ;
#567 = EDGE_CURVE ( 'NONE', #295, #958, #178, .T. ) ;
#568 = LINE ( 'NONE', #865, #41 ) ;
#569 = DIRECTION ( 'NONE',  ( -0.009695013075862594573, -0.9993438579051868720, 0.03489785650490009189 ) ) ;
#570 = CIRCLE ( 'NONE', #465, 0.1399999999999976263 ) ;
#571 = ORIENTED_EDGE ( 'NONE', *, *, #680, .T. ) ;
#572 = CARTESIAN_POINT ( 'NONE',  ( 7.407618204931790906, 17.37267632817869867, 52.85901612668193650 ) ) ;
#573 = EDGE_CURVE ( 'NONE', #422, #739, #804, .T. ) ;
#574 = DIRECTION ( 'NONE',  ( 0.000000000000000000, -0.1621719582624161216, 0.9867625124381921298 ) ) ;
#575 = ORIENTED_EDGE ( 'NONE', *, *, #915, .F. ) ;
#576 = DIRECTION ( 'NONE',  ( -0.04927818435185517265, -0.1619749342972603701, 0.9855636870372115332 ) ) ;
#577 = LINE ( 'NONE', #802, #108 ) ;
#578 = DIRECTION ( 'NONE',  ( -0.000000000000000000, 0.9867625124381936841, 0.1621719582624069067 ) ) ;
#579 = EDGE_LOOP ( 'NONE', ( #91, #385 ) ) ;
#580 = CYLINDRICAL_SURFACE ( 'NONE', #199, 0.1405999999999993921 ) ;
#581 = CARTESIAN_POINT ( 'NONE',  ( 8.033715387857503387, 1.719737330419172983, 51.47868935289621817 ) ) ;
#582 = EDGE_CURVE ( 'NONE', #594, #82, #249, .T. ) ;
#583 = ORIENTED_EDGE ( 'NONE', *, *, #488, .T. ) ;
#584 = AXIS2_PLACEMENT_3D ( 'NONE', #101, #27, #244 ) ;
#585 = FACE_OUTER_BOUND ( 'NONE', #129, .T. ) ;
#586 = VECTOR ( 'NONE', #576, 39.37007874015748854 ) ;
#587 = CARTESIAN_POINT ( 'NONE',  ( 6.634521759291253318, 17.44576931895927174, 51.64978694974890772 ) ) ;
#588 = AXIS2_PLACEMENT_3D ( 'NONE', #825, #766, #384 ) ;
#589 = PRODUCT ( 'module top plate block 1', 'module top plate block 1', '', ( #934 ) ) ;
#590 = LINE ( 'NONE', #888, #649 ) ;
#591 = EDGE_LOOP ( 'NONE', ( #830, #442, #699, #2 ) ) ;
#592 = PLANE ( 'NONE',  #747 ) ;
#593 = CARTESIAN_POINT ( 'NONE',  ( 8.193374259503142909, 18.18402755476407151, 51.01166459684306176 ) ) ;
#594 = VERTEX_POINT ( 'NONE', #13 ) ;
#595 = CARTESIAN_POINT ( 'NONE',  ( 6.937391334298492751, 17.54455449161667957, 51.04871197841920605 ) ) ;
#596 = FACE_BOUND ( 'NONE', #565, .T. ) ;
#597 = ADVANCED_FACE ( 'NONE', ( #531 ), #100, .F. ) ;
#598 = VERTEX_POINT ( 'NONE', #609 ) ;
#599 = CARTESIAN_POINT ( 'NONE',  ( 6.331698429364646330, 17.37267632817996699, 52.85901612668220650 ) ) ;
#600 = ORIENTED_EDGE ( 'NONE', *, *, #234, .T. ) ;
#601 = PLANE ( 'NONE',  #884 ) ;
#602 = AXIS2_PLACEMENT_3D ( 'NONE', #490, #105, #783 ) ;
#603 = ADVANCED_FACE ( 'NONE', ( #382 ), #601, .F. ) ;
#604 = VERTEX_POINT ( 'NONE', #831 ) ;
#605 =( CONVERSION_BASED_UNIT ( 'INCH', #310 ) LENGTH_UNIT ( ) NAMED_UNIT ( #681 ) );
#606 = ORIENTED_EDGE ( 'NONE', *, *, #337, .T. ) ;
#607 = DIRECTION ( 'NONE',  ( 0.000000000000000000, 0.1621719582624068789, -0.9867625124381934620 ) ) ;
#608 = VERTEX_POINT ( 'NONE', #461 ) ;
#609 = CARTESIAN_POINT ( 'NONE',  ( 8.369165058659952194, 17.91640198886614854, 52.64007729299957816 ) ) ;
#610 = DIRECTION ( 'NONE',  ( -0.000000000000000000, 0.9867625124381934620, 0.1621719582624068512 ) ) ;
#611 = CARTESIAN_POINT ( 'NONE',  ( 7.947333793124684576, 17.46935327158001883, 50.92870064503139815 ) ) ;
#612 = EDGE_CURVE ( 'NONE', #594, #708, #302, .T. ) ;
#613 = PLANE ( 'NONE',  #77 ) ;
#614 = EDGE_LOOP ( 'NONE', ( #796, #502, #368, #456, #769, #331 ) ) ;
#615 = CARTESIAN_POINT ( 'NONE',  ( 8.193374259503142909, 17.81147794724668287, 50.96614493143745506 ) ) ;
#616 = VECTOR ( 'NONE', #661, 39.37007874015748854 ) ;
#617 = AXIS2_PLACEMENT_3D ( 'NONE', #116, #630, #336 ) ;
#618 = VECTOR ( 'NONE', #272, 39.37007874015748143 ) ;
#619 = ORIENTED_EDGE ( 'NONE', *, *, #375, .T. ) ;
#620 = VERTEX_POINT ( 'NONE', #320 ) ;
#621 = DIRECTION ( 'NONE',  ( -0.03013542484105275268, 0.6816886134213423487, 0.7310215390132747126 ) ) ;
#622 = CARTESIAN_POINT ( 'NONE',  ( 6.597518165074812480, 17.89536146905586378, 52.76810186898321575 ) ) ;
#623 = VERTEX_POINT ( 'NONE', #615 ) ;
#624 = ORIENTED_EDGE ( 'NONE', *, *, #366, .T. ) ;
#625 = CARTESIAN_POINT ( 'NONE',  ( 6.671525353507695932, 18.18402755476305543, 51.01166459684286281 ) ) ;
#626 = CARTESIAN_POINT ( 'NONE',  ( 8.568303950690760118, 18.57096159525118395, 48.65729945238297205 ) ) ;
#627 = ADVANCED_FACE ( 'NONE', ( #474 ), #715, .F. ) ;
#628 = CARTESIAN_POINT ( 'NONE',  ( 8.119367071070243469, 17.91806554321355449, 52.62995511724241737 ) ) ;
#629 = EDGE_LOOP ( 'NONE', ( #600, #252 ) ) ;
#630 = DIRECTION ( 'NONE',  ( -0.000000000000000000, 0.9867625124381936841, 0.1621719582624069067 ) ) ;
#631 = CARTESIAN_POINT ( 'NONE',  ( 6.334879537290383666, 17.87752255364106091, 52.87664574535040174 ) ) ;
#632 = VECTOR ( 'NONE', #621, 39.37007874015748854 ) ;
#633 = EDGE_CURVE ( 'NONE', #598, #82, #790, .T. ) ;
#634 = ORIENTED_EDGE ( 'NONE', *, *, #805, .F. ) ;
#635 = ORIENTED_EDGE ( 'NONE', *, *, #286, .T. ) ;
#636 = DIRECTION ( 'NONE',  ( -0.000000000000000000, 0.9867625124381936841, 0.1621719582624069067 ) ) ;
#637 =( BOUNDED_CURVE ( )  B_SPLINE_CURVE ( 3, ( #595, #687, #99, #225 ),
 .UNSPECIFIED., .F., .F. ) 
 B_SPLINE_CURVE_WITH_KNOTS ( ( 4, 4 ),
 ( 1.769178787378058892, 2.105876312054028698 ),
 .UNSPECIFIED. ) 
 CURVE ( )  GEOMETRIC_REPRESENTATION_ITEM ( )  RATIONAL_B_SPLINE_CURVE ( ( 1.000000000000000000, 0.9905751889391469778, 0.9905751889391469778, 1.000000000000000000 ) ) 
 REPRESENTATION_ITEM ( '' )  );
#638 = CARTESIAN_POINT ( 'NONE',  ( 6.634521759291253318, 18.03969451190945250, 51.88988323291304283 ) ) ;
#639 = EDGE_CURVE ( 'NONE', #770, #61, #726, .T. ) ;
#640 = ORIENTED_EDGE ( 'NONE', *, *, #387, .T. ) ;
#641 = DIRECTION ( 'NONE',  ( 0.9987850922730998615, -0.007991539655993607286, 0.04862586499942294499 ) ) ;
#642 = LINE ( 'NONE', #930, #618 ) ;
#643 = CARTESIAN_POINT ( 'NONE',  ( 8.436651063528071148, 17.27480792272583088, 51.14845673215612720 ) ) ;
#644 = ADVANCED_FACE ( 'NONE', ( #486 ), #182, .F. ) ;
#645 = ORIENTED_EDGE ( 'NONE', *, *, #325, .T. ) ;
#646 = DIRECTION ( 'NONE',  ( -0.000000000000000000, 0.9867625124381936841, 0.1621719582624068789 ) ) ;
#647 =( LENGTH_UNIT ( ) NAMED_UNIT ( * ) SI_UNIT ( $, .METRE. ) );
#648 = CARTESIAN_POINT ( 'NONE',  ( 6.897289924279027318, 17.37267632817869156, 52.85901612668193650 ) ) ;
#649 = VECTOR ( 'NONE', #836, 39.37007874015748854 ) ;
#650 = AXIS2_PLACEMENT_3D ( 'NONE', #18, #822, #607 ) ;
#651 = VERTEX_POINT ( 'NONE', #625 ) ;
#652 = AXIS2_PLACEMENT_3D ( 'NONE', #847, #330, #859 ) ;
#653 = EDGE_CURVE ( 'NONE', #61, #770, #421, .T. ) ;
#654 = CARTESIAN_POINT ( 'NONE',  ( 8.424866794326398178, 17.28272256201813306, 51.10029878033273576 ) ) ;
#655 = ORIENTED_EDGE ( 'NONE', *, *, #653, .T. ) ;
#656 = DIRECTION ( 'NONE',  ( -0.000000000000000000, 0.9867625124381936841, 0.1621719582624069067 ) ) ;
#657 = EDGE_CURVE ( 'NONE', #98, #608, #24, .T. ) ;
#658 = DIRECTION ( 'NONE',  ( -1.000000000000000000, -6.197137931038767243E-15, -3.367605771896179318E-15 ) ) ;
#659 = VERTEX_POINT ( 'NONE', #936 ) ;
#660 = CARTESIAN_POINT ( 'NONE',  ( 6.545846851938733835, 18.57096159524709122, 48.65729945238294363 ) ) ;
#661 = DIRECTION ( 'NONE',  ( -0.03013542484102629815, 0.6816886134213512305, 0.7310215390132674962 ) ) ;
#662 = EDGE_CURVE ( 'NONE', #113, #598, #412, .T. ) ;
#663 = ORIENTED_EDGE ( 'NONE', *, *, #381, .F. ) ;
#664 = CIRCLE ( 'NONE', #371, 0.1399999999999976263 ) ;
#665 = CARTESIAN_POINT ( 'NONE',  ( 7.058061563388090320, 17.94119151640769161, 48.63530739662700597 ) ) ;
#666 = VECTOR ( 'NONE', #203, 39.37007874015748143 ) ;
#667 = VECTOR ( 'NONE', #515, 39.37007874015748143 ) ;
#668 = LINE ( 'NONE', #214, #667 ) ;
#669 = ORIENTED_EDGE ( 'NONE', *, *, #76, .F. ) ;
#670 = ADVANCED_FACE ( 'NONE', ( #940 ), #197, .F. ) ;
#671 = CARTESIAN_POINT ( 'NONE',  ( 7.553553435783744163, 17.81931318586594060, 48.60610979432559731 ) ) ;
#672 = PLANE ( 'NONE',  #650 ) ;
#673 = EDGE_LOOP ( 'NONE', ( #65, #181, #430, #335, #9, #447 ) ) ;
#674 = CARTESIAN_POINT ( 'NONE',  ( -11480.07014618140238, 17.54455449210659879, 51.04871197840210328 ) ) ;
#675 = DIRECTION ( 'NONE',  ( 0.000000000000000000, -0.9867625124381936841, -0.1621719582624069067 ) ) ;
#676 = EDGE_LOOP ( 'NONE', ( #253, #784 ) ) ;
#677 = ORIENTED_EDGE ( 'NONE', *, *, #891, .T. ) ;
#678 = DIRECTION ( 'NONE',  ( 0.000000000000000000, 0.9792232874999184933, 0.2027849925853784929 ) ) ;
#679 = AXIS2_PLACEMENT_3D ( 'NONE', #119, #254, #415 ) ;
#680 = EDGE_CURVE ( 'NONE', #314, #118, #570, .T. ) ;
#681 = DIMENSIONAL_EXPONENTS ( 1.000000000000000000, 0.000000000000000000, 0.000000000000000000, 0.000000000000000000, 0.000000000000000000, 0.000000000000000000, 0.000000000000000000 ) ;
#682 = ORIENTED_EDGE ( 'NONE', *, *, #799, .T. ) ;
#683 = FACE_OUTER_BOUND ( 'NONE', #843, .T. ) ;
#684 = UNCERTAINTY_MEASURE_WITH_UNIT (LENGTH_MEASURE( 1.000000000000000082E-05 ), #605, 'distance_accuracy_value', 'NONE');
#685 = CARTESIAN_POINT ( 'NONE',  ( 159.7956173025541773, 15645.06213857178591, -494.5487123352496042 ) ) ;
#686 = CARTESIAN_POINT ( 'NONE',  ( 7.345951267529932771, 18.22724744771900518, 50.90223439720730880 ) ) ;
#687 = CARTESIAN_POINT ( 'NONE',  ( 6.954255138833903338, 17.60861499635180749, 51.00273573830508411 ) ) ;
#688 = DIRECTION ( 'NONE',  ( 0.009695013075862589369, 0.9993438579051868720, -0.03489785650490009883 ) ) ;
#689 = FACE_OUTER_BOUND ( 'NONE', #109, .T. ) ;
#690 = ORIENTED_EDGE ( 'NONE', *, *, #400, .T. ) ;
#691 = ORIENTED_EDGE ( 'NONE', *, *, #429, .T. ) ;
#692 = DIRECTION ( 'NONE',  ( 0.000000000000000000, -0.9993908270190957621, 0.03489949670250013652 ) ) ;
#693 = FACE_OUTER_BOUND ( 'NONE', #341, .T. ) ;
#694 = AXIS2_PLACEMENT_3D ( 'NONE', #463, #239, #373 ) ;
#695 = AXIS2_PLACEMENT_3D ( 'NONE', #377, #815, #908 ) ;
#696 = CONICAL_SURFACE ( 'NONE', #484, 0.1399999999999976263, 0.04130981886462767316 ) ;
#697 = FACE_OUTER_BOUND ( 'NONE', #818, .T. ) ;
#698 = ADVANCED_FACE ( 'NONE', ( #929 ), #926, .F. ) ;
#699 = ORIENTED_EDGE ( 'NONE', *, *, #211, .T. ) ;
#700 = CARTESIAN_POINT ( 'NONE',  ( 8.156370665286692301, 17.19907869084908469, 51.60924396018340587 ) ) ;
#701 = EDGE_LOOP ( 'NONE', ( #50, #774, #759, #828, #663, #169 ) ) ;
#702 = APPLICATION_PROTOCOL_DEFINITION ( 'draft international standard', 'automotive_design', 1998, #966 ) ;
#703 = ORIENTED_EDGE ( 'NONE', *, *, #567, .F. ) ;
#704 = DIRECTION ( 'NONE',  ( -0.000000000000000000, 0.9867625124381936841, 0.1621719582624068789 ) ) ;
#705 = ADVANCED_FACE ( 'NONE', ( #35 ), #513, .F. ) ;
#706 = CARTESIAN_POINT ( 'NONE',  ( 6.433555788533988462, 18.20186647016595316, 50.90312072047392178 ) ) ;
#707 = ORIENTED_EDGE ( 'NONE', *, *, #736, .F. ) ;
#708 = VERTEX_POINT ( 'NONE', #327 ) ;
#709 = LINE ( 'NONE', #40, #632 ) ;
#710 = STYLED_ITEM ( 'NONE', ( #444 ), #432 ) ;
#711 = EDGE_CURVE ( 'NONE', #414, #623, #291, .T. ) ;
#712 = DIRECTION ( 'NONE',  ( -0.000000000000000000, 0.9867625124381936841, 0.1621719582624069067 ) ) ;
#713 = AXIS2_PLACEMENT_3D ( 'NONE', #874, #712, #574 ) ;
#714 = ORIENTED_EDGE ( 'NONE', *, *, #375, .F. ) ;
#715 = PLANE ( 'NONE',  #479 ) ;
#716 = CARTESIAN_POINT ( 'NONE',  ( -6.024765964861750867, -307.9206975365175936, 284.4612206985897842 ) ) ;
#717 = CARTESIAN_POINT ( 'NONE',  ( 6.634521759291253318, 18.06249588924114846, 51.75114442366422907 ) ) ;
#718 = ORIENTED_EDGE ( 'NONE', *, *, #387, .F. ) ;
#719 = CARTESIAN_POINT ( 'NONE',  ( -11480.07014618063295, 17.01395277504462911, 52.73567368130991184 ) ) ;
#720 = CARTESIAN_POINT ( 'NONE',  ( 8.062140178661110212, 17.68928348487563795, 48.62651057432466217 ) ) ;
#721 = ORIENTED_EDGE ( 'NONE', *, *, #662, .T. ) ;
#722 = FACE_OUTER_BOUND ( 'NONE', #326, .T. ) ;
#723 = EDGE_CURVE ( 'NONE', #916, #880, #709, .T. ) ;
#724 = LENGTH_MEASURE_WITH_UNIT ( LENGTH_MEASURE( 0.02539999999999999897 ), #647 );
#725 = CARTESIAN_POINT ( 'NONE',  ( 6.852603408036914701, 17.26586080665133593, 52.74447050365096601 ) ) ;
#726 = CIRCLE ( 'NONE', #617, 0.1244999999999976542 ) ;
#727 = ORIENTED_EDGE ( 'NONE', *, *, #662, .F. ) ;
#728 = LINE ( 'NONE', #572, #666 ) ;
#729 = AXIS2_PLACEMENT_3D ( 'NONE', #476, #396, #548 ) ;
#730 = EDGE_CURVE ( 'NONE', #510, #935, #307, .T. ) ;
#731 =( BOUNDED_CURVE ( )  B_SPLINE_CURVE ( 3, ( #281, #420, #45, #862 ),
 .UNSPECIFIED., .F., .T. ) 
 B_SPLINE_CURVE_WITH_KNOTS ( ( 4, 4 ),
 ( 4.712388980387758330, 6.331521469682889425 ),
 .UNSPECIFIED. ) 
 CURVE ( )  GEOMETRIC_REPRESENTATION_ITEM ( )  RATIONAL_B_SPLINE_CURVE ( ( 1.000000000000000000, 0.7932083543453893881, 0.7932083543453893881, 1.000000000000000000 ) ) 
 REPRESENTATION_ITEM ( '' )  );
#732 = CARTESIAN_POINT ( 'NONE',  ( 105.2537804720511048, 15683.65648131179842, 595.6941399548667277 ) ) ;
#733 = ORIENTED_EDGE ( 'NONE', *, *, #5, .T. ) ;
#734 = CARTESIAN_POINT ( 'NONE',  ( 6.634521759291253318, 18.01689313457775654, 52.02862204216184949 ) ) ;
#735 = DIRECTION ( 'NONE',  ( -0.000000000000000000, 0.9867625124381934620, 0.1621719582624068512 ) ) ;
#736 = EDGE_CURVE ( 'NONE', #473, #459, #263, .T. ) ;
#737 = ADVANCED_FACE ( 'NONE', ( #123 ), #845, .F. ) ;
#738 = CARTESIAN_POINT ( 'NONE',  ( 8.193374259503142909, 18.13861940645059789, 51.28795810032575275 ) ) ;
#739 = VERTEX_POINT ( 'NONE', #700 ) ;
#740 = CARTESIAN_POINT ( 'NONE',  ( 8.199615556993920862, 17.12076829664497879, 52.85021930437951454 ) ) ;
#741 =( NAMED_UNIT ( * ) SI_UNIT ( $, .STERADIAN. ) SOLID_ANGLE_UNIT ( ) );
#742 = EDGE_CURVE ( 'NONE', #608, #188, #232, .T. ) ;
#743 = FACE_OUTER_BOUND ( 'NONE', #94, .T. ) ;
#744 = ORIENTED_EDGE ( 'NONE', *, *, #164, .T. ) ;
#745 = VECTOR ( 'NONE', #798, 39.37007874015748854 ) ;
#746 = CARTESIAN_POINT ( 'NONE',  ( 6.634521759291253318, 18.06249588924114846, 51.75114442366422907 ) ) ;
#747 = AXIS2_PLACEMENT_3D ( 'NONE', #719, #146, #297 ) ;
#748 = DIRECTION ( 'NONE',  ( 0.006297178994526530203, 0.9993710116692213763, 0.03489880473523223475 ) ) ;
#749 = AXIS2_PLACEMENT_3D ( 'NONE', #838, #401, #544 ) ;
#750 = VECTOR ( 'NONE', #569, 39.37007874015748854 ) ;
#751 = ORIENTED_EDGE ( 'NONE', *, *, #639, .T. ) ;
#752 = DIRECTION ( 'NONE',  ( -0.04927818435185517959, -0.1619749342972603978, 0.9855636870372116443 ) ) ;
#753 = CARTESIAN_POINT ( 'NONE',  ( 8.156370665286692301, 17.17627731351738518, 51.74798276943221254 ) ) ;
#754 = ORIENTED_EDGE ( 'NONE', *, *, #808, .T. ) ;
#755 = DIRECTION ( 'NONE',  ( 2.365789023774822958E-14, 0.5830735725600577624, 0.8124193553713815463 ) ) ;
#756 = PRODUCT_DEFINITION_SHAPE ( 'NONE', 'NONE',  #120 ) ;
#757 = FACE_BOUND ( 'NONE', #220, .T. ) ;
#758 = ORIENTED_EDGE ( 'NONE', *, *, #932, .F. ) ;
#759 = ORIENTED_EDGE ( 'NONE', *, *, #63, .F. ) ;
#760 = DIRECTION ( 'NONE',  ( -1.000000000000000000, 4.267781738565121594E-14, -1.660854723362543173E-15 ) ) ;
#761 = AXIS2_PLACEMENT_3D ( 'NONE', #1, #468, #378 ) ;
#762 = ADVANCED_FACE ( 'NONE', ( #213 ), #778, .F. ) ;
#763 = DIRECTION ( 'NONE',  ( 0.006297178994490762807, 0.9993710116692213763, 0.03489880473523633564 ) ) ;
#764 = AXIS2_PLACEMENT_3D ( 'NONE', #685, #175, #470 ) ;
#765 = DIRECTION ( 'NONE',  ( 0.000000000000000000, -0.1621719582624161216, 0.9867625124381921298 ) ) ;
#766 = DIRECTION ( 'NONE',  ( -0.000000000000000000, 0.9867625124381936841, 0.1621719582624069067 ) ) ;
#767 = CARTESIAN_POINT ( 'NONE',  ( 8.156370665286692301, 17.17627731351738518, 51.74798276943221254 ) ) ;
#768 = DIRECTION ( 'NONE',  ( -0.000000000000000000, 0.9867625124381936841, 0.1621719582624069067 ) ) ;
#769 = ORIENTED_EDGE ( 'NONE', *, *, #223, .T. ) ;
#770 = VERTEX_POINT ( 'NONE', #288 ) ;
#771 = PLANE ( 'NONE',  #57 ) ;
#772 = DIRECTION ( 'NONE',  ( 0.000000000000000000, -0.1621719582624161216, 0.9867625124381921298 ) ) ;
#773 = ADVANCED_FACE ( 'NONE', ( #275 ), #580, .F. ) ;
#774 = ORIENTED_EDGE ( 'NONE', *, *, #657, .T. ) ;
#775 = ORIENTED_EDGE ( 'NONE', *, *, #909, .T. ) ;
#776 = CARTESIAN_POINT ( 'NONE',  ( 6.634521759291253318, 17.42296794162757223, 51.78852575899771438 ) ) ;
#777 = CIRCLE ( 'NONE', #215, 0.1244999999999976542 ) ;
#778 = CONICAL_SURFACE ( 'NONE', #42, 0.1399999999999976263, 0.04130981886462767316 ) ;
#779 = FACE_OUTER_BOUND ( 'NONE', #264, .T. ) ;
#780 = EDGE_CURVE ( 'NONE', #659, #346, #537, .T. ) ;
#781 = CARTESIAN_POINT ( 'NONE',  ( 0.000000000000000000, 0.000000000000000000, 0.000000000000000000 ) ) ;
#782 = ORIENTED_EDGE ( 'NONE', *, *, #114, .F. ) ;
#783 = DIRECTION ( 'NONE',  ( 0.000000000000000000, -0.1621719582624112088, 0.9867625124381927959 ) ) ;
#784 = ORIENTED_EDGE ( 'NONE', *, *, #730, .T. ) ;
#785 = ADVANCED_BREP_SHAPE_REPRESENTATION ( 'module top plate block 1', ( #432, #483 ), #481 ) ;
#786 = VERTEX_POINT ( 'NONE', #443 ) ;
#787 = CARTESIAN_POINT ( 'NONE',  ( 8.119266188453895694, 17.87752255364108223, 52.87664574535040174 ) ) ;
#788 = CARTESIAN_POINT ( 'NONE',  ( 8.156370665286692301, 18.06249588924213256, 51.75114442366459855 ) ) ;
#789 = ORIENTED_EDGE ( 'NONE', *, *, #234, .F. ) ;
#790 = LINE ( 'NONE', #423, #323 ) ;
#791 = DIRECTION ( 'NONE',  ( 5.057555004264205699E-18, 0.9926180654821482596, 0.1212822166621202596 ) ) ;
#792 = CIRCLE ( 'NONE', #713, 0.1399999999999976263 ) ;
#793 = VERTEX_POINT ( 'NONE', #51 ) ;
#794 = CARTESIAN_POINT ( 'NONE',  ( 8.186508374257041254, 17.46935327158002593, 50.92870064503139815 ) ) ;
#795 = CARTESIAN_POINT ( 'NONE',  ( 7.946752455281609784, 17.43335510695458979, 50.95453653669865446 ) ) ;
#796 = ORIENTED_EDGE ( 'NONE', *, *, #381, .T. ) ;
#797 = DIRECTION ( 'NONE',  ( 0.000000000000000000, -0.1621719582624161216, 0.9867625124381921298 ) ) ;
#798 = DIRECTION ( 'NONE',  ( -0.04927818435185517265, -0.1619749342972603701, 0.9855636870372115332 ) ) ;
#799 = EDGE_CURVE ( 'NONE', #477, #98, #306, .T. ) ;
#800 = ORIENTED_EDGE ( 'NONE', *, *, #147, .F. ) ;
#801 = DIRECTION ( 'NONE',  ( 0.000000000000000000, -0.1621719582624112088, 0.9867625124381927959 ) ) ;
#802 = CARTESIAN_POINT ( 'NONE',  ( 6.671525353507695932, 18.13861940644958182, 51.28795810032555380 ) ) ;
#803 = CARTESIAN_POINT ( 'NONE',  ( 8.399815242831062179, 17.28973829811055296, 51.05761035597543440 ) ) ;
#804 = CIRCLE ( 'NONE', #451, 0.1406000000000001138 ) ;
#805 = EDGE_CURVE ( 'NONE', #207, #379, #511, .T. ) ;
#806 = ORIENTED_EDGE ( 'NONE', *, *, #901, .F. ) ;
#807 = CARTESIAN_POINT ( 'NONE',  ( 6.671525353507695932, 18.16132348060632040, 51.14981134858420830 ) ) ;
#808 = EDGE_CURVE ( 'NONE', #39, #651, #388, .T. ) ;
#809 = DIRECTION ( 'NONE',  ( 0.000000000000000000, 0.9792232874999184933, 0.2027849925853784929 ) ) ;
#810 = ORIENTED_EDGE ( 'NONE', *, *, #471, .F. ) ;
#811 = DIRECTION ( 'NONE',  ( 0.000000000000000000, -0.1621719582624419898, 0.9867625124381876889 ) ) ;
#812 = ADVANCED_FACE ( 'NONE', ( #133, #217 ), #876, .F. ) ;
#813 = DIRECTION ( 'NONE',  ( 0.000000000000000000, -0.1621719582624112088, 0.9867625124381927959 ) ) ;
#814 = ORIENTED_EDGE ( 'NONE', *, *, #457, .T. ) ;
#815 = DIRECTION ( 'NONE',  ( -0.000000000000000000, 0.9867625124381936841, 0.1621719582624068789 ) ) ;
#816 =( CONVERSION_BASED_UNIT ( 'INCH', #724 ) LENGTH_UNIT ( ) NAMED_UNIT ( #534 ) );
#817 = PRODUCT_RELATED_PRODUCT_CATEGORY ( 'part', '', ( #589 ) ) ;
#818 = EDGE_LOOP ( 'NONE', ( #849, #160, #635, #196 ) ) ;
#819 = VECTOR ( 'NONE', #475, 39.37007874015748854 ) ;
#820 = CARTESIAN_POINT ( 'NONE',  ( 7.851966518194381628, 17.12179845903945719, 52.85025527844342719 ) ) ;
#821 = AXIS2_PLACEMENT_3D ( 'NONE', #840, #386, #535 ) ;
#822 = DIRECTION ( 'NONE',  ( 0.000000000000000000, -0.9867625124381936841, -0.1621719582624069067 ) ) ;
#823 = ADVANCED_FACE ( 'NONE', ( #722 ), #592, .F. ) ;
#824 = ORIENTED_EDGE ( 'NONE', *, *, #49, .T. ) ;
#825 = CARTESIAN_POINT ( 'NONE',  ( 8.119367071070243469, 17.91806554321355449, 52.62995511724241737 ) ) ;
#826 = ORIENTED_EDGE ( 'NONE', *, *, #194, .T. ) ;
#827 = DIRECTION ( 'NONE',  ( 0.000000000000000000, 0.1621719582624068789, -0.9867625124381934620 ) ) ;
#828 = ORIENTED_EDGE ( 'NONE', *, *, #357, .T. ) ;
#829 = EDGE_CURVE ( 'NONE', #623, #414, #359, .T. ) ;
#830 = ORIENTED_EDGE ( 'NONE', *, *, #241, .F. ) ;
#831 = CARTESIAN_POINT ( 'NONE',  ( 7.856682023309907947, 17.01395277511919346, 52.73567368134914801 ) ) ;
#832 = CARTESIAN_POINT ( 'NONE',  ( 8.117689426988123458, 17.62728832935324519, 52.86790737368478688 ) ) ;
#833 = EDGE_LOOP ( 'NONE', ( #751, #655 ) ) ;
#834 = DIRECTION ( 'NONE',  ( -6.661234617442108583E-15, 0.9867625124381882440, 0.1621719582624396583 ) ) ;
#835 = CYLINDRICAL_SURFACE ( 'NONE', #821, 0.2499999999994975686 ) ;
#836 = DIRECTION ( 'NONE',  ( -0.04927818435185517265, -0.1619749342972603701, 0.9855636870372115332 ) ) ;
#837 = VECTOR ( 'NONE', #791, 39.37007874015748854 ) ;
#838 = CARTESIAN_POINT ( 'NONE',  ( 8.156370665286692301, 18.03969451191044016, 51.88988323291340521 ) ) ;
#839 = ORIENTED_EDGE ( 'NONE', *, *, #49, .F. ) ;
#840 = CARTESIAN_POINT ( 'NONE',  ( 106.8305741180708992, 15683.50727473533698, 599.6823388782893289 ) ) ;
#841 = CARTESIAN_POINT ( 'NONE',  ( 6.800914971137549390E-13, 17.72416946508664992, 50.91980226747519112 ) ) ;
#842 = ADVANCED_FACE ( 'NONE', ( #881 ), #141, .F. ) ;
#843 = EDGE_LOOP ( 'NONE', ( #912, #390, #955, #895, #727 ) ) ;
#844 = ORIENTED_EDGE ( 'NONE', *, *, #612, .T. ) ;
#845 = CYLINDRICAL_SURFACE ( 'NONE', #497, 0.1405999999999993921 ) ;
#846 = DIRECTION ( 'NONE',  ( -0.009695013075865496766, -0.9993438579051868720, 0.03489785650490009883 ) ) ;
#847 = CARTESIAN_POINT ( 'NONE',  ( 8.193374259503142909, 18.16132348060733293, 51.14981134858440726 ) ) ;
#848 = APPLICATION_PROTOCOL_DEFINITION ( 'draft international standard', 'automotive_design', 1998, #469 ) ;
#849 = ORIENTED_EDGE ( 'NONE', *, *, #829, .F. ) ;
#850 = CARTESIAN_POINT ( 'NONE',  ( 8.362167795110780233, 17.89340233254979040, 52.78002256399032888 ) ) ;
#851 = VECTOR ( 'NONE', #688, 39.37007874015748854 ) ;
#852 = CIRCLE ( 'NONE', #588, 0.1399999999999976263 ) ;
#853 = DIRECTION ( 'NONE',  ( 1.000000000000000000, -4.264963232341593491E-14, 1.489357979273766738E-15 ) ) ;
#854 = DIRECTION ( 'NONE',  ( 1.000000000000000000, 0.000000000000000000, 0.000000000000000000 ) ) ;
#855 = EDGE_CURVE ( 'NONE', #880, #438, #728, .T. ) ;
#856 = VERTEX_POINT ( 'NONE', #734 ) ;
#857 = DIRECTION ( 'NONE',  ( 0.000000000000000000, 0.03489949670250013652, 0.9993908270190957621 ) ) ;
#858 = CARTESIAN_POINT ( 'NONE',  ( 8.193374259503142909, 17.77109712963934385, 51.21184879703455550 ) ) ;
#859 = DIRECTION ( 'NONE',  ( 0.000000000000000000, -0.1621719582624161216, 0.9867625124381921298 ) ) ;
#860 = ORIENTED_EDGE ( 'NONE', *, *, #829, .T. ) ;
#861 = DIRECTION ( 'NONE',  ( -0.000000000000000000, 0.9867625124381936841, 0.1621719582624069067 ) ) ;
#862 = CARTESIAN_POINT ( 'NONE',  ( 8.193614762095819515, 18.20186647016597803, 50.90312072047392178 ) ) ;
#863 = ORIENTED_EDGE ( 'NONE', *, *, #657, .F. ) ;
#864 = DIRECTION ( 'NONE',  ( -1.000000000000000000, -6.789561797060625676E-15, 2.370967224651249973E-16 ) ) ;
#865 = CARTESIAN_POINT ( 'NONE',  ( 6.597518165074812480, 17.94076961736933740, 52.49180836550052476 ) ) ;
#866 = MECHANICAL_DESIGN_GEOMETRIC_PRESENTATION_REPRESENTATION (  '', ( #710 ), #73 ) ;
#867 = AXIS2_PLACEMENT_3D ( 'NONE', #355, #62, #362 ) ;
#868 = LINE ( 'NONE', #201, #965 ) ;
#869 = VECTOR ( 'NONE', #334, 39.37007874015748854 ) ;
#870 = VECTOR ( 'NONE', #329, 39.37007874015748854 ) ;
#871 = ORIENTED_EDGE ( 'NONE', *, *, #528, .F. ) ;
#872 = DIRECTION ( 'NONE',  ( 0.000000000000000000, -0.1621719582624140399, 0.9867625124381925739 ) ) ;
#873 = ADVANCED_FACE ( 'NONE', ( #585 ), #503, .F. ) ;
#874 = CARTESIAN_POINT ( 'NONE',  ( 6.597518165074812480, 17.91806554321259881, 52.62995511724187025 ) ) ;
#875 = ORIENTED_EDGE ( 'NONE', *, *, #969, .F. ) ;
#876 = PLANE ( 'NONE',  #898 ) ;
#877 = EDGE_CURVE ( 'NONE', #376, #409, #365, .T. ) ;
#878 = CARTESIAN_POINT ( 'NONE',  ( 8.346928080274791384, 17.02016113837704481, 52.69789785255805725 ) ) ;
#879 = ADVANCED_FACE ( 'NONE', ( #3 ), #8, .F. ) ;
#880 = VERTEX_POINT ( 'NONE', #599 ) ;
#881 = FACE_OUTER_BOUND ( 'NONE', #426, .T. ) ;
#882 = SURFACE_STYLE_USAGE ( .BOTH. , #298 ) ;
#883 = DIRECTION ( 'NONE',  ( -0.000000000000000000, 0.9867625124381936841, 0.1621719582624069067 ) ) ;
#884 = AXIS2_PLACEMENT_3D ( 'NONE', #161, #675, #905 ) ;
#885 = ORIENTED_EDGE ( 'NONE', *, *, #711, .T. ) ;
#886 = EDGE_CURVE ( 'NONE', #473, #103, #397, .T. ) ;
#887 = DIRECTION ( 'NONE',  ( -0.000000000000000000, 0.9867625124381936841, 0.1621719582624069067 ) ) ;
#888 = CARTESIAN_POINT ( 'NONE',  ( 8.062933832842730908, 17.81523750064549105, 48.63090898547596908 ) ) ;
#889 = ORIENTED_EDGE ( 'NONE', *, *, #37, .T. ) ;
#890 = DIRECTION ( 'NONE',  ( -0.000000000000000000, 0.9867625124381936841, 0.1621719582624069067 ) ) ;
#891 = EDGE_CURVE ( 'NONE', #103, #856, #372, .T. ) ;
#892 = EDGE_LOOP ( 'NONE', ( #287, #54, #939, #454 ) ) ;
#893 = DIRECTION ( 'NONE',  ( -0.000000000000000000, 0.9867625124381934620, 0.1621719582624068512 ) ) ;
#894 = DIRECTION ( 'NONE',  ( 0.000000000000000000, 0.1621719582624393807, -0.9867625124381882440 ) ) ;
#895 = ORIENTED_EDGE ( 'NONE', *, *, #633, .F. ) ;
#896 = VECTOR ( 'NONE', #893, 39.37007874015748854 ) ;
#897 = FACE_OUTER_BOUND ( 'NONE', #925, .T. ) ;
#898 = AXIS2_PLACEMENT_3D ( 'NONE', #369, #130, #811 ) ;
#899 = ORIENTED_EDGE ( 'NONE', *, *, #501, .F. ) ;
#900 = CARTESIAN_POINT ( 'NONE',  ( 8.193374259503142909, 17.79128753844301158, 51.08899686423600883 ) ) ;
#901 = EDGE_CURVE ( 'NONE', #409, #113, #903, .T. ) ;
#902 = ORIENTED_EDGE ( 'NONE', *, *, #395, .F. ) ;
#903 = LINE ( 'NONE', #12, #407 ) ;
#904 = ORIENTED_EDGE ( 'NONE', *, *, #142, .F. ) ;
#905 = DIRECTION ( 'NONE',  ( 0.000000000000000000, 0.1621719582624068789, -0.9867625124381934620 ) ) ;
#906 = LINE ( 'NONE', #738, #374 ) ;
#907 = ORIENTED_EDGE ( 'NONE', *, *, #891, .F. ) ;
#908 = DIRECTION ( 'NONE',  ( 0.000000000000000000, -0.1621719582624140399, 0.9867625124381925739 ) ) ;
#909 = EDGE_CURVE ( 'NONE', #207, #246, #637, .T. ) ;
#910 = DIRECTION ( 'NONE',  ( 0.000000000000000000, -0.1621719582624442935, 0.9867625124381874668 ) ) ;
#911 = CARTESIAN_POINT ( 'NONE',  ( 8.119367071070243469, 17.54802960104923315, 52.56914063289401184 ) ) ;
#912 = ORIENTED_EDGE ( 'NONE', *, *, #344, .F. ) ;
#913 = CARTESIAN_POINT ( 'NONE',  ( 8.156370665286692301, 18.03969451191044016, 51.88988323291340521 ) ) ;
#914 = AXIS2_PLACEMENT_3D ( 'NONE', #911, #404, #813 ) ;
#915 = EDGE_CURVE ( 'NONE', #459, #856, #301, .T. ) ;
#916 = VERTEX_POINT ( 'NONE', #242 ) ;
#917 = FACE_BOUND ( 'NONE', #180, .T. ) ;
#918 = AXIS2_PLACEMENT_3D ( 'NONE', #332, #704, #193 ) ;
#919 = LINE ( 'NONE', #19, #616 ) ;
#920 = AXIS2_PLACEMENT_3D ( 'NONE', #441, #768, #167 ) ;
#921 = ORIENTED_EDGE ( 'NONE', *, *, #938, .T. ) ;
#922 = ORIENTED_EDGE ( 'NONE', *, *, #90, .F. ) ;
#923 = CARTESIAN_POINT ( 'NONE',  ( 8.260099985064952577, 17.87752255363938048, 52.87664574534973383 ) ) ;
#924 = ORIENTED_EDGE ( 'NONE', *, *, #5, .F. ) ;
#925 = EDGE_LOOP ( 'NONE', ( #162, #434, #240, #839 ) ) ;
#926 = PLANE ( 'NONE',  #679 ) ;
#927 = LINE ( 'NONE', #32, #869 ) ;
#928 = ORIENTED_EDGE ( 'NONE', *, *, #114, .T. ) ;
#929 = FACE_OUTER_BOUND ( 'NONE', #135, .T. ) ;
#930 = CARTESIAN_POINT ( 'NONE',  ( 7.407618204931805117, 17.12076829664321664, 52.85021930437955717 ) ) ;
#931 = CIRCLE ( 'NONE', #92, 0.1399999999999976263 ) ;
#932 = EDGE_CURVE ( 'NONE', #155, #86, #125, .T. ) ;
#933 = PLANE ( 'NONE',  #292 ) ;
#934 = PRODUCT_CONTEXT ( 'NONE', #469, 'mechanical' ) ;
#935 = VERTEX_POINT ( 'NONE', #968 ) ;
#936 = CARTESIAN_POINT ( 'NONE',  ( 8.114497772164213529, 17.12076829664322375, 52.85021930437956428 ) ) ;
#937 = LINE ( 'NONE', #581, #750 ) ;
#938 = EDGE_CURVE ( 'NONE', #237, #438, #507, .T. ) ;
#939 = ORIENTED_EDGE ( 'NONE', *, *, #915, .T. ) ;
#940 = FACE_OUTER_BOUND ( 'NONE', #230, .T. ) ;
#941 = ADVANCED_FACE ( 'NONE', ( #533 ), #319, .F. ) ;
#942 = DIRECTION ( 'NONE',  ( -1.000000000000000000, -1.244975870433265209E-14, 4.347551539418700756E-16 ) ) ;
#943 = ORIENTED_EDGE ( 'NONE', *, *, #453, .T. ) ;
#944 = DIRECTION ( 'NONE',  ( -3.766192086703500345E-15, 0.5830735725600375563, 0.8124193553713959792 ) ) ;
#945 = ADVANCED_FACE ( 'NONE', ( #539, #315 ), #613, .F. ) ;
#946 = LINE ( 'NONE', #358, #947 ) ;
#947 = VECTOR ( 'NONE', #143, 39.37007874015748143 ) ;
#948 = AXIS2_PLACEMENT_3D ( 'NONE', #807, #656, #797 ) ;
#949 = CARTESIAN_POINT ( 'NONE',  ( 6.876910812884561963, 17.33903848170280426, 52.82294395264853648 ) ) ;
#950 = AXIS2_PLACEMENT_3D ( 'NONE', #131, #883, #504 ) ;
#951 = EDGE_LOOP ( 'NONE', ( #885, #860 ) ) ;
#952 = CARTESIAN_POINT ( 'NONE',  ( 8.114497772164213529, 17.12076829664322375, 52.85021930437956428 ) ) ;
#953 = CARTESIAN_POINT ( 'NONE',  ( 8.156370665286692301, 18.01689313457874420, 52.02862204216221897 ) ) ;
#954 = DIRECTION ( 'NONE',  ( 0.04862741781209398151, 0.000000000000000000, -0.9988169873590097003 ) ) ;
#955 = ORIENTED_EDGE ( 'NONE', *, *, #83, .F. ) ;
#956 = CARTESIAN_POINT ( 'NONE',  ( 8.274465160437026512, 17.08213221757257116, 52.80878718210420431 ) ) ;
#957 = PLANE ( 'NONE',  #229 ) ;
#958 = VERTEX_POINT ( 'NONE', #159 ) ;
#959 = CARTESIAN_POINT ( 'NONE',  ( 7.947333793124684576, 17.46935327158001883, 50.92870064503139815 ) ) ;
#960 = VECTOR ( 'NONE', #179, 39.37007874015748143 ) ;
#961 = CARTESIAN_POINT ( 'NONE',  ( 8.156370665286692301, 18.06249588924213256, 51.75114442366459855 ) ) ;
#962 = AXIS2_PLACEMENT_3D ( 'NONE', #189, #259, #419 ) ;
#963 = ADVANCED_FACE ( 'NONE', ( #897 ), #171, .F. ) ;
#964 = ORIENTED_EDGE ( 'NONE', *, *, #296, .F. ) ;
#965 = VECTOR ( 'NONE', #205, 39.37007874015748143 ) ;
#966 = APPLICATION_CONTEXT ( 'automotive_design' ) ;
#967 = ORIENTED_EDGE ( 'NONE', *, *, #488, .F. ) ;
#968 = CARTESIAN_POINT ( 'NONE',  ( 6.597518165074812480, 17.52783919224460618, 52.69199256569201850 ) ) ;
#969 = EDGE_CURVE ( 'NONE', #786, #958, #852, .T. ) ;
ENDSEC;
END-ISO-10303-21;
