ISO-10303-21;
HEADER;
FILE_DESCRIPTION (( 'STEP AP214' ),
    '1' );
FILE_NAME ('module base bracket 1.STEP',
    '2026-03-17T21:40:16',
    ( '' ),
    ( '' ),
    'SwSTEP 2.0',
    'SolidWorks 2025',
    '' );
FILE_SCHEMA (( 'AUTOMOTIVE_DESIGN' ));
ENDSEC;

DATA;
#1 = VERTEX_POINT ( 'NONE', #401 ) ;
#2 = LINE ( 'NONE', #251, #862 ) ;
#3 = VERTEX_POINT ( 'NONE', #306 ) ;
#4 = LINE ( 'NONE', #701, #426 ) ;
#5 = ORIENTED_EDGE ( 'NONE', *, *, #75, .T. ) ;
#6 = CIRCLE ( 'NONE', #963, 0.1406000000000034167 ) ;
#7 = VECTOR ( 'NONE', #803, 39.37007874015748143 ) ;
#8 = CARTESIAN_POINT ( 'NONE',  ( 4.901252459999999367, 5.199904510000008528, 53.30217851000001161 ) ) ;
#9 = EDGE_LOOP ( 'NONE', ( #583, #752 ) ) ;
#10 = DIRECTION ( 'NONE',  ( -0.000000000000000000, 1.000000000000000000, 0.000000000000000000 ) ) ;
#11 = VERTEX_POINT ( 'NONE', #823 ) ;
#12 = CARTESIAN_POINT ( 'NONE',  ( 2.526252459999997591, 4.949904510000008528, 52.67717851000000451 ) ) ;
#13 = EDGE_CURVE ( 'NONE', #561, #782, #412, .T. ) ;
#14 = EDGE_CURVE ( 'NONE', #561, #1089, #222, .T. ) ;
#15 = CARTESIAN_POINT ( 'NONE',  ( 2.776252459999997146, 5.199904510000008528, 51.67717851000000451 ) ) ;
#16 = EDGE_LOOP ( 'NONE', ( #615, #864, #125, #920 ) ) ;
#17 = DIRECTION ( 'NONE',  ( 0.000000000000000000, 0.000000000000000000, -1.000000000000000000 ) ) ;
#18 = ORIENTED_EDGE ( 'NONE', *, *, #935, .F. ) ;
#19 = DIRECTION ( 'NONE',  ( -0.000000000000000000, 1.000000000000000000, 0.000000000000000000 ) ) ;
#20 = ADVANCED_FACE ( 'NONE', ( #840 ), #659, .T. ) ;
#21 = CARTESIAN_POINT ( 'NONE',  ( 4.151252459999996702, 5.199904510000008528, 51.30217851000000451 ) ) ;
#22 = ORIENTED_EDGE ( 'NONE', *, *, #1079, .F. ) ;
#23 = CARTESIAN_POINT ( 'NONE',  ( 2.526252459999997591, 5.199904510000008528, 52.30217851000000451 ) ) ;
#24 = VERTEX_POINT ( 'NONE', #150 ) ;
#25 = CARTESIAN_POINT ( 'NONE',  ( 2.526252459999997591, 4.949904510000008528, 52.30217851000000451 ) ) ;
#26 = AXIS2_PLACEMENT_3D ( 'NONE', #712, #373, #974 ) ;
#27 = AXIS2_PLACEMENT_3D ( 'NONE', #57, #64, #825 ) ;
#28 = CARTESIAN_POINT ( 'NONE',  ( 3.151252459999998479, 5.199904510000008528, 51.30217851000000451 ) ) ;
#29 = CARTESIAN_POINT ( 'NONE',  ( 2.526252459999997591, 4.949904510000008528, 52.67717851000000451 ) ) ;
#30 = ORIENTED_EDGE ( 'NONE', *, *, #252, .F. ) ;
#31 = DIRECTION ( 'NONE',  ( 0.000000000000000000, 0.000000000000000000, -1.000000000000000000 ) ) ;
#32 = DIRECTION ( 'NONE',  ( -0.000000000000000000, 1.000000000000000000, 0.000000000000000000 ) ) ;
#33 = ORIENTED_EDGE ( 'NONE', *, *, #438, .T. ) ;
#34 = DIRECTION ( 'NONE',  ( 0.000000000000000000, -1.000000000000000000, 0.000000000000000000 ) ) ;
#35 = EDGE_CURVE ( 'NONE', #588, #539, #1060, .T. ) ;
#36 = EDGE_LOOP ( 'NONE', ( #387, #932, #65, #826 ) ) ;
#37 = CARTESIAN_POINT ( 'NONE',  ( 4.526252459999997591, 4.949904510000008528, 51.44277851000000368 ) ) ;
#38 = CYLINDRICAL_SURFACE ( 'NONE', #1101, 0.2500000000000030531 ) ;
#39 = EDGE_LOOP ( 'NONE', ( #868, #419, #272, #180 ) ) ;
#40 = CARTESIAN_POINT ( 'NONE',  ( 3.151252459999998479, 4.949904510000008528, 50.30217850999999740 ) ) ;
#41 = ORIENTED_EDGE ( 'NONE', *, *, #310, .F. ) ;
#42 = CARTESIAN_POINT ( 'NONE',  ( 4.526252459999997591, 5.199904510000008528, 53.44277851000001078 ) ) ;
#43 = AXIS2_PLACEMENT_3D ( 'NONE', #255, #941, #1024 ) ;
#44 = DIRECTION ( 'NONE',  ( 0.000000000000000000, 0.000000000000000000, -1.000000000000000000 ) ) ;
#45 = ORIENTED_EDGE ( 'NONE', *, *, #13, .T. ) ;
#46 = AXIS2_PLACEMENT_3D ( 'NONE', #1069, #1074, #642 ) ;
#47 = CARTESIAN_POINT ( 'NONE',  ( 2.526252459999997591, 4.949904510000008528, 52.30217851000000451 ) ) ;
#48 = ORIENTED_EDGE ( 'NONE', *, *, #1124, .F. ) ;
#49 = CARTESIAN_POINT ( 'NONE',  ( 4.526252459999997591, 5.199904510000008528, 53.30217851000001161 ) ) ;
#50 = CARTESIAN_POINT ( 'NONE',  ( 3.901252459999996702, 4.949904510000008528, 51.67717851000000451 ) ) ;
#51 = ADVANCED_FACE ( 'NONE', ( #835 ), #61, .F. ) ;
#52 = ORIENTED_EDGE ( 'NONE', *, *, #285, .F. ) ;
#53 = EDGE_CURVE ( 'NONE', #322, #353, #240, .T. ) ;
#54 = CARTESIAN_POINT ( 'NONE',  ( 3.151252459999998479, 4.949904510000008528, 50.30217850999999740 ) ) ;
#55 = VERTEX_POINT ( 'NONE', #505 ) ;
#56 = DIRECTION ( 'NONE',  ( -0.000000000000000000, -1.000000000000000000, -0.000000000000000000 ) ) ;
#57 = CARTESIAN_POINT ( 'NONE',  ( 3.776252459999997591, 5.199904510000008528, 51.67717851000000451 ) ) ;
#58 = VERTEX_POINT ( 'NONE', #163 ) ;
#59 = EDGE_CURVE ( 'NONE', #374, #360, #1031, .T. ) ;
#60 = DIRECTION ( 'NONE',  ( -0.000000000000000000, -1.000000000000000000, -0.000000000000000000 ) ) ;
#61 = CYLINDRICAL_SURFACE ( 'NONE', #337, 0.1406000000000034167 ) ;
#62 = DIRECTION ( 'NONE',  ( -0.000000000000000000, 1.000000000000000000, 0.000000000000000000 ) ) ;
#63 = UNCERTAINTY_MEASURE_WITH_UNIT (LENGTH_MEASURE( 1.000000000000000082E-05 ), #343, 'distance_accuracy_value', 'NONE');
#64 = DIRECTION ( 'NONE',  ( 0.000000000000000000, -1.000000000000000000, 0.000000000000000000 ) ) ;
#65 = ORIENTED_EDGE ( 'NONE', *, *, #477, .T. ) ;
#66 = AXIS2_PLACEMENT_3D ( 'NONE', #492, #665, #758 ) ;
#67 = AXIS2_PLACEMENT_3D ( 'NONE', #751, #1094, #234 ) ;
#68 = VECTOR ( 'NONE', #56, 39.37007874015748143 ) ;
#69 = ORIENTED_EDGE ( 'NONE', *, *, #185, .T. ) ;
#70 = AXIS2_PLACEMENT_3D ( 'NONE', #929, #218, #155 ) ;
#71 = CARTESIAN_POINT ( 'NONE',  ( 2.526252459999997591, 5.199904510000008528, 52.67717851000000451 ) ) ;
#72 = DIRECTION ( 'NONE',  ( -0.000000000000000000, -1.000000000000000000, -0.000000000000000000 ) ) ;
#73 = ORIENTED_EDGE ( 'NONE', *, *, #625, .T. ) ;
#74 = CARTESIAN_POINT ( 'NONE',  ( 4.151252459999996702, 4.949904510000008528, 53.30217851000001161 ) ) ;
#75 = EDGE_CURVE ( 'NONE', #130, #699, #696, .T. ) ;
#76 = CARTESIAN_POINT ( 'NONE',  ( 3.526252459999999811, 5.199904510000008528, 50.30217850999999740 ) ) ;
#77 = CARTESIAN_POINT ( 'NONE',  ( 4.151252459999996702, 5.199904510000008528, 51.67717851000000451 ) ) ;
#78 = FACE_OUTER_BOUND ( 'NONE', #975, .T. ) ;
#79 = AXIS2_PLACEMENT_3D ( 'NONE', #765, #1034, #936 ) ;
#80 = CARTESIAN_POINT ( 'NONE',  ( 2.776252459999997146, 5.199904510000008528, 50.30217850999999740 ) ) ;
#81 = CIRCLE ( 'NONE', #300, 0.1406000000000034167 ) ;
#82 = CIRCLE ( 'NONE', #301, 0.1406000000000034167 ) ;
#83 = CARTESIAN_POINT ( 'NONE',  ( 4.526252459999997591, 4.949904510000008528, 53.30217851000001161 ) ) ;
#84 = EDGE_CURVE ( 'NONE', #209, #392, #187, .T. ) ;
#85 = EDGE_CURVE ( 'NONE', #812, #225, #4, .T. ) ;
#86 = FACE_BOUND ( 'NONE', #1050, .T. ) ;
#87 = ORIENTED_EDGE ( 'NONE', *, *, #1030, .T. ) ;
#88 = DIRECTION ( 'NONE',  ( -0.000000000000000000, -1.000000000000000000, -0.000000000000000000 ) ) ;
#89 = ORIENTED_EDGE ( 'NONE', *, *, #397, .T. ) ;
#90 = EDGE_CURVE ( 'NONE', #496, #733, #298, .T. ) ;
#91 = DIRECTION ( 'NONE',  ( 0.000000000000000000, 0.000000000000000000, -1.000000000000000000 ) ) ;
#92 = EDGE_LOOP ( 'NONE', ( #970, #637, #104, #365 ) ) ;
#93 = CARTESIAN_POINT ( 'NONE',  ( 2.526252459999997591, 5.199904510000008528, 52.16157851000000534 ) ) ;
#94 = ORIENTED_EDGE ( 'NONE', *, *, #1124, .T. ) ;
#95 = CARTESIAN_POINT ( 'NONE',  ( 4.526252459999997591, 4.949904510000008528, 53.30217851000001161 ) ) ;
#96 = VECTOR ( 'NONE', #928, 39.37007874015748143 ) ;
#97 = VERTEX_POINT ( 'NONE', #80 ) ;
#98 = STYLED_ITEM ( 'NONE', ( #398 ), #697 ) ;
#99 = VECTOR ( 'NONE', #349, 39.37007874015748143 ) ;
#100 = CARTESIAN_POINT ( 'NONE',  ( 3.776252459999997591, 5.199904510000008528, 51.92717851000000451 ) ) ;
#101 = CIRCLE ( 'NONE', #628, 0.1406000000000034167 ) ;
#102 = CARTESIAN_POINT ( 'NONE',  ( 3.901252459999996702, 4.949904510000008528, 52.92717851000001161 ) ) ;
#103 = CYLINDRICAL_SURFACE ( 'NONE', #157, 0.3750000000000002220 ) ;
#104 = ORIENTED_EDGE ( 'NONE', *, *, #602, .T. ) ;
#105 = EDGE_CURVE ( 'NONE', #182, #472, #717, .T. ) ;
#106 = LINE ( 'NONE', #799, #172 ) ;
#107 = DIRECTION ( 'NONE',  ( 0.000000000000000000, -1.000000000000000000, -0.000000000000000000 ) ) ;
#108 = ORIENTED_EDGE ( 'NONE', *, *, #479, .T. ) ;
#109 = DIRECTION ( 'NONE',  ( -0.000000000000000000, 1.000000000000000000, -0.000000000000000000 ) ) ;
#110 = ORIENTED_EDGE ( 'NONE', *, *, #205, .T. ) ;
#111 = DIRECTION ( 'NONE',  ( 0.000000000000000000, -1.000000000000000000, 0.000000000000000000 ) ) ;
#112 = CARTESIAN_POINT ( 'NONE',  ( 4.151252459999996702, 5.199904510000008528, 52.67717851000000451 ) ) ;
#113 = EDGE_LOOP ( 'NONE', ( #880, #243, #1075, #755 ) ) ;
#114 = DIRECTION ( 'NONE',  ( 0.000000000000000000, 0.000000000000000000, -1.000000000000000000 ) ) ;
#115 = ORIENTED_EDGE ( 'NONE', *, *, #994, .T. ) ;
#116 = CIRCLE ( 'NONE', #247, 0.1406000000000034167 ) ;
#117 = FACE_OUTER_BOUND ( 'NONE', #92, .T. ) ;
#118 = PRESENTATION_LAYER_ASSIGNMENT (  '', '', ( #98 ) ) ;
#119 = VECTOR ( 'NONE', #254, 39.37007874015748143 ) ;
#120 = CARTESIAN_POINT ( 'NONE',  ( 2.526252459999997591, 4.949904510000008528, 52.16157851000000534 ) ) ;
#121 = ORIENTED_EDGE ( 'NONE', *, *, #1017, .T. ) ;
#122 = EDGE_CURVE ( 'NONE', #374, #11, #320, .T. ) ;
#123 = ADVANCED_FACE ( 'NONE', ( #692 ), #177, .F. ) ;
#124 = CARTESIAN_POINT ( 'NONE',  ( 4.526252459999997591, 4.949904510000008528, 51.30217851000000451 ) ) ;
#125 = ORIENTED_EDGE ( 'NONE', *, *, #397, .F. ) ;
#126 = DIRECTION ( 'NONE',  ( -0.000000000000000000, -1.000000000000000000, -0.000000000000000000 ) ) ;
#127 = CARTESIAN_POINT ( 'NONE',  ( 3.151252459999998479, 4.949904510000008528, 50.30217850999999740 ) ) ;
#128 = VERTEX_POINT ( 'NONE', #74 ) ;
#129 = DIRECTION ( 'NONE',  ( 0.000000000000000000, 0.000000000000000000, -1.000000000000000000 ) ) ;
#130 = VERTEX_POINT ( 'NONE', #77 ) ;
#131 = LINE ( 'NONE', #413, #282 ) ;
#132 = CYLINDRICAL_SURFACE ( 'NONE', #945, 0.1406000000000034167 ) ;
#133 = VERTEX_POINT ( 'NONE', #266 ) ;
#134 = DIRECTION ( 'NONE',  ( -0.000000000000000000, 1.000000000000000000, 0.000000000000000000 ) ) ;
#135 = EDGE_LOOP ( 'NONE', ( #148, #563 ) ) ;
#136 = EDGE_CURVE ( 'NONE', #1, #910, #116, .T. ) ;
#137 = LINE ( 'NONE', #236, #575 ) ;
#138 = EDGE_CURVE ( 'NONE', #451, #784, #846, .T. ) ;
#139 = CIRCLE ( 'NONE', #768, 0.1406000000000034167 ) ;
#140 = ORIENTED_EDGE ( 'NONE', *, *, #976, .T. ) ;
#141 = CIRCLE ( 'NONE', #279, 0.2500000000000030531 ) ;
#142 = CIRCLE ( 'NONE', #965, 0.1406000000000034167 ) ;
#143 = CYLINDRICAL_SURFACE ( 'NONE', #339, 0.3750000000000002220 ) ;
#144 = DIRECTION ( 'NONE',  ( -0.000000000000000000, 1.000000000000000000, 0.000000000000000000 ) ) ;
#145 = DIRECTION ( 'NONE',  ( 0.000000000000000000, 0.000000000000000000, -1.000000000000000000 ) ) ;
#146 = EDGE_CURVE ( 'NONE', #451, #24, #253, .T. ) ;
#147 = FILL_AREA_STYLE_COLOUR ( '', #463 ) ;
#148 = ORIENTED_EDGE ( 'NONE', *, *, #750, .F. ) ;
#149 = CARTESIAN_POINT ( 'NONE',  ( 2.526252459999997591, 5.199904510000008528, 51.92717851000000451 ) ) ;
#150 = CARTESIAN_POINT ( 'NONE',  ( 2.526252459999997591, 4.949904510000008528, 52.44277851000001078 ) ) ;
#151 = LINE ( 'NONE', #71, #357 ) ;
#152 = CARTESIAN_POINT ( 'NONE',  ( 3.901252459999996702, 5.199904510000008528, 52.67717851000000451 ) ) ;
#153 = EDGE_LOOP ( 'NONE', ( #263, #1036, #1109, #926 ) ) ;
#154 = CARTESIAN_POINT ( 'NONE',  ( 3.526252459999999811, 4.949904510000008528, 50.30217850999999740 ) ) ;
#155 = DIRECTION ( 'NONE',  ( 0.000000000000000000, 0.000000000000000000, -1.000000000000000000 ) ) ;
#156 = ORIENTED_EDGE ( 'NONE', *, *, #244, .F. ) ;
#157 = AXIS2_PLACEMENT_3D ( 'NONE', #95, #10, #361 ) ;
#158 = AXIS2_PLACEMENT_3D ( 'NONE', #914, #508, #1022 ) ;
#159 = ADVANCED_FACE ( 'NONE', ( #346, #429, #86, #261, #600, #355, #779, #342 ), #598, .T. ) ;
#160 = ORIENTED_EDGE ( 'NONE', *, *, #773, .F. ) ;
#161 = AXIS2_PLACEMENT_3D ( 'NONE', #1011, #585, #580 ) ;
#162 = DIRECTION ( 'NONE',  ( 0.000000000000000000, 0.000000000000000000, -1.000000000000000000 ) ) ;
#163 = CARTESIAN_POINT ( 'NONE',  ( 4.526252459999997591, 4.949904510000008528, 51.44277851000000368 ) ) ;
#164 = APPLICATION_PROTOCOL_DEFINITION ( 'draft international standard', 'automotive_design', 1998, #201 ) ;
#165 = CARTESIAN_POINT ( 'NONE',  ( 2.776252459999997146, 4.949904510000008528, 51.67717851000000451 ) ) ;
#166 = FACE_OUTER_BOUND ( 'NONE', #706, .T. ) ;
#167 = EDGE_CURVE ( 'NONE', #782, #619, #171, .T. ) ;
#168 = PRODUCT_RELATED_PRODUCT_CATEGORY ( 'part', '', ( #1047 ) ) ;
#169 = DIRECTION ( 'NONE',  ( -0.000000000000000000, -1.000000000000000000, -0.000000000000000000 ) ) ;
#170 = AXIS2_PLACEMENT_3D ( 'NONE', #186, #980, #892 ) ;
#171 = LINE ( 'NONE', #510, #518 ) ;
#172 = VECTOR ( 'NONE', #19, 39.37007874015748143 ) ;
#173 = ORIENTED_EDGE ( 'NONE', *, *, #681, .T. ) ;
#174 = CARTESIAN_POINT ( 'NONE',  ( 3.526252459999998035, 4.949904510000008528, 51.92717851000000451 ) ) ;
#175 = ADVANCED_FACE ( 'NONE', ( #520, #686, #421, #863, #432, #938, #682, #166 ), #516, .F. ) ;
#176 = EDGE_LOOP ( 'NONE', ( #1013, #484, #265, #478 ) ) ;
#177 = PLANE ( 'NONE',  #757 ) ;
#178 = ORIENTED_EDGE ( 'NONE', *, *, #793, .F. ) ;
#179 = DIRECTION ( 'NONE',  ( -0.000000000000000000, 1.000000000000000000, 0.000000000000000000 ) ) ;
#180 = ORIENTED_EDGE ( 'NONE', *, *, #742, .T. ) ;
#181 = DIRECTION ( 'NONE',  ( 0.000000000000000000, 0.000000000000000000, -1.000000000000000000 ) ) ;
#182 = VERTEX_POINT ( 'NONE', #633 ) ;
#183 = DIRECTION ( 'NONE',  ( 0.000000000000000000, 0.000000000000000000, -1.000000000000000000 ) ) ;
#184 = EDGE_LOOP ( 'NONE', ( #22, #874, #570, #915 ) ) ;
#185 = EDGE_CURVE ( 'NONE', #257, #806, #876, .T. ) ;
#186 = CARTESIAN_POINT ( 'NONE',  ( 4.151252459999996702, 4.949904510000008528, 52.67717851000000451 ) ) ;
#187 = CIRCLE ( 'NONE', #79, 0.3750000000000002220 ) ;
#188 = ORIENTED_EDGE ( 'NONE', *, *, #327, .T. ) ;
#189 = AXIS2_PLACEMENT_3D ( 'NONE', #54, #60, #221 ) ;
#190 = AXIS2_PLACEMENT_3D ( 'NONE', #25, #111, #714 ) ;
#191 = DIRECTION ( 'NONE',  ( -0.000000000000000000, -1.000000000000000000, -0.000000000000000000 ) ) ;
#192 = FACE_OUTER_BOUND ( 'NONE', #1110, .T. ) ;
#193 = ORIENTED_EDGE ( 'NONE', *, *, #59, .F. ) ;
#194 = CARTESIAN_POINT ( 'NONE',  ( 3.151252459999998479, 4.949904510000008528, 50.30217850999999740 ) ) ;
#195 = PRODUCT_DEFINITION_SHAPE ( 'NONE', 'NONE',  #1056 ) ;
#196 = VERTEX_POINT ( 'NONE', #817 ) ;
#197 = DIRECTION ( 'NONE',  ( 0.000000000000000000, 0.000000000000000000, -1.000000000000000000 ) ) ;
#198 = CYLINDRICAL_SURFACE ( 'NONE', #1118, 0.1406000000000034167 ) ;
#199 = ORIENTED_EDGE ( 'NONE', *, *, #889, .T. ) ;
#200 = DIRECTION ( 'NONE',  ( 0.000000000000000000, 0.000000000000000000, -1.000000000000000000 ) ) ;
#201 = APPLICATION_CONTEXT ( 'automotive_design' ) ;
#202 = ORIENTED_EDGE ( 'NONE', *, *, #380, .F. ) ;
#203 = CARTESIAN_POINT ( 'NONE',  ( 2.526252459999997146, 4.949904510000008528, 51.67717851000000451 ) ) ;
#204 = EDGE_CURVE ( 'NONE', #97, #782, #666, .T. ) ;
#205 = EDGE_CURVE ( 'NONE', #460, #1070, #1100, .T. ) ;
#206 = DIRECTION ( 'NONE',  ( 1.000000000000000000, 0.000000000000000000, 0.000000000000000000 ) ) ;
#207 = ORIENTED_EDGE ( 'NONE', *, *, #664, .F. ) ;
#208 = DIRECTION ( 'NONE',  ( -0.000000000000000000, -1.000000000000000000, -0.000000000000000000 ) ) ;
#209 = VERTEX_POINT ( 'NONE', #444 ) ;
#210 = AXIS2_PLACEMENT_3D ( 'NONE', #783, #774, #609 ) ;
#211 = CARTESIAN_POINT ( 'NONE',  ( 3.151252459999998479, 4.949904510000008528, 51.16157850999999823 ) ) ;
#212 = VECTOR ( 'NONE', #549, 39.37007874015748143 ) ;
#213 = AXIS2_PLACEMENT_3D ( 'NONE', #49, #990, #394 ) ;
#214 = DIRECTION ( 'NONE',  ( -0.000000000000000000, -0.000000000000000000, -1.000000000000000000 ) ) ;
#215 = ORIENTED_EDGE ( 'NONE', *, *, #53, .F. ) ;
#216 = LINE ( 'NONE', #1014, #552 ) ;
#217 = ORIENTED_EDGE ( 'NONE', *, *, #845, .T. ) ;
#218 = DIRECTION ( 'NONE',  ( -0.000000000000000000, -1.000000000000000000, -0.000000000000000000 ) ) ;
#219 = DIRECTION ( 'NONE',  ( 0.000000000000000000, 0.000000000000000000, -1.000000000000000000 ) ) ;
#220 = EDGE_LOOP ( 'NONE', ( #297, #1086, #671, #309 ) ) ;
#221 = DIRECTION ( 'NONE',  ( 0.000000000000000000, 0.000000000000000000, -1.000000000000000000 ) ) ;
#222 = LINE ( 'NONE', #653, #734 ) ;
#223 = DIRECTION ( 'NONE',  ( 0.000000000000000000, 0.000000000000000000, -1.000000000000000000 ) ) ;
#224 = DIRECTION ( 'NONE',  ( 0.000000000000000000, 0.000000000000000000, -1.000000000000000000 ) ) ;
#225 = VERTEX_POINT ( 'NONE', #540 ) ;
#226 = DIRECTION ( 'NONE',  ( 0.000000000000000000, -1.000000000000000000, -0.000000000000000000 ) ) ;
#227 = EDGE_CURVE ( 'NONE', #322, #812, #1040, .T. ) ;
#228 = ORIENTED_EDGE ( 'NONE', *, *, #764, .F. ) ;
#229 = CARTESIAN_POINT ( 'NONE',  ( 4.526252459999997591, 5.199904510000008528, 51.30217851000000451 ) ) ;
#230 = VECTOR ( 'NONE', #767, 39.37007874015748143 ) ;
#231 = ORIENTED_EDGE ( 'NONE', *, *, #122, .T. ) ;
#232 = AXIS2_PLACEMENT_3D ( 'NONE', #410, #834, #239 ) ;
#233 = AXIS2_PLACEMENT_3D ( 'NONE', #537, #126, #183 ) ;
#234 = DIRECTION ( 'NONE',  ( 0.000000000000000000, 0.000000000000000000, -1.000000000000000000 ) ) ;
#235 = EDGE_LOOP ( 'NONE', ( #18, #922, #999, #33 ) ) ;
#236 = CARTESIAN_POINT ( 'NONE',  ( 4.151252459999996702, 5.199904510000008528, 51.67717851000000451 ) ) ;
#237 = LINE ( 'NONE', #152, #1061 ) ;
#238 = ORIENTED_EDGE ( 'NONE', *, *, #14, .F. ) ;
#239 = DIRECTION ( 'NONE',  ( 0.000000000000000000, 0.000000000000000000, -1.000000000000000000 ) ) ;
#240 = LINE ( 'NONE', #584, #96 ) ;
#241 = DIRECTION ( 'NONE',  ( 0.000000000000000000, -1.000000000000000000, 0.000000000000000000 ) ) ;
#242 = ADVANCED_FACE ( 'NONE', ( #1057 ), #386, .F. ) ;
#243 = ORIENTED_EDGE ( 'NONE', *, *, #425, .T. ) ;
#244 = EDGE_CURVE ( 'NONE', #304, #821, #1080, .T. ) ;
#245 = ORIENTED_EDGE ( 'NONE', *, *, #1055, .F. ) ;
#246 = DIRECTION ( 'NONE',  ( 0.000000000000000000, 0.000000000000000000, -1.000000000000000000 ) ) ;
#247 = AXIS2_PLACEMENT_3D ( 'NONE', #1039, #250, #91 ) ;
#248 = CIRCLE ( 'NONE', #1042, 0.2500000000000030531 ) ;
#249 = AXIS2_PLACEMENT_3D ( 'NONE', #457, #888, #707 ) ;
#250 = DIRECTION ( 'NONE',  ( -0.000000000000000000, -1.000000000000000000, -0.000000000000000000 ) ) ;
#251 = CARTESIAN_POINT ( 'NONE',  ( 4.901252459999999367, 4.949904510000008528, 51.30217851000000451 ) ) ;
#252 = EDGE_CURVE ( 'NONE', #588, #304, #1076, .T. ) ;
#253 = LINE ( 'NONE', #423, #230 ) ;
#254 = DIRECTION ( 'NONE',  ( -0.000000000000000000, -0.000000000000000000, -1.000000000000000000 ) ) ;
#255 = CARTESIAN_POINT ( 'NONE',  ( 2.526252459999997591, 5.199904510000008528, 52.30217851000000451 ) ) ;
#256 = EDGE_CURVE ( 'NONE', #1070, #798, #881, .T. ) ;
#257 = VERTEX_POINT ( 'NONE', #900 ) ;
#258 = DIRECTION ( 'NONE',  ( -0.000000000000000000, 1.000000000000000000, 0.000000000000000000 ) ) ;
#259 = CIRCLE ( 'NONE', #414, 0.1406000000000034167 ) ;
#260 = CIRCLE ( 'NONE', #1025, 0.1406000000000034167 ) ;
#261 = FACE_BOUND ( 'NONE', #409, .T. ) ;
#262 = AXIS2_PLACEMENT_3D ( 'NONE', #923, #241, #307 ) ;
#263 = ORIENTED_EDGE ( 'NONE', *, *, #954, .F. ) ;
#264 = CARTESIAN_POINT ( 'NONE',  ( 2.526252459999997591, 4.949904510000008528, 52.67717851000000451 ) ) ;
#265 = ORIENTED_EDGE ( 'NONE', *, *, #1043, .T. ) ;
#266 = CARTESIAN_POINT ( 'NONE',  ( 2.776252459999997146, 5.199904510000008528, 51.67717851000000451 ) ) ;
#267 = ORIENTED_EDGE ( 'NONE', *, *, #809, .F. ) ;
#268 = DIRECTION ( 'NONE',  ( 0.000000000000000000, -1.000000000000000000, 0.000000000000000000 ) ) ;
#269 = EDGE_CURVE ( 'NONE', #1048, #353, #319, .T. ) ;
#270 = ORIENTED_EDGE ( 'NONE', *, *, #14, .T. ) ;
#271 = DIRECTION ( 'NONE',  ( 0.000000000000000000, -1.000000000000000000, 0.000000000000000000 ) ) ;
#272 = ORIENTED_EDGE ( 'NONE', *, *, #1030, .F. ) ;
#273 = DIRECTION ( 'NONE',  ( 0.000000000000000000, 0.000000000000000000, -1.000000000000000000 ) ) ;
#274 = LINE ( 'NONE', #964, #736 ) ;
#275 = ORIENTED_EDGE ( 'NONE', *, *, #85, .T. ) ;
#276 = FACE_OUTER_BOUND ( 'NONE', #509, .T. ) ;
#277 = VECTOR ( 'NONE', #512, 39.37007874015748143 ) ;
#278 = VERTEX_POINT ( 'NONE', #29 ) ;
#279 = AXIS2_PLACEMENT_3D ( 'NONE', #50, #587, #224 ) ;
#280 = VECTOR ( 'NONE', #447, 39.37007874015748143 ) ;
#281 = LINE ( 'NONE', #977, #7 ) ;
#282 = VECTOR ( 'NONE', #759, 39.37007874015748143 ) ;
#283 = FACE_OUTER_BOUND ( 'NONE', #716, .T. ) ;
#284 = DIRECTION ( 'NONE',  ( -0.000000000000000000, -1.000000000000000000, -0.000000000000000000 ) ) ;
#285 = EDGE_CURVE ( 'NONE', #806, #257, #827, .T. ) ;
#286 = ORIENTED_EDGE ( 'NONE', *, *, #912, .T. ) ;
#287 = CYLINDRICAL_SURFACE ( 'NONE', #1106, 0.1406000000000034167 ) ;
#288 = LINE ( 'NONE', #721, #375 ) ;
#289 = ORIENTED_EDGE ( 'NONE', *, *, #138, .F. ) ;
#290 = DIRECTION ( 'NONE',  ( 0.000000000000000000, -1.000000000000000000, 0.000000000000000000 ) ) ;
#291 = ORIENTED_EDGE ( 'NONE', *, *, #227, .T. ) ;
#292 = ADVANCED_FACE ( 'NONE', ( #276 ), #626, .T. ) ;
#293 = CYLINDRICAL_SURFACE ( 'NONE', #608, 0.1406000000000034167 ) ;
#294 = DIRECTION ( 'NONE',  ( 0.000000000000000000, 0.000000000000000000, -1.000000000000000000 ) ) ;
#295 = ORIENTED_EDGE ( 'NONE', *, *, #845, .F. ) ;
#296 = CARTESIAN_POINT ( 'NONE',  ( 2.526252459999997591, 4.949904510000008528, 51.92717851000000451 ) ) ;
#297 = ORIENTED_EDGE ( 'NONE', *, *, #724, .F. ) ;
#298 = CIRCLE ( 'NONE', #1004, 0.2500000000000030531 ) ;
#299 = CYLINDRICAL_SURFACE ( 'NONE', #739, 0.1406000000000034167 ) ;
#300 = AXIS2_PLACEMENT_3D ( 'NONE', #28, #364, #469 ) ;
#301 = AXIS2_PLACEMENT_3D ( 'NONE', #229, #824, #328 ) ;
#302 = CARTESIAN_POINT ( 'NONE',  ( 3.901252459999996702, 4.949904510000008528, 51.67717851000000451 ) ) ;
#303 = CIRCLE ( 'NONE', #70, 0.1406000000000034167 ) ;
#304 = VERTEX_POINT ( 'NONE', #723 ) ;
#305 = CARTESIAN_POINT ( 'NONE',  ( 4.526252459999997591, 4.949904510000008528, 52.16157851000000534 ) ) ;
#306 = CARTESIAN_POINT ( 'NONE',  ( 3.901252459999996702, 4.949904510000008528, 51.92717851000000451 ) ) ;
#307 = DIRECTION ( 'NONE',  ( 0.000000000000000000, 0.000000000000000000, -1.000000000000000000 ) ) ;
#308 = FACE_OUTER_BOUND ( 'NONE', #1077, .T. ) ;
#309 = ORIENTED_EDGE ( 'NONE', *, *, #595, .F. ) ;
#310 = EDGE_CURVE ( 'NONE', #1003, #24, #259, .T. ) ;
#311 = CARTESIAN_POINT ( 'NONE',  ( 3.901252459999996702, 4.949904510000008528, 51.92717851000000451 ) ) ;
#312 = ORIENTED_EDGE ( 'NONE', *, *, #438, .F. ) ;
#313 = CARTESIAN_POINT ( 'NONE',  ( 3.526252459999998035, 4.949904510000008528, 51.67717851000000451 ) ) ;
#314 =( NAMED_UNIT ( * ) SI_UNIT ( $, .STERADIAN. ) SOLID_ANGLE_UNIT ( ) );
#315 = ORIENTED_EDGE ( 'NONE', *, *, #581, .F. ) ;
#316 = CYLINDRICAL_SURFACE ( 'NONE', #1006, 0.1406000000000034167 ) ;
#317 = ORIENTED_EDGE ( 'NONE', *, *, #136, .F. ) ;
#318 = CARTESIAN_POINT ( 'NONE',  ( 4.901252459999999367, 4.949904510000008528, 51.30217851000000451 ) ) ;
#319 = CIRCLE ( 'NONE', #605, 0.3750000000000002220 ) ;
#320 = CIRCLE ( 'NONE', #623, 0.1406000000000034167 ) ;
#321 = SURFACE_STYLE_USAGE ( .BOTH. , #748 ) ;
#322 = VERTEX_POINT ( 'NONE', #296 ) ;
#323 = VECTOR ( 'NONE', #214, 39.37007874015748143 ) ;
#324 = CIRCLE ( 'NONE', #341, 0.1406000000000034167 ) ;
#325 = DIRECTION ( 'NONE',  ( -0.000000000000000000, -1.000000000000000000, -0.000000000000000000 ) ) ;
#326 = CARTESIAN_POINT ( 'NONE',  ( 4.526252459999997591, 4.949904510000008528, 53.30217851000001161 ) ) ;
#327 = EDGE_CURVE ( 'NONE', #833, #1020, #393, .T. ) ;
#328 = DIRECTION ( 'NONE',  ( 0.000000000000000000, 0.000000000000000000, -1.000000000000000000 ) ) ;
#329 = ADVANCED_FACE ( 'NONE', ( #527 ), #103, .T. ) ;
#330 = LINE ( 'NONE', #1044, #627 ) ;
#331 = EDGE_LOOP ( 'NONE', ( #979, #317, #370, #69 ) ) ;
#332 = VERTEX_POINT ( 'NONE', #705 ) ;
#333 = LENGTH_MEASURE_WITH_UNIT ( LENGTH_MEASURE( 0.02539999999999999897 ), #486 );
#334 = CARTESIAN_POINT ( 'NONE',  ( 2.776252459999997146, 5.199904510000008528, 51.92717851000000451 ) ) ;
#335 = DIRECTION ( 'NONE',  ( 0.000000000000000000, 0.000000000000000000, -1.000000000000000000 ) ) ;
#336 = DIRECTION ( 'NONE',  ( 0.000000000000000000, 0.000000000000000000, -1.000000000000000000 ) ) ;
#337 = AXIS2_PLACEMENT_3D ( 'NONE', #326, #673, #1015 ) ;
#338 = EDGE_CURVE ( 'NONE', #784, #451, #139, .T. ) ;
#339 = AXIS2_PLACEMENT_3D ( 'NONE', #405, #1102, #564 ) ;
#340 = EDGE_CURVE ( 'NONE', #699, #3, #366, .T. ) ;
#341 = AXIS2_PLACEMENT_3D ( 'NONE', #934, #88, #162 ) ;
#342 = FACE_OUTER_BOUND ( 'NONE', #550, .T. ) ;
#343 =( CONVERSION_BASED_UNIT ( 'INCH', #333 ) LENGTH_UNIT ( ) NAMED_UNIT ( #1021 ) );
#344 = LINE ( 'NONE', #174, #648 ) ;
#345 = EDGE_CURVE ( 'NONE', #209, #460, #400, .T. ) ;
#346 = FACE_BOUND ( 'NONE', #1052, .T. ) ;
#347 = SHAPE_DEFINITION_REPRESENTATION ( #195, #504 ) ;
#348 = ORIENTED_EDGE ( 'NONE', *, *, #927, .T. ) ;
#349 = DIRECTION ( 'NONE',  ( 0.000000000000000000, 0.000000000000000000, -1.000000000000000000 ) ) ;
#350 = DIRECTION ( 'NONE',  ( 0.000000000000000000, -1.000000000000000000, 0.000000000000000000 ) ) ;
#351 = VERTEX_POINT ( 'NONE', #652 ) ;
#352 = FACE_OUTER_BOUND ( 'NONE', #725, .T. ) ;
#353 = VERTEX_POINT ( 'NONE', #149 ) ;
#354 = VECTOR ( 'NONE', #801, 39.37007874015748143 ) ;
#355 = FACE_BOUND ( 'NONE', #1105, .T. ) ;
#356 = AXIS2_PLACEMENT_3D ( 'NONE', #83, #169, #440 ) ;
#357 = VECTOR ( 'NONE', #500, 39.37007874015748143 ) ;
#358 = ORIENTED_EDGE ( 'NONE', *, *, #205, .F. ) ;
#359 = CARTESIAN_POINT ( 'NONE',  ( 3.151252459999998479, 5.199904510000008528, 50.30217850999999740 ) ) ;
#360 = VERTEX_POINT ( 'NONE', #305 ) ;
#361 = DIRECTION ( 'NONE',  ( 0.000000000000000000, 0.000000000000000000, 1.000000000000000000 ) ) ;
#362 = ORIENTED_EDGE ( 'NONE', *, *, #595, .T. ) ;
#363 = CARTESIAN_POINT ( 'NONE',  ( 3.526252459999998035, 5.199904510000008528, 52.44277851000001078 ) ) ;
#364 = DIRECTION ( 'NONE',  ( -0.000000000000000000, -1.000000000000000000, -0.000000000000000000 ) ) ;
#365 = ORIENTED_EDGE ( 'NONE', *, *, #1029, .F. ) ;
#366 = LINE ( 'NONE', #311, #860 ) ;
#367 = ORIENTED_EDGE ( 'NONE', *, *, #90, .T. ) ;
#368 = CARTESIAN_POINT ( 'NONE',  ( 4.526252459999997591, 4.949904510000008528, 51.16157850999999823 ) ) ;
#369 = CARTESIAN_POINT ( 'NONE',  ( 3.151252459999998479, 5.199904510000008528, 50.44277851000000368 ) ) ;
#370 = ORIENTED_EDGE ( 'NONE', *, *, #708, .T. ) ;
#371 = ADVANCED_FACE ( 'NONE', ( #735 ), #316, .F. ) ;
#372 = ADVANCED_FACE ( 'NONE', ( #578 ), #828, .F. ) ;
#373 = DIRECTION ( 'NONE',  ( 0.000000000000000000, -1.000000000000000000, 0.000000000000000000 ) ) ;
#374 = VERTEX_POINT ( 'NONE', #839 ) ;
#375 = VECTOR ( 'NONE', #544, 39.37007874015748143 ) ;
#376 = AXIS2_PLACEMENT_3D ( 'NONE', #869, #1038, #246 ) ;
#377 = FACE_OUTER_BOUND ( 'NONE', #184, .T. ) ;
#378 = DIRECTION ( 'NONE',  ( 0.000000000000000000, 0.000000000000000000, -1.000000000000000000 ) ) ;
#379 = ORIENTED_EDGE ( 'NONE', *, *, #571, .T. ) ;
#380 = EDGE_CURVE ( 'NONE', #821, #304, #683, .T. ) ;
#381 = DIRECTION ( 'NONE',  ( 0.000000000000000000, 0.000000000000000000, -1.000000000000000000 ) ) ;
#382 = ORIENTED_EDGE ( 'NONE', *, *, #807, .T. ) ;
#383 = CARTESIAN_POINT ( 'NONE',  ( 4.526252459999997591, 4.949904510000008528, 51.30217851000000451 ) ) ;
#384 = DIRECTION ( 'NONE',  ( -0.000000000000000000, -1.000000000000000000, -0.000000000000000000 ) ) ;
#385 = EDGE_LOOP ( 'NONE', ( #188, #499 ) ) ;
#386 = PLANE ( 'NONE',  #170 ) ;
#387 = ORIENTED_EDGE ( 'NONE', *, *, #425, .F. ) ;
#388 = PLANE ( 'NONE',  #1063 ) ;
#389 = DIRECTION ( 'NONE',  ( 0.000000000000000000, 0.000000000000000000, -1.000000000000000000 ) ) ;
#390 = ORIENTED_EDGE ( 'NONE', *, *, #338, .F. ) ;
#391 = LINE ( 'NONE', #1005, #624 ) ;
#392 = VERTEX_POINT ( 'NONE', #560 ) ;
#393 = CIRCLE ( 'NONE', #1023, 0.1406000000000034167 ) ;
#394 = DIRECTION ( 'NONE',  ( 0.000000000000000000, 0.000000000000000000, -1.000000000000000000 ) ) ;
#395 = ADVANCED_FACE ( 'NONE', ( #916 ), #143, .T. ) ;
#396 = VECTOR ( 'NONE', #883, 39.37007874015748143 ) ;
#397 = EDGE_CURVE ( 'NONE', #133, #353, #248, .T. ) ;
#398 = PRESENTATION_STYLE_ASSIGNMENT (( #321 ) ) ;
#399 = EDGE_LOOP ( 'NONE', ( #553, #613, #690, #818 ) ) ;
#400 = LINE ( 'NONE', #569, #877 ) ;
#401 = CARTESIAN_POINT ( 'NONE',  ( 3.526252459999998035, 5.199904510000008528, 52.16157851000000534 ) ) ;
#402 = DIRECTION ( 'NONE',  ( -0.000000000000000000, -1.000000000000000000, -0.000000000000000000 ) ) ;
#403 = FILL_AREA_STYLE ('',( #147 ) ) ;
#404 = ORIENTED_EDGE ( 'NONE', *, *, #167, .T. ) ;
#405 = CARTESIAN_POINT ( 'NONE',  ( 3.151252459999998479, 4.949904510000008528, 50.30217850999999740 ) ) ;
#406 = DIRECTION ( 'NONE',  ( 0.000000000000000000, 0.000000000000000000, 1.000000000000000000 ) ) ;
#407 = CARTESIAN_POINT ( 'NONE',  ( 2.526252459999997591, 5.199904510000008528, 52.67717851000000451 ) ) ;
#408 = DIRECTION ( 'NONE',  ( -2.731847993664253851E-16, 0.000000000000000000, 1.000000000000000000 ) ) ;
#409 = EDGE_LOOP ( 'NONE', ( #156, #202 ) ) ;
#410 = CARTESIAN_POINT ( 'NONE',  ( 3.776252459999997591, 4.949904510000008528, 51.67717851000000451 ) ) ;
#411 = EDGE_CURVE ( 'NONE', #733, #55, #911, .T. ) ;
#412 = LINE ( 'NONE', #154, #531 ) ;
#413 = CARTESIAN_POINT ( 'NONE',  ( 4.526252459999997591, 4.949904510000008528, 52.44277851000001078 ) ) ;
#414 = AXIS2_PLACEMENT_3D ( 'NONE', #959, #1071, #729 ) ;
#415 = AXIS2_PLACEMENT_3D ( 'NONE', #302, #107, #631 ) ;
#416 = PLANE ( 'NONE',  #606 ) ;
#417 = ORIENTED_EDGE ( 'NONE', *, *, #380, .T. ) ;
#418 = CIRCLE ( 'NONE', #533, 0.1406000000000034167 ) ;
#419 = ORIENTED_EDGE ( 'NONE', *, *, #1104, .F. ) ;
#420 =( NAMED_UNIT ( * ) PLANE_ANGLE_UNIT ( ) SI_UNIT ( $, .RADIAN. ) );
#421 = FACE_BOUND ( 'NONE', #9, .T. ) ;
#422 = CARTESIAN_POINT ( 'NONE',  ( 4.151252459999996702, 5.199904510000008528, 51.92717851000000451 ) ) ;
#423 = CARTESIAN_POINT ( 'NONE',  ( 2.526252459999997591, 4.949904510000008528, 52.44277851000001078 ) ) ;
#424 = CYLINDRICAL_SURFACE ( 'NONE', #1027, 0.1406000000000034167 ) ;
#425 = EDGE_CURVE ( 'NONE', #1019, #472, #216, .T. ) ;
#426 = VECTOR ( 'NONE', #949, 39.37007874015748143 ) ;
#427 = CIRCLE ( 'NONE', #158, 0.1406000000000034167 ) ;
#428 =( GEOMETRIC_REPRESENTATION_CONTEXT ( 3 ) GLOBAL_UNCERTAINTY_ASSIGNED_CONTEXT ( ( #1037 ) ) GLOBAL_UNIT_ASSIGNED_CONTEXT ( ( #832, #420, #314 ) ) REPRESENTATION_CONTEXT ( 'NONE', 'WORKASPACE' ) );
#429 = FACE_BOUND ( 'NONE', #656, .T. ) ;
#430 = ORIENTED_EDGE ( 'NONE', *, *, #340, .F. ) ;
#431 = LINE ( 'NONE', #422, #99 ) ;
#432 = FACE_BOUND ( 'NONE', #385, .T. ) ;
#433 = ORIENTED_EDGE ( 'NONE', *, *, #939, .F. ) ;
#434 = DIRECTION ( 'NONE',  ( -0.000000000000000000, -1.000000000000000000, -0.000000000000000000 ) ) ;
#435 = ORIENTED_EDGE ( 'NONE', *, *, #641, .F. ) ;
#436 = ADVANCED_FACE ( 'NONE', ( #672 ), #491, .T. ) ;
#437 = CARTESIAN_POINT ( 'NONE',  ( 4.526252459999997591, 5.199904510000008528, 52.30217851000000451 ) ) ;
#438 = EDGE_CURVE ( 'NONE', #887, #58, #260, .T. ) ;
#439 = ORIENTED_EDGE ( 'NONE', *, *, #602, .F. ) ;
#440 = DIRECTION ( 'NONE',  ( 0.000000000000000000, 0.000000000000000000, -1.000000000000000000 ) ) ;
#441 = ORIENTED_EDGE ( 'NONE', *, *, #1009, .F. ) ;
#442 = CLOSED_SHELL ( 'NONE', ( #1078, #871, #772, #503, #993, #844, #603, #20, #594, #542, #292, #693, #329, #242, #857, #436, #123, #395, #574, #159, #175, #856, #458, #711, #371, #895, #1114, #51, #952, #559, #513, #372 ) ) ;
#443 = CIRCLE ( 'NONE', #27, 0.2500000000000030531 ) ;
#444 = CARTESIAN_POINT ( 'NONE',  ( 4.151252459999996702, 4.949904510000008528, 51.30217851000000451 ) ) ;
#445 = CIRCLE ( 'NONE', #356, 0.1406000000000034167 ) ;
#446 = ORIENTED_EDGE ( 'NONE', *, *, #1065, .T. ) ;
#447 = DIRECTION ( 'NONE',  ( 0.000000000000000000, 1.000000000000000000, 0.000000000000000000 ) ) ;
#448 = LINE ( 'NONE', #112, #323 ) ;
#449 = ORIENTED_EDGE ( 'NONE', *, *, #285, .T. ) ;
#450 = CARTESIAN_POINT ( 'NONE',  ( 2.526252459999997591, 5.199904510000008528, 52.30217851000000451 ) ) ;
#451 = VERTEX_POINT ( 'NONE', #822 ) ;
#452 = DIRECTION ( 'NONE',  ( -1.000000000000000000, 0.000000000000000000, -0.000000000000000000 ) ) ;
#453 = EDGE_CURVE ( 'NONE', #225, #97, #391, .T. ) ;
#454 = CARTESIAN_POINT ( 'NONE',  ( 3.151252459999998479, 4.949904510000008528, 51.16157850999999823 ) ) ;
#455 = CARTESIAN_POINT ( 'NONE',  ( 3.151252459999998479, 5.199904510000008528, 50.30217850999999740 ) ) ;
#456 = ORIENTED_EDGE ( 'NONE', *, *, #939, .T. ) ;
#457 = CARTESIAN_POINT ( 'NONE',  ( 3.151252459999998479, 4.949904510000008528, 51.30217851000000451 ) ) ;
#458 = ADVANCED_FACE ( 'NONE', ( #657 ), #1000, .F. ) ;
#459 = FACE_OUTER_BOUND ( 'NONE', #601, .T. ) ;
#460 = VERTEX_POINT ( 'NONE', #21 ) ;
#461 = AXIS2_PLACEMENT_3D ( 'NONE', #718, #271, #532 ) ;
#462 = DIRECTION ( 'NONE',  ( 0.000000000000000000, 0.000000000000000000, -1.000000000000000000 ) ) ;
#463 = COLOUR_RGB ( '',0.7921568627450980005, 0.8196078431372548767, 0.9333333333333333481 ) ;
#464 = ORIENTED_EDGE ( 'NONE', *, *, #664, .T. ) ;
#465 = CIRCLE ( 'NONE', #519, 0.1406000000000034167 ) ;
#466 = CIRCLE ( 'NONE', #669, 0.1406000000000034167 ) ;
#467 = CARTESIAN_POINT ( 'NONE',  ( 4.526252459999997591, 5.199904510000008528, 51.30217851000000451 ) ) ;
#468 = VECTOR ( 'NONE', #649, 39.37007874015748143 ) ;
#469 = DIRECTION ( 'NONE',  ( 0.000000000000000000, 0.000000000000000000, -1.000000000000000000 ) ) ;
#470 = ORIENTED_EDGE ( 'NONE', *, *, #680, .F. ) ;
#471 = DIRECTION ( 'NONE',  ( -0.000000000000000000, -1.000000000000000000, -0.000000000000000000 ) ) ;
#472 = VERTEX_POINT ( 'NONE', #983 ) ;
#473 = LINE ( 'NONE', #819, #771 ) ;
#474 = FACE_OUTER_BOUND ( 'NONE', #746, .T. ) ;
#475 = ORIENTED_EDGE ( 'NONE', *, *, #84, .T. ) ;
#476 = DIRECTION ( 'NONE',  ( -0.000000000000000000, 1.000000000000000000, 0.000000000000000000 ) ) ;
#477 = EDGE_CURVE ( 'NONE', #351, #182, #972, .T. ) ;
#478 = ORIENTED_EDGE ( 'NONE', *, *, #912, .F. ) ;
#479 = EDGE_CURVE ( 'NONE', #776, #733, #448, .T. ) ;
#480 = DIRECTION ( 'NONE',  ( -0.000000000000000000, 1.000000000000000000, -0.000000000000000000 ) ) ;
#481 = CARTESIAN_POINT ( 'NONE',  ( 4.526252459999997591, 5.199904510000008528, 53.30217851000001161 ) ) ;
#482 = VERTEX_POINT ( 'NONE', #454 ) ;
#483 = DIRECTION ( 'NONE',  ( -0.000000000000000000, -1.000000000000000000, -0.000000000000000000 ) ) ;
#484 = ORIENTED_EDGE ( 'NONE', *, *, #773, .T. ) ;
#485 = AXIS2_PLACEMENT_3D ( 'NONE', #194, #208, #114 ) ;
#486 =( LENGTH_UNIT ( ) NAMED_UNIT ( * ) SI_UNIT ( $, .METRE. ) );
#487 = VECTOR ( 'NONE', #991, 39.37007874015748143 ) ;
#488 = AXIS2_PLACEMENT_3D ( 'NONE', #522, #434, #273 ) ;
#489 = LENGTH_MEASURE_WITH_UNIT ( LENGTH_MEASURE( 0.02539999999999999897 ), #661 );
#490 = EDGE_LOOP ( 'NONE', ( #173, #1093 ) ) ;
#491 = CYLINDRICAL_SURFACE ( 'NONE', #788, 0.3750000000000002220 ) ;
#492 = CARTESIAN_POINT ( 'NONE',  ( 3.151252459999998479, 5.199904510000008528, 50.30217850999999740 ) ) ;
#493 = CARTESIAN_POINT ( 'NONE',  ( 4.526252459999997591, 4.949904510000008528, 51.16157850999999823 ) ) ;
#494 = DIRECTION ( 'NONE',  ( -0.000000000000000000, 1.000000000000000000, 0.000000000000000000 ) ) ;
#495 = EDGE_CURVE ( 'NONE', #1019, #351, #6, .T. ) ;
#496 = VERTEX_POINT ( 'NONE', #556 ) ;
#497 = DIRECTION ( 'NONE',  ( 0.000000000000000000, 0.000000000000000000, -1.000000000000000000 ) ) ;
#498 = DIMENSIONAL_EXPONENTS ( 1.000000000000000000, 0.000000000000000000, 0.000000000000000000, 0.000000000000000000, 0.000000000000000000, 0.000000000000000000, 0.000000000000000000 ) ;
#499 = ORIENTED_EDGE ( 'NONE', *, *, #536, .T. ) ;
#500 = DIRECTION ( 'NONE',  ( -1.000000000000000000, -0.000000000000000000, -0.000000000000000000 ) ) ;
#501 = CARTESIAN_POINT ( 'NONE',  ( 2.526252459999997591, 4.949904510000008528, 52.67717851000000451 ) ) ;
#502 = ORIENTED_EDGE ( 'NONE', *, *, #688, .T. ) ;
#503 = ADVANCED_FACE ( 'NONE', ( #283 ), #198, .F. ) ;
#504 = ADVANCED_BREP_SHAPE_REPRESENTATION ( 'module base bracket 1', ( #697, #901 ), #700 ) ;
#505 = CARTESIAN_POINT ( 'NONE',  ( 4.151252459999996702, 4.949904510000008528, 52.92717851000001161 ) ) ;
#506 = LINE ( 'NONE', #674, #967 ) ;
#507 = AXIS2_PLACEMENT_3D ( 'NONE', #551, #1051, #968 ) ;
#508 = DIRECTION ( 'NONE',  ( -0.000000000000000000, -1.000000000000000000, -0.000000000000000000 ) ) ;
#509 = EDGE_LOOP ( 'NONE', ( #110, #662, #743, #541 ) ) ;
#510 = CARTESIAN_POINT ( 'NONE',  ( 3.526252459999999811, 5.199904510000008528, 50.30217850999999740 ) ) ;
#511 = CARTESIAN_POINT ( 'NONE',  ( 3.901252459999996702, 5.199904510000008528, 51.92717851000000451 ) ) ;
#512 = DIRECTION ( 'NONE',  ( -0.000000000000000000, -1.000000000000000000, -0.000000000000000000 ) ) ;
#513 = ADVANCED_FACE ( 'NONE', ( #474 ), #820, .F. ) ;
#514 = EDGE_CURVE ( 'NONE', #784, #1003, #795, .T. ) ;
#515 = DIRECTION ( 'NONE',  ( -0.000000000000000000, -1.000000000000000000, -0.000000000000000000 ) ) ;
#516 = PLANE ( 'NONE',  #26 ) ;
#517 = CARTESIAN_POINT ( 'NONE',  ( 4.526252459999997591, 4.949904510000008528, 52.44277851000001078 ) ) ;
#518 = VECTOR ( 'NONE', #1117, 39.37007874015748143 ) ;
#519 = AXIS2_PLACEMENT_3D ( 'NONE', #567, #842, #576 ) ;
#520 = FACE_BOUND ( 'NONE', #490, .T. ) ;
#521 = EDGE_LOOP ( 'NONE', ( #676, #1099, #207, #893 ) ) ;
#522 = CARTESIAN_POINT ( 'NONE',  ( 3.526252459999998035, 4.949904510000008528, 52.30217851000000451 ) ) ;
#523 = CARTESIAN_POINT ( 'NONE',  ( 3.901252459999996702, 5.199904510000008528, 52.92717851000001161 ) ) ;
#524 = ORIENTED_EDGE ( 'NONE', *, *, #1095, .T. ) ;
#525 = CARTESIAN_POINT ( 'NONE',  ( 4.151252459999996702, 4.949904510000008528, 52.67717851000000451 ) ) ;
#526 = ORIENTED_EDGE ( 'NONE', *, *, #252, .T. ) ;
#527 = FACE_OUTER_BOUND ( 'NONE', #622, .T. ) ;
#528 = EDGE_LOOP ( 'NONE', ( #535, #217 ) ) ;
#529 = CARTESIAN_POINT ( 'NONE',  ( 3.151252459999998479, 4.949904510000008528, 50.30217850999999740 ) ) ;
#530 = ORIENTED_EDGE ( 'NONE', *, *, #724, .T. ) ;
#531 = VECTOR ( 'NONE', #996, 39.37007874015748143 ) ;
#532 = DIRECTION ( 'NONE',  ( 0.000000000000000000, 0.000000000000000000, -1.000000000000000000 ) ) ;
#533 = AXIS2_PLACEMENT_3D ( 'NONE', #467, #794, #31 ) ;
#534 = EDGE_CURVE ( 'NONE', #812, #133, #896, .T. ) ;
#535 = ORIENTED_EDGE ( 'NONE', *, *, #136, .T. ) ;
#536 = EDGE_CURVE ( 'NONE', #1020, #833, #81, .T. ) ;
#537 = CARTESIAN_POINT ( 'NONE',  ( 3.526252459999998035, 5.199904510000008528, 52.30217851000000451 ) ) ;
#538 = CARTESIAN_POINT ( 'NONE',  ( 3.526252459999999811, 4.949904510000008528, 50.30217850999999740 ) ) ;
#539 = VERTEX_POINT ( 'NONE', #369 ) ;
#540 = CARTESIAN_POINT ( 'NONE',  ( 2.776252459999997146, 4.949904510000008528, 50.30217850999999740 ) ) ;
#541 = ORIENTED_EDGE ( 'NONE', *, *, #345, .T. ) ;
#542 = ADVANCED_FACE ( 'NONE', ( #709 ), #1081, .F. ) ;
#543 = CARTESIAN_POINT ( 'NONE',  ( 2.526252459999997591, 4.949904510000008528, 52.30217851000000451 ) ) ;
#544 = DIRECTION ( 'NONE',  ( -0.000000000000000000, -1.000000000000000000, -0.000000000000000000 ) ) ;
#545 = EDGE_LOOP ( 'NONE', ( #643, #953, #891, #577 ) ) ;
#546 = CARTESIAN_POINT ( 'NONE',  ( 2.526252459999997146, 4.949904510000008528, 51.67717851000000451 ) ) ;
#547 = EDGE_LOOP ( 'NONE', ( #565, #215, #433, #362 ) ) ;
#548 = DIRECTION ( 'NONE',  ( 0.000000000000000000, 0.000000000000000000, -1.000000000000000000 ) ) ;
#549 = DIRECTION ( 'NONE',  ( -0.000000000000000000, -1.000000000000000000, -0.000000000000000000 ) ) ;
#550 = EDGE_LOOP ( 'NONE', ( #270, #763, #902, #73, #348, #475, #87, #115, #502, #866, #94, #530, #456, #291, #275, #790 ) ) ;
#551 = CARTESIAN_POINT ( 'NONE',  ( 3.526252459999998035, 4.949904510000008528, 52.30217851000000451 ) ) ;
#552 = VECTOR ( 'NONE', #325, 39.37007874015748143 ) ;
#553 = ORIENTED_EDGE ( 'NONE', *, *, #204, .T. ) ;
#554 = CIRCLE ( 'NONE', #262, 0.3750000000000002220 ) ;
#555 = DIRECTION ( 'NONE',  ( 0.000000000000000000, 0.000000000000000000, -1.000000000000000000 ) ) ;
#556 = CARTESIAN_POINT ( 'NONE',  ( 3.901252459999996702, 5.199904510000008528, 52.67717851000000451 ) ) ;
#557 = ORIENTED_EDGE ( 'NONE', *, *, #340, .T. ) ;
#558 = EDGE_CURVE ( 'NONE', #619, #1089, #978, .T. ) ;
#559 = ADVANCED_FACE ( 'NONE', ( #727 ), #38, .F. ) ;
#560 = CARTESIAN_POINT ( 'NONE',  ( 4.901252459999999367, 4.949904510000008528, 51.30217851000000451 ) ) ;
#561 = VERTEX_POINT ( 'NONE', #884 ) ;
#562 = CARTESIAN_POINT ( 'NONE',  ( 2.526252459999997591, 4.949904510000008528, 52.30217851000000451 ) ) ;
#563 = ORIENTED_EDGE ( 'NONE', *, *, #925, .F. ) ;
#564 = DIRECTION ( 'NONE',  ( 0.000000000000000000, 0.000000000000000000, 1.000000000000000000 ) ) ;
#565 = ORIENTED_EDGE ( 'NONE', *, *, #269, .T. ) ;
#566 = DIRECTION ( 'NONE',  ( 0.000000000000000000, 0.000000000000000000, -1.000000000000000000 ) ) ;
#567 = CARTESIAN_POINT ( 'NONE',  ( 4.526252459999997591, 4.949904510000008528, 52.30217851000000451 ) ) ;
#568 = ORIENTED_EDGE ( 'NONE', *, *, #1115, .F. ) ;
#569 = CARTESIAN_POINT ( 'NONE',  ( 4.151252459999996702, 4.949904510000008528, 51.30217851000000451 ) ) ;
#570 = ORIENTED_EDGE ( 'NONE', *, *, #59, .T. ) ;
#571 = EDGE_CURVE ( 'NONE', #847, #699, #274, .T. ) ;
#572 = CARTESIAN_POINT ( 'NONE',  ( 3.151252459999998479, 5.199904510000008528, 51.44277851000000368 ) ) ;
#573 = VECTOR ( 'NONE', #226, 39.37007874015748143 ) ;
#574 = ADVANCED_FACE ( 'NONE', ( #192 ), #732, .F. ) ;
#575 = VECTOR ( 'NONE', #62, 39.37007874015748143 ) ;
#576 = DIRECTION ( 'NONE',  ( 0.000000000000000000, 0.000000000000000000, -1.000000000000000000 ) ) ;
#577 = ORIENTED_EDGE ( 'NONE', *, *, #345, .F. ) ;
#578 = FACE_OUTER_BOUND ( 'NONE', #521, .T. ) ;
#579 = ORIENTED_EDGE ( 'NONE', *, *, #310, .T. ) ;
#580 = DIRECTION ( 'NONE',  ( 0.000000000000000000, 0.000000000000000000, -1.000000000000000000 ) ) ;
#581 = EDGE_CURVE ( 'NONE', #539, #821, #288, .T. ) ;
#582 = DIRECTION ( 'NONE',  ( -0.000000000000000000, -1.000000000000000000, -0.000000000000000000 ) ) ;
#583 = ORIENTED_EDGE ( 'NONE', *, *, #338, .T. ) ;
#584 = CARTESIAN_POINT ( 'NONE',  ( 2.526252459999997591, 4.949904510000008528, 51.92717851000000451 ) ) ;
#585 = DIRECTION ( 'NONE',  ( -0.000000000000000000, -1.000000000000000000, -0.000000000000000000 ) ) ;
#586 = PRODUCT_DEFINITION_CONTEXT ( 'detailed design', #787, 'design' ) ;
#587 = DIRECTION ( 'NONE',  ( -0.000000000000000000, 1.000000000000000000, -0.000000000000000000 ) ) ;
#588 = VERTEX_POINT ( 'NONE', #890 ) ;
#589 = ORIENTED_EDGE ( 'NONE', *, *, #85, .F. ) ;
#590 = AXIS2_PLACEMENT_3D ( 'NONE', #918, #144, #406 ) ;
#591 = CIRCLE ( 'NONE', #944, 0.3750000000000002220 ) ;
#592 = DIRECTION ( 'NONE',  ( -1.000000000000000000, -0.000000000000000000, -0.000000000000000000 ) ) ;
#593 = VECTOR ( 'NONE', #836, 39.37007874015748143 ) ;
#594 = ADVANCED_FACE ( 'NONE', ( #459 ), #805, .F. ) ;
#595 = EDGE_CURVE ( 'NONE', #278, #1048, #670, .T. ) ;
#596 = CARTESIAN_POINT ( 'NONE',  ( 4.526252459999997591, 4.949904510000008528, 52.16157851000000534 ) ) ;
#597 = CARTESIAN_POINT ( 'NONE',  ( 4.526252459999997591, 5.199904510000008528, 53.30217851000001161 ) ) ;
#598 = PLANE ( 'NONE',  #931 ) ;
#599 = CYLINDRICAL_SURFACE ( 'NONE', #376, 0.1406000000000034167 ) ;
#600 = FACE_BOUND ( 'NONE', #135, .T. ) ;
#601 = EDGE_LOOP ( 'NONE', ( #379, #557, #1067, #140 ) ) ;
#602 = EDGE_CURVE ( 'NONE', #58, #887, #427, .T. ) ;
#603 = ADVANCED_FACE ( 'NONE', ( #308 ), #132, .F. ) ;
#604 = CARTESIAN_POINT ( 'NONE',  ( 3.151252459999998479, 4.949904510000008528, 50.44277851000000368 ) ) ;
#605 = AXIS2_PLACEMENT_3D ( 'NONE', #23, #34, #872 ) ;
#606 = AXIS2_PLACEMENT_3D ( 'NONE', #761, #1108, #408 ) ;
#607 = AXIS2_PLACEMENT_3D ( 'NONE', #529, #268, #616 ) ;
#608 = AXIS2_PLACEMENT_3D ( 'NONE', #383, #191, #197 ) ;
#609 = DIRECTION ( 'NONE',  ( 0.000000000000000000, 0.000000000000000000, -1.000000000000000000 ) ) ;
#610 = PRODUCT_DEFINITION_FORMATION_WITH_SPECIFIED_SOURCE ( 'ANY', '', #1047, .NOT_KNOWN. ) ;
#611 = ORIENTED_EDGE ( 'NONE', *, *, #708, .F. ) ;
#612 = DIRECTION ( 'NONE',  ( 0.000000000000000000, 0.000000000000000000, -1.000000000000000000 ) ) ;
#613 = ORIENTED_EDGE ( 'NONE', *, *, #13, .F. ) ;
#614 = CARTESIAN_POINT ( 'NONE',  ( 4.526252459999997591, 4.949904510000008528, 51.30217851000000451 ) ) ;
#615 = ORIENTED_EDGE ( 'NONE', *, *, #227, .F. ) ;
#616 = DIRECTION ( 'NONE',  ( 0.000000000000000000, 0.000000000000000000, -1.000000000000000000 ) ) ;
#617 = ORIENTED_EDGE ( 'NONE', *, *, #1043, .F. ) ;
#618 = CARTESIAN_POINT ( 'NONE',  ( 4.901252459999999367, 5.199904510000008528, 51.30217851000000451 ) ) ;
#619 = VERTEX_POINT ( 'NONE', #679 ) ;
#620 = FACE_OUTER_BOUND ( 'NONE', #220, .T. ) ;
#621 = DIRECTION ( 'NONE',  ( 0.000000000000000000, -1.000000000000000000, 0.000000000000000000 ) ) ;
#622 = EDGE_LOOP ( 'NONE', ( #160, #966, #762, #382 ) ) ;
#623 = AXIS2_PLACEMENT_3D ( 'NONE', #437, #1046, #855 ) ;
#624 = VECTOR ( 'NONE', #1090, 39.37007874015748143 ) ;
#625 = EDGE_CURVE ( 'NONE', #3, #737, #141, .T. ) ;
#626 = CYLINDRICAL_SURFACE ( 'NONE', #962, 0.3750000000000002220 ) ;
#627 = VECTOR ( 'NONE', #703, 39.37007874015748143 ) ;
#628 = AXIS2_PLACEMENT_3D ( 'NONE', #562, #740, #223 ) ;
#629 = ORIENTED_EDGE ( 'NONE', *, *, #873, .F. ) ;
#630 = DIRECTION ( 'NONE',  ( -0.000000000000000000, -1.000000000000000000, -0.000000000000000000 ) ) ;
#631 = DIRECTION ( 'NONE',  ( 0.000000000000000000, 0.000000000000000000, -1.000000000000000000 ) ) ;
#632 = ORIENTED_EDGE ( 'NONE', *, *, #35, .T. ) ;
#633 = CARTESIAN_POINT ( 'NONE',  ( 4.526252459999997591, 4.949904510000008528, 53.16157851000000534 ) ) ;
#634 = ORIENTED_EDGE ( 'NONE', *, *, #536, .F. ) ;
#635 = CYLINDRICAL_SURFACE ( 'NONE', #1103, 0.1406000000000034167 ) ;
#636 = DIRECTION ( 'NONE',  ( -0.000000000000000000, -1.000000000000000000, -0.000000000000000000 ) ) ;
#637 = ORIENTED_EDGE ( 'NONE', *, *, #935, .T. ) ;
#638 = CARTESIAN_POINT ( 'NONE',  ( 3.151252459999998479, 4.949904510000008528, 50.16157850999999823 ) ) ;
#639 = VERTEX_POINT ( 'NONE', #754 ) ;
#640 = LINE ( 'NONE', #37, #760 ) ;
#641 = EDGE_CURVE ( 'NONE', #702, #360, #465, .T. ) ;
#642 = DIRECTION ( 'NONE',  ( 1.000000000000000000, 0.000000000000000000, -0.000000000000000000 ) ) ;
#643 = ORIENTED_EDGE ( 'NONE', *, *, #927, .F. ) ;
#644 = AXIS2_PLACEMENT_3D ( 'NONE', #1125, #689, #859 ) ;
#645 = CARTESIAN_POINT ( 'NONE',  ( 3.151252459999998479, 5.199904510000008528, 51.30217851000000451 ) ) ;
#646 = VECTOR ( 'NONE', #1012, 39.37007874015748143 ) ;
#647 = ORIENTED_EDGE ( 'NONE', *, *, #680, .T. ) ;
#648 = VECTOR ( 'NONE', #1123, 39.37007874015748143 ) ;
#649 = DIRECTION ( 'NONE',  ( -0.000000000000000000, 1.000000000000000000, 0.000000000000000000 ) ) ;
#650 = DIRECTION ( 'NONE',  ( 1.000000000000000000, 0.000000000000000000, 0.000000000000000000 ) ) ;
#651 = VERTEX_POINT ( 'NONE', #837 ) ;
#652 = CARTESIAN_POINT ( 'NONE',  ( 4.526252459999997591, 5.199904510000008528, 53.16157851000000534 ) ) ;
#653 = CARTESIAN_POINT ( 'NONE',  ( 3.526252459999999811, 4.949904510000008528, 50.30217850999999740 ) ) ;
#654 = CARTESIAN_POINT ( 'NONE',  ( 2.526252459999997591, 4.949904510000008528, 52.16157851000000534 ) ) ;
#655 = FACE_OUTER_BOUND ( 'NONE', #39, .T. ) ;
#656 = EDGE_LOOP ( 'NONE', ( #312, #439 ) ) ;
#657 = FACE_OUTER_BOUND ( 'NONE', #331, .T. ) ;
#658 = EDGE_CURVE ( 'NONE', #639, #496, #237, .T. ) ;
#659 = CYLINDRICAL_SURFACE ( 'NONE', #590, 0.3750000000000002220 ) ;
#660 = LINE ( 'NONE', #1107, #468 ) ;
#661 =( LENGTH_UNIT ( ) NAMED_UNIT ( * ) SI_UNIT ( $, .METRE. ) );
#662 = ORIENTED_EDGE ( 'NONE', *, *, #742, .F. ) ;
#663 = DIRECTION ( 'NONE',  ( 0.000000000000000000, 0.000000000000000000, -1.000000000000000000 ) ) ;
#664 = EDGE_CURVE ( 'NONE', #847, #619, #443, .T. ) ;
#665 = DIRECTION ( 'NONE',  ( -0.000000000000000000, -1.000000000000000000, -0.000000000000000000 ) ) ;
#666 = CIRCLE ( 'NONE', #942, 0.3750000000000002220 ) ;
#667 = DIRECTION ( 'NONE',  ( -0.000000000000000000, -1.000000000000000000, -0.000000000000000000 ) ) ;
#668 = AXIS2_PLACEMENT_3D ( 'NONE', #481, #582, #44 ) ;
#669 = AXIS2_PLACEMENT_3D ( 'NONE', #785, #777, #612 ) ;
#670 = LINE ( 'NONE', #501, #646 ) ;
#671 = ORIENTED_EDGE ( 'NONE', *, *, #1115, .T. ) ;
#672 = FACE_OUTER_BOUND ( 'NONE', #547, .T. ) ;
#673 = DIRECTION ( 'NONE',  ( -0.000000000000000000, -1.000000000000000000, -0.000000000000000000 ) ) ;
#674 = CARTESIAN_POINT ( 'NONE',  ( 3.526252459999998035, 4.949904510000008528, 52.44277851000001078 ) ) ;
#675 = LINE ( 'NONE', #334, #808 ) ;
#676 = ORIENTED_EDGE ( 'NONE', *, *, #778, .F. ) ;
#677 = VERTEX_POINT ( 'NONE', #1088 ) ;
#678 =( NAMED_UNIT ( * ) SI_UNIT ( $, .STERADIAN. ) SOLID_ANGLE_UNIT ( ) );
#679 = CARTESIAN_POINT ( 'NONE',  ( 3.526252459999998035, 5.199904510000008528, 51.67717851000000451 ) ) ;
#680 = EDGE_CURVE ( 'NONE', #133, #97, #675, .T. ) ;
#681 = EDGE_CURVE ( 'NONE', #351, #1019, #1083, .T. ) ;
#682 = FACE_BOUND ( 'NONE', #1001, .T. ) ;
#683 = CIRCLE ( 'NONE', #189, 0.1406000000000034167 ) ;
#684 = LINE ( 'NONE', #951, #899 ) ;
#685 = CIRCLE ( 'NONE', #190, 0.3750000000000002220 ) ;
#686 = FACE_BOUND ( 'NONE', #1007, .T. ) ;
#687 = LINE ( 'NONE', #264, #1008 ) ;
#688 = EDGE_CURVE ( 'NONE', #1072, #128, #591, .T. ) ;
#689 = DIRECTION ( 'NONE',  ( -0.000000000000000000, -1.000000000000000000, -0.000000000000000000 ) ) ;
#690 = ORIENTED_EDGE ( 'NONE', *, *, #969, .F. ) ;
#691 = CYLINDRICAL_SURFACE ( 'NONE', #488, 0.1406000000000034167 ) ;
#692 = FACE_OUTER_BOUND ( 'NONE', #1082, .T. ) ;
#693 = ADVANCED_FACE ( 'NONE', ( #655 ), #416, .F. ) ;
#694 = EDGE_LOOP ( 'NONE', ( #108, #948, #228, #286 ) ) ;
#695 = CARTESIAN_POINT ( 'NONE',  ( 3.776252459999997591, 4.949904510000008528, 51.67717851000000451 ) ) ;
#696 = CIRCLE ( 'NONE', #210, 0.2500000000000030531 ) ;
#697 = MANIFOLD_SOLID_BREP ( 'Fillet1', #442 ) ;
#698 = CIRCLE ( 'NONE', #213, 0.3750000000000002220 ) ;
#699 = VERTEX_POINT ( 'NONE', #511 ) ;
#700 =( GEOMETRIC_REPRESENTATION_CONTEXT ( 3 ) GLOBAL_UNCERTAINTY_ASSIGNED_CONTEXT ( ( #63 ) ) GLOBAL_UNIT_ASSIGNED_CONTEXT ( ( #343, #1026, #678 ) ) REPRESENTATION_CONTEXT ( 'NONE', 'WORKASPACE' ) );
#701 = CARTESIAN_POINT ( 'NONE',  ( 2.776252459999997146, 4.949904510000008528, 51.92717851000000451 ) ) ;
#702 = VERTEX_POINT ( 'NONE', #517 ) ;
#703 = DIRECTION ( 'NONE',  ( -0.000000000000000000, -1.000000000000000000, -0.000000000000000000 ) ) ;
#704 = ORIENTED_EDGE ( 'NONE', *, *, #105, .F. ) ;
#705 = CARTESIAN_POINT ( 'NONE',  ( 3.151252459999998479, 4.949904510000008528, 51.44277851000000368 ) ) ;
#706 = EDGE_LOOP ( 'NONE', ( #728, #464, #958, #1058, #470, #89, #749, #568, #367, #1064, #617, #973, #989, #358, #267, #5 ) ) ;
#707 = DIRECTION ( 'NONE',  ( 0.000000000000000000, 0.000000000000000000, -1.000000000000000000 ) ) ;
#708 = EDGE_CURVE ( 'NONE', #1, #257, #330, .T. ) ;
#709 = FACE_OUTER_BOUND ( 'NONE', #545, .T. ) ;
#710 = EDGE_LOOP ( 'NONE', ( #634, #780, #984, #629 ) ) ;
#711 = ADVANCED_FACE ( 'NONE', ( #865 ), #424, .F. ) ;
#712 = CARTESIAN_POINT ( 'NONE',  ( 4.526252459999997591, 5.199904510000008528, 51.30217851000000451 ) ) ;
#713 = EDGE_LOOP ( 'NONE', ( #796, #390, #730, #579 ) ) ;
#714 = DIRECTION ( 'NONE',  ( 0.000000000000000000, 0.000000000000000000, -1.000000000000000000 ) ) ;
#715 = DIRECTION ( 'NONE',  ( -1.000000000000000000, 0.000000000000000000, -1.008682336122185430E-15 ) ) ;
#716 = EDGE_LOOP ( 'NONE', ( #829, #843, #417, #30 ) ) ;
#717 = CIRCLE ( 'NONE', #644, 0.1406000000000034167 ) ;
#718 = CARTESIAN_POINT ( 'NONE',  ( 4.526252459999997591, 5.199904510000008528, 51.30217851000000451 ) ) ;
#719 = ORIENTED_EDGE ( 'NONE', *, *, #244, .T. ) ;
#720 = LINE ( 'NONE', #211, #396 ) ;
#721 = CARTESIAN_POINT ( 'NONE',  ( 3.151252459999998479, 4.949904510000008528, 50.44277851000000368 ) ) ;
#722 = ORIENTED_EDGE ( 'NONE', *, *, #831, .F. ) ;
#723 = CARTESIAN_POINT ( 'NONE',  ( 3.151252459999998479, 4.949904510000008528, 50.16157850999999823 ) ) ;
#724 = EDGE_CURVE ( 'NONE', #639, #278, #687, .T. ) ;
#725 = EDGE_LOOP ( 'NONE', ( #289, #838, #446, #956 ) ) ;
#726 = CARTESIAN_POINT ( 'NONE',  ( 3.776252459999997591, 4.949904510000008528, 51.92717851000000451 ) ) ;
#727 = FACE_OUTER_BOUND ( 'NONE', #1045, .T. ) ;
#728 = ORIENTED_EDGE ( 'NONE', *, *, #571, .F. ) ;
#729 = DIRECTION ( 'NONE',  ( 0.000000000000000000, 0.000000000000000000, -1.000000000000000000 ) ) ;
#730 = ORIENTED_EDGE ( 'NONE', *, *, #514, .T. ) ;
#731 = CARTESIAN_POINT ( 'NONE',  ( 3.901252459999996702, 4.949904510000008528, 52.92717851000001161 ) ) ;
#732 = PLANE ( 'NONE',  #985 ) ;
#733 = VERTEX_POINT ( 'NONE', #781 ) ;
#734 = VECTOR ( 'NONE', #1091, 39.37007874015748143 ) ;
#735 = FACE_OUTER_BOUND ( 'NONE', #815, .T. ) ;
#736 = VECTOR ( 'NONE', #206, 39.37007874015748143 ) ;
#737 = VERTEX_POINT ( 'NONE', #946 ) ;
#738 = CIRCLE ( 'NONE', #249, 0.1406000000000034167 ) ;
#739 = AXIS2_PLACEMENT_3D ( 'NONE', #753, #1097, #1092 ) ;
#740 = DIRECTION ( 'NONE',  ( -0.000000000000000000, -1.000000000000000000, -0.000000000000000000 ) ) ;
#741 = DIRECTION ( 'NONE',  ( 0.000000000000000000, 0.000000000000000000, -1.000000000000000000 ) ) ;
#742 = EDGE_CURVE ( 'NONE', #392, #1070, #2, .T. ) ;
#743 = ORIENTED_EDGE ( 'NONE', *, *, #84, .F. ) ;
#744 = EDGE_CURVE ( 'NONE', #950, #3, #344, .T. ) ;
#745 = CARTESIAN_POINT ( 'NONE',  ( 4.151252459999996702, 4.949904510000008528, 52.92717851000001161 ) ) ;
#746 = EDGE_LOOP ( 'NONE', ( #870, #430, #885, #441 ) ) ;
#747 = CARTESIAN_POINT ( 'NONE',  ( 4.901252459999999367, 5.199904510000008528, 51.30217851000000451 ) ) ;
#748 = SURFACE_SIDE_STYLE ('',( #1018 ) ) ;
#749 = ORIENTED_EDGE ( 'NONE', *, *, #269, .F. ) ;
#750 = EDGE_CURVE ( 'NONE', #482, #332, #466, .T. ) ;
#751 = CARTESIAN_POINT ( 'NONE',  ( 3.526252459999998035, 4.949904510000008528, 52.30217851000000451 ) ) ;
#752 = ORIENTED_EDGE ( 'NONE', *, *, #138, .T. ) ;
#753 = CARTESIAN_POINT ( 'NONE',  ( 4.526252459999997591, 4.949904510000008528, 53.30217851000001161 ) ) ;
#754 = CARTESIAN_POINT ( 'NONE',  ( 3.901252459999996702, 4.949904510000008528, 52.67717851000000451 ) ) ;
#755 = ORIENTED_EDGE ( 'NONE', *, *, #477, .F. ) ;
#756 = DIRECTION ( 'NONE',  ( -0.000000000000000000, -1.000000000000000000, -0.000000000000000000 ) ) ;
#757 = AXIS2_PLACEMENT_3D ( 'NONE', #853, #1120, #867 ) ;
#758 = DIRECTION ( 'NONE',  ( 0.000000000000000000, 0.000000000000000000, -1.000000000000000000 ) ) ;
#759 = DIRECTION ( 'NONE',  ( -0.000000000000000000, -1.000000000000000000, -0.000000000000000000 ) ) ;
#760 = VECTOR ( 'NONE', #630, 39.37007874015748143 ) ;
#761 = CARTESIAN_POINT ( 'NONE',  ( 4.901252459999999367, 4.949904510000008528, 51.30217851000000451 ) ) ;
#762 = ORIENTED_EDGE ( 'NONE', *, *, #1104, .T. ) ;
#763 = ORIENTED_EDGE ( 'NONE', *, *, #778, .T. ) ;
#764 = EDGE_CURVE ( 'NONE', #128, #55, #766, .T. ) ;
#765 = CARTESIAN_POINT ( 'NONE',  ( 4.526252459999997591, 4.949904510000008528, 51.30217851000000451 ) ) ;
#766 = LINE ( 'NONE', #525, #119 ) ;
#767 = DIRECTION ( 'NONE',  ( -0.000000000000000000, -1.000000000000000000, -0.000000000000000000 ) ) ;
#768 = AXIS2_PLACEMENT_3D ( 'NONE', #450, #797, #17 ) ;
#769 = VECTOR ( 'NONE', #384, 39.37007874015748143 ) ;
#770 = CARTESIAN_POINT ( 'NONE',  ( 3.526252459999998035, 4.949904510000008528, 52.44277851000001078 ) ) ;
#771 = VECTOR ( 'NONE', #1049, 39.37007874015748143 ) ;
#772 = ADVANCED_FACE ( 'NONE', ( #352 ), #599, .F. ) ;
#773 = EDGE_CURVE ( 'NONE', #1072, #1041, #684, .T. ) ;
#774 = DIRECTION ( 'NONE',  ( 0.000000000000000000, -1.000000000000000000, 0.000000000000000000 ) ) ;
#775 = CARTESIAN_POINT ( 'NONE',  ( 0.000000000000000000, 0.000000000000000000, 0.000000000000000000 ) ) ;
#776 = VERTEX_POINT ( 'NONE', #1113 ) ;
#777 = DIRECTION ( 'NONE',  ( -0.000000000000000000, -1.000000000000000000, -0.000000000000000000 ) ) ;
#778 = EDGE_CURVE ( 'NONE', #1089, #950, #879, .T. ) ;
#779 = FACE_BOUND ( 'NONE', #981, .T. ) ;
#780 = ORIENTED_EDGE ( 'NONE', *, *, #954, .T. ) ;
#781 = CARTESIAN_POINT ( 'NONE',  ( 4.151252459999996702, 5.199904510000008528, 52.92717851000001161 ) ) ;
#782 = VERTEX_POINT ( 'NONE', #76 ) ;
#783 = CARTESIAN_POINT ( 'NONE',  ( 3.901252459999996702, 5.199904510000008528, 51.67717851000000451 ) ) ;
#784 = VERTEX_POINT ( 'NONE', #93 ) ;
#785 = CARTESIAN_POINT ( 'NONE',  ( 3.151252459999998479, 4.949904510000008528, 51.30217851000000451 ) ) ;
#786 = AXIS2_PLACEMENT_3D ( 'NONE', #546, #109, #462 ) ;
#787 = APPLICATION_CONTEXT ( 'automotive_design' ) ;
#788 = AXIS2_PLACEMENT_3D ( 'NONE', #47, #134, #987 ) ;
#789 = AXIS2_PLACEMENT_3D ( 'NONE', #695, #861, #940 ) ;
#790 = ORIENTED_EDGE ( 'NONE', *, *, #969, .T. ) ;
#791 = DIRECTION ( 'NONE',  ( -0.000000000000000000, -1.000000000000000000, -0.000000000000000000 ) ) ;
#792 = ORIENTED_EDGE ( 'NONE', *, *, #411, .F. ) ;
#793 = EDGE_CURVE ( 'NONE', #472, #182, #445, .T. ) ;
#794 = DIRECTION ( 'NONE',  ( -0.000000000000000000, -1.000000000000000000, -0.000000000000000000 ) ) ;
#795 = LINE ( 'NONE', #120, #487 ) ;
#796 = ORIENTED_EDGE ( 'NONE', *, *, #146, .F. ) ;
#797 = DIRECTION ( 'NONE',  ( -0.000000000000000000, -1.000000000000000000, -0.000000000000000000 ) ) ;
#798 = VERTEX_POINT ( 'NONE', #8 ) ;
#799 = CARTESIAN_POINT ( 'NONE',  ( 4.151252459999996702, 4.949904510000008528, 53.30217851000001161 ) ) ;
#800 = DIRECTION ( 'NONE',  ( -0.000000000000000000, -1.000000000000000000, -0.000000000000000000 ) ) ;
#801 = DIRECTION ( 'NONE',  ( -2.731847993664253851E-16, 0.000000000000000000, 1.000000000000000000 ) ) ;
#802 = EDGE_LOOP ( 'NONE', ( #632, #913 ) ) ;
#803 = DIRECTION ( 'NONE',  ( 0.000000000000000000, 0.000000000000000000, -1.000000000000000000 ) ) ;
#804 = VECTOR ( 'NONE', #471, 39.37007874015748143 ) ;
#805 = PLANE ( 'NONE',  #46 ) ;
#806 = VERTEX_POINT ( 'NONE', #770 ) ;
#807 = EDGE_CURVE ( 'NONE', #798, #1041, #947, .T. ) ;
#808 = VECTOR ( 'NONE', #998, 39.37007874015748143 ) ;
#809 = EDGE_CURVE ( 'NONE', #130, #460, #431, .T. ) ;
#810 = DIRECTION ( 'NONE',  ( 0.000000000000000000, 0.000000000000000000, 1.000000000000000000 ) ) ;
#811 = CIRCLE ( 'NONE', #607, 0.3750000000000002220 ) ;
#812 = VERTEX_POINT ( 'NONE', #165 ) ;
#813 = DIRECTION ( 'NONE',  ( -0.000000000000000000, -1.000000000000000000, -0.000000000000000000 ) ) ;
#814 = CARTESIAN_POINT ( 'NONE',  ( 4.526252459999997591, 5.199904510000008528, 53.30217851000001161 ) ) ;
#815 = EDGE_LOOP ( 'NONE', ( #315, #882, #526, #719 ) ) ;
#816 = EDGE_CURVE ( 'NONE', #539, #588, #142, .T. ) ;
#817 = CARTESIAN_POINT ( 'NONE',  ( 4.526252459999997591, 5.199904510000008528, 51.44277851000000368 ) ) ;
#818 = ORIENTED_EDGE ( 'NONE', *, *, #453, .T. ) ;
#819 = CARTESIAN_POINT ( 'NONE',  ( 3.151252459999998479, 4.949904510000008528, 51.44277851000000368 ) ) ;
#820 = CYLINDRICAL_SURFACE ( 'NONE', #415, 0.2500000000000030531 ) ;
#821 = VERTEX_POINT ( 'NONE', #604 ) ;
#822 = CARTESIAN_POINT ( 'NONE',  ( 2.526252459999997591, 5.199904510000008528, 52.44277851000001078 ) ) ;
#823 = CARTESIAN_POINT ( 'NONE',  ( 4.526252459999997591, 5.199904510000008528, 52.44277851000001078 ) ) ;
#824 = DIRECTION ( 'NONE',  ( -0.000000000000000000, -1.000000000000000000, -0.000000000000000000 ) ) ;
#825 = DIRECTION ( 'NONE',  ( 0.000000000000000000, 0.000000000000000000, -1.000000000000000000 ) ) ;
#826 = ORIENTED_EDGE ( 'NONE', *, *, #105, .T. ) ;
#827 = CIRCLE ( 'NONE', #1116, 0.1406000000000034167 ) ;
#828 = CYLINDRICAL_SURFACE ( 'NONE', #232, 0.2500000000000030531 ) ;
#829 = ORIENTED_EDGE ( 'NONE', *, *, #816, .F. ) ;
#830 = LINE ( 'NONE', #318, #593 ) ;
#831 = EDGE_CURVE ( 'NONE', #11, #374, #324, .T. ) ;
#832 =( CONVERSION_BASED_UNIT ( 'INCH', #489 ) LENGTH_UNIT ( ) NAMED_UNIT ( #498 ) );
#833 = VERTEX_POINT ( 'NONE', #1028 ) ;
#834 = DIRECTION ( 'NONE',  ( 0.000000000000000000, -1.000000000000000000, 0.000000000000000000 ) ) ;
#835 = FACE_OUTER_BOUND ( 'NONE', #36, .T. ) ;
#836 = DIRECTION ( 'NONE',  ( -2.731847993664253851E-16, 0.000000000000000000, 1.000000000000000000 ) ) ;
#837 = CARTESIAN_POINT ( 'NONE',  ( 4.526252459999997591, 5.199904510000008528, 51.16157850999999823 ) ) ;
#838 = ORIENTED_EDGE ( 'NONE', *, *, #146, .T. ) ;
#839 = CARTESIAN_POINT ( 'NONE',  ( 4.526252459999997591, 5.199904510000008528, 52.16157851000000534 ) ) ;
#840 = FACE_OUTER_BOUND ( 'NONE', #176, .T. ) ;
#841 = CYLINDRICAL_SURFACE ( 'NONE', #1084, 0.1406000000000034167 ) ;
#842 = DIRECTION ( 'NONE',  ( -0.000000000000000000, -1.000000000000000000, -0.000000000000000000 ) ) ;
#843 = ORIENTED_EDGE ( 'NONE', *, *, #581, .T. ) ;
#844 = ADVANCED_FACE ( 'NONE', ( #78 ), #691, .F. ) ;
#845 = EDGE_CURVE ( 'NONE', #910, #1, #986, .T. ) ;
#846 = CIRCLE ( 'NONE', #43, 0.1406000000000034167 ) ;
#847 = VERTEX_POINT ( 'NONE', #1053 ) ;
#848 = VECTOR ( 'NONE', #32, 39.37007874015748143 ) ;
#849 = FACE_OUTER_BOUND ( 'NONE', #235, .T. ) ;
#850 = AXIS2_PLACEMENT_3D ( 'NONE', #597, #1119, #336 ) ;
#851 = DIRECTION ( 'NONE',  ( 0.000000000000000000, 0.000000000000000000, -1.000000000000000000 ) ) ;
#852 = ORIENTED_EDGE ( 'NONE', *, *, #658, .F. ) ;
#853 = CARTESIAN_POINT ( 'NONE',  ( 2.776252459999997146, 4.949904510000008528, 51.92717851000000451 ) ) ;
#854 = CARTESIAN_POINT ( 'NONE',  ( 3.151252459999998479, 4.949904510000008528, 51.30217851000000451 ) ) ;
#855 = DIRECTION ( 'NONE',  ( 0.000000000000000000, 0.000000000000000000, -1.000000000000000000 ) ) ;
#856 = ADVANCED_FACE ( 'NONE', ( #377 ), #287, .F. ) ;
#857 = ADVANCED_FACE ( 'NONE', ( #620 ), #388, .F. ) ;
#858 = DIRECTION ( 'NONE',  ( 0.000000000000000000, 0.000000000000000000, -1.000000000000000000 ) ) ;
#859 = DIRECTION ( 'NONE',  ( 0.000000000000000000, 0.000000000000000000, -1.000000000000000000 ) ) ;
#860 = VECTOR ( 'NONE', #756, 39.37007874015748143 ) ;
#861 = DIRECTION ( 'NONE',  ( -0.000000000000000000, 1.000000000000000000, -0.000000000000000000 ) ) ;
#862 = VECTOR ( 'NONE', #179, 39.37007874015748143 ) ;
#863 = FACE_BOUND ( 'NONE', #802, .T. ) ;
#864 = ORIENTED_EDGE ( 'NONE', *, *, #53, .T. ) ;
#865 = FACE_OUTER_BOUND ( 'NONE', #153, .T. ) ;
#866 = ORIENTED_EDGE ( 'NONE', *, *, #764, .T. ) ;
#867 = DIRECTION ( 'NONE',  ( 0.000000000000000000, 0.000000000000000000, -1.000000000000000000 ) ) ;
#868 = ORIENTED_EDGE ( 'NONE', *, *, #256, .T. ) ;
#869 = CARTESIAN_POINT ( 'NONE',  ( 2.526252459999997591, 4.949904510000008528, 52.30217851000000451 ) ) ;
#870 = ORIENTED_EDGE ( 'NONE', *, *, #625, .F. ) ;
#871 = ADVANCED_FACE ( 'NONE', ( #117 ), #293, .F. ) ;
#872 = DIRECTION ( 'NONE',  ( 0.000000000000000000, 0.000000000000000000, -1.000000000000000000 ) ) ;
#873 = EDGE_CURVE ( 'NONE', #833, #482, #720, .T. ) ;
#874 = ORIENTED_EDGE ( 'NONE', *, *, #122, .F. ) ;
#875 = LINE ( 'NONE', #100, #280 ) ;
#876 = CIRCLE ( 'NONE', #507, 0.1406000000000034167 ) ;
#877 = VECTOR ( 'NONE', #476, 39.37007874015748143 ) ;
#878 = CARTESIAN_POINT ( 'NONE',  ( 3.526252459999998035, 4.949904510000008528, 51.67717851000000451 ) ) ;
#879 = CIRCLE ( 'NONE', #789, 0.2500000000000030531 ) ;
#880 = ORIENTED_EDGE ( 'NONE', *, *, #495, .F. ) ;
#881 = LINE ( 'NONE', #618, #354 ) ;
#882 = ORIENTED_EDGE ( 'NONE', *, *, #35, .F. ) ;
#883 = DIRECTION ( 'NONE',  ( -0.000000000000000000, -1.000000000000000000, -0.000000000000000000 ) ) ;
#884 = CARTESIAN_POINT ( 'NONE',  ( 3.526252459999999811, 4.949904510000008528, 50.30217850999999740 ) ) ;
#885 = ORIENTED_EDGE ( 'NONE', *, *, #75, .F. ) ;
#886 = CARTESIAN_POINT ( 'NONE',  ( 3.526252459999998035, 4.949904510000008528, 52.30217851000000451 ) ) ;
#887 = VERTEX_POINT ( 'NONE', #368 ) ;
#888 = DIRECTION ( 'NONE',  ( -0.000000000000000000, -1.000000000000000000, -0.000000000000000000 ) ) ;
#889 = EDGE_CURVE ( 'NONE', #651, #196, #418, .T. ) ;
#890 = CARTESIAN_POINT ( 'NONE',  ( 3.151252459999998479, 5.199904510000008528, 50.16157850999999823 ) ) ;
#891 = ORIENTED_EDGE ( 'NONE', *, *, #809, .T. ) ;
#892 = DIRECTION ( 'NONE',  ( -0.000000000000000000, 0.000000000000000000, -1.000000000000000000 ) ) ;
#893 = ORIENTED_EDGE ( 'NONE', *, *, #976, .F. ) ;
#894 = DIRECTION ( 'NONE',  ( -0.000000000000000000, -1.000000000000000000, -0.000000000000000000 ) ) ;
#895 = ADVANCED_FACE ( 'NONE', ( #1068 ), #635, .F. ) ;
#896 = LINE ( 'NONE', #15, #848 ) ;
#897 = ORIENTED_EDGE ( 'NONE', *, *, #90, .F. ) ;
#898 = MECHANICAL_DESIGN_GEOMETRIC_PRESENTATION_REPRESENTATION (  '', ( #98 ), #428 ) ;
#899 = VECTOR ( 'NONE', #258, 39.37007874015748143 ) ;
#900 = CARTESIAN_POINT ( 'NONE',  ( 3.526252459999998035, 4.949904510000008528, 52.16157851000000534 ) ) ;
#901 = AXIS2_PLACEMENT_3D ( 'NONE', #775, #1121, #1032 ) ;
#902 = ORIENTED_EDGE ( 'NONE', *, *, #744, .T. ) ;
#903 = FACE_OUTER_BOUND ( 'NONE', #16, .T. ) ;
#904 = CARTESIAN_POINT ( 'NONE',  ( 4.526252459999997591, 4.949904510000008528, 53.16157851000000534 ) ) ;
#905 = ORIENTED_EDGE ( 'NONE', *, *, #185, .F. ) ;
#906 = CARTESIAN_POINT ( 'NONE',  ( 4.526252459999997591, 4.949904510000008528, 51.30217851000000451 ) ) ;
#907 = ORIENTED_EDGE ( 'NONE', *, *, #1079, .T. ) ;
#908 = CARTESIAN_POINT ( 'NONE',  ( 4.526252459999997591, 5.199904510000008528, 53.67717851000001161 ) ) ;
#909 = CARTESIAN_POINT ( 'NONE',  ( 4.526252459999997591, 4.949904510000008528, 52.30217851000000451 ) ) ;
#910 = VERTEX_POINT ( 'NONE', #363 ) ;
#911 = LINE ( 'NONE', #745, #573 ) ;
#912 = EDGE_CURVE ( 'NONE', #128, #776, #106, .T. ) ;
#913 = ORIENTED_EDGE ( 'NONE', *, *, #816, .T. ) ;
#914 = CARTESIAN_POINT ( 'NONE',  ( 4.526252459999997591, 4.949904510000008528, 51.30217851000000451 ) ) ;
#915 = ORIENTED_EDGE ( 'NONE', *, *, #1055, .T. ) ;
#916 = FACE_OUTER_BOUND ( 'NONE', #399, .T. ) ;
#917 = AXIS2_PLACEMENT_3D ( 'NONE', #1054, #650, #294 ) ;
#918 = CARTESIAN_POINT ( 'NONE',  ( 4.526252459999997591, 4.949904510000008528, 53.30217851000001161 ) ) ;
#919 = FACE_OUTER_BOUND ( 'NONE', #113, .T. ) ;
#920 = ORIENTED_EDGE ( 'NONE', *, *, #534, .F. ) ;
#921 = DIRECTION ( 'NONE',  ( 0.000000000000000000, -1.000000000000000000, 0.000000000000000000 ) ) ;
#922 = ORIENTED_EDGE ( 'NONE', *, *, #889, .F. ) ;
#923 = CARTESIAN_POINT ( 'NONE',  ( 4.526252459999997591, 4.949904510000008528, 53.30217851000001161 ) ) ;
#924 = DIRECTION ( 'NONE',  ( 0.000000000000000000, -1.000000000000000000, 0.000000000000000000 ) ) ;
#925 = EDGE_CURVE ( 'NONE', #332, #482, #738, .T. ) ;
#926 = ORIENTED_EDGE ( 'NONE', *, *, #750, .T. ) ;
#927 = EDGE_CURVE ( 'NONE', #737, #209, #281, .T. ) ;
#928 = DIRECTION ( 'NONE',  ( -0.000000000000000000, 1.000000000000000000, 0.000000000000000000 ) ) ;
#929 = CARTESIAN_POINT ( 'NONE',  ( 4.526252459999997591, 4.949904510000008528, 52.30217851000000451 ) ) ;
#930 = ORIENTED_EDGE ( 'NONE', *, *, #641, .T. ) ;
#931 = AXIS2_PLACEMENT_3D ( 'NONE', #614, #955, #1111 ) ;
#932 = ORIENTED_EDGE ( 'NONE', *, *, #681, .F. ) ;
#933 = AXIS2_PLACEMENT_3D ( 'NONE', #203, #957, #548 ) ;
#934 = CARTESIAN_POINT ( 'NONE',  ( 4.526252459999997591, 5.199904510000008528, 52.30217851000000451 ) ) ;
#935 = EDGE_CURVE ( 'NONE', #196, #58, #640, .T. ) ;
#936 = DIRECTION ( 'NONE',  ( 0.000000000000000000, 0.000000000000000000, -1.000000000000000000 ) ) ;
#937 = DIRECTION ( 'NONE',  ( 0.000000000000000000, 0.000000000000000000, -1.000000000000000000 ) ) ;
#938 = FACE_BOUND ( 'NONE', #528, .T. ) ;
#939 = EDGE_CURVE ( 'NONE', #278, #322, #685, .T. ) ;
#940 = DIRECTION ( 'NONE',  ( 0.000000000000000000, 0.000000000000000000, -1.000000000000000000 ) ) ;
#941 = DIRECTION ( 'NONE',  ( -0.000000000000000000, -1.000000000000000000, -0.000000000000000000 ) ) ;
#942 = AXIS2_PLACEMENT_3D ( 'NONE', #455, #290, #200 ) ;
#943 = ORIENTED_EDGE ( 'NONE', *, *, #558, .T. ) ;
#944 = AXIS2_PLACEMENT_3D ( 'NONE', #1098, #924, #851 ) ;
#945 = AXIS2_PLACEMENT_3D ( 'NONE', #909, #72, #741 ) ;
#946 = CARTESIAN_POINT ( 'NONE',  ( 4.151252459999996702, 4.949904510000008528, 51.67717851000000451 ) ) ;
#947 = CIRCLE ( 'NONE', #850, 0.3750000000000002220 ) ;
#948 = ORIENTED_EDGE ( 'NONE', *, *, #411, .T. ) ;
#949 = DIRECTION ( 'NONE',  ( 0.000000000000000000, 0.000000000000000000, -1.000000000000000000 ) ) ;
#950 = VERTEX_POINT ( 'NONE', #726 ) ;
#951 = CARTESIAN_POINT ( 'NONE',  ( 4.526252459999997591, 4.949904510000008528, 53.67717851000001161 ) ) ;
#952 = ADVANCED_FACE ( 'NONE', ( #903 ), #1073, .F. ) ;
#953 = ORIENTED_EDGE ( 'NONE', *, *, #1009, .T. ) ;
#954 = EDGE_CURVE ( 'NONE', #1020, #332, #473, .T. ) ;
#955 = DIRECTION ( 'NONE',  ( 0.000000000000000000, -1.000000000000000000, 0.000000000000000000 ) ) ;
#956 = ORIENTED_EDGE ( 'NONE', *, *, #514, .F. ) ;
#957 = DIRECTION ( 'NONE',  ( 0.000000000000000000, -1.000000000000000000, -0.000000000000000000 ) ) ;
#958 = ORIENTED_EDGE ( 'NONE', *, *, #167, .F. ) ;
#959 = CARTESIAN_POINT ( 'NONE',  ( 2.526252459999997591, 4.949904510000008528, 52.30217851000000451 ) ) ;
#960 = ORIENTED_EDGE ( 'NONE', *, *, #831, .T. ) ;
#961 = DIRECTION ( 'NONE',  ( 0.000000000000000000, 0.000000000000000000, -1.000000000000000000 ) ) ;
#962 = AXIS2_PLACEMENT_3D ( 'NONE', #124, #1066, #810 ) ;
#963 = AXIS2_PLACEMENT_3D ( 'NONE', #814, #800, #219 ) ;
#964 = CARTESIAN_POINT ( 'NONE',  ( 3.526252459999998035, 5.199904510000008528, 51.92717851000000451 ) ) ;
#965 = AXIS2_PLACEMENT_3D ( 'NONE', #359, #515, #858 ) ;
#966 = ORIENTED_EDGE ( 'NONE', *, *, #994, .F. ) ;
#967 = VECTOR ( 'NONE', #667, 39.37007874015748143 ) ;
#968 = DIRECTION ( 'NONE',  ( 0.000000000000000000, 0.000000000000000000, -1.000000000000000000 ) ) ;
#969 = EDGE_CURVE ( 'NONE', #225, #561, #811, .T. ) ;
#970 = ORIENTED_EDGE ( 'NONE', *, *, #1017, .F. ) ;
#971 = CARTESIAN_POINT ( 'NONE',  ( 4.526252459999997591, 4.949904510000008528, 52.30217851000000451 ) ) ;
#972 = LINE ( 'NONE', #904, #212 ) ;
#973 = ORIENTED_EDGE ( 'NONE', *, *, #807, .F. ) ;
#974 = DIRECTION ( 'NONE',  ( 0.000000000000000000, -0.000000000000000000, -1.000000000000000000 ) ) ;
#975 = EDGE_LOOP ( 'NONE', ( #295, #524, #449, #611 ) ) ;
#976 = EDGE_CURVE ( 'NONE', #950, #847, #875, .T. ) ;
#977 = CARTESIAN_POINT ( 'NONE',  ( 4.151252459999996702, 4.949904510000008528, 51.92717851000000451 ) ) ;
#978 = LINE ( 'NONE', #878, #769 ) ;
#979 = ORIENTED_EDGE ( 'NONE', *, *, #1095, .F. ) ;
#980 = DIRECTION ( 'NONE',  ( 1.000000000000000000, 0.000000000000000000, -0.000000000000000000 ) ) ;
#981 = EDGE_LOOP ( 'NONE', ( #245, #435 ) ) ;
#982 = DIRECTION ( 'NONE',  ( 0.000000000000000000, 0.000000000000000000, -1.000000000000000000 ) ) ;
#983 = CARTESIAN_POINT ( 'NONE',  ( 4.526252459999997591, 4.949904510000008528, 53.44277851000001078 ) ) ;
#984 = ORIENTED_EDGE ( 'NONE', *, *, #925, .T. ) ;
#985 = AXIS2_PLACEMENT_3D ( 'NONE', #538, #715, #1062 ) ;
#986 = CIRCLE ( 'NONE', #233, 0.1406000000000034167 ) ;
#987 = DIRECTION ( 'NONE',  ( 0.000000000000000000, 0.000000000000000000, 1.000000000000000000 ) ) ;
#988 = AXIS2_PLACEMENT_3D ( 'NONE', #731, #480, #566 ) ;
#989 = ORIENTED_EDGE ( 'NONE', *, *, #256, .F. ) ;
#990 = DIRECTION ( 'NONE',  ( 0.000000000000000000, -1.000000000000000000, 0.000000000000000000 ) ) ;
#991 = DIRECTION ( 'NONE',  ( -0.000000000000000000, -1.000000000000000000, -0.000000000000000000 ) ) ;
#992 = ORIENTED_EDGE ( 'NONE', *, *, #534, .T. ) ;
#993 = ADVANCED_FACE ( 'NONE', ( #1059 ), #841, .F. ) ;
#994 = EDGE_CURVE ( 'NONE', #677, #1072, #554, .T. ) ;
#995 = CARTESIAN_POINT ( 'NONE',  ( 2.526252459999997146, 5.199904510000008528, 51.67717851000000451 ) ) ;
#996 = DIRECTION ( 'NONE',  ( -0.000000000000000000, 1.000000000000000000, 0.000000000000000000 ) ) ;
#997 = LINE ( 'NONE', #493, #68 ) ;
#998 = DIRECTION ( 'NONE',  ( 0.000000000000000000, 0.000000000000000000, -1.000000000000000000 ) ) ;
#999 = ORIENTED_EDGE ( 'NONE', *, *, #1029, .T. ) ;
#1000 = CYLINDRICAL_SURFACE ( 'NONE', #67, 0.1406000000000034167 ) ;
#1001 = EDGE_LOOP ( 'NONE', ( #231, #960 ) ) ;
#1002 = CARTESIAN_POINT ( 'NONE',  ( 3.151252459999998479, 4.949904510000008528, 51.30217851000000451 ) ) ;
#1003 = VERTEX_POINT ( 'NONE', #654 ) ;
#1004 = AXIS2_PLACEMENT_3D ( 'NONE', #523, #350, #335 ) ;
#1005 = CARTESIAN_POINT ( 'NONE',  ( 2.776252459999997146, 4.949904510000008528, 50.30217850999999740 ) ) ;
#1006 = AXIS2_PLACEMENT_3D ( 'NONE', #40, #1085, #497 ) ;
#1007 = EDGE_LOOP ( 'NONE', ( #199, #121 ) ) ;
#1008 = VECTOR ( 'NONE', #592, 39.37007874015748143 ) ;
#1009 = EDGE_CURVE ( 'NONE', #737, #130, #137, .T. ) ;
#1010 = CIRCLE ( 'NONE', #988, 0.2500000000000030531 ) ;
#1011 = CARTESIAN_POINT ( 'NONE',  ( 4.526252459999997591, 4.949904510000008528, 51.30217851000000451 ) ) ;
#1012 = DIRECTION ( 'NONE',  ( -0.000000000000000000, 1.000000000000000000, 0.000000000000000000 ) ) ;
#1013 = ORIENTED_EDGE ( 'NONE', *, *, #688, .F. ) ;
#1014 = CARTESIAN_POINT ( 'NONE',  ( 4.526252459999997591, 4.949904510000008528, 53.44277851000001078 ) ) ;
#1015 = DIRECTION ( 'NONE',  ( 0.000000000000000000, 0.000000000000000000, -1.000000000000000000 ) ) ;
#1016 = CYLINDRICAL_SURFACE ( 'NONE', #161, 0.1406000000000034167 ) ;
#1017 = EDGE_CURVE ( 'NONE', #196, #651, #82, .T. ) ;
#1018 = SURFACE_STYLE_FILL_AREA ( #403 ) ;
#1019 = VERTEX_POINT ( 'NONE', #42 ) ;
#1020 = VERTEX_POINT ( 'NONE', #572 ) ;
#1021 = DIMENSIONAL_EXPONENTS ( 1.000000000000000000, 0.000000000000000000, 0.000000000000000000, 0.000000000000000000, 0.000000000000000000, 0.000000000000000000, 0.000000000000000000 ) ;
#1022 = DIRECTION ( 'NONE',  ( 0.000000000000000000, 0.000000000000000000, -1.000000000000000000 ) ) ;
#1023 = AXIS2_PLACEMENT_3D ( 'NONE', #645, #791, #181 ) ;
#1024 = DIRECTION ( 'NONE',  ( 0.000000000000000000, 0.000000000000000000, -1.000000000000000000 ) ) ;
#1025 = AXIS2_PLACEMENT_3D ( 'NONE', #906, #483, #129 ) ;
#1026 =( NAMED_UNIT ( * ) PLANE_ANGLE_UNIT ( ) SI_UNIT ( $, .RADIAN. ) );
#1027 = AXIS2_PLACEMENT_3D ( 'NONE', #854, #1033, #937 ) ;
#1028 = CARTESIAN_POINT ( 'NONE',  ( 3.151252459999998479, 5.199904510000008528, 51.16157850999999823 ) ) ;
#1029 = EDGE_CURVE ( 'NONE', #651, #887, #997, .T. ) ;
#1030 = EDGE_CURVE ( 'NONE', #392, #677, #830, .T. ) ;
#1031 = LINE ( 'NONE', #596, #277 ) ;
#1032 = DIRECTION ( 'NONE',  ( 1.000000000000000000, 0.000000000000000000, 0.000000000000000000 ) ) ;
#1033 = DIRECTION ( 'NONE',  ( -0.000000000000000000, -1.000000000000000000, -0.000000000000000000 ) ) ;
#1034 = DIRECTION ( 'NONE',  ( 0.000000000000000000, -1.000000000000000000, 0.000000000000000000 ) ) ;
#1035 = PRODUCT_CONTEXT ( 'NONE', #201, 'mechanical' ) ;
#1036 = ORIENTED_EDGE ( 'NONE', *, *, #327, .F. ) ;
#1037 = UNCERTAINTY_MEASURE_WITH_UNIT (LENGTH_MEASURE( 1.000000000000000082E-05 ), #832, 'distance_accuracy_value', 'NONE');
#1038 = DIRECTION ( 'NONE',  ( -0.000000000000000000, -1.000000000000000000, -0.000000000000000000 ) ) ;
#1039 = CARTESIAN_POINT ( 'NONE',  ( 3.526252459999998035, 5.199904510000008528, 52.30217851000000451 ) ) ;
#1040 = CIRCLE ( 'NONE', #786, 0.2500000000000030531 ) ;
#1041 = VERTEX_POINT ( 'NONE', #908 ) ;
#1042 = AXIS2_PLACEMENT_3D ( 'NONE', #995, #921, #663 ) ;
#1043 = EDGE_CURVE ( 'NONE', #1041, #776, #698, .T. ) ;
#1044 = CARTESIAN_POINT ( 'NONE',  ( 3.526252459999998035, 4.949904510000008528, 52.16157851000000534 ) ) ;
#1045 = EDGE_LOOP ( 'NONE', ( #48, #792, #897, #852 ) ) ;
#1046 = DIRECTION ( 'NONE',  ( -0.000000000000000000, -1.000000000000000000, -0.000000000000000000 ) ) ;
#1047 = PRODUCT ( 'module base bracket 1', 'module base bracket 1', '', ( #1035 ) ) ;
#1048 = VERTEX_POINT ( 'NONE', #407 ) ;
#1049 = DIRECTION ( 'NONE',  ( -0.000000000000000000, -1.000000000000000000, -0.000000000000000000 ) ) ;
#1050 = EDGE_LOOP ( 'NONE', ( #41, #1096 ) ) ;
#1051 = DIRECTION ( 'NONE',  ( -0.000000000000000000, -1.000000000000000000, -0.000000000000000000 ) ) ;
#1052 = EDGE_LOOP ( 'NONE', ( #704, #178 ) ) ;
#1053 = CARTESIAN_POINT ( 'NONE',  ( 3.776252459999997591, 5.199904510000008528, 51.92717851000000451 ) ) ;
#1054 = CARTESIAN_POINT ( 'NONE',  ( 4.151252459999996702, 4.949904510000008528, 51.92717851000000451 ) ) ;
#1055 = EDGE_CURVE ( 'NONE', #360, #702, #303, .T. ) ;
#1056 = PRODUCT_DEFINITION ( 'UNKNOWN', '', #610, #586 ) ;
#1057 = FACE_OUTER_BOUND ( 'NONE', #694, .T. ) ;
#1058 = ORIENTED_EDGE ( 'NONE', *, *, #204, .F. ) ;
#1059 = FACE_OUTER_BOUND ( 'NONE', #710, .T. ) ;
#1060 = CIRCLE ( 'NONE', #66, 0.1406000000000034167 ) ;
#1061 = VECTOR ( 'NONE', #494, 39.37007874015748143 ) ;
#1062 = DIRECTION ( 'NONE',  ( -1.008682336122185430E-15, 0.000000000000000000, 1.000000000000000000 ) ) ;
#1063 = AXIS2_PLACEMENT_3D ( 'NONE', #12, #961, #452 ) ;
#1064 = ORIENTED_EDGE ( 'NONE', *, *, #479, .F. ) ;
#1065 = EDGE_CURVE ( 'NONE', #24, #1003, #101, .T. ) ;
#1066 = DIRECTION ( 'NONE',  ( -0.000000000000000000, 1.000000000000000000, 0.000000000000000000 ) ) ;
#1067 = ORIENTED_EDGE ( 'NONE', *, *, #744, .F. ) ;
#1068 = FACE_OUTER_BOUND ( 'NONE', #713, .T. ) ;
#1069 = CARTESIAN_POINT ( 'NONE',  ( 3.526252459999998035, 4.949904510000008528, 51.92717851000000451 ) ) ;
#1070 = VERTEX_POINT ( 'NONE', #747 ) ;
#1071 = DIRECTION ( 'NONE',  ( -0.000000000000000000, -1.000000000000000000, -0.000000000000000000 ) ) ;
#1072 = VERTEX_POINT ( 'NONE', #1087 ) ;
#1073 = CYLINDRICAL_SURFACE ( 'NONE', #933, 0.2500000000000030531 ) ;
#1074 = DIRECTION ( 'NONE',  ( 0.000000000000000000, -0.000000000000000000, 1.000000000000000000 ) ) ;
#1075 = ORIENTED_EDGE ( 'NONE', *, *, #793, .T. ) ;
#1076 = LINE ( 'NONE', #638, #804 ) ;
#1077 = EDGE_LOOP ( 'NONE', ( #722, #907, #930, #193 ) ) ;
#1078 = ADVANCED_FACE ( 'NONE', ( #919 ), #299, .F. ) ;
#1079 = EDGE_CURVE ( 'NONE', #11, #702, #131, .T. ) ;
#1080 = CIRCLE ( 'NONE', #485, 0.1406000000000034167 ) ;
#1081 = PLANE ( 'NONE',  #917 ) ;
#1082 = EDGE_LOOP ( 'NONE', ( #589, #992, #647, #1122 ) ) ;
#1083 = CIRCLE ( 'NONE', #668, 0.1406000000000034167 ) ;
#1084 = AXIS2_PLACEMENT_3D ( 'NONE', #1002, #402, #145 ) ;
#1085 = DIRECTION ( 'NONE',  ( -0.000000000000000000, -1.000000000000000000, -0.000000000000000000 ) ) ;
#1086 = ORIENTED_EDGE ( 'NONE', *, *, #658, .T. ) ;
#1087 = CARTESIAN_POINT ( 'NONE',  ( 4.526252459999997591, 4.949904510000008528, 53.67717851000001161 ) ) ;
#1088 = CARTESIAN_POINT ( 'NONE',  ( 4.901252459999999367, 4.949904510000008528, 53.30217851000001161 ) ) ;
#1089 = VERTEX_POINT ( 'NONE', #313 ) ;
#1090 = DIRECTION ( 'NONE',  ( -0.000000000000000000, 1.000000000000000000, 0.000000000000000000 ) ) ;
#1091 = DIRECTION ( 'NONE',  ( -1.008682336122185430E-15, 0.000000000000000000, 1.000000000000000000 ) ) ;
#1092 = DIRECTION ( 'NONE',  ( 0.000000000000000000, 0.000000000000000000, -1.000000000000000000 ) ) ;
#1093 = ORIENTED_EDGE ( 'NONE', *, *, #495, .T. ) ;
#1094 = DIRECTION ( 'NONE',  ( -0.000000000000000000, -1.000000000000000000, -0.000000000000000000 ) ) ;
#1095 = EDGE_CURVE ( 'NONE', #910, #806, #506, .T. ) ;
#1096 = ORIENTED_EDGE ( 'NONE', *, *, #1065, .F. ) ;
#1097 = DIRECTION ( 'NONE',  ( -0.000000000000000000, -1.000000000000000000, -0.000000000000000000 ) ) ;
#1098 = CARTESIAN_POINT ( 'NONE',  ( 4.526252459999997591, 4.949904510000008528, 53.30217851000001161 ) ) ;
#1099 = ORIENTED_EDGE ( 'NONE', *, *, #558, .F. ) ;
#1100 = CIRCLE ( 'NONE', #461, 0.3750000000000002220 ) ;
#1101 = AXIS2_PLACEMENT_3D ( 'NONE', #102, #621, #389 ) ;
#1102 = DIRECTION ( 'NONE',  ( -0.000000000000000000, 1.000000000000000000, 0.000000000000000000 ) ) ;
#1103 = AXIS2_PLACEMENT_3D ( 'NONE', #543, #813, #555 ) ;
#1104 = EDGE_CURVE ( 'NONE', #677, #798, #660, .T. ) ;
#1105 = EDGE_LOOP ( 'NONE', ( #905, #52 ) ) ;
#1106 = AXIS2_PLACEMENT_3D ( 'NONE', #971, #894, #982 ) ;
#1107 = CARTESIAN_POINT ( 'NONE',  ( 4.901252459999999367, 4.949904510000008528, 53.30217851000001161 ) ) ;
#1108 = DIRECTION ( 'NONE',  ( -1.000000000000000000, 0.000000000000000000, -2.731847993664253851E-16 ) ) ;
#1109 = ORIENTED_EDGE ( 'NONE', *, *, #873, .T. ) ;
#1110 = EDGE_LOOP ( 'NONE', ( #404, #943, #238, #45 ) ) ;
#1111 = DIRECTION ( 'NONE',  ( 0.000000000000000000, -0.000000000000000000, -1.000000000000000000 ) ) ;
#1112 = APPLICATION_PROTOCOL_DEFINITION ( 'draft international standard', 'automotive_design', 1998, #787 ) ;
#1113 = CARTESIAN_POINT ( 'NONE',  ( 4.151252459999996702, 5.199904510000008528, 53.30217851000001161 ) ) ;
#1114 = ADVANCED_FACE ( 'NONE', ( #849 ), #1016, .F. ) ;
#1115 = EDGE_CURVE ( 'NONE', #496, #1048, #151, .T. ) ;
#1116 = AXIS2_PLACEMENT_3D ( 'NONE', #886, #284, #381 ) ;
#1117 = DIRECTION ( 'NONE',  ( -1.008682336122185430E-15, 0.000000000000000000, 1.000000000000000000 ) ) ;
#1118 = AXIS2_PLACEMENT_3D ( 'NONE', #127, #636, #378 ) ;
#1119 = DIRECTION ( 'NONE',  ( 0.000000000000000000, -1.000000000000000000, 0.000000000000000000 ) ) ;
#1120 = DIRECTION ( 'NONE',  ( 1.000000000000000000, 0.000000000000000000, 0.000000000000000000 ) ) ;
#1121 = DIRECTION ( 'NONE',  ( 0.000000000000000000, 0.000000000000000000, 1.000000000000000000 ) ) ;
#1122 = ORIENTED_EDGE ( 'NONE', *, *, #453, .F. ) ;
#1123 = DIRECTION ( 'NONE',  ( 1.000000000000000000, 0.000000000000000000, 0.000000000000000000 ) ) ;
#1124 = EDGE_CURVE ( 'NONE', #55, #639, #1010, .T. ) ;
#1125 = CARTESIAN_POINT ( 'NONE',  ( 4.526252459999997591, 4.949904510000008528, 53.30217851000001161 ) ) ;
ENDSEC;
END-ISO-10303-21;
