ISO-10303-21;
HEADER;
FILE_DESCRIPTION (( 'STEP AP214' ),
    '1' );
FILE_NAME ('module top plate block 2.STEP',
    '2026-03-17T02:48:55',
    ( '' ),
    ( '' ),
    'SwSTEP 2.0',
    'SolidWorks 2025',
    '' );
FILE_SCHEMA (( 'AUTOMOTIVE_DESIGN' ));
ENDSEC;

DATA;
#1 = ORIENTED_EDGE ( 'NONE', *, *, #506, .T. ) ;
#2 = DIRECTION ( 'NONE',  ( -0.000000000000000000, 0.9867625124381936841, 0.1621719582624066847 ) ) ;
#3 = LINE ( 'NONE', #968, #763 ) ;
#4 = ORIENTED_EDGE ( 'NONE', *, *, #648, .F. ) ;
#5 = CARTESIAN_POINT ( 'NONE',  ( 7.342711218612744339, 20.36747794492356789, 37.72609404648382991 ) ) ;
#6 = EDGE_CURVE ( 'NONE', #425, #303, #717, .T. ) ;
#7 = CARTESIAN_POINT ( 'NONE',  ( 7.006065402389878294, 20.08367701796422367, 39.45292844325106074 ) ) ;
#8 = PLANE ( 'NONE',  #870 ) ;
#9 = CONICAL_SURFACE ( 'NONE', #120, 0.1399999999999979872, 0.04130981886462768010 ) ;
#10 = ORIENTED_EDGE ( 'NONE', *, *, #817, .F. ) ;
#11 = LINE ( 'NONE', #821, #200 ) ;
#12 = CARTESIAN_POINT ( 'NONE',  ( 9.032523799976940992, 19.23341188926940859, 39.23100200321424325 ) ) ;
#13 = EDGE_CURVE ( 'NONE', #654, #680, #229, .T. ) ;
#14 = ORIENTED_EDGE ( 'NONE', *, *, #876, .F. ) ;
#15 = CARTESIAN_POINT ( 'NONE',  ( 0.000000000000000000, 0.000000000000000000, 0.000000000000000000 ) ) ;
#16 = CARTESIAN_POINT ( 'NONE',  ( 8.827556530391651890, 20.26865035356531308, 38.32742712156510834 ) ) ;
#17 = CARTESIAN_POINT ( 'NONE',  ( -90.38509716260251992, -15789.78255881163386, -516.8833277914824293 ) ) ;
#18 = ORIENTED_EDGE ( 'NONE', *, *, #293, .F. ) ;
#19 =( CONVERSION_BASED_UNIT ( 'INCH', #852 ) LENGTH_UNIT ( ) NAMED_UNIT ( #96 ) );
#20 = CARTESIAN_POINT ( 'NONE',  ( 7.268704030179842235, 20.10151593337304732, 39.34438456688318553 ) ) ;
#21 = LINE ( 'NONE', #787, #761 ) ;
#22 = AXIS2_PLACEMENT_3D ( 'NONE', #453, #2, #371 ) ;
#23 = EDGE_CURVE ( 'NONE', #267, #341, #349, .T. ) ;
#24 = EDGE_LOOP ( 'NONE', ( #49, #672 ) ) ;
#25 = AXIS2_PLACEMENT_3D ( 'NONE', #97, #492, #568 ) ;
#26 =( LENGTH_UNIT ( ) NAMED_UNIT ( * ) SI_UNIT ( $, .METRE. ) );
#27 = AXIS2_PLACEMENT_3D ( 'NONE', #409, #403, #194 ) ;
#28 = DIRECTION ( 'NONE',  ( 0.000000000000000000, 0.9792232874999117209, 0.2027849925854105229 ) ) ;
#29 = CARTESIAN_POINT ( 'NONE',  ( 8.790552936175634713, 20.12422000752980722, 39.20623781514184003 ) ) ;
#30 = FACE_OUTER_BOUND ( 'NONE', #412, .T. ) ;
#31 = FACE_OUTER_BOUND ( 'NONE', #138, .T. ) ;
#32 = DIRECTION ( 'NONE',  ( 0.000000000000000000, 0.03489949670250313413, 0.9993908270190957621 ) ) ;
#33 = DIRECTION ( 'NONE',  ( -0.03013542484102349830, 0.6816886134213998583, 0.7310215390132223101 ) ) ;
#34 = EDGE_CURVE ( 'NONE', #282, #536, #575, .T. ) ;
#35 = FACE_OUTER_BOUND ( 'NONE', #507, .T. ) ;
#36 = CIRCLE ( 'NONE', #263, 0.1406000000000001138 ) ;
#37 = VERTEX_POINT ( 'NONE', #373 ) ;
#38 = DIRECTION ( 'NONE',  ( 1.000000000000000000, -3.986074613009556243E-14, 1.391967927378228664E-15 ) ) ;
#39 = AXIS2_PLACEMENT_3D ( 'NONE', #332, #711, #926 ) ;
#40 = DIRECTION ( 'NONE',  ( 0.000000000000000000, -0.1621719582624312761, 0.9867625124381895763 ) ) ;
#41 = VERTEX_POINT ( 'NONE', #749 ) ;
#42 = ORIENTED_EDGE ( 'NONE', *, *, #402, .F. ) ;
#43 = DIRECTION ( 'NONE',  ( 0.000000000000000000, -0.1621719582624454037, 0.9867625124381872448 ) ) ;
#44 = ORIENTED_EDGE ( 'NONE', *, *, #630, .F. ) ;
#45 = ADVANCED_FACE ( 'NONE', ( #694 ), #384, .F. ) ;
#46 = VERTEX_POINT ( 'NONE', #617 ) ;
#47 = PRESENTATION_STYLE_ASSIGNMENT (( #874 ) ) ;
#48 = CARTESIAN_POINT ( 'NONE',  ( 8.790552936175634713, 20.14692408168654580, 39.06809106340050164 ) ) ;
#49 = ORIENTED_EDGE ( 'NONE', *, *, #599, .F. ) ;
#50 = EDGE_CURVE ( 'NONE', #597, #596, #69, .T. ) ;
#51 = VECTOR ( 'NONE', #148, 39.37007874015748143 ) ;
#52 = PLANE ( 'NONE',  #790 ) ;
#53 = CARTESIAN_POINT ( 'NONE',  ( 8.618519658229539360, 19.67550773590465951, 37.50498334293196478 ) ) ;
#54 = VECTOR ( 'NONE', #486, 39.37007874015748143 ) ;
#55 = VERTEX_POINT ( 'NONE', #466 ) ;
#56 = ORIENTED_EDGE ( 'NONE', *, *, #791, .T. ) ;
#57 = CARTESIAN_POINT ( 'NONE',  ( 8.864560124608534153, 19.99744200275926431, 37.66527956213542438 ) ) ;
#58 = FACE_OUTER_BOUND ( 'NONE', #59, .T. ) ;
#59 = EDGE_LOOP ( 'NONE', ( #124, #808, #881, #522 ) ) ;
#60 = EDGE_LOOP ( 'NONE', ( #728, #602, #804, #362 ) ) ;
#61 = LINE ( 'NONE', #227, #305 ) ;
#62 = DIRECTION ( 'NONE',  ( 0.000000000000000000, -0.03489949670545636901, 0.9993908270189925114 ) ) ;
#63 = EDGE_CURVE ( 'NONE', #892, #799, #902, .T. ) ;
#64 = ORIENTED_EDGE ( 'NONE', *, *, #316, .F. ) ;
#65 = ORIENTED_EDGE ( 'NONE', *, *, #965, .F. ) ;
#66 = DIRECTION ( 'NONE',  ( -0.000000000000000000, 0.9867625124381883550, 0.1621719582624391864 ) ) ;
#67 = CARTESIAN_POINT ( 'NONE',  ( 8.790552936175634713, 20.10151593337306508, 39.34438456688318553 ) ) ;
#68 = CONICAL_SURFACE ( 'NONE', #573, 0.1399999999999979872, 0.04130981886462768010 ) ;
#69 = CIRCLE ( 'NONE', #321, 0.1244999999999983620 ) ;
#70 =( GEOMETRIC_REPRESENTATION_CONTEXT ( 3 ) GLOBAL_UNCERTAINTY_ASSIGNED_CONTEXT ( ( #163 ) ) GLOBAL_UNIT_ASSIGNED_CONTEXT ( ( #885, #942, #436 ) ) REPRESENTATION_CONTEXT ( 'NONE', 'WORKASPACE' ) );
#71 = ADVANCED_FACE ( 'NONE', ( #92 ), #8, .F. ) ;
#72 = ORIENTED_EDGE ( 'NONE', *, *, #551, .T. ) ;
#73 = DIRECTION ( 'NONE',  ( 1.000000000000000000, -3.986074613009556243E-14, 1.391967927378227678E-15 ) ) ;
#74 = CARTESIAN_POINT ( 'NONE',  ( 8.827556530391651890, 20.24584897623361712, 38.46616593081392210 ) ) ;
#75 = DIRECTION ( 'NONE',  ( 0.000000000000000000, -0.1621719582624454037, 0.9867625124381872448 ) ) ;
#76 = ORIENTED_EDGE ( 'NONE', *, *, #621, .T. ) ;
#77 = DIRECTION ( 'NONE',  ( 0.000000000000000000, 0.9792232874999117209, 0.2027849925854105229 ) ) ;
#78 = CARTESIAN_POINT ( 'NONE',  ( 7.268704030179842235, 20.14692408168652804, 39.06809106340050164 ) ) ;
#79 = DIRECTION ( 'NONE',  ( -0.000000000000000000, 0.9867625124381936841, 0.1621719582624066847 ) ) ;
#80 = ORIENTED_EDGE ( 'NONE', *, *, #707, .T. ) ;
#81 = DIRECTION ( 'NONE',  ( 0.000000000000000000, -0.1621719582624392975, 0.9867625124381882440 ) ) ;
#82 = EDGE_CURVE ( 'NONE', #772, #815, #119, .T. ) ;
#83 = CYLINDRICAL_SURFACE ( 'NONE', #87, 0.1405999999999990591 ) ;
#84 = CARTESIAN_POINT ( 'NONE',  ( 7.305707624396210242, 20.22304759890091219, 38.60490474006255823 ) ) ;
#85 = PRODUCT_DEFINITION_FORMATION_WITH_SPECIFIED_SOURCE ( 'ANY', '', #485, .NOT_KNOWN. ) ;
#86 = AXIS2_PLACEMENT_3D ( 'NONE', #774, #258, #698 ) ;
#87 = AXIS2_PLACEMENT_3D ( 'NONE', #74, #674, #228 ) ;
#88 = ORIENTED_EDGE ( 'NONE', *, *, #128, .F. ) ;
#89 = CARTESIAN_POINT ( 'NONE',  ( 9.026037813833891477, 19.60989904341282042, 37.55207071777992667 ) ) ;
#90 = PRODUCT_DEFINITION_SHAPE ( 'NONE', 'NONE',  #723 ) ;
#91 = DIRECTION ( 'NONE',  ( 0.000000000000000000, -0.9867625124381877999, -0.1621719582624421285 ) ) ;
#92 = FACE_OUTER_BOUND ( 'NONE', #419, .T. ) ;
#93 = ORIENTED_EDGE ( 'NONE', *, *, #204, .T. ) ;
#94 = CARTESIAN_POINT ( 'NONE',  ( 8.827556530391651890, 19.35963040051029438, 38.46300427658177057 ) ) ;
#95 = DIRECTION ( 'NONE',  ( 5.057555004264206469E-18, 0.9926180654821442628, 0.1212822166621527198 ) ) ;
#96 = DIMENSIONAL_EXPONENTS ( 1.000000000000000000, 0.000000000000000000, 0.000000000000000000, 0.000000000000000000, 0.000000000000000000, 0.000000000000000000, 0.000000000000000000 ) ;
#97 = CARTESIAN_POINT ( 'NONE',  ( -11480.07014618088579, 19.22010723934086229, 39.31195637918355601 ) ) ;
#98 = EDGE_CURVE ( 'NONE', #46, #226, #422, .T. ) ;
#99 = ORIENTED_EDGE ( 'NONE', *, *, #63, .F. ) ;
#100 = LINE ( 'NONE', #20, #845 ) ;
#101 = CARTESIAN_POINT ( 'NONE',  ( -92.40747406193354152, -15789.76983104794817, -516.8828833281805828 ) ) ;
#102 = AXIS2_PLACEMENT_3D ( 'NONE', #398, #252, #247 ) ;
#103 = ADVANCED_FACE ( 'NONE', ( #908 ), #605, .T. ) ;
#104 = AXIS2_PLACEMENT_3D ( 'NONE', #705, #116, #642 ) ;
#105 = FACE_OUTER_BOUND ( 'NONE', #710, .T. ) ;
#106 = CIRCLE ( 'NONE', #367, 0.1399999999999979872 ) ;
#107 = CARTESIAN_POINT ( 'NONE',  ( 8.827556530391651890, 20.24584897623361712, 38.46616593081392210 ) ) ;
#108 = DIRECTION ( 'NONE',  ( -0.000000000000000000, 0.9867625124381883550, 0.1621719582624391864 ) ) ;
#109 = ADVANCED_FACE ( 'NONE', ( #969 ), #544, .F. ) ;
#110 = FILL_AREA_STYLE ('',( #325 ) ) ;
#111 = CARTESIAN_POINT ( 'NONE',  ( 8.827556530391651890, 19.38243177784199389, 38.32426546733296391 ) ) ;
#112 =( BOUNDED_CURVE ( )  B_SPLINE_CURVE ( 3, ( #358, #666, #906, #295 ),
 .UNSPECIFIED., .F., .T. ) 
 B_SPLINE_CURVE_WITH_KNOTS ( ( 4, 4 ),
 ( 6.276888211420243557, 7.256905905204388496 ),
 .UNSPECIFIED. ) 
 CURVE ( )  GEOMETRIC_REPRESENTATION_ITEM ( )  RATIONAL_B_SPLINE_CURVE ( ( 1.000000000000000000, 0.9215524633327688564, 0.9215524633327688564, 1.000000000000000000 ) ) 
 REPRESENTATION_ITEM ( '' )  );
#113 = ORIENTED_EDGE ( 'NONE', *, *, #901, .F. ) ;
#114 = ADVANCED_FACE ( 'NONE', ( #168 ), #9, .F. ) ;
#115 = PLANE ( 'NONE',  #921 ) ;
#116 = DIRECTION ( 'NONE',  ( -3.220293158028377236E-14, -0.7313537016191716811, 0.6819983600624972553 ) ) ;
#117 = EDGE_LOOP ( 'NONE', ( #569, #278, #649, #146 ) ) ;
#118 = VECTOR ( 'NONE', #542, 39.37007874015748854 ) ;
#119 =( BOUNDED_CURVE ( )  B_SPLINE_CURVE ( 3, ( #835, #613, #679, #460 ),
 .UNSPECIFIED., .F., .T. ) 
 B_SPLINE_CURVE_WITH_KNOTS ( ( 4, 4 ),
 ( 3.190487277325077642, 4.712388980383320991 ),
 .UNSPECIFIED. ) 
 CURVE ( )  GEOMETRIC_REPRESENTATION_ITEM ( )  RATIONAL_B_SPLINE_CURVE ( ( 1.000000000000000000, 0.8161204141074933638, 0.8161204141074933638, 1.000000000000000000 ) ) 
 REPRESENTATION_ITEM ( '' )  );
#120 = AXIS2_PLACEMENT_3D ( 'NONE', #526, #311, #840 ) ;
#121 = CARTESIAN_POINT ( 'NONE',  ( 8.864560124608534153, 20.01763241156293915, 37.54242762933687061 ) ) ;
#122 = CARTESIAN_POINT ( 'NONE',  ( 7.422442347668308685E-13, 19.93032392941256248, 37.49608496537570801 ) ) ;
#123 = ADVANCED_FACE ( 'NONE', ( #766 ), #429, .F. ) ;
#124 = ORIENTED_EDGE ( 'NONE', *, *, #621, .F. ) ;
#125 = ORIENTED_EDGE ( 'NONE', *, *, #437, .T. ) ;
#126 = CARTESIAN_POINT ( 'NONE',  ( 8.992617146567965847, 19.22010723944125488, 39.31195637924941622 ) ) ;
#127 = VERTEX_POINT ( 'NONE', #744 ) ;
#128 = EDGE_CURVE ( 'NONE', #285, #554, #416, .T. ) ;
#129 = CARTESIAN_POINT ( 'NONE',  ( 9.114011112430342010, 20.36467381963901602, 37.74315621762573869 ) ) ;
#130 = DIRECTION ( 'NONE',  ( 0.000000000000000000, 0.1621719582624391587, -0.9867625124381882440 ) ) ;
#131 = ORIENTED_EDGE ( 'NONE', *, *, #82, .F. ) ;
#132 = ORIENTED_EDGE ( 'NONE', *, *, #316, .T. ) ;
#133 = DIRECTION ( 'NONE',  ( 0.000000000000000000, -0.9867625124381882440, -0.1621719582624391864 ) ) ;
#134 = CARTESIAN_POINT ( 'NONE',  ( 8.827556530391651890, 20.22304759890192472, 38.60490474006272876 ) ) ;
#135 = VECTOR ( 'NONE', #934, 39.37007874015748854 ) ;
#136 = AXIS2_PLACEMENT_3D ( 'NONE', #633, #470, #490 ) ;
#137 = ORIENTED_EDGE ( 'NONE', *, *, #300, .T. ) ;
#138 = EDGE_LOOP ( 'NONE', ( #317, #347, #878, #735, #873 ) ) ;
#139 = FACE_OUTER_BOUND ( 'NONE', #206, .T. ) ;
#140 = EDGE_CURVE ( 'NONE', #341, #267, #413, .T. ) ;
#141 = CARTESIAN_POINT ( 'NONE',  ( 7.685433415976186566, 19.93032392941225694, 37.49608496537572222 ) ) ;
#142 = ORIENTED_EDGE ( 'NONE', *, *, #428, .F. ) ;
#143 = ORIENTED_EDGE ( 'NONE', *, *, #585, .T. ) ;
#144 = CARTESIAN_POINT ( 'NONE',  ( 7.651303491859117401, 19.87521076638768136, 37.53563969612820728 ) ) ;
#145 = DIRECTION ( 'NONE',  ( 3.910735183437243709E-14, 0.9867625124381880219, 0.1621719582624416844 ) ) ;
#146 = ORIENTED_EDGE ( 'NONE', *, *, #895, .T. ) ;
#147 = VERTEX_POINT ( 'NONE', #631 ) ;
#148 = DIRECTION ( 'NONE',  ( -1.000000000000000000, 4.029124601646332596E-14, -4.011416776785077647E-15 ) ) ;
#149 = DIRECTION ( 'NONE',  ( 0.006297178994526449539, 0.9993710116692210432, 0.03489880473523954141 ) ) ;
#150 = AXIS2_PLACEMENT_3D ( 'NONE', #5, #458, #304 ) ;
#151 = CARTESIAN_POINT ( 'NONE',  ( 7.533115338647931480, 19.50938260077015229, 39.36082475679885562 ) ) ;
#152 = ADVANCED_FACE ( 'NONE', ( #35 ), #780, .F. ) ;
#153 = CIRCLE ( 'NONE', #188, 0.1406000000000001138 ) ;
#154 = VERTEX_POINT ( 'NONE', #860 ) ;
#155 = CARTESIAN_POINT ( 'NONE',  ( 8.790552936175634713, 20.10151593337306508, 39.34438456688318553 ) ) ;
#156 = DIRECTION ( 'NONE',  ( -0.000000000000000000, 0.9867625124381936841, 0.1621719582624066847 ) ) ;
#157 = CARTESIAN_POINT ( 'NONE',  ( 9.105358873179220325, 19.47281714237248451, 37.77430053907200858 ) ) ;
#158 = ADVANCED_FACE ( 'NONE', ( #407 ), #532, .F. ) ;
#159 = VERTEX_POINT ( 'NONE', #266 ) ;
#160 = CARTESIAN_POINT ( 'NONE',  ( 7.608577199404711777, 19.75070895594256726, 37.62499467631974426 ) ) ;
#161 = CARTESIAN_POINT ( 'NONE',  ( 8.527867888413622310, 19.22010723943816046, 39.31195637924890463 ) ) ;
#162 = CARTESIAN_POINT ( 'NONE',  ( 7.523789273143122180, 19.47201527097718810, 39.32075320155171028 ) ) ;
#163 = UNCERTAINTY_MEASURE_WITH_UNIT (LENGTH_MEASURE( 1.000000000000000082E-05 ), #885, 'distance_accuracy_value', 'NONE');
#164 = ORIENTED_EDGE ( 'NONE', *, *, #909, .T. ) ;
#165 = CARTESIAN_POINT ( 'NONE',  ( 8.864800627202027883, 20.40802093448915144, 37.47940341837453104 ) ) ;
#166 = EDGE_CURVE ( 'NONE', #958, #55, #670, .T. ) ;
#167 = CARTESIAN_POINT ( 'NONE',  ( 9.233934236521765371, 19.89543794919754305, 35.20279327222081633 ) ) ;
#168 = FACE_OUTER_BOUND ( 'NONE', #668, .T. ) ;
#169 = AXIS2_PLACEMENT_3D ( 'NONE', #15, #259, #397 ) ;
#170 = AXIS2_PLACEMENT_3D ( 'NONE', #377, #620, #75 ) ;
#171 = CIRCLE ( 'NONE', #27, 0.1405999999999990591 ) ;
#172 = EDGE_LOOP ( 'NONE', ( #176, #589, #848, #581 ) ) ;
#173 = DIRECTION ( 'NONE',  ( 0.000000000000000000, 0.9792232874999117209, 0.2027849925854105229 ) ) ;
#174 = LINE ( 'NONE', #392, #945 ) ;
#175 = CARTESIAN_POINT ( 'NONE',  ( 8.733326043765007540, 19.89543794919520536, 35.20279327222076660 ) ) ;
#176 = ORIENTED_EDGE ( 'NONE', *, *, #394, .F. ) ;
#177 = PRODUCT_CONTEXT ( 'NONE', #467, 'mechanical' ) ;
#178 = LINE ( 'NONE', #922, #432 ) ;
#179 = DIRECTION ( 'NONE',  ( 0.009695013075862297935, 0.9993438579051866499, -0.03489785650490308949 ) ) ;
#180 = ORIENTED_EDGE ( 'NONE', *, *, #775, .F. ) ;
#181 =( NAMED_UNIT ( * ) PLANE_ANGLE_UNIT ( ) SI_UNIT ( $, .RADIAN. ) );
#182 = CARTESIAN_POINT ( 'NONE',  ( 8.790552936175634713, 19.73399365656181104, 39.26827526359198117 ) ) ;
#183 = DIRECTION ( 'NONE',  ( -0.000000000000000000, 0.9867625124381883550, 0.1621719582624391864 ) ) ;
#184 = AXIS2_PLACEMENT_3D ( 'NONE', #828, #537, #81 ) ;
#185 = ADVANCED_FACE ( 'NONE', ( #31 ), #330, .F. ) ;
#186 =( BOUNDED_CURVE ( )  B_SPLINE_CURVE ( 3, ( #251, #89, #331, #546 ),
 .UNSPECIFIED., .F., .F. ) 
 B_SPLINE_CURVE_WITH_KNOTS ( ( 4, 4 ),
 ( 5.253739797401394185, 6.289642926123790723 ),
 .UNSPECIFIED. ) 
 CURVE ( )  GEOMETRIC_REPRESENTATION_ITEM ( )  RATIONAL_B_SPLINE_CURVE ( ( 1.000000000000000000, 0.9125567901506494994, 0.9125567901506494994, 1.000000000000000000 ) ) 
 REPRESENTATION_ITEM ( '' )  );
#187 = CARTESIAN_POINT ( 'NONE',  ( 7.342711218612744339, 19.99744200275924655, 37.66527956213541017 ) ) ;
#188 = AXIS2_PLACEMENT_3D ( 'NONE', #296, #145, #538 ) ;
#189 = CARTESIAN_POINT ( 'NONE',  ( 8.864560124608534153, 20.39018201908032424, 37.58794729474249152 ) ) ;
#190 = DIRECTION ( 'NONE',  ( 0.000000000000000000, -0.1621719582624454037, 0.9867625124381872448 ) ) ;
#191 = ADVANCED_FACE ( 'NONE', ( #858 ), #655, .F. ) ;
#192 = ADVANCED_FACE ( 'NONE', ( #195 ), #709, .T. ) ;
#193 =( BOUNDED_CURVE ( )  B_SPLINE_CURVE ( 3, ( #53, #880, #219, #433 ),
 .UNSPECIFIED., .F., .T. ) 
 B_SPLINE_CURVE_WITH_KNOTS ( ( 4, 4 ),
 ( 4.601677048152993166, 4.663150626075473149 ),
 .UNSPECIFIED. ) 
 CURVE ( )  GEOMETRIC_REPRESENTATION_ITEM ( )  RATIONAL_B_SPLINE_CURVE ( ( 1.000000000000000000, 0.9996851080604735040, 0.9996851080604735040, 1.000000000000000000 ) ) 
 REPRESENTATION_ITEM ( '' )  );
#194 = DIRECTION ( 'NONE',  ( 0.000000000000000000, -0.1621719582623988853, 0.9867625124381949053 ) ) ;
#195 = FACE_OUTER_BOUND ( 'NONE', #60, .T. ) ;
#196 = ORIENTED_EDGE ( 'NONE', *, *, #836, .T. ) ;
#197 = EDGE_CURVE ( 'NONE', #815, #811, #635, .T. ) ;
#198 = DIRECTION ( 'NONE',  ( 0.000000000000000000, -0.9993908270190955401, -0.03489949670250229452 ) ) ;
#199 = ORIENTED_EDGE ( 'NONE', *, *, #315, .F. ) ;
#200 = VECTOR ( 'NONE', #375, 39.37007874015748854 ) ;
#201 = AXIS2_PLACEMENT_3D ( 'NONE', #101, #488, #481 ) ;
#202 = DIRECTION ( 'NONE',  ( 0.000000000000000000, -0.1621719582624312761, 0.9867625124381895763 ) ) ;
#203 = VECTOR ( 'NONE', #388, 39.37007874015748143 ) ;
#204 = EDGE_CURVE ( 'NONE', #554, #529, #770, .T. ) ;
#205 = DIRECTION ( 'NONE',  ( -0.000000000000000000, 0.9867625124381883550, 0.1621719582624391864 ) ) ;
#206 = EDGE_LOOP ( 'NONE', ( #657, #336 ) ) ;
#207 = ORIENTED_EDGE ( 'NONE', *, *, #519, .T. ) ;
#208 = CARTESIAN_POINT ( 'NONE',  ( 7.305707624396210242, 19.60632102862165738, 38.50354726614767031 ) ) ;
#209 = FACE_BOUND ( 'NONE', #851, .T. ) ;
#210 = ORIENTED_EDGE ( 'NONE', *, *, #464, .T. ) ;
#211 = EDGE_LOOP ( 'NONE', ( #952, #622 ) ) ;
#212 = DIRECTION ( 'NONE',  ( -0.04927818435185518653, -0.1619749342972601758, 0.9855636870372115332 ) ) ;
#213 = CYLINDRICAL_SURFACE ( 'NONE', #826, 0.2499999999994975686 ) ;
#214 = ORIENTED_EDGE ( 'NONE', *, *, #920, .T. ) ;
#215 = ADVANCED_FACE ( 'NONE', ( #560 ), #929, .T. ) ;
#216 = ORIENTED_EDGE ( 'NONE', *, *, #13, .F. ) ;
#217 = DIRECTION ( 'NONE',  ( -0.000000000000000000, 0.9867625124381883550, 0.1621719582624391864 ) ) ;
#218 = AXIS2_PLACEMENT_3D ( 'NONE', #675, #183, #190 ) ;
#219 = CARTESIAN_POINT ( 'NONE',  ( 8.618454010078663075, 19.65151841141288713, 37.52220048706108457 ) ) ;
#220 = CIRCLE ( 'NONE', #793, 0.1244999999999983620 ) ;
#221 = ORIENTED_EDGE ( 'NONE', *, *, #262, .T. ) ;
#222 = EDGE_CURVE ( 'NONE', #439, #127, #261, .T. ) ;
#223 = EDGE_LOOP ( 'NONE', ( #339, #56, #562, #408, #131 ) ) ;
#224 = LINE ( 'NONE', #829, #203 ) ;
#225 = ORIENTED_EDGE ( 'NONE', *, *, #566, .T. ) ;
#226 = VERTEX_POINT ( 'NONE', #338 ) ;
#227 = CARTESIAN_POINT ( 'NONE',  ( 7.213064446134171526, 20.14734598072819693, 35.21159009452309618 ) ) ;
#228 = DIRECTION ( 'NONE',  ( 0.000000000000000000, -0.1621719582623988853, 0.9867625124381949053 ) ) ;
#229 = LINE ( 'NONE', #84, #482 ) ;
#230 = VERTEX_POINT ( 'NONE', #702 ) ;
#231 = DIRECTION ( 'NONE',  ( 1.000000000000000000, 1.229500196962188560E-14, 4.293509296817987498E-16 ) ) ;
#232 = VECTOR ( 'NONE', #73, 39.37007874015748143 ) ;
#233 = ADVANCED_FACE ( 'NONE', ( #393 ), #938, .F. ) ;
#234 = AXIS2_PLACEMENT_3D ( 'NONE', #583, #509, #726 ) ;
#235 = CARTESIAN_POINT ( 'NONE',  ( -144.1363987236655362, -15750.66139787065003, 588.4674356169289240 ) ) ;
#236 = VECTOR ( 'NONE', #907, 39.37007874015748854 ) ;
#237 = ORIENTED_EDGE ( 'NONE', *, *, #23, .F. ) ;
#238 = DIRECTION ( 'NONE',  ( 5.057555004264206469E-18, 0.9926180654821442628, 0.1212822166621527198 ) ) ;
#239 = DIRECTION ( 'NONE',  ( 5.057555004264206469E-18, 0.9926180654821442628, 0.1212822166621527198 ) ) ;
#240 = DIRECTION ( 'NONE',  ( -0.000000000000000000, 0.9867625124381883550, 0.1621719582624391864 ) ) ;
#241 = VERTEX_POINT ( 'NONE', #564 ) ;
#242 = CARTESIAN_POINT ( 'NONE',  ( 7.342711218612744339, 20.36747794492356789, 37.72609404648382991 ) ) ;
#243 = DIRECTION ( 'NONE',  ( -0.009695013075862297935, -0.9993438579051866499, 0.03489785650490307561 ) ) ;
#244 = EDGE_CURVE ( 'NONE', #439, #370, #21, .T. ) ;
#245 = ORIENTED_EDGE ( 'NONE', *, *, #369, .F. ) ;
#246 = DIRECTION ( 'NONE',  ( 0.000000000000000000, 0.1621719582624391864, -0.9867625124381882440 ) ) ;
#247 = DIRECTION ( 'NONE',  ( 0.000000000000000000, -0.1621719582624312761, 0.9867625124381895763 ) ) ;
#248 = CARTESIAN_POINT ( 'NONE',  ( 7.268704030179842235, 20.12422000752978946, 39.20623781514184003 ) ) ;
#249 = AXIS2_PLACEMENT_3D ( 'NONE', #604, #520, #91 ) ;
#250 = VERTEX_POINT ( 'NONE', #557 ) ;
#251 = CARTESIAN_POINT ( 'NONE',  ( 9.071001107937627594, 19.49589276243166935, 37.63389305387543970 ) ) ;
#252 = DIRECTION ( 'NONE',  ( -0.000000000000000000, 0.9867625124381883550, 0.1621719582624391864 ) ) ;
#253 = CARTESIAN_POINT ( 'NONE',  ( 7.342711218612744339, 20.01763241156292139, 37.54242762933686350 ) ) ;
#254 = ORIENTED_EDGE ( 'NONE', *, *, #565, .T. ) ;
#255 = DIRECTION ( 'NONE',  ( 0.000000000000000000, -0.1621719582624312761, 0.9867625124381895763 ) ) ;
#256 = CARTESIAN_POINT ( 'NONE',  ( 7.305707624396210242, 20.26865035356429701, 38.32742712156493781 ) ) ;
#257 = EDGE_CURVE ( 'NONE', #303, #521, #269, .T. ) ;
#258 = DIRECTION ( 'NONE',  ( 0.000000000000000000, -0.9867625124381882440, -0.1621719582624391864 ) ) ;
#259 = DIRECTION ( 'NONE',  ( 0.000000000000000000, 0.000000000000000000, 1.000000000000000000 ) ) ;
#260 = CARTESIAN_POINT ( 'NONE',  ( 9.239489815797664818, 20.77711605956627494, 35.23358215027900542 ) ) ;
#261 = LINE ( 'NONE', #637, #135 ) ;
#262 = EDGE_CURVE ( 'NONE', #502, #499, #883, .T. ) ;
#263 = AXIS2_PLACEMENT_3D ( 'NONE', #431, #337, #641 ) ;
#264 = STYLED_ITEM ( 'NONE', ( #47 ), #651 ) ;
#265 = CARTESIAN_POINT ( 'NONE',  ( -11480.07014618011635, 20.14734598118697306, 35.21159009453904076 ) ) ;
#266 = CARTESIAN_POINT ( 'NONE',  ( 7.342711218612744339, 20.34477387076682575, 37.86424079822517541 ) ) ;
#267 = VERTEX_POINT ( 'NONE', #253 ) ;
#268 = DIRECTION ( 'NONE',  ( 0.000000000000000000, -0.1621719582624442935, 0.9867625124381874668 ) ) ;
#269 = LINE ( 'NONE', #175, #887 ) ;
#270 = ORIENTED_EDGE ( 'NONE', *, *, #98, .F. ) ;
#271 = VERTEX_POINT ( 'NONE', #659 ) ;
#272 = CARTESIAN_POINT ( 'NONE',  ( 7.305707624396210242, 20.22304759890091219, 38.60490474006255823 ) ) ;
#273 = DIRECTION ( 'NONE',  ( -5.415117337560783714E-15, -0.03489949670250230146, 0.9993908270190956511 ) ) ;
#274 = ORIENTED_EDGE ( 'NONE', *, *, #300, .F. ) ;
#275 = ORIENTED_EDGE ( 'NONE', *, *, #658, .T. ) ;
#276 = EDGE_CURVE ( 'NONE', #46, #230, #487, .T. ) ;
#277 = FACE_BOUND ( 'NONE', #959, .T. ) ;
#278 = ORIENTED_EDGE ( 'NONE', *, *, #901, .T. ) ;
#279 = DIRECTION ( 'NONE',  ( 0.006297178994490287493, 0.9993710116692213763, 0.03489880473523698096 ) ) ;
#280 = CARTESIAN_POINT ( 'NONE',  ( 8.790552936175634713, 19.77437447416916072, 39.02257139799487362 ) ) ;
#281 = EDGE_CURVE ( 'NONE', #499, #127, #588, .T. ) ;
#282 = VERTEX_POINT ( 'NONE', #280 ) ;
#283 = ORIENTED_EDGE ( 'NONE', *, *, #140, .F. ) ;
#284 = LINE ( 'NONE', #758, #950 ) ;
#285 = VERTEX_POINT ( 'NONE', #943 ) ;
#286 = EDGE_CURVE ( 'NONE', #746, #41, #919, .T. ) ;
#287 = ORIENTED_EDGE ( 'NONE', *, *, #658, .F. ) ;
#288 = VECTOR ( 'NONE', #500, 39.37007874015748143 ) ;
#289 = DIRECTION ( 'NONE',  ( -0.000000000000000000, 0.9867625124381883550, 0.1621719582624391864 ) ) ;
#290 = VECTOR ( 'NONE', #179, 39.37007874015748854 ) ;
#291 = AXIS2_PLACEMENT_3D ( 'NONE', #107, #773, #782 ) ;
#292 = EDGE_LOOP ( 'NONE', ( #924, #225, #719, #216 ) ) ;
#293 = EDGE_CURVE ( 'NONE', #776, #241, #359, .T. ) ;
#294 = EDGE_LOOP ( 'NONE', ( #353, #512 ) ) ;
#295 = CARTESIAN_POINT ( 'NONE',  ( 8.992617146567965847, 19.22010723944125488, 39.31195637924941622 ) ) ;
#296 = CARTESIAN_POINT ( 'NONE',  ( 7.305707624396210242, 19.62912240595336044, 38.36480845689886365 ) ) ;
#297 = CARTESIAN_POINT ( 'NONE',  ( 9.071001107937627594, 19.49589276243166935, 37.63389305387543970 ) ) ;
#298 = ORIENTED_EDGE ( 'NONE', *, *, #803, .F. ) ;
#299 = CARTESIAN_POINT ( 'NONE',  ( 9.034795344490719415, 19.24087834281173315, 39.18557111284216177 ) ) ;
#300 = EDGE_CURVE ( 'NONE', #502, #425, #193, .T. ) ;
#301 = CYLINDRICAL_SURFACE ( 'NONE', #483, 0.1405999999999990591 ) ;
#302 = CARTESIAN_POINT ( 'NONE',  ( 7.548096677990510095, 19.54519294602901169, 39.39922665054965023 ) ) ;
#303 = VERTEX_POINT ( 'NONE', #961 ) ;
#304 = DIRECTION ( 'NONE',  ( 0.000000000000000000, -0.1621719582624312761, 0.9867625124381895763 ) ) ;
#305 = VECTOR ( 'NONE', #816, 39.37007874015748854 ) ;
#306 = CARTESIAN_POINT ( 'NONE',  ( 8.618519658229539360, 19.67550773590465951, 37.50498334293196478 ) ) ;
#307 = DIRECTION ( 'NONE',  ( -0.9987850922730998615, 0.007991539655957821675, -0.04862586499942884305 ) ) ;
#308 = ORIENTED_EDGE ( 'NONE', *, *, #519, .F. ) ;
#309 = FACE_OUTER_BOUND ( 'NONE', #574, .T. ) ;
#310 = CARTESIAN_POINT ( 'NONE',  ( 8.790552936175634713, 20.12422000752980722, 39.20623781514184003 ) ) ;
#311 = DIRECTION ( 'NONE',  ( -0.000000000000000000, 0.9867625124381883550, 0.1621719582624391864 ) ) ;
#312 = ORIENTED_EDGE ( 'NONE', *, *, #257, .F. ) ;
#313 = DIRECTION ( 'NONE',  ( 3.910735183437243709E-14, 0.9867625124381879109, 0.1621719582624416567 ) ) ;
#314 = CARTESIAN_POINT ( 'NONE',  ( 7.568475789385287200, 19.57883079250494518, 39.43529882458305735 ) ) ;
#315 = EDGE_CURVE ( 'NONE', #596, #597, #497, .T. ) ;
#316 = EDGE_CURVE ( 'NONE', #282, #154, #501, .T. ) ;
#317 = ORIENTED_EDGE ( 'NONE', *, *, #764, .F. ) ;
#318 =( NAMED_UNIT ( * ) SI_UNIT ( $, .STERADIAN. ) SOLID_ANGLE_UNIT ( ) );
#319 = LINE ( 'NONE', #342, #288 ) ;
#320 = DIRECTION ( 'NONE',  ( -0.04927818435185518653, -0.1619749342972601758, 0.9855636870372115332 ) ) ;
#321 = AXIS2_PLACEMENT_3D ( 'NONE', #847, #913, #754 ) ;
#322 = CIRCLE ( 'NONE', #335, 0.1399999999999979872 ) ;
#323 = VERTEX_POINT ( 'NONE', #126 ) ;
#324 = ADVANCED_FACE ( 'NONE', ( #421 ), #213, .T. ) ;
#325 = FILL_AREA_STYLE_COLOUR ( '', #714 ) ;
#326 = CARTESIAN_POINT ( 'NONE',  ( -143.8867024505977668, -15750.66339575556412, 588.4795920831788862 ) ) ;
#327 = APPLICATION_PROTOCOL_DEFINITION ( 'draft international standard', 'automotive_design', 1998, #467 ) ;
#328 = ADVANCED_FACE ( 'NONE', ( #58 ), #671, .F. ) ;
#329 = PLANE ( 'NONE',  #136 ) ;
#330 = PLANE ( 'NONE',  #334 ) ;
#331 = CARTESIAN_POINT ( 'NONE',  ( 8.948122345676670975, 19.67550773590106417, 37.50498334293195768 ) ) ;
#332 = CARTESIAN_POINT ( 'NONE',  ( 8.790552936175634713, 20.12422000752980722, 39.20623781514184003 ) ) ;
#333 = DIRECTION ( 'NONE',  ( -0.006297178994490289228, -0.9993710116692213763, -0.03489880473523698790 ) ) ;
#334 = AXIS2_PLACEMENT_3D ( 'NONE', #927, #471, #712 ) ;
#335 = AXIS2_PLACEMENT_3D ( 'NONE', #610, #366, #616 ) ;
#336 = ORIENTED_EDGE ( 'NONE', *, *, #315, .T. ) ;
#337 = DIRECTION ( 'NONE',  ( 3.910735183437243709E-14, 0.9867625124381880219, 0.1621719582624416844 ) ) ;
#338 = CARTESIAN_POINT ( 'NONE',  ( 7.523789273143122180, 19.47201527097718810, 39.32075320155171028 ) ) ;
#339 = ORIENTED_EDGE ( 'NONE', *, *, #757, .F. ) ;
#340 = ADVANCED_FACE ( 'NONE', ( #514 ), #346, .T. ) ;
#341 = VERTEX_POINT ( 'NONE', #948 ) ;
#342 = CARTESIAN_POINT ( 'NONE',  ( 7.518280113845953849, 19.57883079250494163, 39.43529882458304314 ) ) ;
#343 = DIRECTION ( 'NONE',  ( 0.000000000000000000, -0.1621719582623988853, 0.9867625124381949053 ) ) ;
#344 = VERTEX_POINT ( 'NONE', #134 ) ;
#345 = ORIENTED_EDGE ( 'NONE', *, *, #63, .T. ) ;
#346 = PLANE ( 'NONE',  #401 ) ;
#347 = ORIENTED_EDGE ( 'NONE', *, *, #6, .T. ) ;
#348 = CIRCLE ( 'NONE', #22, 0.1405999999999990591 ) ;
#349 = CIRCLE ( 'NONE', #903, 0.1244999999999983620 ) ;
#350 = LINE ( 'NONE', #953, #962 ) ;
#351 = DIRECTION ( 'NONE',  ( -0.000000000000000000, 0.9867625124381883550, 0.1621719582624391864 ) ) ;
#352 = ORIENTED_EDGE ( 'NONE', *, *, #757, .T. ) ;
#353 = ORIENTED_EDGE ( 'NONE', *, *, #786, .F. ) ;
#354 = FACE_BOUND ( 'NONE', #294, .T. ) ;
#355 = EDGE_CURVE ( 'NONE', #872, #680, #904, .T. ) ;
#356 = ORIENTED_EDGE ( 'NONE', *, *, #82, .T. ) ;
#357 = ORIENTED_EDGE ( 'NONE', *, *, #443, .T. ) ;
#358 = CARTESIAN_POINT ( 'NONE',  ( 8.785683637270951252, 19.32692276096821260, 39.42650200228063539 ) ) ;
#359 = LINE ( 'NONE', #667, #778 ) ;
#360 = VERTEX_POINT ( 'NONE', #646 ) ;
#361 = ADVANCED_FACE ( 'NONE', ( #277, #354, #572, #869, #504, #733, #209 ), #662, .F. ) ;
#362 = ORIENTED_EDGE ( 'NONE', *, *, #639, .F. ) ;
#363 = CIRCLE ( 'NONE', #380, 0.1399999999999979872 ) ;
#364 = CARTESIAN_POINT ( 'NONE',  ( 7.007606290782812941, 19.47201527097123730, 39.32075320155072262 ) ) ;
#365 = VECTOR ( 'NONE', #333, 39.37007874015748143 ) ;
#366 = DIRECTION ( 'NONE',  ( -0.000000000000000000, 0.9867625124381883550, 0.1621719582624391864 ) ) ;
#367 = AXIS2_PLACEMENT_3D ( 'NONE', #310, #896, #463 ) ;
#368 = CARTESIAN_POINT ( 'NONE',  ( 8.678921787904993579, 1.247977011596379304, 38.14848689565767614 ) ) ;
#369 = EDGE_CURVE ( 'NONE', #496, #230, #284, .T. ) ;
#370 = VERTEX_POINT ( 'NONE', #7 ) ;
#371 = DIRECTION ( 'NONE',  ( 0.000000000000000000, -0.1621719582623988853, 0.9867625124381949053 ) ) ;
#372 = DIRECTION ( 'NONE',  ( 0.000000000000000000, -0.1621719582624454037, 0.9867625124381872448 ) ) ;
#373 = CARTESIAN_POINT ( 'NONE',  ( 7.268704030179842235, 20.10151593337304732, 39.34438456688318553 ) ) ;
#374 = ORIENTED_EDGE ( 'NONE', *, *, #965, .T. ) ;
#375 = DIRECTION ( 'NONE',  ( 0.006297178994491810580, 0.9993710116692212653, 0.03489880473523954141 ) ) ;
#376 = FACE_OUTER_BOUND ( 'NONE', #580, .T. ) ;
#377 = CARTESIAN_POINT ( 'NONE',  ( 8.790552936175634713, 19.75418406536548588, 39.14542333079342740 ) ) ;
#378 = ORIENTED_EDGE ( 'NONE', *, *, #718, .T. ) ;
#379 = CARTESIAN_POINT ( 'NONE',  ( 7.305707624396210242, 19.65192378328505995, 38.22606964765005699 ) ) ;
#380 = AXIS2_PLACEMENT_3D ( 'NONE', #503, #217, #202 ) ;
#381 = ADVANCED_FACE ( 'NONE', ( #753 ), #83, .F. ) ;
#382 = CARTESIAN_POINT ( 'NONE',  ( 9.034795344490719415, 19.24087834281173315, 39.18557111284216177 ) ) ;
#383 = VECTOR ( 'NONE', #438, 39.37007874015748854 ) ;
#384 = CYLINDRICAL_SURFACE ( 'NONE', #949, 0.1405999999999990591 ) ;
#385 = CIRCLE ( 'NONE', #561, 0.1399999999999979872 ) ;
#386 = ORIENTED_EDGE ( 'NONE', *, *, #695, .T. ) ;
#387 = APPLICATION_PROTOCOL_DEFINITION ( 'draft international standard', 'automotive_design', 1998, #395 ) ;
#388 = DIRECTION ( 'NONE',  ( 0.000000000000000000, 0.9792232874999117209, 0.2027849925854105229 ) ) ;
#389 = CARTESIAN_POINT ( 'NONE',  ( 7.342711218612744339, 19.99744200275924655, 37.66527956213541017 ) ) ;
#390 = ADVANCED_FACE ( 'NONE', ( #683 ), #839, .F. ) ;
#391 = ORIENTED_EDGE ( 'NONE', *, *, #437, .F. ) ;
#392 = CARTESIAN_POINT ( 'NONE',  ( -1.905431517421338761, 255.2301002258570861, 292.4016881110276813 ) ) ;
#393 = FACE_OUTER_BOUND ( 'NONE', #784, .T. ) ;
#394 = EDGE_CURVE ( 'NONE', #596, #628, #524, .T. ) ;
#395 = APPLICATION_CONTEXT ( 'automotive_design' ) ;
#396 = EDGE_LOOP ( 'NONE', ( #964, #505, #740, #457, #889, #356 ) ) ;
#397 = DIRECTION ( 'NONE',  ( 1.000000000000000000, 0.000000000000000000, 0.000000000000000000 ) ) ;
#398 = CARTESIAN_POINT ( 'NONE',  ( 8.790552936175634713, 20.12422000752980722, 39.20623781514184003 ) ) ;
#399 = DIRECTION ( 'NONE',  ( 0.000000000000000000, -0.1621719582624312761, 0.9867625124381895763 ) ) ;
#400 = AXIS2_PLACEMENT_3D ( 'NONE', #937, #415, #268 ) ;
#401 = AXIS2_PLACEMENT_3D ( 'NONE', #652, #273, #198 ) ;
#402 = EDGE_CURVE ( 'NONE', #654, #910, #153, .T. ) ;
#403 = DIRECTION ( 'NONE',  ( -0.000000000000000000, 0.9867625124381936841, 0.1621719582624066847 ) ) ;
#404 = CARTESIAN_POINT ( 'NONE',  ( 9.034602187912815552, 19.21022412610826890, 39.18450064400694544 ) ) ;
#405 = DIRECTION ( 'NONE',  ( -0.000000000000000000, 0.9867625124381883550, 0.1621719582624391864 ) ) ;
#406 = FACE_BOUND ( 'NONE', #751, .T. ) ;
#407 = FACE_OUTER_BOUND ( 'NONE', #593, .T. ) ;
#408 = ORIENTED_EDGE ( 'NONE', *, *, #197, .F. ) ;
#409 = CARTESIAN_POINT ( 'NONE',  ( 7.305707624396210242, 20.24584897623260460, 38.46616593081375157 ) ) ;
#410 = DIRECTION ( 'NONE',  ( 0.000000000000000000, -0.1621719582624442935, 0.9867625124381874668 ) ) ;
#411 = AXIS2_PLACEMENT_3D ( 'NONE', #615, #66, #441 ) ;
#412 = EDGE_LOOP ( 'NONE', ( #274, #584, #65, #795, #644 ) ) ;
#413 = CIRCLE ( 'NONE', #218, 0.1244999999999983620 ) ;
#414 = PRESENTATION_LAYER_ASSIGNMENT (  '', '', ( #264 ) ) ;
#415 = DIRECTION ( 'NONE',  ( -9.480533972849698021E-15, 0.9867625124381883550, 0.1621719582624392975 ) ) ;
#416 =( BOUNDED_CURVE ( )  B_SPLINE_CURVE ( 3, ( #297, #824, #450, #157 ),
 .UNSPECIFIED., .F., .T. ) 
 B_SPLINE_CURVE_WITH_KNOTS ( ( 4, 4 ),
 ( 0.9875669662182487984, 1.570796326792365472 ),
 .UNSPECIFIED. ) 
 CURVE ( )  GEOMETRIC_REPRESENTATION_ITEM ( )  RATIONAL_B_SPLINE_CURVE ( ( 1.000000000000000000, 0.9718539367530634188, 0.9718539367530634188, 1.000000000000000000 ) ) 
 REPRESENTATION_ITEM ( '' )  );
#417 = CARTESIAN_POINT ( 'NONE',  ( 8.864560124608534153, 20.36747794492358565, 37.72609404648383702 ) ) ;
#418 = ORIENTED_EDGE ( 'NONE', *, *, #682, .F. ) ;
#419 = EDGE_LOOP ( 'NONE', ( #607, #93, #545, #760 ) ) ;
#420 = DIRECTION ( 'NONE',  ( 0.000000000000000000, -0.1621719582624312761, 0.9867625124381895763 ) ) ;
#421 = FACE_OUTER_BOUND ( 'NONE', #223, .T. ) ;
#422 =( BOUNDED_CURVE ( )  B_SPLINE_CURVE ( 3, ( #314, #302, #151, #162 ),
 .UNSPECIFIED., .F., .T. ) 
 B_SPLINE_CURVE_WITH_KNOTS ( ( 4, 4 ),
 ( 0.9970321021685785157, 1.259427563419523777 ),
 .UNSPECIFIED. ) 
 CURVE ( )  GEOMETRIC_REPRESENTATION_ITEM ( )  RATIONAL_B_SPLINE_CURVE ( ( 1.000000000000000000, 0.9942706104949516899, 0.9942706104949516899, 1.000000000000000000 ) ) 
 REPRESENTATION_ITEM ( '' )  );
#423 = VERTEX_POINT ( 'NONE', #448 ) ;
#424 = EDGE_CURVE ( 'NONE', #271, #423, #385, .T. ) ;
#425 = VERTEX_POINT ( 'NONE', #900 ) ;
#426 = CARTESIAN_POINT ( 'NONE',  ( -11480.07014618011635, 19.75070895640047652, 37.62499467630374994 ) ) ;
#427 = DIRECTION ( 'NONE',  ( -0.03486611143716954186, -0.8119253981476409754, 0.5827190593382419737 ) ) ;
#428 = EDGE_CURVE ( 'NONE', #370, #772, #748, .T. ) ;
#429 = CONICAL_SURFACE ( 'NONE', #809, 0.1399999999999979872, 0.04130981886462768010 ) ;
#430 = ORIENTED_EDGE ( 'NONE', *, *, #166, .F. ) ;
#431 = CARTESIAN_POINT ( 'NONE',  ( 7.305707624396210242, 19.62912240595336044, 38.36480845689886365 ) ) ;
#432 = VECTOR ( 'NONE', #704, 39.37007874015748143 ) ;
#433 = CARTESIAN_POINT ( 'NONE',  ( 8.617938320384919137, 19.63950957127010000, 37.53081923460577229 ) ) ;
#434 = ORIENTED_EDGE ( 'NONE', *, *, #764, .T. ) ;
#435 = ORIENTED_EDGE ( 'NONE', *, *, #293, .T. ) ;
#436 =( NAMED_UNIT ( * ) SI_UNIT ( $, .STERADIAN. ) SOLID_ANGLE_UNIT ( ) );
#437 = EDGE_CURVE ( 'NONE', #341, #159, #224, .T. ) ;
#438 = DIRECTION ( 'NONE',  ( 5.057555004264206469E-18, 0.9926180654821442628, 0.1212822166621527198 ) ) ;
#439 = VERTEX_POINT ( 'NONE', #543 ) ;
#440 = ORIENTED_EDGE ( 'NONE', *, *, #23, .T. ) ;
#441 = DIRECTION ( 'NONE',  ( 0.000000000000000000, -0.1621719582624312761, 0.9867625124381895763 ) ) ;
#442 = CARTESIAN_POINT ( 'NONE',  ( 8.864560124608534153, 20.36747794492358565, 37.72609404648383702 ) ) ;
#443 = EDGE_CURVE ( 'NONE', #536, #282, #220, .T. ) ;
#444 = DIRECTION ( 'NONE',  ( 0.000000000000000000, -0.1621719582624312761, 0.9867625124381895763 ) ) ;
#445 = ORIENTED_EDGE ( 'NONE', *, *, #817, .T. ) ;
#446 = CIRCLE ( 'NONE', #400, 0.1406000000000001138 ) ;
#447 = LINE ( 'NONE', #747, #232 ) ;
#448 = CARTESIAN_POINT ( 'NONE',  ( 8.864560124608534153, 20.39018201908032424, 37.58794729474249152 ) ) ;
#449 = AXIS2_PLACEMENT_3D ( 'NONE', #265, #313, #563 ) ;
#450 = CARTESIAN_POINT ( 'NONE',  ( 9.107836928634720053, 19.48096238704699346, 37.72473943005589803 ) ) ;
#451 = EDGE_CURVE ( 'NONE', #127, #250, #3, .T. ) ;
#452 = ORIENTED_EDGE ( 'NONE', *, *, #585, .F. ) ;
#453 = CARTESIAN_POINT ( 'NONE',  ( 8.827556530391651890, 20.24584897623361712, 38.46616593081392210 ) ) ;
#454 = LINE ( 'NONE', #167, #236 ) ;
#455 = DIRECTION ( 'NONE',  ( 0.000000000000000000, -0.1621719582623988853, 0.9867625124381949053 ) ) ;
#456 = ADVANCED_FACE ( 'NONE', ( #376 ), #301, .F. ) ;
#457 = ORIENTED_EDGE ( 'NONE', *, *, #244, .T. ) ;
#458 = DIRECTION ( 'NONE',  ( -0.000000000000000000, 0.9867625124381883550, 0.1621719582624391864 ) ) ;
#459 = CARTESIAN_POINT ( 'NONE',  ( 9.114011112430342010, 20.36467381963901602, 37.74315621762573869 ) ) ;
#460 = CARTESIAN_POINT ( 'NONE',  ( 9.040350923766611757, 20.12255645318044017, 39.21635999090050717 ) ) ;
#461 = VERTEX_POINT ( 'NONE', #67 ) ;
#462 = AXIS2_PLACEMENT_3D ( 'NONE', #650, #789, #420 ) ;
#463 = DIRECTION ( 'NONE',  ( 0.000000000000000000, -0.1621719582624312761, 0.9867625124381895763 ) ) ;
#464 = EDGE_CURVE ( 'NONE', #154, #461, #106, .T. ) ;
#465 = CIRCLE ( 'NONE', #39, 0.1399999999999979872 ) ;
#466 = CARTESIAN_POINT ( 'NONE',  ( 8.827556530391651890, 19.40523315517368985, 38.18552665808415725 ) ) ;
#467 = APPLICATION_CONTEXT ( 'automotive_design' ) ;
#468 = ORIENTED_EDGE ( 'NONE', *, *, #940, .F. ) ;
#469 = PLANE ( 'NONE',  #511 ) ;
#470 = DIRECTION ( 'NONE',  ( -5.360194329858663780E-15, 0.5830735725600579844, 0.8124193553713814353 ) ) ;
#471 = DIRECTION ( 'NONE',  ( 0.9987850922730998615, -0.007991539655993884841, 0.04862586499942291030 ) ) ;
#472 = ORIENTED_EDGE ( 'NONE', *, *, #882, .T. ) ;
#473 = DIRECTION ( 'NONE',  ( 0.000000000000000000, -0.9993908270190957621, 0.03489949670250313413 ) ) ;
#474 = DIRECTION ( 'NONE',  ( -1.000000000000000000, -8.667468664096976576E-15, -5.721092766757236120E-15 ) ) ;
#475 = CARTESIAN_POINT ( 'NONE',  ( 8.587961829036158790, 20.27751559659678904, 37.48396076519651388 ) ) ;
#476 = EDGE_CURVE ( 'NONE', #423, #271, #322, .T. ) ;
#477 = ORIENTED_EDGE ( 'NONE', *, *, #276, .F. ) ;
#478 = LINE ( 'NONE', #762, #745 ) ;
#479 = DIRECTION ( 'NONE',  ( 0.000000000000000000, 0.1621719582624391864, -0.9867625124381882440 ) ) ;
#480 = VECTOR ( 'NONE', #587, 39.37007874015748143 ) ;
#481 = DIRECTION ( 'NONE',  ( 0.04862741781209426600, 0.000000000000000000, -0.9988169873590097003 ) ) ;
#482 = VECTOR ( 'NONE', #79, 39.37007874015748143 ) ;
#483 = AXIS2_PLACEMENT_3D ( 'NONE', #533, #156, #689 ) ;
#484 = FACE_OUTER_BOUND ( 'NONE', #172, .T. ) ;
#485 = PRODUCT ( 'module top plate block 2', 'module top plate block 2', '', ( #177 ) ) ;
#486 = DIRECTION ( 'NONE',  ( -0.000000000000000000, 0.9867625124381936841, 0.1621719582624066847 ) ) ;
#487 =( BOUNDED_CURVE ( )  B_SPLINE_CURVE ( 3, ( #954, #721, #875, #813 ),
 .UNSPECIFIED., .F., .T. ) 
 B_SPLINE_CURVE_WITH_KNOTS ( ( 4, 4 ),
 ( 0.1190930431992271860, 1.000000000000000000 ),
 .UNSPECIFIED. ) 
 CURVE ( )  GEOMETRIC_REPRESENTATION_ITEM ( )  RATIONAL_B_SPLINE_CURVE ( ( 0.8160917736378827669, 0.4239506322669632787, 0.4852533743876690231, 1.000000000000000000 ) ) 
 REPRESENTATION_ITEM ( '' )  );
#488 = DIRECTION ( 'NONE',  ( 0.9987850922730998615, -0.007991539655959459254, 0.04862586499942856549 ) ) ;
#489 = ORIENTED_EDGE ( 'NONE', *, *, #204, .F. ) ;
#490 = DIRECTION ( 'NONE',  ( 1.000000000000000000, 9.663174317453045428E-15, -3.374454828983753642E-16 ) ) ;
#491 =( BOUNDED_CURVE ( )  B_SPLINE_CURVE ( 3, ( #382, #12, #891, #785 ),
 .UNSPECIFIED., .F., .T. ) 
 B_SPLINE_CURVE_WITH_KNOTS ( ( 4, 4 ),
 ( 1.570796326795301345, 2.112680336046804275 ),
 .UNSPECIFIED. ) 
 CURVE ( )  GEOMETRIC_REPRESENTATION_ITEM ( )  RATIONAL_B_SPLINE_CURVE ( ( 1.000000000000000000, 0.9756794710292600037, 0.9756794710292600037, 1.000000000000000000 ) ) 
 REPRESENTATION_ITEM ( '' )  );
#492 = DIRECTION ( 'NONE',  ( 2.437209406461641840E-15, -0.7313537016191710149, 0.6819983600624979214 ) ) ;
#493 = CARTESIAN_POINT ( 'NONE',  ( 9.016930067940810645, 20.40802093448933974, 37.47940341837418998 ) ) ;
#494 = CARTESIAN_POINT ( 'NONE',  ( 7.305707624396210242, 20.24584897623260460, 38.46616593081375157 ) ) ;
#495 = AXIS2_PLACEMENT_3D ( 'NONE', #426, #725, #38 ) ;
#496 = VERTEX_POINT ( 'NONE', #912 ) ;
#497 = CIRCLE ( 'NONE', #609, 0.1244999999999983620 ) ;
#498 = VECTOR ( 'NONE', #95, 39.37007874015748854 ) ;
#499 = VERTEX_POINT ( 'NONE', #765 ) ;
#500 = DIRECTION ( 'NONE',  ( 1.000000000000000000, -4.029124601646332596E-14, 4.011416776785078436E-15 ) ) ;
#501 = LINE ( 'NONE', #48, #383 ) ;
#502 = VERTEX_POINT ( 'NONE', #306 ) ;
#503 = CARTESIAN_POINT ( 'NONE',  ( 7.342711218612744339, 20.36747794492356789, 37.72609404648382991 ) ) ;
#504 = FACE_BOUND ( 'NONE', #24, .T. ) ;
#505 = ORIENTED_EDGE ( 'NONE', *, *, #737, .T. ) ;
#506 = EDGE_CURVE ( 'NONE', #554, #811, #454, .T. ) ;
#507 = EDGE_LOOP ( 'NONE', ( #515, #798, #842, #435, #472, #951 ) ) ;
#508 = CARTESIAN_POINT ( 'NONE',  ( 8.864800627202027883, 20.40802093448915144, 37.47940341837453104 ) ) ;
#509 = DIRECTION ( 'NONE',  ( -0.000000000000000000, 0.9867625124381883550, 0.1621719582624391864 ) ) ;
#510 = EDGE_LOOP ( 'NONE', ( #88, #374, #99, #724, #489 ) ) ;
#511 = AXIS2_PLACEMENT_3D ( 'NONE', #555, #32, #473 ) ;
#512 = ORIENTED_EDGE ( 'NONE', *, *, #739, .F. ) ;
#513 = CARTESIAN_POINT ( 'NONE',  ( 8.785683637270951252, 19.32692276096821260, 39.42650200228063539 ) ) ;
#514 = FACE_OUTER_BOUND ( 'NONE', #866, .T. ) ;
#515 = ORIENTED_EDGE ( 'NONE', *, *, #222, .T. ) ;
#516 = UNCERTAINTY_MEASURE_WITH_UNIT (LENGTH_MEASURE( 1.000000000000000082E-05 ), #19, 'distance_accuracy_value', 'NONE');
#517 = EDGE_LOOP ( 'NONE', ( #586, #386 ) ) ;
#518 = CARTESIAN_POINT ( 'NONE',  ( 7.625441003939635642, 19.81476946067789768, 37.57901843620548021 ) ) ;
#519 = EDGE_CURVE ( 'NONE', #55, #147, #833, .T. ) ;
#520 = DIRECTION ( 'NONE',  ( -0.04927818435185519347, -0.1619749342972602035, 0.9855636870372117553 ) ) ;
#521 = VERTEX_POINT ( 'NONE', #161 ) ;
#522 = ORIENTED_EDGE ( 'NONE', *, *, #424, .T. ) ;
#523 = DIRECTION ( 'NONE',  ( 1.000000000000000000, 9.663174317453043851E-15, -3.374454828983754135E-16 ) ) ;
#524 = LINE ( 'NONE', #78, #779 ) ;
#525 = EDGE_CURVE ( 'NONE', #811, #323, #491, .T. ) ;
#526 = CARTESIAN_POINT ( 'NONE',  ( 7.342711218612744339, 20.36747794492356789, 37.72609404648382991 ) ) ;
#527 = CONICAL_SURFACE ( 'NONE', #102, 0.1399999999999979872, 0.04130981886462768010 ) ;
#528 =( BOUNDED_CURVE ( )  B_SPLINE_CURVE ( 3, ( #129, #812, #493, #508 ),
 .UNSPECIFIED., .F., .T. ) 
 B_SPLINE_CURVE_WITH_KNOTS ( ( 4, 4 ),
 ( 4.712388980381181369, 6.331521469685055692 ),
 .UNSPECIFIED. ) 
 CURVE ( )  GEOMETRIC_REPRESENTATION_ITEM ( )  RATIONAL_B_SPLINE_CURVE ( ( 1.000000000000000000, 0.7932083543432795203, 0.7932083543432795203, 1.000000000000000000 ) ) 
 REPRESENTATION_ITEM ( '' )  );
#529 = VERTEX_POINT ( 'NONE', #459 ) ;
#530 = AXIS2_PLACEMENT_3D ( 'NONE', #187, #706, #246 ) ;
#531 = FACE_OUTER_BOUND ( 'NONE', #819, .T. ) ;
#532 = CONICAL_SURFACE ( 'NONE', #825, 0.1399999999999979872, 0.04130981886462768010 ) ;
#533 = CARTESIAN_POINT ( 'NONE',  ( 8.827556530391651890, 20.24584897623361712, 38.46616593081392210 ) ) ;
#534 = DIRECTION ( 'NONE',  ( 0.000000000000000000, 0.03489949670545636901, 0.9993908270189925114 ) ) ;
#535 = EDGE_CURVE ( 'NONE', #521, #496, #174, .T. ) ;
#536 = VERTEX_POINT ( 'NONE', #182 ) ;
#537 = DIRECTION ( 'NONE',  ( -9.480533972849696443E-15, 0.9867625124381882440, 0.1621719582624392975 ) ) ;
#538 = DIRECTION ( 'NONE',  ( 0.000000000000000000, -0.1621719582624442935, 0.9867625124381874668 ) ) ;
#539 = DIRECTION ( 'NONE',  ( -0.04862741781209452968, 0.000000000000000000, 0.9988169873590094783 ) ) ;
#540 = ADVANCED_FACE ( 'NONE', ( #625 ), #527, .F. ) ;
#541 = ORIENTED_EDGE ( 'NONE', *, *, #98, .T. ) ;
#542 = DIRECTION ( 'NONE',  ( -0.04927818435185518653, -0.1619749342972601758, 0.9855636870372115332 ) ) ;
#543 = CARTESIAN_POINT ( 'NONE',  ( 7.104741653633486642, 20.40802093448913368, 37.47940341837448841 ) ) ;
#544 = CYLINDRICAL_SURFACE ( 'NONE', #963, 0.1405999999999990591 ) ;
#545 = ORIENTED_EDGE ( 'NONE', *, *, #634, .T. ) ;
#546 = CARTESIAN_POINT ( 'NONE',  ( 8.857694239363810951, 19.67550773590466662, 37.50498334293196478 ) ) ;
#547 = VECTOR ( 'NONE', #212, 39.37007874015748854 ) ;
#548 = LINE ( 'NONE', #260, #730 ) ;
#549 = DIRECTION ( 'NONE',  ( -0.000000000000000000, 0.9867625124381936841, 0.1621719582624066847 ) ) ;
#550 = ORIENTED_EDGE ( 'NONE', *, *, #286, .T. ) ;
#551 = EDGE_CURVE ( 'NONE', #496, #731, #178, .T. ) ;
#552 = LINE ( 'NONE', #256, #54 ) ;
#553 = CARTESIAN_POINT ( 'NONE',  ( 8.618519658229539360, 19.67550773590465951, 37.50498334293196478 ) ) ;
#554 = VERTEX_POINT ( 'NONE', #777 ) ;
#555 = CARTESIAN_POINT ( 'NONE',  ( -3.241174637715560666E-33, 1.332071966896180015, 38.14555023510823162 ) ) ;
#556 = CARTESIAN_POINT ( 'NONE',  ( 8.864560124608534153, 19.99744200275926431, 37.66527956213542438 ) ) ;
#557 = CARTESIAN_POINT ( 'NONE',  ( 7.092394217044401650, 19.75070895593662001, 37.62499467631876371 ) ) ;
#558 = PRODUCT_RELATED_PRODUCT_CATEGORY ( 'part', '', ( #485 ) ) ;
#559 = LINE ( 'NONE', #769, #690 ) ;
#560 = FACE_OUTER_BOUND ( 'NONE', #939, .T. ) ;
#561 = AXIS2_PLACEMENT_3D ( 'NONE', #442, #818, #822 ) ;
#562 = ORIENTED_EDGE ( 'NONE', *, *, #525, .F. ) ;
#563 = DIRECTION ( 'NONE',  ( 0.000000000000000000, -0.1621719582624416567, 0.9867625124381879109 ) ) ;
#564 = CARTESIAN_POINT ( 'NONE',  ( 7.002884294467322412, 19.57883079250103364, 39.43529882458287261 ) ) ;
#565 = EDGE_CURVE ( 'NONE', #461, #154, #465, .T. ) ;
#566 = EDGE_CURVE ( 'NONE', #910, #872, #552, .T. ) ;
#567 = EDGE_LOOP ( 'NONE', ( #837, #132, #210, #10 ) ) ;
#568 = DIRECTION ( 'NONE',  ( 1.000000000000000000, 8.667468664096976576E-15, 5.721092766757235331E-15 ) ) ;
#569 = ORIENTED_EDGE ( 'NONE', *, *, #854, .F. ) ;
#570 = ORIENTED_EDGE ( 'NONE', *, *, #286, .F. ) ;
#571 = LINE ( 'NONE', #867, #480 ) ;
#572 = FACE_BOUND ( 'NONE', #734, .T. ) ;
#573 = AXIS2_PLACEMENT_3D ( 'NONE', #242, #289, #960 ) ;
#574 = EDGE_LOOP ( 'NONE', ( #237, #660, #196, #391 ) ) ;
#575 = CIRCLE ( 'NONE', #170, 0.1244999999999983620 ) ;
#576 = VECTOR ( 'NONE', #231, 39.37007874015748143 ) ;
#577 = EDGE_LOOP ( 'NONE', ( #64, #618, #445, #254 ) ) ;
#578 = ADVANCED_FACE ( 'NONE', ( #406, #619 ), #855, .F. ) ;
#579 = CARTESIAN_POINT ( 'NONE',  ( 8.017137132636944941, 20.43340191204101686, 37.47851709510796780 ) ) ;
#580 = EDGE_LOOP ( 'NONE', ( #941, #207, #699, #44 ) ) ;
#581 = ORIENTED_EDGE ( 'NONE', *, *, #786, .T. ) ;
#582 = LINE ( 'NONE', #879, #547 ) ;
#583 = CARTESIAN_POINT ( 'NONE',  ( 8.864560124608534153, 19.99744200275926431, 37.66527956213542438 ) ) ;
#584 = ORIENTED_EDGE ( 'NONE', *, *, #909, .F. ) ;
#585 = EDGE_CURVE ( 'NONE', #344, #147, #592, .T. ) ;
#586 = ORIENTED_EDGE ( 'NONE', *, *, #166, .T. ) ;
#587 = DIRECTION ( 'NONE',  ( -1.000000000000000000, -1.243694209333028687E-14, 4.343075880234282827E-16 ) ) ;
#588 = LINE ( 'NONE', #122, #843 ) ;
#589 = ORIENTED_EDGE ( 'NONE', *, *, #50, .F. ) ;
#590 = CONICAL_SURFACE ( 'NONE', #807, 0.1399999999999979872, 0.04130981886462768010 ) ;
#591 = ADVANCED_FACE ( 'NONE', ( #636 ), #115, .F. ) ;
#592 = CIRCLE ( 'NONE', #291, 0.1405999999999990591 ) ;
#593 = EDGE_LOOP ( 'NONE', ( #570, #76, #788, #468 ) ) ;
#594 = CARTESIAN_POINT ( 'NONE',  ( 7.729247428494523398, 20.14734598073428629, 35.21159009452323829 ) ) ;
#595 = DIRECTION ( 'NONE',  ( -0.000000000000000000, 0.9867625124381936841, 0.1621719582624066847 ) ) ;
#596 = VERTEX_POINT ( 'NONE', #933 ) ;
#597 = VERTEX_POINT ( 'NONE', #708 ) ;
#598 = CARTESIAN_POINT ( 'NONE',  ( 7.342711218612744339, 20.39018201908030647, 37.58794729474248442 ) ) ;
#599 = EDGE_CURVE ( 'NONE', #680, #872, #171, .T. ) ;
#600 = CARTESIAN_POINT ( 'NONE',  ( -11480.28111349557912, 20.08367701782298909, 39.45292844324612958 ) ) ;
#601 = DIRECTION ( 'NONE',  ( 0.000000000000000000, -0.1621719582624454037, 0.9867625124381872448 ) ) ;
#602 = ORIENTED_EDGE ( 'NONE', *, *, #551, .F. ) ;
#603 = CARTESIAN_POINT ( 'NONE',  ( 9.040350923766611757, 20.12255645318044017, 39.21635999090050717 ) ) ;
#604 = CARTESIAN_POINT ( 'NONE',  ( 8.223090856831502649, 20.02004929678739842, 35.21536137336890704 ) ) ;
#605 = CYLINDRICAL_SURFACE ( 'NONE', #701, 0.2499999999994975686 ) ;
#606 = CIRCLE ( 'NONE', #150, 0.1399999999999979872 ) ;
#607 = ORIENTED_EDGE ( 'NONE', *, *, #506, .F. ) ;
#608 = LINE ( 'NONE', #736, #727 ) ;
#609 = AXIS2_PLACEMENT_3D ( 'NONE', #792, #351, #43 ) ;
#610 = CARTESIAN_POINT ( 'NONE',  ( 8.864560124608534153, 20.36747794492358565, 37.72609404648383702 ) ) ;
#611 = VECTOR ( 'NONE', #700, 39.37007874015748143 ) ;
#612 = ADVANCED_FACE ( 'NONE', ( #30 ), #329, .F. ) ;
#613 = CARTESIAN_POINT ( 'NONE',  ( 8.931285850168439566, 20.08367701796222349, 39.45292844325376791 ) ) ;
#614 = ORIENTED_EDGE ( 'NONE', *, *, #566, .F. ) ;
#615 = CARTESIAN_POINT ( 'NONE',  ( 7.268704030179842235, 20.12422000752978946, 39.20623781514184003 ) ) ;
#616 = DIRECTION ( 'NONE',  ( 0.000000000000000000, -0.1621719582624312761, 0.9867625124381895763 ) ) ;
#617 = CARTESIAN_POINT ( 'NONE',  ( 7.568475789385287200, 19.57883079250494518, 39.43529882458305735 ) ) ;
#618 = ORIENTED_EDGE ( 'NONE', *, *, #443, .F. ) ;
#619 = FACE_OUTER_BOUND ( 'NONE', #117, .T. ) ;
#620 = DIRECTION ( 'NONE',  ( -0.000000000000000000, 0.9867625124381883550, 0.1621719582624391864 ) ) ;
#621 = EDGE_CURVE ( 'NONE', #746, #423, #915, .T. ) ;
#622 = ORIENTED_EDGE ( 'NONE', *, *, #476, .F. ) ;
#623 = SHAPE_DEFINITION_REPRESENTATION ( #90, #834 ) ;
#624 = VECTOR ( 'NONE', #238, 39.37007874015748854 ) ;
#625 = FACE_OUTER_BOUND ( 'NONE', #577, .T. ) ;
#626 = AXIS2_PLACEMENT_3D ( 'NONE', #494, #716, #343 ) ;
#627 = DIRECTION ( 'NONE',  ( -0.04927818435185518653, -0.1619749342972601758, 0.9855636870372115332 ) ) ;
#628 = VERTEX_POINT ( 'NONE', #697 ) ;
#629 = SURFACE_STYLE_FILL_AREA ( #110 ) ;
#630 = EDGE_CURVE ( 'NONE', #958, #344, #928, .T. ) ;
#631 = CARTESIAN_POINT ( 'NONE',  ( 8.827556530391651890, 20.26865035356531308, 38.32742712156510834 ) ) ;
#632 = CARTESIAN_POINT ( 'NONE',  ( 7.268704030179842235, 20.12422000752978946, 39.20623781514184003 ) ) ;
#633 = CARTESIAN_POINT ( 'NONE',  ( -11480.07014618088579, 19.49589276232395818, 37.63389305387985928 ) ) ;
#634 = EDGE_CURVE ( 'NONE', #529, #815, #548, .T. ) ;
#635 = LINE ( 'NONE', #404, #365 ) ;
#636 = FACE_OUTER_BOUND ( 'NONE', #643, .T. ) ;
#637 = CARTESIAN_POINT ( 'NONE',  ( -145.8963591888857252, -15750.65996868577895, 588.2172333226193359 ) ) ;
#638 = CLOSED_SHELL ( 'NONE', ( #823, #123, #191, #158, #109, #456, #361, #340, #185, #925, #71, #152, #578, #390, #947, #103, #324, #612, #750, #215, #192, #381, #45, #591, #328, #233, #540, #663, #935, #930, #114 ) ) ;
#639 = EDGE_CURVE ( 'NONE', #323, #521, #559, .T. ) ;
#640 = ORIENTED_EDGE ( 'NONE', *, *, #262, .F. ) ;
#641 = DIRECTION ( 'NONE',  ( 0.000000000000000000, -0.1621719582624442935, 0.9867625124381874668 ) ) ;
#642 = DIRECTION ( 'NONE',  ( 1.000000000000000000, -4.029124601646332596E-14, 4.011416776785077647E-15 ) ) ;
#643 = EDGE_LOOP ( 'NONE', ( #80, #550 ) ) ;
#644 = ORIENTED_EDGE ( 'NONE', *, *, #6, .F. ) ;
#645 =( LENGTH_UNIT ( ) NAMED_UNIT ( * ) SI_UNIT ( $, .METRE. ) );
#646 = CARTESIAN_POINT ( 'NONE',  ( 7.342711218612744339, 20.39018201908030647, 37.58794729474248442 ) ) ;
#647 = EDGE_LOOP ( 'NONE', ( #918, #914, #956, #113 ) ) ;
#648 = EDGE_CURVE ( 'NONE', #597, #37, #100, .T. ) ;
#649 = ORIENTED_EDGE ( 'NONE', *, *, #803, .T. ) ;
#650 = CARTESIAN_POINT ( 'NONE',  ( 7.268704030179842235, 20.12422000752978946, 39.20623781514184003 ) ) ;
#651 = MANIFOLD_SOLID_BREP ( 'Hole1', #638 ) ;
#652 = CARTESIAN_POINT ( 'NONE',  ( 8.078804070036708751, 19.83791160398234510, 39.44434612588038647 ) ) ;
#653 = VECTOR ( 'NONE', #77, 39.37007874015748143 ) ;
#654 = VERTEX_POINT ( 'NONE', #208 ) ;
#655 = CONICAL_SURFACE ( 'NONE', #932, 0.1399999999999979872, 0.04130981886462768010 ) ;
#656 = AXIS2_PLACEMENT_3D ( 'NONE', #886, #957, #130 ) ;
#657 = ORIENTED_EDGE ( 'NONE', *, *, #50, .T. ) ;
#658 = EDGE_CURVE ( 'NONE', #241, #46, #319, .T. ) ;
#659 = CARTESIAN_POINT ( 'NONE',  ( 8.864560124608534153, 20.34477387076684352, 37.86424079822518252 ) ) ;
#660 = ORIENTED_EDGE ( 'NONE', *, *, #876, .T. ) ;
#661 = DIRECTION ( 'NONE',  ( -0.000000000000000000, 0.9867625124381883550, 0.1621719582624391864 ) ) ;
#662 = PLANE ( 'NONE',  #656 ) ;
#663 = ADVANCED_FACE ( 'NONE', ( #139 ), #52, .F. ) ;
#664 = ORIENTED_EDGE ( 'NONE', *, *, #718, .F. ) ;
#665 = ORIENTED_EDGE ( 'NONE', *, *, #739, .T. ) ;
#666 = CARTESIAN_POINT ( 'NONE',  ( 8.870801422100056399, 19.32692276096607742, 39.42650200228059987 ) ) ;
#667 = CARTESIAN_POINT ( 'NONE',  ( -3.424312498891846079, 255.4507775603896675, 292.3769941110705304 ) ) ;
#668 = EDGE_LOOP ( 'NONE', ( #14, #283, #125, #378 ) ) ;
#669 = VECTOR ( 'NONE', #523, 39.37007874015748143 ) ;
#670 = CIRCLE ( 'NONE', #856, 0.1406000000000001138 ) ;
#671 = CONICAL_SURFACE ( 'NONE', #857, 0.1399999999999979872, 0.04130981886462768010 ) ;
#672 = ORIENTED_EDGE ( 'NONE', *, *, #355, .F. ) ;
#673 = CARTESIAN_POINT ( 'NONE',  ( 7.305707624396210242, 20.26865035356429701, 38.32742712156493781 ) ) ;
#674 = DIRECTION ( 'NONE',  ( -0.000000000000000000, 0.9867625124381936841, 0.1621719582624066847 ) ) ;
#675 = CARTESIAN_POINT ( 'NONE',  ( 7.342711218612744339, 19.99744200275924655, 37.66527956213541017 ) ) ;
#676 = ORIENTED_EDGE ( 'NONE', *, *, #13, .T. ) ;
#677 = CARTESIAN_POINT ( 'NONE',  ( 7.685433415976186566, 19.93032392941225694, 37.49608496537572222 ) ) ;
#678 = DIRECTION ( 'NONE',  ( -0.000000000000000000, 0.9867625124381883550, 0.1621719582624391864 ) ) ;
#679 = CARTESIAN_POINT ( 'NONE',  ( 9.033353660216736358, 20.09955679687262986, 39.35630526189441269 ) ) ;
#680 = VERTEX_POINT ( 'NONE', #272 ) ;
#681 = DIRECTION ( 'NONE',  ( -1.000000000000000000, -9.663174317453045428E-15, 3.374454828983754135E-16 ) ) ;
#682 = EDGE_CURVE ( 'NONE', #892, #439, #571, .T. ) ;
#683 = FACE_OUTER_BOUND ( 'NONE', #715, .T. ) ;
#684 = DIRECTION ( 'NONE',  ( -0.000000000000000000, 0.9867625124381936841, 0.1621719582624066847 ) ) ;
#685 = PRODUCT_DEFINITION_CONTEXT ( 'detailed design', #395, 'design' ) ;
#686 = AXIS2_PLACEMENT_3D ( 'NONE', #57, #661, #863 ) ;
#687 = ORIENTED_EDGE ( 'NONE', *, *, #128, .T. ) ;
#688 = CARTESIAN_POINT ( 'NONE',  ( -11480.07014618088579, 19.49589276232395818, 37.63389305387985928 ) ) ;
#689 = DIRECTION ( 'NONE',  ( 0.000000000000000000, -0.1621719582623988853, 0.9867625124381949053 ) ) ;
#690 = VECTOR ( 'NONE', #474, 39.37007874015748143 ) ;
#691 = DIRECTION ( 'NONE',  ( 0.009695013075862297935, 0.9993438579051867610, -0.03489785650490308949 ) ) ;
#692 = EDGE_LOOP ( 'NONE', ( #614, #42, #676, #802 ) ) ;
#693 = CARTESIAN_POINT ( 'NONE',  ( 8.790552936175634713, 19.75418406536548588, 39.14542333079342740 ) ) ;
#694 = FACE_OUTER_BOUND ( 'NONE', #692, .T. ) ;
#695 = EDGE_CURVE ( 'NONE', #55, #958, #446, .T. ) ;
#696 = ORIENTED_EDGE ( 'NONE', *, *, #882, .F. ) ;
#697 = CARTESIAN_POINT ( 'NONE',  ( 7.268704030179842235, 20.14692408168652804, 39.06809106340050164 ) ) ;
#698 = DIRECTION ( 'NONE',  ( 0.000000000000000000, 0.1621719582624391864, -0.9867625124381882440 ) ) ;
#699 = ORIENTED_EDGE ( 'NONE', *, *, #775, .T. ) ;
#700 = DIRECTION ( 'NONE',  ( -0.000000000000000000, 0.9867625124381936841, 0.1621719582624066847 ) ) ;
#701 = AXIS2_PLACEMENT_3D ( 'NONE', #235, #691, #534 ) ;
#702 = CARTESIAN_POINT ( 'NONE',  ( 8.523152383298018719, 19.32795292335604742, 39.42653797634395119 ) ) ;
#703 = PLANE ( 'NONE',  #530 ) ;
#704 = DIRECTION ( 'NONE',  ( 1.000000000000000000, 8.667468664096976576E-15, 5.721092766757235331E-15 ) ) ;
#705 = CARTESIAN_POINT ( 'NONE',  ( -11480.07014618011635, 19.47201527144003919, 39.32075320150563158 ) ) ;
#706 = DIRECTION ( 'NONE',  ( 0.000000000000000000, -0.9867625124381882440, -0.1621719582624391864 ) ) ;
#707 = EDGE_CURVE ( 'NONE', #41, #746, #917, .T. ) ;
#708 = CARTESIAN_POINT ( 'NONE',  ( 7.268704030179842235, 19.73399365656179327, 39.26827526359198117 ) ) ;
#709 = PLANE ( 'NONE',  #25 ) ;
#710 = EDGE_LOOP ( 'NONE', ( #814, #440 ) ) ;
#711 = DIRECTION ( 'NONE',  ( -0.000000000000000000, 0.9867625124381883550, 0.1621719582624391864 ) ) ;
#712 = DIRECTION ( 'NONE',  ( 0.04862741781208861774, 0.000000000000000000, -0.9988169873590099224 ) ) ;
#713 = VECTOR ( 'NONE', #243, 39.37007874015748854 ) ;
#714 = COLOUR_RGB ( '',0.7921568627450980005, 0.8196078431372548767, 0.9333333333333333481 ) ;
#715 = EDGE_LOOP ( 'NONE', ( #640, #137, #434, #477, #541, #298, #214 ) ) ;
#716 = DIRECTION ( 'NONE',  ( -0.000000000000000000, 0.9867625124381936841, 0.1621719582624066847 ) ) ;
#717 = LINE ( 'NONE', #722, #729 ) ;
#718 = EDGE_CURVE ( 'NONE', #159, #360, #363, .T. ) ;
#719 = ORIENTED_EDGE ( 'NONE', *, *, #355, .T. ) ;
#720 = PLANE ( 'NONE',  #495 ) ;
#721 = CARTESIAN_POINT ( 'NONE',  ( 7.915029345622746071, 20.19534296056113121, 39.45682790389259509 ) ) ;
#722 = CARTESIAN_POINT ( 'NONE',  ( -5.354396023988567066, -305.7335434590490308, 271.0511399788551330 ) ) ;
#723 = PRODUCT_DEFINITION ( 'UNKNOWN', '', #85, #685 ) ;
#724 = ORIENTED_EDGE ( 'NONE', *, *, #737, .F. ) ;
#725 = DIRECTION ( 'NONE',  ( 2.211088596472622482E-14, 0.5830735725600618702, 0.8124193553713786597 ) ) ;
#726 = DIRECTION ( 'NONE',  ( 0.000000000000000000, -0.1621719582624454037, 0.9867625124381872448 ) ) ;
#727 = VECTOR ( 'NONE', #681, 39.37007874015748143 ) ;
#728 = ORIENTED_EDGE ( 'NONE', *, *, #791, .F. ) ;
#729 = VECTOR ( 'NONE', #427, 39.37007874015748143 ) ;
#730 = VECTOR ( 'NONE', #846, 39.37007874015748854 ) ;
#731 = VERTEX_POINT ( 'NONE', #513 ) ;
#732 = CARTESIAN_POINT ( 'NONE',  ( 7.268704030179842235, 19.75418406536546811, 39.14542333079342740 ) ) ;
#733 = FACE_OUTER_BOUND ( 'NONE', #396, .T. ) ;
#734 = EDGE_LOOP ( 'NONE', ( #884, #794 ) ) ;
#735 = ORIENTED_EDGE ( 'NONE', *, *, #535, .T. ) ;
#736 = CARTESIAN_POINT ( 'NONE',  ( -1.774719738211906638E-13, 19.67550773590457780, 37.50498334293197189 ) ) ;
#737 = EDGE_CURVE ( 'NONE', #529, #892, #528, .T. ) ;
#738 = DIRECTION ( 'NONE',  ( -1.000000000000000000, 3.986074613009556874E-14, -1.391967927378229059E-15 ) ) ;
#739 = EDGE_CURVE ( 'NONE', #628, #37, #931, .T. ) ;
#740 = ORIENTED_EDGE ( 'NONE', *, *, #682, .T. ) ;
#741 = EDGE_LOOP ( 'NONE', ( #199, #877, #665, #4 ) ) ;
#742 = CARTESIAN_POINT ( 'NONE',  ( 7.002097131485597536, 19.47201527097720941, 39.32075320155171028 ) ) ;
#743 = DIRECTION ( 'NONE',  ( -0.03486611143714508226, -0.8119253981476381998, 0.5827190593382470807 ) ) ;
#744 = CARTESIAN_POINT ( 'NONE',  ( 7.100107334154676764, 19.93032392940981268, 37.49608496537583591 ) ) ;
#745 = VECTOR ( 'NONE', #173, 39.37007874015748143 ) ;
#746 = VERTEX_POINT ( 'NONE', #121 ) ;
#747 = CARTESIAN_POINT ( 'NONE',  ( -11480.07014618011635, 19.75070895640047652, 37.62499467630375705 ) ) ;
#748 = LINE ( 'NONE', #600, #576 ) ;
#749 = CARTESIAN_POINT ( 'NONE',  ( 8.864560124608534153, 19.97725159395558947, 37.78813149493397816 ) ) ;
#750 = ADVANCED_FACE ( 'NONE', ( #796 ), #720, .F. ) ;
#751 = EDGE_LOOP ( 'NONE', ( #888, #827 ) ) ;
#752 = CARTESIAN_POINT ( 'NONE',  ( 8.857694239363810951, 19.67550773590466662, 37.50498334293196478 ) ) ;
#753 = FACE_OUTER_BOUND ( 'NONE', #865, .T. ) ;
#754 = DIRECTION ( 'NONE',  ( 0.000000000000000000, -0.1621719582624454037, 0.9867625124381872448 ) ) ;
#755 = ORIENTED_EDGE ( 'NONE', *, *, #222, .F. ) ;
#756 = PLANE ( 'NONE',  #184 ) ;
#757 = EDGE_CURVE ( 'NONE', #731, #772, #350, .T. ) ;
#758 = CARTESIAN_POINT ( 'NONE',  ( -91.09665281924013414, -15790.47284741708791, -512.6638714828558250 ) ) ;
#759 = CARTESIAN_POINT ( 'NONE',  ( 7.305707624396210242, 20.24584897623260460, 38.46616593081375157 ) ) ;
#760 = ORIENTED_EDGE ( 'NONE', *, *, #197, .T. ) ;
#761 = VECTOR ( 'NONE', #320, 39.37007874015748854 ) ;
#762 = CARTESIAN_POINT ( 'NONE',  ( 8.864560124608534153, 20.34477387076684352, 37.86424079822518252 ) ) ;
#763 = VECTOR ( 'NONE', #743, 39.37007874015748854 ) ;
#764 = EDGE_CURVE ( 'NONE', #425, #230, #582, .T. ) ;
#765 = CARTESIAN_POINT ( 'NONE',  ( 7.685433415976186566, 19.93032392941225694, 37.49608496537572222 ) ) ;
#766 = FACE_OUTER_BOUND ( 'NONE', #741, .T. ) ;
#767 = ORIENTED_EDGE ( 'NONE', *, *, #525, .T. ) ;
#768 = DIMENSIONAL_EXPONENTS ( 1.000000000000000000, 0.000000000000000000, 0.000000000000000000, 0.000000000000000000, 0.000000000000000000, 0.000000000000000000, 0.000000000000000000 ) ;
#769 = CARTESIAN_POINT ( 'NONE',  ( 8.522358729116433551, 19.22010723944043775, 39.31195637924928121 ) ) ;
#770 = LINE ( 'NONE', #326, #290 ) ;
#771 = EDGE_CURVE ( 'NONE', #910, #654, #36, .T. ) ;
#772 = VERTEX_POINT ( 'NONE', #967 ) ;
#773 = DIRECTION ( 'NONE',  ( -0.000000000000000000, 0.9867625124381936841, 0.1621719582624066847 ) ) ;
#774 = CARTESIAN_POINT ( 'NONE',  ( 8.790552936175634713, 19.75418406536548588, 39.14542333079342740 ) ) ;
#775 = EDGE_CURVE ( 'NONE', #147, #344, #348, .T. ) ;
#776 = VERTEX_POINT ( 'NONE', #364 ) ;
#777 = CARTESIAN_POINT ( 'NONE',  ( 9.105358873179220325, 19.47281714237248451, 37.77430053907200858 ) ) ;
#778 = VECTOR ( 'NONE', #797, 39.37007874015748854 ) ;
#779 = VECTOR ( 'NONE', #239, 39.37007874015748854 ) ;
#780 = PLANE ( 'NONE',  #201 ) ;
#781 = CARTESIAN_POINT ( 'NONE',  ( 7.608577199404711777, 19.75070895594256726, 37.62499467631974426 ) ) ;
#782 = DIRECTION ( 'NONE',  ( 0.000000000000000000, -0.1621719582623988853, 0.9867625124381949053 ) ) ;
#783 = CARTESIAN_POINT ( 'NONE',  ( 8.864560124608534153, 20.36747794492358565, 37.72609404648383702 ) ) ;
#784 = EDGE_LOOP ( 'NONE', ( #357, #820 ) ) ;
#785 = CARTESIAN_POINT ( 'NONE',  ( 8.992617146567965847, 19.22010723944125488, 39.31195637924941622 ) ) ;
#786 = EDGE_CURVE ( 'NONE', #37, #628, #841, .T. ) ;
#787 = CARTESIAN_POINT ( 'NONE',  ( 7.217032717038453171, 20.77711605957099650, 35.23358215027910489 ) ) ;
#788 = ORIENTED_EDGE ( 'NONE', *, *, #476, .T. ) ;
#789 = DIRECTION ( 'NONE',  ( -0.000000000000000000, 0.9867625124381883550, 0.1621719582624391864 ) ) ;
#790 = AXIS2_PLACEMENT_3D ( 'NONE', #732, #133, #946 ) ;
#791 = EDGE_CURVE ( 'NONE', #731, #323, #112, .T. ) ;
#792 = CARTESIAN_POINT ( 'NONE',  ( 7.268704030179842235, 19.75418406536546811, 39.14542333079342740 ) ) ;
#793 = AXIS2_PLACEMENT_3D ( 'NONE', #693, #678, #372 ) ;
#794 = ORIENTED_EDGE ( 'NONE', *, *, #464, .F. ) ;
#795 = ORIENTED_EDGE ( 'NONE', *, *, #861, .F. ) ;
#796 = FACE_OUTER_BOUND ( 'NONE', #647, .T. ) ;
#797 = DIRECTION ( 'NONE',  ( -0.03013542484105110122, 0.6816886134213994142, 0.7310215390132216440 ) ) ;
#798 = ORIENTED_EDGE ( 'NONE', *, *, #451, .T. ) ;
#799 = VERTEX_POINT ( 'NONE', #752 ) ;
#800 = LENGTH_MEASURE_WITH_UNIT ( LENGTH_MEASURE( 0.02539999999999999897 ), #645 );
#801 = DIRECTION ( 'NONE',  ( 0.006297178994490288360, 0.9993710116692214873, 0.03489880473523698096 ) ) ;
#802 = ORIENTED_EDGE ( 'NONE', *, *, #599, .T. ) ;
#803 = EDGE_CURVE ( 'NONE', #966, #226, #911, .T. ) ;
#804 = ORIENTED_EDGE ( 'NONE', *, *, #535, .F. ) ;
#805 = SURFACE_SIDE_STYLE ('',( #629 ) ) ;
#806 = CARTESIAN_POINT ( 'NONE',  ( -90.83068041583673846, -15789.91903762442234, -512.8946844047773084 ) ) ;
#807 = AXIS2_PLACEMENT_3D ( 'NONE', #632, #405, #255 ) ;
#808 = ORIENTED_EDGE ( 'NONE', *, *, #707, .F. ) ;
#809 = AXIS2_PLACEMENT_3D ( 'NONE', #248, #897, #444 ) ;
#810 = MECHANICAL_DESIGN_GEOMETRIC_PRESENTATION_REPRESENTATION (  '', ( #264 ), #70 ) ;
#811 = VERTEX_POINT ( 'NONE', #299 ) ;
#812 = CARTESIAN_POINT ( 'NONE',  ( 9.121656854147621729, 20.38980499134815716, 37.59024138329132114 ) ) ;
#813 = CARTESIAN_POINT ( 'NONE',  ( 8.523152383298018719, 19.32795292335604742, 39.42653797634395119 ) ) ;
#814 = ORIENTED_EDGE ( 'NONE', *, *, #140, .T. ) ;
#815 = VERTEX_POINT ( 'NONE', #603 ) ;
#816 = DIRECTION ( 'NONE',  ( -0.04927818435185518653, -0.1619749342972601758, 0.9855636870372115332 ) ) ;
#817 = EDGE_CURVE ( 'NONE', #536, #461, #894, .T. ) ;
#818 = DIRECTION ( 'NONE',  ( -0.000000000000000000, 0.9867625124381883550, 0.1621719582624391864 ) ) ;
#819 = EDGE_LOOP ( 'NONE', ( #312, #862, #687, #1, #767, #893 ) ) ;
#820 = ORIENTED_EDGE ( 'NONE', *, *, #34, .T. ) ;
#821 = CARTESIAN_POINT ( 'NONE',  ( -92.61844137658211196, -15790.46327008955450, -512.6635370352086056 ) ) ;
#822 = DIRECTION ( 'NONE',  ( 0.000000000000000000, -0.1621719582624312761, 0.9867625124381895763 ) ) ;
#823 = ADVANCED_FACE ( 'NONE', ( #309 ), #68, .F. ) ;
#824 = CARTESIAN_POINT ( 'NONE',  ( 9.096052659432974252, 19.48887702633927077, 37.67658147823262027 ) ) ;
#825 = AXIS2_PLACEMENT_3D ( 'NONE', #783, #108, #40 ) ;
#826 = AXIS2_PLACEMENT_3D ( 'NONE', #806, #801, #62 ) ;
#827 = ORIENTED_EDGE ( 'NONE', *, *, #771, .T. ) ;
#828 = CARTESIAN_POINT ( 'NONE',  ( -11480.07014618088579, 19.89543794908778551, 35.20279327221698651 ) ) ;
#829 = CARTESIAN_POINT ( 'NONE',  ( 7.342711218612744339, 20.34477387076682575, 37.86424079822517541 ) ) ;
#830 = DIRECTION ( 'NONE',  ( 0.000000000000000000, -0.1621719582623988853, 0.9867625124381949053 ) ) ;
#831 = ORIENTED_EDGE ( 'NONE', *, *, #630, .T. ) ;
#832 = LINE ( 'NONE', #742, #51 ) ;
#833 = LINE ( 'NONE', #16, #871 ) ;
#834 = ADVANCED_BREP_SHAPE_REPRESENTATION ( 'module top plate block 2', ( #651, #169 ), #868 ) ;
#835 = CARTESIAN_POINT ( 'NONE',  ( 8.790452053555627643, 20.08367701796424498, 39.45292844325106074 ) ) ;
#836 = EDGE_CURVE ( 'NONE', #360, #159, #606, .T. ) ;
#837 = ORIENTED_EDGE ( 'NONE', *, *, #34, .F. ) ;
#838 = LINE ( 'NONE', #688, #669 ) ;
#839 = CYLINDRICAL_SURFACE ( 'NONE', #249, 0.5100000000000008971 ) ;
#840 = DIRECTION ( 'NONE',  ( 0.000000000000000000, -0.1621719582624312761, 0.9867625124381895763 ) ) ;
#841 = CIRCLE ( 'NONE', #411, 0.1399999999999979872 ) ;
#842 = ORIENTED_EDGE ( 'NONE', *, *, #854, .T. ) ;
#843 = VECTOR ( 'NONE', #738, 39.37007874015748143 ) ;
#844 = FACE_OUTER_BOUND ( 'NONE', #955, .T. ) ;
#845 = VECTOR ( 'NONE', #28, 39.37007874015748143 ) ;
#846 = DIRECTION ( 'NONE',  ( -0.04927818435185518653, -0.1619749342972601758, 0.9855636870372115332 ) ) ;
#847 = CARTESIAN_POINT ( 'NONE',  ( 7.268704030179842235, 19.75418406536546811, 39.14542333079342740 ) ) ;
#848 = ORIENTED_EDGE ( 'NONE', *, *, #648, .T. ) ;
#849 = CARTESIAN_POINT ( 'NONE',  ( 8.827556530391651890, 20.22304759890192472, 38.60490474006272876 ) ) ;
#850 = DIRECTION ( 'NONE',  ( -0.000000000000000000, 0.9867625124381883550, 0.1621719582624391864 ) ) ;
#851 = EDGE_LOOP ( 'NONE', ( #452, #180 ) ) ;
#852 = LENGTH_MEASURE_WITH_UNIT ( LENGTH_MEASURE( 0.02539999999999999897 ), #26 );
#853 = DIRECTION ( 'NONE',  ( -9.480533972849698021E-15, 0.9867625124381883550, 0.1621719582624392975 ) ) ;
#854 = EDGE_CURVE ( 'NONE', #250, #776, #61, .T. ) ;
#855 = PLANE ( 'NONE',  #449 ) ;
#856 = AXIS2_PLACEMENT_3D ( 'NONE', #111, #853, #410 ) ;
#857 = AXIS2_PLACEMENT_3D ( 'NONE', #417, #205, #864 ) ;
#858 = FACE_OUTER_BOUND ( 'NONE', #567, .T. ) ;
#859 = DIRECTION ( 'NONE',  ( 0.000000000000000000, -0.9867625124381882440, -0.1621719582624391864 ) ) ;
#860 = CARTESIAN_POINT ( 'NONE',  ( 8.790552936175634713, 20.14692408168654580, 39.06809106340050164 ) ) ;
#861 = EDGE_CURVE ( 'NONE', #303, #285, #838, .T. ) ;
#862 = ORIENTED_EDGE ( 'NONE', *, *, #861, .T. ) ;
#863 = DIRECTION ( 'NONE',  ( 0.000000000000000000, -0.1621719582624454037, 0.9867625124381872448 ) ) ;
#864 = DIRECTION ( 'NONE',  ( 0.000000000000000000, -0.1621719582624312761, 0.9867625124381895763 ) ) ;
#865 = EDGE_LOOP ( 'NONE', ( #308, #430, #831, #143 ) ) ;
#866 = EDGE_LOOP ( 'NONE', ( #696, #275, #936, #245, #72, #352, #142 ) ) ;
#867 = CARTESIAN_POINT ( 'NONE',  ( -11480.07014618092944, 20.40802093434626485, 37.47940341837951905 ) ) ;
#868 =( GEOMETRIC_REPRESENTATION_CONTEXT ( 3 ) GLOBAL_UNCERTAINTY_ASSIGNED_CONTEXT ( ( #516 ) ) GLOBAL_UNIT_ASSIGNED_CONTEXT ( ( #19, #181, #318 ) ) REPRESENTATION_CONTEXT ( 'NONE', 'WORKASPACE' ) );
#869 = FACE_BOUND ( 'NONE', #211, .T. ) ;
#870 = AXIS2_PLACEMENT_3D ( 'NONE', #17, #307, #539 ) ;
#871 = VECTOR ( 'NONE', #595, 39.37007874015748143 ) ;
#872 = VERTEX_POINT ( 'NONE', #673 ) ;
#873 = ORIENTED_EDGE ( 'NONE', *, *, #369, .T. ) ;
#874 = SURFACE_STYLE_USAGE ( .BOTH. , #805 ) ;
#875 = CARTESIAN_POINT ( 'NONE',  ( 8.527041262882393724, 19.94512348916069300, 39.44809004740947955 ) ) ;
#876 = EDGE_CURVE ( 'NONE', #267, #360, #890, .T. ) ;
#877 = ORIENTED_EDGE ( 'NONE', *, *, #394, .T. ) ;
#878 = ORIENTED_EDGE ( 'NONE', *, *, #257, .T. ) ;
#879 = CARTESIAN_POINT ( 'NONE',  ( 8.734119697946594485, 20.02139196496282025, 35.20719168337200244 ) ) ;
#880 = CARTESIAN_POINT ( 'NONE',  ( 8.618647850398460264, 19.66352157932523426, 37.51358581047760765 ) ) ;
#881 = ORIENTED_EDGE ( 'NONE', *, *, #940, .T. ) ;
#882 = EDGE_CURVE ( 'NONE', #241, #370, #11, .T. ) ;
#883 =( BOUNDED_CURVE ( )  B_SPLINE_CURVE ( 3, ( #553, #475, #579, #141 ),
 .UNSPECIFIED., .F., .T. ) 
 B_SPLINE_CURVE_WITH_KNOTS ( ( 4, 4 ),
 ( 1.873363799812406194, 4.369164535906626234 ),
 .UNSPECIFIED. ) 
 CURVE ( )  GEOMETRIC_REPRESENTATION_ITEM ( )  RATIONAL_B_SPLINE_CURVE ( ( 1.000000000000000000, 0.5448761228793456146, 0.5448761228793456146, 1.000000000000000000 ) ) 
 REPRESENTATION_ITEM ( '' )  );
#884 = ORIENTED_EDGE ( 'NONE', *, *, #565, .F. ) ;
#885 =( CONVERSION_BASED_UNIT ( 'INCH', #800 ) LENGTH_UNIT ( ) NAMED_UNIT ( #768 ) );
#886 = CARTESIAN_POINT ( 'NONE',  ( -11480.07014618092944, 20.77711605942976192, 35.23358215027417373 ) ) ;
#887 = VECTOR ( 'NONE', #627, 39.37007874015748854 ) ;
#888 = ORIENTED_EDGE ( 'NONE', *, *, #402, .T. ) ;
#889 = ORIENTED_EDGE ( 'NONE', *, *, #428, .T. ) ;
#890 = LINE ( 'NONE', #598, #624 ) ;
#891 = CARTESIAN_POINT ( 'NONE',  ( 9.018113945381596608, 19.22631560270262696, 39.27418055045905732 ) ) ;
#892 = VERTEX_POINT ( 'NONE', #165 ) ;
#893 = ORIENTED_EDGE ( 'NONE', *, *, #639, .T. ) ;
#894 = LINE ( 'NONE', #155, #653 ) ;
#895 = EDGE_CURVE ( 'NONE', #226, #776, #832, .T. ) ;
#896 = DIRECTION ( 'NONE',  ( -0.000000000000000000, 0.9867625124381883550, 0.1621719582624391864 ) ) ;
#897 = DIRECTION ( 'NONE',  ( -0.000000000000000000, 0.9867625124381883550, 0.1621719582624391864 ) ) ;
#898 = ORIENTED_EDGE ( 'NONE', *, *, #836, .F. ) ;
#899 = FACE_BOUND ( 'NONE', #517, .T. ) ;
#900 = CARTESIAN_POINT ( 'NONE',  ( 8.617938320384919137, 19.63950957127010000, 37.53081923460577229 ) ) ;
#901 = EDGE_CURVE ( 'NONE', #250, #966, #447, .T. ) ;
#902 = LINE ( 'NONE', #368, #713 ) ;
#903 = AXIS2_PLACEMENT_3D ( 'NONE', #389, #240, #601 ) ;
#904 = CIRCLE ( 'NONE', #626, 0.1405999999999990591 ) ;
#905 = ORIENTED_EDGE ( 'NONE', *, *, #281, .T. ) ;
#906 = CARTESIAN_POINT ( 'NONE',  ( 8.945651025542767698, 19.28828668189415296, 39.38506988000582254 ) ) ;
#907 = DIRECTION ( 'NONE',  ( -0.04927818435185518653, -0.1619749342972601758, 0.9855636870372115332 ) ) ;
#908 = FACE_OUTER_BOUND ( 'NONE', #510, .T. ) ;
#909 = EDGE_CURVE ( 'NONE', #799, #502, #608, .T. ) ;
#910 = VERTEX_POINT ( 'NONE', #379 ) ;
#911 = LINE ( 'NONE', #594, #118 ) ;
#912 = CARTESIAN_POINT ( 'NONE',  ( 8.523145892098158427, 19.32692276096580031, 39.42650200228054302 ) ) ;
#913 = DIRECTION ( 'NONE',  ( -0.000000000000000000, 0.9867625124381883550, 0.1621719582624391864 ) ) ;
#914 = ORIENTED_EDGE ( 'NONE', *, *, #281, .F. ) ;
#915 = LINE ( 'NONE', #189, #498 ) ;
#916 = CARTESIAN_POINT ( 'NONE',  ( 7.305707624396210242, 20.24584897623260460, 38.46616593081375157 ) ) ;
#917 = CIRCLE ( 'NONE', #686, 0.1244999999999983620 ) ;
#918 = ORIENTED_EDGE ( 'NONE', *, *, #451, .F. ) ;
#919 = CIRCLE ( 'NONE', #234, 0.1244999999999983620 ) ;
#920 = EDGE_CURVE ( 'NONE', #966, #499, #923, .T. ) ;
#921 = AXIS2_PLACEMENT_3D ( 'NONE', #556, #859, #479 ) ;
#922 = CARTESIAN_POINT ( 'NONE',  ( 8.784896474283836909, 19.32692276096821260, 39.42650200228063539 ) ) ;
#923 =( BOUNDED_CURVE ( )  B_SPLINE_CURVE ( 3, ( #160, #518, #144, #677 ),
 .UNSPECIFIED., .F., .T. ) 
 B_SPLINE_CURVE_WITH_KNOTS ( ( 4, 4 ),
 ( 1.769178787382459594, 2.105876312058738709 ),
 .UNSPECIFIED. ) 
 CURVE ( )  GEOMETRIC_REPRESENTATION_ITEM ( )  RATIONAL_B_SPLINE_CURVE ( ( 1.000000000000000000, 0.9905751889391296583, 0.9905751889391296583, 1.000000000000000000 ) ) 
 REPRESENTATION_ITEM ( '' )  );
#924 = ORIENTED_EDGE ( 'NONE', *, *, #771, .F. ) ;
#925 = ADVANCED_FACE ( 'NONE', ( #899, #531 ), #756, .F. ) ;
#926 = DIRECTION ( 'NONE',  ( 0.000000000000000000, -0.1621719582624312761, 0.9867625124381895763 ) ) ;
#927 = CARTESIAN_POINT ( 'NONE',  ( -90.88568550459156370, -15789.77940837548158, -516.8832177758278021 ) ) ;
#928 = LINE ( 'NONE', #849, #611 ) ;
#929 = PLANE ( 'NONE',  #104 ) ;
#930 = ADVANCED_FACE ( 'NONE', ( #105 ), #703, .F. ) ;
#931 = CIRCLE ( 'NONE', #462, 0.1399999999999979872 ) ;
#932 = AXIS2_PLACEMENT_3D ( 'NONE', #29, #850, #399 ) ;
#933 = CARTESIAN_POINT ( 'NONE',  ( 7.268704030179842235, 19.77437447416914296, 39.02257139799487362 ) ) ;
#934 = DIRECTION ( 'NONE',  ( -0.009695013075863925106, -0.9993438579051866499, 0.03489785650490308255 ) ) ;
#935 = ADVANCED_FACE ( 'NONE', ( #484 ), #590, .F. ) ;
#936 = ORIENTED_EDGE ( 'NONE', *, *, #276, .T. ) ;
#937 = CARTESIAN_POINT ( 'NONE',  ( 8.827556530391651890, 19.38243177784199389, 38.32426546733296391 ) ) ;
#938 = PLANE ( 'NONE',  #86 ) ;
#939 = EDGE_LOOP ( 'NONE', ( #270, #287, #18, #944 ) ) ;
#940 = EDGE_CURVE ( 'NONE', #41, #271, #478, .T. ) ;
#941 = ORIENTED_EDGE ( 'NONE', *, *, #695, .F. ) ;
#942 =( NAMED_UNIT ( * ) PLANE_ANGLE_UNIT ( ) SI_UNIT ( $, .RADIAN. ) );
#943 = CARTESIAN_POINT ( 'NONE',  ( 9.071001107937627594, 19.49589276243166935, 37.63389305387543970 ) ) ;
#944 = ORIENTED_EDGE ( 'NONE', *, *, #895, .F. ) ;
#945 = VECTOR ( 'NONE', #33, 39.37007874015748854 ) ;
#946 = DIRECTION ( 'NONE',  ( 0.000000000000000000, 0.1621719582624391864, -0.9867625124381882440 ) ) ;
#947 = ADVANCED_FACE ( 'NONE', ( #844 ), #469, .F. ) ;
#948 = CARTESIAN_POINT ( 'NONE',  ( 7.342711218612744339, 19.97725159395557171, 37.78813149493396395 ) ) ;
#949 = AXIS2_PLACEMENT_3D ( 'NONE', #916, #684, #455 ) ;
#950 = VECTOR ( 'NONE', #149, 39.37007874015748854 ) ;
#951 = ORIENTED_EDGE ( 'NONE', *, *, #244, .F. ) ;
#952 = ORIENTED_EDGE ( 'NONE', *, *, #424, .F. ) ;
#953 = CARTESIAN_POINT ( 'NONE',  ( 8.790461494116069474, 20.08517524721547787, 39.45298076256942466 ) ) ;
#954 = CARTESIAN_POINT ( 'NONE',  ( 7.568475789385287200, 19.57883079250494518, 39.43529882458305735 ) ) ;
#955 = EDGE_LOOP ( 'NONE', ( #345, #164, #221, #905, #755, #418 ) ) ;
#956 = ORIENTED_EDGE ( 'NONE', *, *, #920, .F. ) ;
#957 = DIRECTION ( 'NONE',  ( 1.220187571502485875E-14, -0.9867625124381882440, -0.1621719582624391587 ) ) ;
#958 = VERTEX_POINT ( 'NONE', #94 ) ;
#959 = EDGE_LOOP ( 'NONE', ( #664, #898 ) ) ;
#960 = DIRECTION ( 'NONE',  ( 0.000000000000000000, -0.1621719582624312761, 0.9867625124381895763 ) ) ;
#961 = CARTESIAN_POINT ( 'NONE',  ( 8.611771054682279214, 19.49589276243269964, 37.63389305387561024 ) ) ;
#962 = VECTOR ( 'NONE', #279, 39.37007874015748143 ) ;
#963 = AXIS2_PLACEMENT_3D ( 'NONE', #759, #549, #830 ) ;
#964 = ORIENTED_EDGE ( 'NONE', *, *, #634, .F. ) ;
#965 = EDGE_CURVE ( 'NONE', #285, #799, #186, .T. ) ;
#966 = VERTEX_POINT ( 'NONE', #781 ) ;
#967 = CARTESIAN_POINT ( 'NONE',  ( 8.790452053555627643, 20.08367701796424498, 39.45292844325106074 ) ) ;
#968 = CARTESIAN_POINT ( 'NONE',  ( -6.871925837629973444, -305.4357157100669156, 271.0113721972851408 ) ) ;
#969 = FACE_OUTER_BOUND ( 'NONE', #292, .T. ) ;
ENDSEC;
END-ISO-10303-21;
